<?xml version="1.0" encoding="UTF-8" standalone="no"?>
<svg
   xmlns:dc="http://purl.org/dc/elements/1.1/"
   xmlns:cc="http://creativecommons.org/ns#"
   xmlns:rdf="http://www.w3.org/1999/02/22-rdf-syntax-ns#"
   xmlns:svg="http://www.w3.org/2000/svg"
   xmlns="http://www.w3.org/2000/svg"
   xmlns:sodipodi="http://sodipodi.sourceforge.net/DTD/sodipodi-0.dtd"
   xmlns:inkscape="http://www.inkscape.org/namespaces/inkscape"
   inkscape:version="1.0.2 (e86c870879, 2021-01-15)"
   sodipodi:docname="system-suspend.svg"
   id="svg5"
   version="1.1"
   viewBox="0 0 32 32">
  <metadata
     id="metadata9">
    <rdf:RDF>
      <cc:Work
         rdf:about="">
        <dc:format>image/svg+xml</dc:format>
        <dc:type
           rdf:resource="http://purl.org/dc/dcmitype/StillImage" />
        <dc:title></dc:title>
      </cc:Work>
    </rdf:RDF>
  </metadata>
  <sodipodi:namedview
     inkscape:document-rotation="0"
     inkscape:current-layer="svg5"
     inkscape:window-maximized="1"
     inkscape:window-y="0"
     inkscape:window-x="0"
     inkscape:cy="17.381293"
     inkscape:cx="32.757638"
     inkscape:zoom="7.0912495"
     showgrid="false"
     id="namedview7"
     inkscape:window-height="1007"
     inkscape:window-width="1920"
     inkscape:pageshadow="2"
     inkscape:pageopacity="0"
     guidetolerance="10"
     gridtolerance="10"
     objecttolerance="10"
     borderopacity="1"
     bordercolor="#000000"
     pagecolor="#ffffff"
     showguides="false"
     inkscape:showpageshadow="false">
    <inkscape:grid
       type="xygrid"
       id="grid885" />
  </sodipodi:namedview>
  <defs
     id="defs3051">
    <style
       id="current-color-scheme"
       type="text/css">
      .ColorScheme-Text {
        color:#eff0f1;
      }
      </style>
  </defs>
  <path
     d="m 4.000301,15.996803 c 0,0 0.01209,-0.274881 0.03437,-0.789936 0.0086,-0.128609 0.0039,-0.273333 0.02634,-0.430142 0.02293,-0.15681 0.04772,-0.328185 0.07469,-0.513506 0.03008,-0.1847 0.04926,-0.385827 0.09389,-0.595629 0.05019,-0.208873 0.103501,-0.430762 0.15991,-0.665047 C 4.634323,12.07377 5.023865,10.949451 5.738809,9.7947597 6.446624,8.642549 7.440163,7.434246 8.800629,6.4075453 c 1.36078,-1.0127559 3.082585,-1.8439092 5.062231,-2.2182695 0.245751,-0.055164 0.498625,-0.067243 0.751813,-0.1025749 l 0.382736,-0.044625 0.192752,-0.022005 0.222204,-0.00438 c 0.493046,-0.00275 0.95263,-0.045867 1.528738,0.023861 0.273645,0.027886 0.563397,0.038428 0.832395,0.085845 0.26837,0.050515 0.537984,0.1013318 0.809147,0.1521613 0.275502,0.040914 0.53706,0.134497 0.807294,0.2098029 l 0.404418,0.1211715 c 0.136667,0.037187 0.269615,0.085224 0.399152,0.1422441 1.069778,0.3883054 2.081606,0.9768068 3.03734,1.6747035 0.229636,0.185941 0.458655,0.3755998 0.686431,0.5689777 0.235521,0.1856305 0.428277,0.4165063 0.644904,0.6253797 l 0.316719,0.3232263 c 0.103795,0.1097044 0.193688,0.2314958 0.2913,0.3473996 0.189976,0.2361433 0.385523,0.4704288 0.562166,0.718969 0.707504,0.9975705 1.256646,2.1178615 1.651463,3.2988935 0.386747,1.187849 0.543565,2.440468 0.581365,3.688437 l -0.01237,0.28449 -0.01177,0.205775 -0.02359,0.411858 -0.01176,0.205773 c -0.0028,0.06631 -0.0068,0.136356 -0.02198,0.223438 l -0.0728,0.492123 -0.07715,0.491193 -0.04035,0.244822 -0.05794,0.227467 c -0.07686,0.302771 -0.163937,0.602442 -0.247288,0.902115 -0.396679,1.18073 -0.941485,2.303494 -1.650224,3.301064 -0.175717,0.249162 -0.374057,0.481899 -0.560613,0.720521 -0.09766,0.115903 -0.187798,0.238006 -0.291617,0.347705 l -0.317028,0.323538 c -0.216936,0.209183 -0.409688,0.440061 -0.64553,0.625689 -0.229318,0.190591 -0.458022,0.380867 -0.685802,0.570526 -0.957289,0.697286 -1.96849,1.288257 -3.039514,1.676255 -1.067295,0.383967 -2.154736,0.646146 -3.229469,0.708433 -0.533033,0.06753 -1.065129,0.03097 -1.583284,0.02725 l -0.232116,-0.0056 -0.180051,-0.02199 -0.358554,-0.04398 c -0.242966,-0.03506 -0.464852,-0.04499 -0.720518,-0.100137 -0.252579,-0.05485 -0.503595,-0.109425 -0.752757,-0.163319 -0.122714,-0.0294 -0.248851,-0.05019 -0.365997,-0.08706 l -0.347707,-0.114404 c -0.229319,-0.0763 -0.45679,-0.151539 -0.682396,-0.226536 -0.219719,-0.0911 -0.433549,-0.19059 -0.646451,-0.284179 C 10.66532,26.770385 10.275471,26.527425 9.88593,26.313285 9.68759,26.212252 9.510331,26.078688 9.330888,25.955346 9.151775,25.832317 8.974503,25.710834 8.799098,25.590285 7.438645,24.562653 6.445404,23.353424 5.738221,22.20059 5.023278,21.045593 4.634658,19.920959 4.389524,18.992189 4.333464,18.757906 4.280108,18.536017 4.229925,18.327143 c -0.04465,-0.209802 -0.06387,-0.410618 -0.0939,-0.595319 -0.0269,-0.18501 -0.05177,-0.356385 -0.07469,-0.513195 -0.02199,-0.15712 -0.01732,-0.302153 -0.02634,-0.430452 -0.02266,-0.515675 -0.03472,-0.790557 -0.03472,-0.790557 z m 0,0 c 0,0 0.01583,0.274573 0.04524,0.789318 0.01041,0.128299 0.0078,0.273023 0.0322,0.429523 0.02518,0.156499 0.05209,0.326945 0.0815,0.511336 0.03255,0.183771 0.05426,0.383966 0.101622,0.59222 0.05673,0.206394 0.116831,0.425493 0.180362,0.657299 0.279214,0.91359 0.707194,2.016835 1.493713,3.093431 0.766076,1.080002 1.844222,2.157218 3.230719,2.971015 0.701925,0.38893 1.455294,0.747792 2.277464,0.979289 0.205462,0.05705 0.410305,0.119314 0.618559,0.172925 0.21228,0.03785 0.426112,0.07559 0.641499,0.114038 l 0.321981,0.05794 c 0.107557,0.01797 0.213831,0.01797 0.320441,0.02792 0.211659,0.01617 0.42487,0.03256 0.639636,0.04894 0.211351,0.01859 0.46826,-0.0035 0.702854,-0.0032 l 0.361341,-0.0072 0.181605,-0.0035 c 0.04281,6.2e-4 -0.03252,-9.26e-4 -0.01707,-0.0024 l 0.02114,-0.0028 0.04219,-0.0052 0.08431,-0.0107 c 0.449355,-0.06477 0.903673,-0.09329 1.347447,-0.219413 0.899336,-0.175095 1.761477,-0.545424 2.589537,-0.960382 0.201427,-0.115279 0.403797,-0.231183 0.607092,-0.347398 0.201126,-0.117452 0.383663,-0.268684 0.57858,-0.39698 l 0.288522,-0.199576 0.268989,-0.228089 c 0.17634,-0.155567 0.363519,-0.297502 0.532102,-0.461754 0.687983,-0.645519 1.266255,-1.399817 1.777593,-2.192544 l 0.344304,-0.620115 c 0.125195,-0.201124 0.193066,-0.432 0.29812,-0.643041 l 0.147509,-0.32239 c 0.04588,-0.108777 0.07686,-0.223751 0.116528,-0.335004 0.07189,-0.225298 0.160215,-0.445328 0.221885,-0.673415 0.05326,-0.230876 0.102901,-0.462061 0.162391,-0.691078 l 0.0434,-0.171685 0.0217,-0.162078 0.04713,-0.323536 0.05175,-0.322917 c 0.01152,-0.04803 0.01483,-0.115283 0.01707,-0.18656 l 0.0086,-0.206084 0.01802,-0.412168 0.0086,-0.206084 0.0042,-0.102889 0.0032,-0.05144 0.0017,-0.02572 c -3.09e-4,0.02635 0.0032,-0.09546 -6.2e-4,0.05268 -0.01399,-0.951396 -0.141625,-1.894424 -0.383965,-2.81049 -0.0617,-0.228397 -0.150305,-0.448426 -0.222202,-0.673725 -0.03954,-0.111418 -0.07081,-0.226391 -0.116708,-0.335166 L 23.997397,11.855283 C 23.895722,11.642301 23.825054,11.412355 23.700473,11.210919 L 23.355818,10.590616 C 22.848023,9.7939977 22.264788,9.0431078 21.579284,8.3941756 21.410392,8.2299287 21.223216,8.0879941 21.046573,7.932424 L 20.777379,7.7041655 20.488556,7.5045898 C 20.293938,7.3753613 20.111403,7.2238198 19.90966,7.1063678 19.706367,6.9901548 19.503689,6.8742516 19.301938,6.7589687 19.104537,6.6303591 18.881722,6.5621816 18.673774,6.4577452 18.461494,6.3647772 18.2551,6.2513507 18.033209,6.1881311 17.813801,6.1128231 17.595324,6.0381395 17.377768,5.9637635 17.159904,5.8912495 16.949799,5.858397 16.735036,5.8016848 16.334327,5.6774146 15.807499,5.6423958 15.333039,5.5785563 l -0.09053,-0.011166 -0.04525,-0.00555 -0.02259,-0.00275 c -0.01615,-0.00157 0.05954,0.00114 0.01734,0 l -0.168898,-0.00374 -0.337175,-0.00834 c -0.224055,0 -0.450281,-0.024177 -0.671245,-0.00555 -1.780069,0.074682 -3.466239,0.5971786 -4.852116,1.4078788 -1.386494,0.8144188 -2.464329,1.892873 -3.229472,2.9734979 -0.78622,1.076904 -1.213566,2.180771 -1.492793,3.094048 -0.0635,0.231807 -0.123649,0.450906 -0.180052,0.6573 -0.04746,0.208564 -0.06916,0.40845 -0.101278,0.592221 -0.02938,0.18439 -0.05673,0.355146 -0.0815,0.511335 C 4.05329,14.934242 4.05612,15.079275 4.04524,15.207574 4.01583,15.722629 4,15.997201 4,15.997201 Z"
     id="path2-2"
     style="fill:#eff0f1;fill-opacity:1;stroke-width:0.309893" />
  <path
     d="m 10.75783,11.738041 c 0.471166,0.876268 1.194357,1.598965 2.070638,2.070141 -0.876281,0.471629 -1.599472,1.193873 -2.070638,2.070132 -0.471139,-0.876712 -1.193406,-1.598965 -2.070108,-2.070132 0.876702,-0.471176 1.598969,-1.193873 2.070108,-2.070141 m 0,-2.3854664 c 0,2.4611124 -1.994928,4.4560594 -4.455576,4.4560594 2.460648,0 4.455576,1.994957 4.455576,4.456068 0,-2.461111 1.995889,-4.456068 4.455637,-4.456068 C 12.753719,13.80833 10.75783,11.813225 10.75783,9.3525746 Z"
     id="path6-7-9"
     style="fill:#eff0f1;fill-opacity:1;stroke-width:0.455679" />
  <path
     d="m 12.866349,22.361247 c 0.08551,0.206711 0.286822,0.341482 0.510577,0.341482 h 3.098021 c 0.305738,0 0.553318,-0.24758 0.553318,-0.553085 0,-0.305513 -0.247807,-0.552848 -0.553318,-0.552848 h -1.762254 l 1.931819,-1.932299 c 0.158592,-0.158357 0.205773,-0.396363 0.12029,-0.603067 -0.08551,-0.206705 -0.287281,-0.341244 -0.511049,-0.341244 h -2.877058 c -0.305274,0 -0.552854,0.24782 -0.552854,0.553093 0,0.30527 0.247814,0.553076 0.552854,0.553076 h 1.541064 l -1.932051,1.932064 c -0.158367,0.158355 -0.205547,0.396128 -0.119359,0.602828 z"
     id="path4"
     style="fill:#eff0f1;fill-opacity:1;stroke-width:0.233562" />
  <path
     d="m 20.811207,12.935569 h -1.750633 l 2.018385,-2.018081 c 0.2098,-0.210111 0.2724,-0.525896 0.158978,-0.800161 C 21.124513,9.8430617 20.856759,9.6645659 20.559879,9.6645659 h -3.27162 c -0.405666,0 -0.734161,0.3288011 -0.734161,0.7338381 0,0.405047 0.328811,0.733848 0.734161,0.733848 h 1.499292 l -2.018373,2.018689 c -0.210127,0.209502 -0.27272,0.525287 -0.1593,0.799552 0.113431,0.274256 0.381186,0.453379 0.678067,0.453379 h 3.522943 c 0.405664,0 0.73416,-0.3288 0.73416,-0.734152 0,-0.405351 -0.328182,-0.734151 -0.733841,-0.734151 z"
     id="path6-1"
     style="fill:#eff0f1;fill-opacity:1;stroke-width:0.309893" />
</svg>
