<?xml version="1.0" encoding="UTF-8" standalone="no"?>
<svg
   xmlns:dc="http://purl.org/dc/elements/1.1/"
   xmlns:cc="http://creativecommons.org/ns#"
   xmlns:rdf="http://www.w3.org/1999/02/22-rdf-syntax-ns#"
   xmlns:svg="http://www.w3.org/2000/svg"
   xmlns="http://www.w3.org/2000/svg"
   xmlns:sodipodi="http://sodipodi.sourceforge.net/DTD/sodipodi-0.dtd"
   xmlns:inkscape="http://www.inkscape.org/namespaces/inkscape"
   inkscape:version="1.0.2 (e86c870879, 2021-01-15)"
   sodipodi:docname="system-shut-down.svg"
   id="svg6"
   version="1.1"
   viewBox="0 0 32 32">
  <metadata
     id="metadata10">
    <rdf:RDF>
      <cc:Work
         rdf:about="">
        <dc:format>image/svg+xml</dc:format>
        <dc:type
           rdf:resource="http://purl.org/dc/dcmitype/StillImage" />
      </cc:Work>
    </rdf:RDF>
  </metadata>
  <sodipodi:namedview
     inkscape:document-rotation="0"
     inkscape:lockguides="true"
     inkscape:current-layer="svg6"
     inkscape:window-maximized="1"
     inkscape:window-y="0"
     inkscape:window-x="0"
     inkscape:cy="21.666527"
     inkscape:cx="44.830996"
     inkscape:zoom="14.182499"
     showgrid="false"
     id="namedview8"
     inkscape:window-height="1007"
     inkscape:window-width="1920"
     inkscape:pageshadow="2"
     inkscape:pageopacity="0"
     guidetolerance="10"
     gridtolerance="10"
     objecttolerance="10"
     borderopacity="1"
     bordercolor="#666666"
     pagecolor="#ffffff" />
  <defs
     id="defs3051">
    <style
       id="current-color-scheme"
       type="text/css">
      .ColorScheme-Text {
        color:#eff0f1;
      }
      </style>
  </defs>
  <path
     d="m 16.020492,4.0000027 c 0,0 0.275285,0.012114 0.791085,0.034453 0.128808,0.00906 0.273738,0.00437 0.430774,0.026378 0.157029,0.022972 0.328662,0.047796 0.514265,0.0748 0.184969,0.030099 0.386389,0.049351 0.59649,0.094039 0.20919,0.050279 0.4314,0.1036583 0.666021,0.160143 0.930137,0.2451803 2.056094,0.635295 3.212475,1.3512812 1.1539,0.7088497 2.363969,1.7038446 3.392179,3.0663007 1.014227,1.3627664 1.846609,3.0870974 2.221512,5.0696294 0.0552,0.246119 0.0674,0.499365 0.102766,0.752922 l 0.04472,0.383287 0.02204,0.193047 0.0044,0.222521 c 0.003,0.49377 0.04597,0.954031 -0.0239,1.530978 -0.02802,0.274039 -0.0385,0.564222 -0.08596,0.833609 -0.0506,0.268763 -0.101442,0.538772 -0.152383,0.810333 -0.041,0.275905 -0.134694,0.537843 -0.210115,0.808472 l -0.121324,0.405015 c -0.03728,0.136859 -0.08544,0.270008 -0.142464,0.399733 -0.388872,1.071346 -0.978229,2.08465 -1.677149,3.041784 -0.186211,0.229965 -0.376146,0.459323 -0.569809,0.687428 -0.185906,0.235871 -0.417111,0.428917 -0.626297,0.645848 l -0.323697,0.317185 c -0.109862,0.10394 -0.231828,0.193969 -0.347909,0.291735 -0.23649,0.19024 -0.47112,0.386077 -0.720017,0.562975 -0.999028,0.708545 -2.120959,1.25849 -3.303723,1.653882 -1.189581,0.387317 -2.444034,0.54436 -3.693838,0.58222 l -0.2849,-0.0124 -0.206072,-0.01178 -0.412472,-0.02361 -0.206065,-0.01178 c -0.06652,-0.003 -0.13656,-0.0065 -0.223775,-0.02201 l -0.492832,-0.07289 -0.491912,-0.07726 -0.245182,-0.04037 -0.227804,-0.05802 c -0.30314,-0.077 -0.60326,-0.164197 -0.903369,-0.24768 -1.182463,-0.397249 -2.306879,-0.942851 -3.3059173,-1.652629 -0.249517,-0.175973 -0.482598,-0.374597 -0.72156,-0.561431 -0.116084,-0.09782 -0.238357,-0.188076 -0.34822,-0.292045 L 7.6267247,24.59855 c -0.209561,-0.217245 -0.44077,-0.410284 -0.626671,-0.646463 -0.190869,-0.229661 -0.381419,-0.458702 -0.571358,-0.68681 -0.6983,-0.958687 -1.29014,-1.971368 -1.67871,-3.043955 -0.384525,-1.068858 -0.647085,-2.15789 -0.70947,-3.2342 -0.06765,-0.53381 -0.031,-1.066692 -0.02729,-1.585597 l 0.0058,-0.232459 0.02204,-0.180317 0.04398,-0.359076 c 0.03512,-0.243324 0.04507,-0.465535 0.100298,-0.721576 0.0549,-0.252935 0.10955,-0.504325 0.16355,-0.753848 0.02939,-0.1229 0.0503,-0.249211 0.08718,-0.366534 L 4.5506227,12.4395 c 0.07636,-0.229655 0.151764,-0.457464 0.226867,-0.6834 0.0912,-0.220037 0.190864,-0.43418 0.284592,-0.647395 0.169461,-0.433875 0.412773,-0.8243 0.627232,-1.2144224 0.101144,-0.198615 0.234932,-0.376143 0.358454,-0.555844 0.123207,-0.179382 0.244871,-0.356903 0.365599,-0.532565 1.02914,-1.3624511 2.240131,-2.357136 3.3946493,-3.0653641 1.15669,-0.7159875 2.282961,-1.1051717 3.213105,-1.3506612 0.234621,-0.056175 0.456834,-0.109555 0.666016,-0.1598325 0.210108,-0.044687 0.411218,-0.063929 0.596187,-0.09404 0.18528,-0.027004 0.356905,-0.051828 0.513953,-0.0748 0.157342,-0.022036 0.302589,-0.017376 0.431075,-0.026378 0.516431,-0.022652 0.791711,-0.034759 0.791711,-0.034759 z m 0,0 c 0,0 -0.274985,0.015827 -0.790478,0.045316 -0.128482,0.010856 -0.273422,0.00802 -0.430149,0.032277 -0.156728,0.025143 -0.327419,0.052135 -0.512089,0.081625 -0.184029,0.032589 -0.384527,0.054306 -0.593087,0.1017939 -0.206686,0.0568 -0.426102,0.1170034 -0.658252,0.180626 -0.914929,0.2796289 -2.019782,0.7082281 -3.097959,1.495907 -1.0815833,0.7671948 -2.1603713,1.8469167 -2.9753623,3.235441 -0.389497,0.702953 -0.748886,1.4574244 -0.980717,2.2807894 -0.05716,0.205768 -0.11948,0.410909 -0.17318,0.619467 -0.03787,0.212591 -0.07567,0.426738 -0.114216,0.642431 l -0.05804,0.32246 c -0.01802,0.107698 -0.01802,0.214145 -0.02802,0.320909 -0.01622,0.211964 -0.03258,0.425494 -0.04901,0.640571 -0.0187,0.211661 0.0037,0.468944 0.003,0.703881 l 0.0068,0.361875 0.0037,0.181857 c -6.17e-4,0.04283 9.22e-4,-0.03261 0.002,-0.01709 l 0.003,0.02115 0.0053,0.04224 0.01122,0.08442 c 0.0649,0.450011 0.0934,0.904994 0.219732,1.349424 0.175347,0.900644 0.546222,1.764049 0.961787,2.593311 0.11545,0.201737 0.231516,0.404393 0.347908,0.607986 0.117619,0.201425 0.26908,0.384219 0.397562,0.579437 l 0.199866,0.288934 0.228419,0.269389 c 0.155802,0.176591 0.297945,0.364048 0.46243,0.532877 0.646466,0.688985 1.4018753,1.268105 2.1957593,1.780189 l 0.621016,0.344803 c 0.201418,0.125388 0.432633,0.19335 0.643986,0.29856 l 0.322764,0.147729 c 0.108938,0.04596 0.224078,0.07698 0.335498,0.116696 0.22563,0.072 0.445979,0.160451 0.6744,0.222211 0.231216,0.05334 0.462731,0.103043 0.692084,0.162627 l 0.171938,0.04347 0.162313,0.02173 0.324018,0.04722 0.323385,0.0519 c 0.0481,0.01151 0.115454,0.01487 0.186836,0.01709 l 0.206383,0.0086 0.412773,0.01798 0.206381,0.0086 0.103043,0.0044 0.05157,0.0034 0.02581,0.0017 c -0.0264,-3.15e-4 0.09561,0.0034 -0.0528,-6.23e-4 0.952791,-0.01398 1.897191,-0.141832 2.8146,-0.384529 0.22873,-0.06182 0.449087,-0.150522 0.674713,-0.222524 0.111416,-0.03977 0.22656,-0.07111 0.335494,-0.117004 l 0.323177,-0.146996 c 0.213212,-0.10175 0.443493,-0.172558 0.645218,-0.297317 l 0.621335,-0.345112 c 0.797613,-0.50867 1.549595,-1.092758 2.19948,-1.779262 0.164494,-0.169141 0.306625,-0.356594 0.462424,-0.533496 l 0.228426,-0.269701 0.199863,-0.289248 c 0.129426,-0.194906 0.281186,-0.377704 0.398807,-0.579742 0.116379,-0.203593 0.232458,-0.406566 0.347904,-0.608605 0.128801,-0.197695 0.19708,-0.42084 0.301674,-0.629089 0.09314,-0.212592 0.206693,-0.419289 0.27,-0.641501 0.07536,-0.219729 0.150213,-0.438532 0.224702,-0.656398 0.07259,-0.218181 0.105517,-0.428601 0.162315,-0.643674 0.124447,-0.401288 0.159516,-0.92889 0.22345,-1.404042 l 0.01122,-0.09067 0.0053,-0.04529 0.003,-0.02264 c 0.002,-0.01619 -9.26e-4,0.05961 0,0.01734 l 0.0037,-0.169144 0.0078,-0.337666 c 0,-0.224388 0.0242,-0.450945 0.0054,-0.672228 -0.07468,-1.782609 -0.59799,-3.471247 -1.409873,-4.8591494 C 24.265005,7.781877 23.184972,6.7024661 22.102772,5.9362014 21.024287,5.1488331 19.918805,4.720855 19.004189,4.4412259 18.772051,4.3776024 18.552633,4.317395 18.345932,4.2609099 18.13706,4.2134268 17.936885,4.1917023 17.752839,4.1594248 17.568193,4.1299384 17.397175,4.1026294 17.24076,4.0778014 c -0.156729,-0.024209 -0.301976,-0.021415 -0.430458,-0.032277 -0.515809,-0.029485 -0.790784,-0.04531 -0.790784,-0.04531 z"
     id="path2-675"
     style="fill:#eff0f1;fill-opacity:1;stroke-width:0.310357" />
  <path
     d="m 16.020522,4 c -0.927955,0 -1.683113,0.7547441 -1.683113,1.6829345 0,0.045325 0.0044,0.08834 0.01112,0.1424773 v 9.9463172 c 0,0.31612 0.255781,0.5723 0.572111,0.5723 h 2.200262 c 0.316125,0 0.571939,-0.25618 0.571939,-0.5723 V 5.8248209 c 0.0058,-0.046612 0.01085,-0.093323 0.01085,-0.1420801 C 17.703691,4.7547441 16.948547,4 16.020571,4 Z m 0.53855,1.6719408 c -1.96e-4,0 -1.96e-4,4.991e-4 -0.003,0.00277 -0.0044,0.020768 -0.0044,0.041348 -0.0068,0.062587 -0.0044,0.01754 -0.0044,0.035629 -0.0044,0.05354 v 9.4083982 h -1.05673 V 5.7906026 c 0,-0.019013 -0.003,-0.037565 -0.0044,-0.05594 -0.0044,-0.017348 -0.0044,-0.035813 -0.0068,-0.064988 0.0068,-0.2911475 0.24599,-0.5255448 0.538533,-0.5255448 0.293739,0 0.53312,0.2366035 0.538919,0.5289414 2.11e-4,-3.041e-4 2.11e-4,-4.979e-4 2.11e-4,-4.979e-4 z"
     id="path8-35"
     style="fill:#eff0f1;fill-opacity:1;stroke-width:0.19983" />
</svg>
