<?xml version="1.0" encoding="UTF-8" standalone="no"?>
<svg
   xmlns:dc="http://purl.org/dc/elements/1.1/"
   xmlns:cc="http://creativecommons.org/ns#"
   xmlns:rdf="http://www.w3.org/1999/02/22-rdf-syntax-ns#"
   xmlns:svg="http://www.w3.org/2000/svg"
   xmlns="http://www.w3.org/2000/svg"
   xmlns:sodipodi="http://sodipodi.sourceforge.net/DTD/sodipodi-0.dtd"
   xmlns:inkscape="http://www.inkscape.org/namespaces/inkscape"
   inkscape:version="1.0.2 (e86c870879, 2021-01-15)"
   sodipodi:docname="system-hibernate.svg"
   id="svg5"
   version="1.1"
   viewBox="0 0 32 32">
  <metadata
     id="metadata9">
    <rdf:RDF>
      <cc:Work
         rdf:about="">
        <dc:format>image/svg+xml</dc:format>
        <dc:type
           rdf:resource="http://purl.org/dc/dcmitype/StillImage" />
        <dc:title></dc:title>
      </cc:Work>
    </rdf:RDF>
  </metadata>
  <sodipodi:namedview
     inkscape:document-rotation="0"
     inkscape:current-layer="svg5"
     inkscape:window-maximized="1"
     inkscape:window-y="0"
     inkscape:window-x="0"
     inkscape:cy="22.240181"
     inkscape:cx="29.564517"
     inkscape:zoom="6.9858678"
     showgrid="false"
     id="namedview7"
     inkscape:window-height="1007"
     inkscape:window-width="1920"
     inkscape:pageshadow="2"
     inkscape:pageopacity="0"
     guidetolerance="10"
     gridtolerance="10"
     objecttolerance="10"
     borderopacity="1"
     bordercolor="#000000"
     pagecolor="#ffffff"
     inkscape:showpageshadow="false">
    <inkscape:grid
       type="xygrid"
       id="grid893" />
  </sodipodi:namedview>
  <defs
     id="defs3051">
    <style
       id="current-color-scheme"
       type="text/css">
      .ColorScheme-Text {
        color:#eff0f1;
      }
      </style>
  </defs>
  <rect
     x="20.463959"
     y="12.659217"
     width="1.6374267"
     height="0.46783581"
     id="rect12"
     style="fill:#eff0f1;fill-opacity:1;stroke-width:0.779778" />
  <rect
     x="20.463959"
     y="13.906508"
     width="1.6374267"
     height="0.46783581"
     id="rect14"
     style="fill:#eff0f1;fill-opacity:1;stroke-width:0.779778" />
  <polygon
     points="-776.9,584.3 -778,583.1 -776.9,583.1 -776.9,581.9 -778,581.9 -776.9,580.7 -776.9,579 -778.9,581 -778.9,577.4 -780.1,577.4 -780.1,581 -782.7,578.4 -783.6,579.3 -781,581.9 -784.6,581.9 -784.6,583.1 -781,583.1 -783.6,585.7 -782.7,586.5 -780.1,584 -780.1,587.6 -778.9,587.6 -778.9,584 -776.9,586 "
     id="polygon16"
     transform="matrix(0.77972611,0,0,0.77972611,621.47712,-441.84335)"
     style="fill:#eff0f1;fill-opacity:1" />
  <path
     d="m 16.019816,4.0020402 c 0,0 0.275265,0.012107 0.791025,0.034451 0.128788,0.00908 0.273706,0.00439 0.430737,0.026376 0.157016,0.022969 0.328633,0.047792 0.51421,0.07479 0.184958,0.030105 0.386356,0.049346 0.596451,0.094031 0.209158,0.050274 0.431354,0.1036497 0.665958,0.1601293 0.930053,0.2451584 2.055923,0.6352402 3.212199,1.3511657 1.153803,0.7087873 2.363767,1.7036976 3.391887,3.0660351 1.014145,1.3626477 1.846445,3.0868267 2.221324,5.0691977 0.0552,0.246091 0.06739,0.499319 0.102776,0.752856 l 0.04474,0.383253 0.02202,0.193025 0.0042,0.222505 c 0.0028,0.49373 0.04595,0.953946 -0.0239,1.530845 -0.02802,0.274018 -0.0385,0.564175 -0.08597,0.833541 -0.0506,0.268742 -0.101419,0.538727 -0.152366,0.810264 -0.041,0.275884 -0.134685,0.537795 -0.210095,0.80841 l -0.121336,0.404971 c -0.0372,0.136851 -0.08539,0.269986 -0.142448,0.399699 -0.388839,1.07125 -0.978147,2.084472 -1.677005,3.04152 -0.186195,0.229951 -0.376117,0.459283 -0.569762,0.687376 -0.185882,0.235845 -0.417076,0.428878 -0.626233,0.645794 l -0.323682,0.317151 c -0.109862,0.103942 -0.23181,0.193954 -0.347876,0.291714 -0.236474,0.190223 -0.471078,0.386041 -0.719957,0.562923 -0.998942,0.708484 -2.120782,1.258386 -3.303433,1.653743 -1.189487,0.387284 -2.443836,0.54431 -3.693524,0.582174 L 15.734883,27.9876 15.528826,27.97582 15.116394,27.95219 14.910342,27.94041 c -0.06651,-0.0028 -0.136548,-0.0065 -0.223752,-0.02199 L 14.193788,27.84555 13.701924,27.76832 13.456772,27.72793 13.228975,27.66995 C 12.925794,27.59298 12.625713,27.505785 12.325617,27.42231 11.143274,27.025094 10.018949,26.479532 9.0200127,25.769817 8.7705067,25.59386 8.5374517,25.395253 8.2985077,25.208431 8.1824407,25.110591 8.0601657,25.020376 7.9503137,24.91641 l -0.323984,-0.31746 c -0.209473,-0.21723 -0.440667,-0.410253 -0.626546,-0.64641 -0.190859,-0.229643 -0.381391,-0.458662 -0.571318,-0.686758 -0.698234,-0.958597 -1.290022,-1.971199 -1.67856,-3.04369 -0.384494,-1.068769 -0.647033,-2.157705 -0.709409,-3.233923 -0.06761,-0.533763 -0.031,-1.066595 -0.02726,-1.585463 l 0.0056,-0.232435 0.02202,-0.1803 0.04398,-0.359049 c 0.03514,-0.243297 0.04509,-0.465491 0.100299,-0.721511 0.05492,-0.252917 0.109554,-0.504283 0.163533,-0.753786 0.0294,-0.122889 0.05029,-0.249192 0.08718,-0.366497 l 0.114513,-0.348188 c 0.07638,-0.229643 0.151751,-0.457422 0.226846,-0.683341 0.09119,-0.220022 0.190846,-0.434148 0.284569,-0.647343 0.169444,-0.433837 0.412734,-0.82423 0.627176,-1.214311 0.101115,-0.19861 0.234917,-0.376116 0.35843,-0.5557968 0.123191,-0.1793688 0.244843,-0.3568762 0.36556,-0.5325214 1.02905,-1.3623375 2.239942,-2.3569372 3.394362,-3.0651042 1.1565863,-0.7159257 2.2827643,-1.105076 3.2128243,-1.3505449 0.234604,-0.056172 0.4568,-0.1095447 0.665962,-0.1598191 0.210092,-0.044683 0.411184,-0.063924 0.596134,-0.094031 0.185265,-0.026995 0.35688,-0.051824 0.513907,-0.074791 0.157336,-0.022037 0.302568,-0.017374 0.431039,-0.026377 0.515907,-0.022619 0.791163,-0.034733 0.791163,-0.034733 z m 0,0 c 0,0 -0.274953,0.015826 -0.790402,0.045312 -0.12848,0.010894 -0.273401,0.00802 -0.430116,0.032271 -0.156715,0.025141 -0.327396,0.05213 -0.512042,0.081619 -0.184018,0.032589 -0.384492,0.054303 -0.593033,0.1017854 -0.20668,0.056791 -0.426074,0.1169938 -0.658204,0.1806114 -0.914847,0.2796043 -2.019606,0.7081668 -3.0976923,1.4957777 -1.08149,0.7671299 -2.160186,1.8467587 -2.975107,3.2351638 -0.38946,0.7028915 -0.748823,1.4572975 -0.980634,2.2805965 -0.05718,0.205747 -0.119468,0.410873 -0.173161,0.619414 -0.03789,0.212574 -0.07563,0.4267 -0.114207,0.642377 l -0.05801,0.322431 c -0.01801,0.107685 -0.01801,0.214125 -0.02802,0.320878 -0.01619,0.211954 -0.03263,0.42546 -0.04899,0.640516 -0.01868,0.211643 0.0035,0.468905 0.0028,0.703822 l 0.0068,0.361842 0.0036,0.181853 c -6.19e-4,0.04283 9.24e-4,-0.03259 0.002,-0.01707 l 0.0028,0.0211 0.0052,0.04221 0.01068,0.08441 c 0.06489,0.449974 0.09339,0.904915 0.219718,1.349304 0.175331,0.900574 0.54617,1.763904 0.961701,2.593099 0.115443,0.201708 0.231499,0.404355 0.347882,0.607929 0.117607,0.201405 0.269053,0.384188 0.397528,0.579381 l 0.199847,0.288922 0.228399,0.269354 c 0.155789,0.176588 0.297923,0.364021 0.462389,0.532834 0.64641,0.688932 1.401756,1.267999 2.1955673,1.780044 l 0.620965,0.344773 c 0.201401,0.125371 0.432601,0.193333 0.643931,0.298534 l 0.322739,0.14771 c 0.108898,0.04594 0.224055,0.07697 0.33547,0.11669 0.22561,0.07199 0.445935,0.160435 0.674339,0.222192 0.231194,0.05331 0.462694,0.103024 0.692029,0.162611 l 0.171921,0.04347 0.162298,0.02174 0.323988,0.04722 0.323354,0.05189 c 0.0481,0.0115 0.115447,0.01484 0.186824,0.01707 l 0.206366,0.0084 0.41274,0.01801 0.206364,0.0084 0.103033,0.0042 0.0515,0.0032 0.0258,0.0017 c -0.0264,-3.1e-4 0.09562,0.0032 -0.0528,-6.23e-4 0.952709,-0.014 1.897031,-0.141821 2.814359,-0.384494 0.228708,-0.06181 0.449049,-0.15051 0.674657,-0.222506 0.111404,-0.03974 0.226541,-0.07112 0.335463,-0.116994 l 0.323147,-0.146979 c 0.213195,-0.101738 0.443457,-0.172542 0.645167,-0.297291 l 0.621279,-0.345085 c 0.79754,-0.508626 1.549461,-1.09266 2.199287,-1.779108 0.164483,-0.169126 0.306604,-0.356568 0.462385,-0.533455 l 0.228405,-0.269672 0.19985,-0.289226 c 0.129412,-0.194885 0.28116,-0.377667 0.398768,-0.579688 0.116373,-0.203576 0.232443,-0.40653 0.347881,-0.608556 0.128786,-0.19768 0.197057,-0.420803 0.301645,-0.629031 0.09315,-0.212576 0.206674,-0.419255 0.269977,-0.641448 0.07537,-0.219713 0.150199,-0.438493 0.224683,-0.656343 0.07258,-0.218161 0.105504,-0.428565 0.162299,-0.643621 0.124441,-0.401254 0.159503,-0.92881 0.223433,-1.403921 l 0.01068,-0.09062 0.0052,-0.04531 0.0028,-0.02265 c 0.002,-0.01613 -9.21e-4,0.05957 0,0.01738 l 0.0035,-0.169129 0.0078,-0.337636 c 0,-0.224366 0.0242,-0.450905 0.0051,-0.672169 -0.07476,-1.782521 -0.598,-3.471013 -1.409815,-4.8587971 C 24.260383,7.7822578 23.180438,6.7029391 22.098322,5.9367407 21.019938,5.1494401 19.914549,4.7214984 19.000014,4.4418932 18.76789,4.3782742 18.548492,4.3180726 18.341815,4.2615927 18.13296,4.2141107 17.932799,4.1923917 17.748772,4.160114 17.564135,4.130631 17.393139,4.103323 17.236736,4.078495 17.080023,4.054289 16.934788,4.057087 16.806309,4.046224 16.290188,4.015827 16.015244,4 16.015244,4 Z"
     id="path2-62"
     style="fill:#eff0f1;fill-opacity:1;stroke-width:0.31033" />
  <path
     d="M 19.606546,16.09009 V 9.696303 c 0,-0.7797118 -0.701838,-1.481485 -1.481562,-1.481485 -0.779691,0 -1.481461,0.6238172 -1.481461,1.481485 v 6.393787 c -0.623828,0.467849 -1.013629,1.169576 -1.013629,1.949308 0,1.325519 1.091631,2.495106 2.49509,2.495106 1.325566,0 2.495171,-1.091656 2.495171,-2.495106 0,-0.779732 -0.389876,-1.481459 -1.013609,-1.949308 z m -1.481562,3.742651 c -1.013644,0 -1.793317,-0.779721 -1.793317,-1.793333 0,-0.701787 0.389858,-1.325519 1.013626,-1.637465 v -6.70564 c 0,-0.4678396 0.389866,-0.7797118 0.779691,-0.7797118 0.467853,0 0.779724,0.3898744 0.779724,0.7797118 v 6.70564 c 0.623807,0.311946 1.013661,0.935678 1.013661,1.637465 0.07804,1.013612 -0.779681,1.793333 -1.793385,1.793333 z"
     id="path6-6"
     style="fill:#eff0f1;fill-opacity:1;stroke-width:0.779778" />
  <rect
     x="20.463959"
     y="11.48997"
     width="1.6374267"
     height="0.46783581"
     id="rect10"
     style="fill:#eff0f1;fill-opacity:1;stroke-width:0.779778" />
</svg>
