<?xml version="1.0" encoding="UTF-8" standalone="no"?>
<svg
   inkscape:version="1.1.1 (3bf5ae0d25, 2021-09-20)"
   sodipodi:docname="system-log-out-rtl.svg"
   id="svg6"
   version="1.1"
   viewBox="0 0 32 32"
   xmlns:inkscape="http://www.inkscape.org/namespaces/inkscape"
   xmlns:sodipodi="http://sodipodi.sourceforge.net/DTD/sodipodi-0.dtd"
   xmlns="http://www.w3.org/2000/svg"
   xmlns:svg="http://www.w3.org/2000/svg"
   xmlns:rdf="http://www.w3.org/1999/02/22-rdf-syntax-ns#"
   xmlns:cc="http://creativecommons.org/ns#"
   xmlns:dc="http://purl.org/dc/elements/1.1/">
  <metadata
     id="metadata10">
    <rdf:RDF>
      <cc:Work
         rdf:about="">
        <dc:format>image/svg+xml</dc:format>
        <dc:type
           rdf:resource="http://purl.org/dc/dcmitype/StillImage" />
      </cc:Work>
    </rdf:RDF>
  </metadata>
  <sodipodi:namedview
     inkscape:document-rotation="0"
     inkscape:lockguides="true"
     inkscape:current-layer="svg6"
     inkscape:window-maximized="1"
     inkscape:window-y="0"
     inkscape:window-x="0"
     inkscape:cy="22.585539"
     inkscape:cx="15.755034"
     inkscape:zoom="10.028541"
     showgrid="true"
     id="namedview8"
     inkscape:window-height="1011"
     inkscape:window-width="1920"
     inkscape:pageshadow="2"
     inkscape:pageopacity="0"
     guidetolerance="10"
     gridtolerance="10"
     objecttolerance="10"
     borderopacity="1"
     bordercolor="#000000"
     pagecolor="#ffffff"
     inkscape:pagecheckerboard="0"
     inkscape:showpageshadow="false">
    <inkscape:grid
       type="xygrid"
       id="grid883" />
  </sodipodi:namedview>
  <defs
     id="defs3051">
    <style
       id="current-color-scheme"
       type="text/css">
      .ColorScheme-Text {
        color:#eff0f1;
      }
      </style>
  </defs>
  <path
     d="m 4.0000717,16.078992 c 0,0 0.0121,-0.274877 0.03448,-0.789923 0.0098,-0.128606 0.005,-0.273326 0.0263,-0.430133 0.02295,-0.156807 0.0477,-0.328179 0.0747,-0.513496 0.03009,-0.184698 0.04929,-0.38582 0.09392,-0.595619 0.0502,-0.208869 0.103503,-0.430754 0.159902,-0.665034 0.244815,-0.928757 0.634357,-2.053057 1.349286,-3.2077247 0.707802,-1.15219 1.701321,-2.360469 3.061757,-3.387152 1.3607493,-1.012737 3.0825263,-1.843875 5.0621403,-2.218229 0.245748,-0.05516 0.498622,-0.06725 0.751809,-0.102576 l 0.382718,-0.04458 0.192755,-0.02204 0.222188,-0.0047 c 0.493047,-0.003 0.952619,-0.04589 1.52872,0.02385 0.273629,0.02784 0.563382,0.03843 0.83237,0.0858 0.268371,0.05052 0.537981,0.101335 0.809139,0.152159 0.275495,0.04092 0.537044,0.134495 0.80728,0.209799 l 0.404414,0.121167 c 0.136659,0.0372 0.269608,0.0852 0.399138,0.142246 1.069763,0.388299 2.081569,0.976789 3.037284,1.674673 0.229634,0.185935 0.458643,0.375594 0.686417,0.568965 0.235523,0.185629 0.428278,0.416501 0.644889,0.625367 l 0.316711,0.323273 c 0.103816,0.109698 0.193687,0.231488 0.291311,0.347389 0.189951,0.236138 0.385501,0.470421 0.562139,0.718953 0.70748,0.9976057 1.256614,2.1178737 1.651419,3.2988837 0.386695,1.18814 0.543501,2.440735 0.581303,3.688682 l -0.0124,0.284484 -0.0118,0.20577 -0.0235,0.41185 -0.0118,0.205771 c -0.003,0.06632 -0.0078,0.136354 -0.022,0.223434 l -0.07288,0.492114 -0.0772,0.491183 -0.0402,0.244817 -0.058,0.227464 c -0.0769,0.302766 -0.163932,0.602435 -0.247298,0.902104 -0.396668,1.180699 -0.941454,2.303449 -1.650195,3.301002 -0.175703,0.249156 -0.374039,0.481887 -0.560589,0.720506 -0.0976,0.115901 -0.187797,0.237999 -0.291616,0.347702 l -0.317027,0.323531 c -0.216927,0.209179 -0.409682,0.440051 -0.645505,0.625678 -0.229327,0.190585 -0.458035,0.38086 -0.6858,0.570516 -0.957265,0.697264 -1.968454,1.288234 -3.03945,1.676222 -1.067272,0.383961 -2.154695,0.646132 -3.229416,0.70842 -0.533019,0.06755 -1.065111,0.03099 -1.583251,0.02727 l -0.232114,-0.0065 -0.180056,-0.022 -0.358542,-0.04401 C 14.370965,27.9613 14.149079,27.95138 13.893415,27.896224 13.640851,27.841374 13.389844,27.786832 13.14068,27.73291 13.017969,27.70347 12.891843,27.6827 12.774698,27.64583 l -0.347699,-0.114351 c -0.229328,-0.07623 -0.456788,-0.151539 -0.682393,-0.226534 -0.21972,-0.0911 -0.433546,-0.190585 -0.64644,-0.284173 -0.433237,-0.169203 -0.823084,-0.412161 -1.2126253,-0.626298 -0.198329,-0.101026 -0.375583,-0.234591 -0.555015,-0.357929 -0.179124,-0.123029 -0.356376,-0.244507 -0.531777,-0.365056 -1.360447,-1.027612 -2.353659,-2.236823 -3.060837,-3.389632 -0.714928,-1.154979 -1.103539,-2.279588 -1.348665,-3.208344 -0.05617,-0.23428 -0.109392,-0.456165 -0.159598,-0.665034 -0.04454,-0.209799 -0.06382,-0.410611 -0.09391,-0.595308 -0.02699,-0.185008 -0.05175,-0.35638 -0.0747,-0.513186 -0.022,-0.157118 -0.0174,-0.302148 -0.0263,-0.430445 -0.02267,-0.515666 -0.03474,-0.790542 -0.03474,-0.790542 z m 0,0 c 0,0 0.01575,0.274568 0.0452,0.789303 0.01088,0.128297 0.0088,0.273017 0.03225,0.429515 0.02515,0.156496 0.05202,0.326939 0.0815,0.511326 0.03247,0.183768 0.05422,0.38396 0.101637,0.592209 0.05662,0.20639 0.116833,0.425486 0.180366,0.657288 0.279219,0.913571 0.707177,2.016797 1.493688,3.093372 0.766069,1.079985 1.844183,2.15718 3.230661,2.970964 0.701913,0.388919 1.4552603,0.747777 2.2774143,0.979268 0.205463,0.05702 0.410301,0.11931 0.618552,0.172922 0.212277,0.0378 0.426105,0.07562 0.64148,0.114041 l 0.321984,0.05795 c 0.107537,0.01797 0.213827,0.01797 0.320433,0.02789 0.211658,0.01612 0.424862,0.03253 0.639624,0.04896 0.211345,0.0186 0.468251,-0.0035 0.702837,-0.0031 l 0.361339,-0.0075 0.1816,-0.0037 c 0.0427,6.2e-4 -0.03256,-9.6e-4 -0.0171,-0.0022 l 0.02101,-0.0028 0.04214,-0.0056 0.0843,-0.01115 c 0.44936,-0.06477 0.903663,-0.09328 1.347435,-0.219405 0.899312,-0.175091 1.761442,-0.545416 2.589479,-0.960365 0.201432,-0.115281 0.403796,-0.231181 0.607083,-0.347392 0.201127,-0.11745 0.383648,-0.268679 0.578575,-0.396976 l 0.288511,-0.199507 0.268987,-0.228083 c 0.176331,-0.155567 0.363509,-0.297499 0.532093,-0.461743 0.687961,-0.645512 1.266235,-1.399796 1.777554,-2.192508 l 0.344318,-0.620102 c 0.125199,-0.201122 0.19306,-0.431994 0.298117,-0.643032 l 0.147512,-0.322291 c 0.0459,-0.108774 0.0769,-0.223744 0.116521,-0.334996 0.0719,-0.225295 0.160215,-0.445319 0.221884,-0.673402 0.0533,-0.230873 0.10288,-0.462054 0.162382,-0.691067 l 0.0434,-0.171681 0.0217,-0.162075 0.04702,-0.323531 0.05172,-0.32291 c 0.01141,-0.04804 0.0149,-0.115281 0.0171,-0.186557 l 0.0098,-0.206081 0.018,-0.412159 0.0098,-0.206081 0.005,-0.102885 0.003,-0.05145 0.002,-0.02572 c -3.11e-4,0.02634 0.003,-0.09545 -6.17e-4,0.05268 -0.0139,-0.951377 -0.141624,-1.894388 -0.383966,-2.810438 -0.06162,-0.228392 -0.150293,-0.448418 -0.222189,-0.673711 -0.03968,-0.11125 -0.07095,-0.226222 -0.116832,-0.334997 l -0.146886,-0.3226 c -0.101649,-0.212901 -0.172309,-0.442839 -0.296886,-0.644268 l -0.344595,-0.62041 C 22.85008,9.8757743 22.266863,9.1248993 21.581371,8.4759793 21.41248,8.3117333 21.225301,8.1698023 21.048662,8.0142363 l -0.269293,-0.228085 -0.288827,-0.19957 c -0.194618,-0.129227 -0.377143,-0.280766 -0.578888,-0.398216 -0.203284,-0.116212 -0.40596,-0.232114 -0.607697,-0.347392 -0.197406,-0.128609 -0.420222,-0.196784 -0.628162,-0.301217 -0.212276,-0.09293 -0.418665,-0.206393 -0.64055,-0.269609 -0.219411,-0.07536 -0.437881,-0.14999 -0.655427,-0.224364 -0.21786,-0.07256 -0.427967,-0.105364 -0.642727,-0.162078 -0.400691,-0.124266 -0.92751,-0.159282 -1.401964,-0.223121 l -0.09042,-0.01111 -0.0452,-0.006 -0.02266,-0.003 c -0.01611,-0.0017 0.0595,0.0013 0.0174,0 l -0.16889,-0.004 -0.33717,-0.0089 c -0.224053,0 -0.450275,-0.02419 -0.67123,-0.006 -1.780042,0.07471 -3.466179,0.597167 -4.8520263,1.407853 -1.386475,0.814404 -2.464287,1.892839 -3.229421,2.9734417 -0.786201,1.076886 -1.213549,2.180734 -1.492758,3.093989 -0.0635,0.231804 -0.123653,0.450899 -0.180052,0.657288 -0.04741,0.20856 -0.0691,0.408442 -0.101333,0.59221 -0.02949,0.184388 -0.05662,0.35514 -0.0815,0.511327 -0.0242,0.156497 -0.0214,0.301528 -0.03225,0.429824 -0.02948,0.515045 -0.0452,0.789613 -0.0452,0.789613 z"
     id="path2-7"
     style="fill:#eff0f1;fill-opacity:1;stroke-width:0.309894" />
  <path
     d="m 20.502637,14.544944 c 0,-0.219199 -0.177578,-0.39639 -0.396391,-0.39639 H 14.953127 V 11.77059 c 0,-0.351605 -0.426917,-0.529986 -0.67665,-0.280248 L 9.915749,15.85067 C 9.841649,15.92479 9.8,16.025479 9.8,16.13092 c 0,0.105442 0.04168,0.205732 0.116147,0.280251 l 4.360726,4.360333 c 0.248147,0.24854 0.676254,0.07412 0.676254,-0.280252 v -2.378759 h 5.153119 c 0.219206,0 0.396391,-0.177985 0.396391,-0.39639 z m -5.945908,2.774759 c -0.219204,0 -0.396394,0.177191 -0.396394,0.3964 v 1.818255 l -3.403836,-3.403438 3.403836,-3.403439 v 1.817463 c 0,0.219209 0.17719,0.3964 0.396394,0.3964 h 5.153116 v 2.378359 z"
     id="path4-0"
     style="fill:#eff0f1;fill-opacity:1;stroke-width:0.396408" />
</svg>
