<?xml version="1.0" encoding="UTF-8" standalone="no"?>
<svg
   inkscape:version="1.1 (c68e22c387, 2021-05-23)"
   sodipodi:docname="system-log-out.svg"
   id="svg6"
   version="1.1"
   viewBox="0 0 32 32"
   xmlns:inkscape="http://www.inkscape.org/namespaces/inkscape"
   xmlns:sodipodi="http://sodipodi.sourceforge.net/DTD/sodipodi-0.dtd"
   xmlns="http://www.w3.org/2000/svg"
   xmlns:svg="http://www.w3.org/2000/svg"
   xmlns:rdf="http://www.w3.org/1999/02/22-rdf-syntax-ns#"
   xmlns:cc="http://creativecommons.org/ns#"
   xmlns:dc="http://purl.org/dc/elements/1.1/">
  <metadata
     id="metadata10">
    <rdf:RDF>
      <cc:Work
         rdf:about="">
        <dc:format>image/svg+xml</dc:format>
        <dc:type
           rdf:resource="http://purl.org/dc/dcmitype/StillImage" />
      </cc:Work>
    </rdf:RDF>
  </metadata>
  <sodipodi:namedview
     inkscape:document-rotation="0"
     inkscape:lockguides="true"
     inkscape:current-layer="svg6"
     inkscape:window-maximized="1"
     inkscape:window-y="0"
     inkscape:window-x="0"
     inkscape:cy="22.535681"
     inkscape:cx="15.804891"
     inkscape:zoom="10.028541"
     showgrid="false"
     id="namedview8"
     inkscape:window-height="1007"
     inkscape:window-width="1920"
     inkscape:pageshadow="2"
     inkscape:pageopacity="0"
     guidetolerance="10"
     gridtolerance="10"
     objecttolerance="10"
     borderopacity="1"
     bordercolor="#000000"
     pagecolor="#ffffff"
     inkscape:pagecheckerboard="0"
     inkscape:showpageshadow="false">
    <inkscape:grid
       type="xygrid"
       id="grid883" />
  </sodipodi:namedview>
  <defs
     id="defs3051">
    <style
       id="current-color-scheme"
       type="text/css">
      .ColorScheme-Text {
        color:#eff0f1;
      }
      </style>
  </defs>
  <path
     d="m 27.96449,16.085041 c 0,0 -0.0121,0.274877 -0.03448,0.789923 -0.0098,0.128606 -0.005,0.273326 -0.0263,0.430133 -0.02295,0.156807 -0.0477,0.328179 -0.0747,0.513496 -0.03009,0.184698 -0.04929,0.38582 -0.09392,0.595619 -0.0502,0.208869 -0.103503,0.430754 -0.159902,0.665034 -0.244815,0.928757 -0.634357,2.053057 -1.349286,3.207725 -0.707802,1.15219 -1.701321,2.360469 -3.061757,3.387152 -1.360749,1.012737 -3.082526,1.843875 -5.06214,2.218229 -0.245748,0.05516 -0.498622,0.06725 -0.751809,0.102576 l -0.382718,0.04458 -0.192755,0.02204 -0.222188,0.0047 c -0.493047,0.003 -0.952619,0.04589 -1.52872,-0.02385 -0.273629,-0.02784 -0.563382,-0.03843 -0.83237,-0.0858 -0.268371,-0.05052 -0.537981,-0.101335 -0.809139,-0.152159 -0.275495,-0.04092 -0.537044,-0.134495 -0.80728,-0.209799 l -0.404414,-0.121167 c -0.136659,-0.0372 -0.269608,-0.0852 -0.399138,-0.142246 C 10.701711,26.942928 9.689904,26.354438 8.734189,25.656554 8.504555,25.470619 8.275546,25.28096 8.047772,25.087589 7.812249,24.90196 7.619494,24.671088 7.402883,24.462222 L 7.086172,24.138949 C 6.982356,24.029251 6.892485,23.907461 6.794861,23.79156 6.60491,23.555422 6.40936,23.321139 6.232722,23.072607 5.525242,22.075001 4.976108,20.954733 4.581303,19.773723 4.194608,18.585583 4.037802,17.332988 4,16.085041 l 0.0124,-0.284484 0.0118,-0.20577 0.0235,-0.41185 0.0118,-0.205771 c 0.003,-0.06632 0.0078,-0.136354 0.022,-0.223434 l 0.07288,-0.492114 0.0772,-0.491183 0.0402,-0.244817 0.058,-0.227464 C 4.40668,12.995388 4.493712,12.695719 4.577078,12.39605 4.973746,11.215351 5.518532,10.092601 6.227273,9.0950484 6.402976,8.8458928 6.601312,8.6131615 6.787862,8.3745425 6.885462,8.2586419 6.975659,8.1365433 7.079478,8.0268404 L 7.396505,7.7033099 C 7.613432,7.4941309 7.806187,7.2632589 8.04201,7.0776318 8.271337,6.8870464 8.500045,6.696771 8.72781,6.507115 9.685075,5.8098512 10.696265,5.2188815 11.767261,4.8308931 c 1.067272,-0.3839603 2.154695,-0.6461318 3.229416,-0.70842 0.533019,-0.067555 1.065111,-0.030993 1.583251,-0.027266 l 0.232114,0.00647 0.180056,0.021999 0.358542,0.04401 c 0.242957,0.035017 0.464843,0.044939 0.720507,0.100096 0.252564,0.054849 0.503571,0.1093928 0.752735,0.1633145 0.122711,0.029436 0.248837,0.050206 0.365982,0.087078 l 0.347699,0.1143512 c 0.229328,0.076229 0.456788,0.1515388 0.682393,0.2265332 0.21972,0.091104 0.433546,0.1905855 0.64644,0.2841739 0.433237,0.1692025 0.823084,0.4121605 1.212625,0.6262978 0.198329,0.1010257 0.375583,0.2345905 0.555015,0.3579287 0.179124,0.1230286 0.356376,0.2445072 0.531777,0.3650564 1.360447,1.0276118 2.353659,2.2368222 3.060837,3.3896319 0.714928,1.1549783 1.103539,2.2795873 1.348665,3.2083433 0.05617,0.23428 0.109392,0.456165 0.159598,0.665034 0.04454,0.209799 0.06382,0.410611 0.09391,0.595308 0.02699,0.185008 0.05175,0.35638 0.0747,0.513186 0.022,0.157118 0.0174,0.302148 0.0263,0.430445 0.02267,0.515666 0.03474,0.790542 0.03474,0.790542 z m 0,0 c 0,0 -0.01575,-0.274568 -0.0452,-0.789303 -0.01088,-0.128297 -0.0088,-0.273017 -0.03225,-0.429515 -0.02515,-0.156496 -0.05202,-0.326939 -0.0815,-0.511326 -0.03247,-0.183768 -0.05422,-0.38396 -0.101637,-0.592209 C 27.647283,13.556298 27.58707,13.337202 27.523537,13.1054 27.244318,12.191829 26.81636,11.088603 26.029849,10.012028 25.26378,8.9320437 24.185666,7.8548484 22.799188,7.0410642 22.097275,6.6521459 21.343928,6.2932876 20.521774,6.061796 20.316311,6.004779 20.111473,5.9424866 19.903222,5.8888745 19.690945,5.8510725 19.477117,5.8132585 19.261742,5.774833 L 18.939758,5.716882 C 18.832221,5.69891 18.725931,5.69891 18.619325,5.688988 18.407667,5.67287 18.194463,5.656455 17.979701,5.640024 17.768356,5.621429 17.51145,5.643494 17.276864,5.643164 l -0.361339,0.00746 -0.1816,0.00365 c -0.0427,-6.195e-4 0.03256,9.6e-4 0.0171,0.00215 l -0.02101,0.00282 -0.04214,0.00562 -0.0843,0.011154 C 16.154215,5.740784 15.699912,5.769293 15.25614,5.8954237 14.356828,6.0705142 13.494698,6.440839 12.666661,6.8557882 12.465229,6.9710694 12.262865,7.0869697 12.059578,7.2031804 11.858451,7.3206306 11.67593,7.4718594 11.481003,7.600156 L 11.192492,7.7997287 10.923505,8.0278112 C 10.747174,8.1833784 10.559996,8.3253103 10.391412,8.4895546 9.70345,9.1350662 9.125176,9.8893507 8.613857,10.682062 L 8.269539,11.302164 C 8.14434,11.503286 8.076479,11.734158 7.971422,11.945196 L 7.82391,12.267487 c -0.0459,0.108774 -0.0769,0.223744 -0.116521,0.334996 -0.0719,0.225295 -0.160215,0.445319 -0.221884,0.673402 -0.0533,0.230873 -0.10288,0.462054 -0.162382,0.691067 l -0.0434,0.171681 -0.0217,0.162075 -0.04702,0.323531 -0.05172,0.32291 c -0.01141,0.04804 -0.0149,0.115281 -0.0171,0.186557 l -0.0098,0.206081 -0.018,0.412159 -0.0098,0.206081 -0.005,0.102885 -0.003,0.05145 -0.002,0.02572 c 3.11e-4,-0.02634 -0.003,0.09545 6.17e-4,-0.05268 0.0139,0.951377 0.141624,1.894388 0.383966,2.810438 0.06162,0.228392 0.150293,0.448418 0.222189,0.673711 0.03968,0.11125 0.07095,0.226222 0.116832,0.334997 l 0.146886,0.3226 c 0.101649,0.212901 0.172309,0.442839 0.296886,0.644268 l 0.344595,0.62041 c 0.507927,0.796433 1.091144,1.547308 1.776637,2.196228 0.168891,0.164246 0.35607,0.306177 0.532709,0.461743 l 0.269293,0.228085 0.288827,0.19957 c 0.194618,0.129227 0.377143,0.280766 0.578888,0.398216 0.203284,0.116212 0.40596,0.232114 0.607697,0.347392 0.197406,0.128609 0.420222,0.196784 0.628162,0.301217 0.212276,0.09293 0.418665,0.206393 0.64055,0.269609 0.219411,0.07536 0.437881,0.14999 0.655427,0.224364 0.21786,0.07256 0.427967,0.105364 0.642727,0.162078 0.400691,0.124266 0.92751,0.159282 1.401964,0.223121 l 0.09042,0.01111 0.0452,0.006 0.02266,0.003 c 0.01611,0.0017 -0.0595,-0.0013 -0.0174,0 l 0.16889,0.004 0.33717,0.0089 c 0.224053,0 0.450275,0.02419 0.67123,0.006 1.780042,-0.07471 3.466179,-0.597167 4.852026,-1.407853 1.386475,-0.814404 2.464287,-1.892839 3.229421,-2.973442 0.786201,-1.076886 1.213549,-2.180734 1.492758,-3.093989 0.0635,-0.231804 0.123653,-0.450899 0.180052,-0.657288 0.04741,-0.20856 0.0691,-0.408442 0.101333,-0.59221 0.02949,-0.184388 0.05662,-0.35514 0.0815,-0.511327 0.0242,-0.156497 0.0214,-0.301528 0.03225,-0.429824 0.02948,-0.515045 0.0452,-0.789613 0.0452,-0.789613 z"
     id="path2-7"
     style="fill:#eff0f1;fill-opacity:1;stroke-width:0.309894" />
  <path
     d="m 12.171841,17.716957 c 0,0.219199 0.177578,0.39639 0.396391,0.39639 h 5.153119 v 2.377964 c 0,0.351605 0.426917,0.529986 0.67665,0.280248 l 4.360728,-4.360328 c 0.0741,-0.07412 0.115749,-0.174809 0.115749,-0.28025 0,-0.105442 -0.04168,-0.205732 -0.116147,-0.280251 l -4.360726,-4.360333 c -0.248147,-0.24854 -0.676254,-0.07412 -0.676254,0.280252 v 2.378759 h -5.153119 c -0.219206,0 -0.396391,0.177985 -0.396391,0.39639 z m 5.945908,-2.774759 c 0.219204,0 0.396394,-0.177191 0.396394,-0.3964 v -1.818255 l 3.403836,3.403438 -3.403836,3.403439 v -1.817463 c 0,-0.219209 -0.17719,-0.3964 -0.396394,-0.3964 h -5.153116 v -2.378359 z"
     id="path4-0"
     style="fill:#eff0f1;fill-opacity:1;stroke-width:0.396408" />
</svg>
