<?xml version="1.0" encoding="UTF-8" standalone="no"?>
<svg
   inkscape:version="1.1.1 (3bf5ae0d25, 2021-09-20)"
   sodipodi:docname="system-switch-user.svg"
   id="svg5"
   version="1.1"
   viewBox="0 0 32 32"
   xmlns:inkscape="http://www.inkscape.org/namespaces/inkscape"
   xmlns:sodipodi="http://sodipodi.sourceforge.net/DTD/sodipodi-0.dtd"
   xmlns="http://www.w3.org/2000/svg"
   xmlns:svg="http://www.w3.org/2000/svg"
   xmlns:rdf="http://www.w3.org/1999/02/22-rdf-syntax-ns#"
   xmlns:cc="http://creativecommons.org/ns#"
   xmlns:dc="http://purl.org/dc/elements/1.1/">
  <metadata
     id="metadata9">
    <rdf:RDF>
      <cc:Work
         rdf:about="">
        <dc:format>image/svg+xml</dc:format>
        <dc:type
           rdf:resource="http://purl.org/dc/dcmitype/StillImage" />
      </cc:Work>
    </rdf:RDF>
  </metadata>
  <sodipodi:namedview
     inkscape:document-rotation="0"
     inkscape:current-layer="svg5"
     inkscape:window-maximized="1"
     inkscape:window-y="0"
     inkscape:window-x="0"
     inkscape:cy="11.493038"
     inkscape:cx="8.3201136"
     inkscape:zoom="7.0912493"
     showgrid="false"
     id="namedview7"
     inkscape:window-height="1005"
     inkscape:window-width="1920"
     inkscape:pageshadow="2"
     inkscape:pageopacity="0"
     guidetolerance="10"
     gridtolerance="10"
     objecttolerance="10"
     borderopacity="1"
     bordercolor="#000000"
     pagecolor="#ffffff"
     inkscape:pagecheckerboard="0"
     inkscape:showpageshadow="false"
     inkscape:lockguides="false" />
  <defs
     id="defs3051">
    <style
       id="current-color-scheme"
       type="text/css">
      .ColorScheme-Text {
        color:#eff0f1;
      }
      </style>
  </defs>
  <path
     d="m 16.020507,4.0005998 c 0,0 0.275275,0.012103 0.791081,0.034441 0.128795,0.00905 0.273725,0.00436 0.430759,0.026378 0.157032,0.022971 0.32866,0.047795 0.51425,0.074795 0.18496,0.030099 0.386384,0.049346 0.596489,0.094036 0.209173,0.050275 0.431386,0.1036562 0.666001,0.1601395 0.930116,0.2451747 2.056058,0.6352821 3.212418,1.351255 1.153876,0.7088347 2.363919,1.7038103 3.392099,3.0662379 1.01422,1.3627378 1.846576,3.0870308 2.221477,5.0695338 0.0552,0.246106 0.06739,0.499351 0.102745,0.752905 l 0.04471,0.383279 0.02203,0.193035 0.0043,0.222521 c 0.0028,0.493767 0.04595,0.954012 -0.02391,1.53095 -0.028,0.274032 -0.03849,0.56421 -0.08597,0.833592 -0.05059,0.26876 -0.101455,0.538764 -0.152377,0.810315 -0.04098,0.275905 -0.134693,0.537833 -0.210105,0.808457 l -0.121349,0.405007 c -0.03718,0.136862 -0.08544,0.270004 -0.14245,0.399731 -0.388864,1.071313 -0.978221,2.084608 -1.677121,3.04172 -0.186209,0.229962 -0.376133,0.459309 -0.569791,0.687417 -0.18591,0.235867 -0.417111,0.428906 -0.626285,0.645837 l -0.323692,0.317175 c -0.109871,0.103949 -0.231835,0.193968 -0.347899,0.291726 -0.23649,0.190239 -0.47111,0.386074 -0.720012,0.562969 -0.999015,0.70853 -2.120914,1.258465 -3.303654,1.653848 -1.189554,0.387313 -2.443981,0.54435 -3.693757,0.582212 l -0.284904,-0.01241 -0.206073,-0.01178 -0.41245,-0.0236 -0.206069,-0.01178 c -0.06651,-0.003 -0.136549,-0.0066 -0.22376,-0.02202 l -0.492834,-0.0729 -0.491895,-0.07727 -0.245181,-0.04036 -0.227798,-0.05803 c -0.303152,-0.07698 -0.603276,-0.164174 -0.903374,-0.247658 -1.182425,-0.39724 -2.306817,-0.942832 -3.3058313,-1.652603 -0.249513,-0.175967 -0.482587,-0.374586 -0.721555,-0.561416 -0.116067,-0.09782 -0.238344,-0.188072 -0.348205,-0.292042 l -0.323974,-0.317496 c -0.209494,-0.217239 -0.4407,-0.41027 -0.626594,-0.646447 -0.190867,-0.229657 -0.381424,-0.458695 -0.571353,-0.6868 -0.698283,-0.958666 -1.290111,-1.971331 -1.678673,-3.043893 -0.384519,-1.068841 -0.647075,-2.157852 -0.709455,-3.234133 -0.06765,-0.533804 -0.031,-1.066667 -0.02729,-1.585573 l 0.0059,-0.232451 0.02205,-0.180311 0.04399,-0.359073 c 0.03511,-0.243313 0.04507,-0.465522 0.100287,-0.721559 0.0549,-0.252934 0.109549,-0.504316 0.163549,-0.753835 0.02942,-0.122898 0.0503,-0.249209 0.08719,-0.366522 l 0.114574,-0.348216 c 0.07636,-0.229658 0.151758,-0.457453 0.226858,-0.683387 0.0912,-0.220036 0.190869,-0.434177 0.284587,-0.647385 0.169458,-0.433867 0.412767,-0.824284 0.62722,-1.2143917 0.101163,-0.1986228 0.234927,-0.3761416 0.35845,-0.5558333 0.12321,-0.179381 0.244863,-0.3568999 0.365586,-0.5325569 C 7.4425857,7.4439525 8.6535637,6.449287 9.8080523,5.741073 10.964728,5.0251002 12.090977,4.6359232 13.021089,4.3904385 c 0.234626,-0.056175 0.45683,-0.1095527 0.666006,-0.1598292 0.210104,-0.044688 0.411211,-0.06393 0.596172,-0.094034 0.185289,-0.026996 0.356912,-0.051828 0.513943,-0.074795 0.157343,-0.022037 0.302586,-0.017377 0.431078,-0.026379 0.516174,-0.022653 0.79145,-0.03476 0.79145,-0.03476 z m 0,0 c 0,0 -0.274968,0.015827 -0.790457,0.045312 -0.128483,0.010859 -0.273417,0.00803 -0.430144,0.032272 -0.156725,0.025141 -0.327413,0.052135 -0.512076,0.081625 -0.184033,0.032591 -0.384514,0.054307 -0.593069,0.1017925 -0.206693,0.056795 -0.426109,0.1170012 -0.658253,0.1806225 -0.914901,0.2796238 -2.01974,0.7082142 -3.097894,1.4958774 -1.0815533,0.76718 -2.1603253,1.8468806 -2.9753033,3.2353778 -0.38949,0.7029377 -0.748865,1.457394 -0.980692,2.280747 -0.05715,0.205761 -0.119493,0.410901 -0.173181,0.619455 -0.03788,0.212589 -0.07567,0.426728 -0.114206,0.64242 l -0.05805,0.322452 c -0.01799,0.10769 -0.01799,0.214139 -0.02801,0.320899 -0.01621,0.211968 -0.03261,0.425488 -0.049,0.640558 -0.01867,0.211658 0.0038,0.468937 0.003,0.70387 l 0.0069,0.361864 0.0038,0.181862 c -6.17e-4,0.04282 9.21e-4,-0.03258 0.002,-0.01707 l 0.003,0.02109 0.0055,0.0422 0.01121,0.08442 c 0.0649,0.450003 0.0934,0.904974 0.219726,1.349391 0.175341,0.900633 0.54621,1.764019 0.96177,2.593264 0.115445,0.201728 0.231521,0.404384 0.347902,0.607974 0.117615,0.201415 0.269071,0.384214 0.397549,0.579419 l 0.199874,0.288935 0.228408,0.269385 c 0.155795,0.176589 0.297936,0.364039 0.462425,0.532869 0.646445,0.688966 1.4018396,1.268075 2.1957063,1.780154 l 0.621005,0.344791 c 0.201424,0.125389 0.432629,0.193349 0.643974,0.298554 l 0.322762,0.147732 c 0.108933,0.04593 0.224074,0.07698 0.33549,0.116689 0.225621,0.072 0.445966,0.160451 0.674384,0.222207 0.231208,0.05334 0.46273,0.103033 0.692074,0.162624 l 0.171928,0.04347 0.162321,0.02174 0.323999,0.04721 0.323388,0.05186 c 0.0481,0.0115 0.115444,0.01489 0.186826,0.01709 l 0.206377,0.0087 0.412763,0.01802 0.206388,0.0087 0.103032,0.0045 0.05149,0.0034 0.0258,0.0017 c -0.0264,-3.06e-4 0.09559,0.0034 -0.0528,-6.18e-4 0.952773,-0.01397 1.897162,-0.14183 2.814544,-0.384522 0.228725,-0.06181 0.449077,-0.150518 0.674699,-0.222521 0.111414,-0.03972 0.226556,-0.0711 0.335485,-0.117001 l 0.323074,-0.1471 c 0.213205,-0.10178 0.44349,-0.172553 0.645214,-0.297317 l 0.62123,-0.345215 c 0.797595,-0.508659 1.549567,-1.092735 2.199434,-1.779224 0.164489,-0.169141 0.306633,-0.356593 0.462425,-0.53349 l 0.228411,-0.269692 0.19986,-0.289245 c 0.129425,-0.194898 0.281184,-0.377692 0.398797,-0.579731 0.116389,-0.203588 0.232458,-0.406554 0.347904,-0.608593 0.128794,-0.197688 0.197073,-0.42083 0.301666,-0.629072 0.09313,-0.21259 0.20669,-0.41928 0.269993,-0.641491 0.07536,-0.219726 0.150208,-0.43852 0.224701,-0.656386 0.07259,-0.218175 0.105513,-0.428593 0.162309,-0.643663 0.124447,-0.401275 0.159516,-0.928869 0.223445,-1.404009 l 0.01123,-0.09062 0.0052,-0.04531 0.0029,-0.02266 c 0.0019,-0.01613 -9.19e-4,0.05957 0,0.01739 l 0.0038,-0.169137 0.0077,-0.337659 c 0,-0.224381 0.02419,-0.450935 0.0052,-0.672213 C 26.414454,12.246682 25.891139,10.558078 25.079271,9.1702025 24.263528,7.7815994 23.183519,6.7022093 22.101334,5.9359601 21.022882,5.1486073 19.917418,4.7206372 19.002822,4.4410141 18.77068,4.3773891 18.551266,4.3171851 18.344572,4.2607015 18.135711,4.2132175 17.935537,4.1914955 17.751498,4.159216 17.566841,4.129733 17.395845,4.102422 17.239422,4.077591 17.082705,4.053383 16.937452,4.056177 16.808968,4.045312 16.294477,4.01583 16.01951,4 16.01951,4 Z"
     id="path2-8"
     style="fill:#eff0f1;fill-opacity:1;stroke-width:0.310354" />
  <path
     d="m 14.755113,18.991579 c 0,0.180903 0.146571,0.327141 0.327167,0.327141 h 4.252998 v 1.962595 c 0,0.290209 0.352371,0.437398 0.558423,0.231325 l 3.59903,-3.598708 c 0.06119,-0.06119 0.09545,-0.144287 0.09545,-0.231299 0,-0.08703 -0.03429,-0.1698 -0.09579,-0.231296 l -3.599042,-3.598688 c -0.204746,-0.205122 -0.55806,-0.0612 -0.55806,0.231291 v 1.963251 h -4.253005 c -0.180927,0 -0.327161,0.146897 -0.327161,0.327155 z m 4.907294,-2.290078 c 0.180923,0 0.32715,-0.146241 0.32715,-0.327155 v -1.500647 l 2.809263,2.808934 -2.809263,2.808938 v -1.499992 c 0,-0.180927 -0.146227,-0.32717 -0.32715,-0.32717 h -4.252996 v -1.962908 z"
     id="path4-0-7"
     style="fill:#eff0f1;fill-opacity:1;stroke-width:0.327168" />
  <path
     d="m 17.190478,11.481432 c 0,-0.180919 -0.146532,-0.32716 -0.327113,-0.32716 H 12.610369 V 9.191684 c 0,-0.2901823 -0.352322,-0.4374096 -0.558478,-0.2312911 L 8.4528627,12.559075 c -0.06079,0.0612 -0.09554,0.144274 -0.09554,0.231291 0,0.08705 0.03467,0.169796 0.09587,0.2313 l 3.5990273,3.598693 c 0.204806,0.205131 0.558122,0.06116 0.558122,-0.231301 v -1.963254 h 4.252993 c 0.180884,0 0.327114,-0.146887 0.327114,-0.327142 z m -4.907282,2.290071 c -0.180896,0 -0.327179,0.14624 -0.327179,0.327159 v 1.500653 L 9.1467977,12.790366 11.956017,9.981434 v 1.499998 c 0,0.180919 0.146283,0.327151 0.327179,0.327151 h 4.252975 v 1.96292 z"
     id="path4-0-5"
     style="fill:#eff0f1;fill-opacity:1;stroke-width:0.32717" />
</svg>
