<?xml version="1.0" encoding="UTF-8" standalone="no"?>
<svg
   xmlns:dc="http://purl.org/dc/elements/1.1/"
   xmlns:cc="http://creativecommons.org/ns#"
   xmlns:rdf="http://www.w3.org/1999/02/22-rdf-syntax-ns#"
   xmlns:svg="http://www.w3.org/2000/svg"
   xmlns="http://www.w3.org/2000/svg"
   xmlns:sodipodi="http://sodipodi.sourceforge.net/DTD/sodipodi-0.dtd"
   xmlns:inkscape="http://www.inkscape.org/namespaces/inkscape"
   inkscape:version="1.0.2 (e86c870879, 2021-01-15)"
   sodipodi:docname="system-shutdown.svg"
   id="svg6"
   version="1.1"
   viewBox="0 0 32 32">
  <metadata
     id="metadata10">
    <rdf:RDF>
      <cc:Work
         rdf:about="">
        <dc:format>image/svg+xml</dc:format>
        <dc:type
           rdf:resource="http://purl.org/dc/dcmitype/StillImage" />
      </cc:Work>
    </rdf:RDF>
  </metadata>
  <sodipodi:namedview
     inkscape:document-rotation="0"
     inkscape:lockguides="true"
     inkscape:current-layer="svg6"
     inkscape:window-maximized="1"
     inkscape:window-y="0"
     inkscape:window-x="0"
     inkscape:cy="21.666527"
     inkscape:cx="44.830996"
     inkscape:zoom="14.182499"
     showgrid="false"
     id="namedview8"
     inkscape:window-height="1007"
     inkscape:window-width="1920"
     inkscape:pageshadow="2"
     inkscape:pageopacity="0"
     guidetolerance="10"
     gridtolerance="10"
     objecttolerance="10"
     borderopacity="1"
     bordercolor="#666666"
     pagecolor="#ffffff" />
  <defs
     id="defs3051">
    <style
       id="current-color-scheme"
       type="text/css">
      .ColorScheme-Text {
        color:#eff0f1;
      }
      </style>
  </defs>
  <path
     d="m 16.02027,4.0000515 c 0,0 0.275289,0.012109 0.791091,0.034448 0.128798,0.00898 0.273729,0.00431 0.430775,0.026378 0.157029,0.022963 0.328657,0.047798 0.514253,0.074791 0.184974,0.030106 0.386389,0.049342 0.596498,0.094035 0.20918,0.050279 0.431391,0.1036583 0.666018,0.1601423 0.930128,0.2451798 2.056095,0.6352942 3.212469,1.3512803 1.153901,0.7088478 2.363967,1.7038416 3.392172,3.0662942 1.014232,1.3627667 1.846605,3.0870897 2.221513,5.0696297 0.0552,0.246108 0.0674,0.49936 0.102728,0.75292 l 0.04463,0.383286 0.0221,0.193036 0.005,0.222527 c 0.003,0.493773 0.046,0.954026 -0.0239,1.530974 -0.02793,0.27404 -0.0385,0.564222 -0.0859,0.833611 -0.0506,0.268766 -0.101482,0.538774 -0.15238,0.81033 -0.041,0.275906 -0.134697,0.537843 -0.210113,0.808473 l -0.121346,0.405012 c -0.03728,0.136865 -0.08536,0.270007 -0.142462,0.399732 -0.38887,1.071341 -0.97823,2.084647 -1.677147,3.041778 -0.18621,0.229971 -0.376147,0.459321 -0.569807,0.687435 -0.185903,0.235864 -0.417108,0.42891 -0.626294,0.645845 l -0.323703,0.31718 c -0.109861,0.103969 -0.231829,0.193972 -0.347902,0.291738 -0.236496,0.190242 -0.47112,0.386075 -0.720018,0.562976 -0.999031,0.708542 -2.120963,1.258486 -3.303718,1.653878 -1.189584,0.387321 -2.444033,0.544362 -3.693833,0.582222 l -0.284899,-0.01245 -0.206076,-0.01178 -0.412467,-0.02355 -0.206068,-0.01178 c -0.06643,-0.003 -0.13656,-0.0074 -0.22377,-0.02207 l -0.492908,-0.07297 -0.491906,-0.07731 -0.245181,-0.04032 -0.227806,-0.05806 C 12.926668,27.592753 12.626554,27.505546 12.32644,27.422062 11.143997,27.024808 10.019578,26.479207 9.0205498,25.769429 8.7710048,25.593465 8.5379258,25.39484 8.2989658,25.208004 8.1828878,25.110254 8.0606048,25.019933 7.9507458,24.915963 L 7.6267368,24.59847 c -0.209543,-0.217247 -0.44076,-0.410288 -0.626653,-0.646464 -0.190877,-0.229664 -0.381427,-0.4587 -0.571367,-0.686814 -0.698294,-0.958677 -1.290134,-1.971365 -1.678703,-3.043951 -0.38453,-1.068854 -0.64709,-2.157882 -0.70947,-3.234194 -0.0677,-0.533809 -0.031,-1.066682 -0.02737,-1.585593 l 0.0067,-0.232459 0.0221,-0.180311 0.04407,-0.35908 c 0.03503,-0.243317 0.04501,-0.465531 0.100247,-0.721579 0.0549,-0.252937 0.109551,-0.504317 0.163551,-0.753843 0.02948,-0.122899 0.0503,-0.249213 0.08727,-0.366528 l 0.114527,-0.348217 c 0.0763,-0.229658 0.151762,-0.457461 0.226863,-0.683401 0.0912,-0.220041 0.190864,-0.434185 0.284595,-0.647395 0.169459,-0.433879 0.412771,-0.824303 0.627229,-1.2144165 0.10117,-0.1986263 0.234932,-0.3761453 0.358457,-0.5558413 0.123204,-0.179388 0.244866,-0.3569085 0.365595,-0.5325685 C 7.4435138,7.4433619 8.6545058,6.4486782 9.8090228,5.7404515 10.965711,5.0244654 12.091982,4.6352817 13.02212,4.389792 13.256747,4.333617 13.478959,4.2802373 13.688138,4.22996 13.898248,4.185266 14.099359,4.166022 14.284325,4.135925 14.469604,4.108926 14.641231,4.084097 14.798273,4.061134 14.955623,4.039103 15.100866,4.043749 15.229351,4.034756 15.745782,4.012095 16.021063,4 16.021063,4 Z m 0,0 c 0,0 -0.274977,0.015827 -0.790469,0.045308 -0.128491,0.010865 -0.273423,0.00811 -0.430152,0.032279 -0.156728,0.025135 -0.327425,0.052142 -0.512087,0.081625 -0.184032,0.032583 -0.384525,0.054315 -0.593084,0.1017959 -0.206696,0.056791 -0.426111,0.1170033 -0.658257,0.1806259 C 12.121297,4.7213138 11.016441,5.1499123 9.93827,5.93759 8.8566848,6.7047843 7.7778958,7.7845047 6.9629058,9.1730273 c -0.389492,0.7029489 -0.748884,1.4574157 -0.980714,2.2807897 -0.0571,0.20576 -0.119483,0.410902 -0.173177,0.61946 -0.03782,0.212598 -0.0757,0.426737 -0.114213,0.642436 l -0.0581,0.322457 c -0.01801,0.10769 -0.01801,0.214148 -0.02793,0.320906 -0.01612,0.211971 -0.03254,0.425495 -0.04906,0.640571 -0.0186,0.211661 0.004,0.468945 0.003,0.703881 l 0.0077,0.361871 0.004,0.181866 c -6.16e-4,0.0428 9.24e-4,-0.03256 0.002,-0.01709 l 0.003,0.02107 0.006,0.04217 0.01113,0.08445 c 0.0649,0.450015 0.0934,0.904993 0.21973,1.349424 0.175345,0.900647 0.546221,1.764044 0.96179,2.593311 0.115448,0.201732 0.231515,0.40439 0.347907,0.607988 0.117617,0.201419 0.269076,0.384217 0.397558,0.57943 l 0.199864,0.288939 0.228425,0.269384 c 0.155796,0.176592 0.297941,0.364045 0.462422,0.532881 0.64647,0.688982 1.401876,1.268101 2.1957562,1.780185 l 0.62102,0.344809 c 0.201413,0.125377 0.432637,0.193343 0.643982,0.29856 l 0.322763,0.147721 c 0.108942,0.04596 0.224078,0.07698 0.335502,0.116698 0.225627,0.072 0.445975,0.160448 0.674399,0.222211 0.231211,0.05341 0.46273,0.103042 0.692083,0.162623 l 0.171935,0.04347 0.162313,0.02173 0.324018,0.04713 0.32338,0.0518 c 0.0481,0.01146 0.115458,0.01494 0.18684,0.01709 l 0.206381,0.0095 0.412771,0.018 0.206381,0.0095 0.103044,0.005 0.05154,0.0034 0.02573,0.0017 c -0.0264,-3.12e-4 0.09557,0.0034 -0.0528,-6.21e-4 0.952791,-0.01393 1.897188,-0.141833 2.814596,-0.384529 0.22873,-0.06174 0.449084,-0.15052 0.674711,-0.222522 0.111417,-0.03972 0.22656,-0.07102 0.335493,-0.117006 l 0.322975,-0.14722 c 0.213213,-0.101798 0.443493,-0.172557 0.645221,-0.29732 l 0.621331,-0.345114 c 0.797611,-0.508669 1.549594,-1.092755 2.199477,-1.779259 0.164491,-0.169141 0.306626,-0.356594 0.462424,-0.533498 l 0.228423,-0.269696 0.199864,-0.289249 c 0.129425,-0.194904 0.281189,-0.3777 0.398807,-0.579741 0.116381,-0.203592 0.232457,-0.406565 0.347907,-0.608604 0.128796,-0.197693 0.197075,-0.420839 0.30167,-0.629089 0.09307,-0.212591 0.206694,-0.419287 0.27,-0.641499 0.07544,-0.219729 0.150213,-0.438531 0.224703,-0.656399 0.07268,-0.218178 0.105518,-0.428599 0.162314,-0.643673 0.124449,-0.401286 0.159515,-0.928889 0.223449,-1.404041 l 0.01113,-0.09058 0.006,-0.04529 0.003,-0.02266 c 0.002,-0.0161 -9.23e-4,0.05955 0,0.01741 l 0.004,-0.169143 0.0087,-0.337664 c 0,-0.224386 0.0242,-0.450943 0.006,-0.672226 -0.0765,-1.783488 -0.599783,-3.472123 -1.411664,-4.860025 C 24.264585,7.7818158 23.18455,6.702406 22.102347,5.9361428 21.02387,5.1487755 19.918387,4.7207979 19.003776,4.4411689 18.771633,4.377546 18.552217,4.3173379 18.345523,4.2608535 18.136647,4.2133699 17.93647,4.191645 17.752426,4.1593678 17.567777,4.1298843 17.396765,4.1025725 17.240351,4.0777442 17.083623,4.0535368 16.938375,4.056331 16.809887,4.0454672 16.294081,4.0159836 16.019108,4.0001554 16.019108,4.0001554 Z"
     id="path2-675"
     style="fill:#eff0f1;fill-opacity:1;stroke-width:0.310357" />
  <path
     d="m 16.020308,4.0000483 c -0.927962,0 -1.683112,0.7547435 -1.683112,1.6829328 0,0.04532 0.005,0.08834 0.01103,0.1424767 v 9.9463032 c 0,0.316117 0.255777,0.572299 0.572114,0.572299 h 2.200256 c 0.316126,0 0.571939,-0.256182 0.571939,-0.572299 V 5.824867 c 0.0067,-0.046619 0.01088,-0.09332 0.01088,-0.1420796 0,-0.9279956 -0.755151,-1.6827391 -1.683118,-1.6827391 z m 0.538547,1.6719391 c -1.96e-4,0 -1.96e-4,4.984e-4 -0.003,0.0028 -0.005,0.020768 -0.005,0.041357 -0.0077,0.06258 -0.005,0.01754 -0.005,0.03563 -0.005,0.05354 v 9.4083636 h -1.05546 V 5.7906486 c 0,-0.01902 -0.003,-0.037567 -0.005,-0.05594 -0.005,-0.017357 -0.005,-0.03582 -0.0077,-0.064981 0.0077,-0.2911471 0.245989,-0.5255435 0.538529,-0.5255435 0.293741,0 0.533123,0.2366027 0.538918,0.5289405 2.14e-4,-3.047e-4 2.14e-4,-4.985e-4 2.14e-4,-4.985e-4 z"
     id="path8-35"
     style="fill:#eff0f1;fill-opacity:1;stroke-width:0.199821" />
</svg>
