<?xml version="1.0" encoding="UTF-8" standalone="no"?>
<svg
   inkscape:version="1.1.1 (3bf5ae0d25, 2021-09-20)"
   sodipodi:docname="system-reboot.svg"
   id="svg6"
   version="1.1"
   viewBox="0 0 32 32"
   xmlns:inkscape="http://www.inkscape.org/namespaces/inkscape"
   xmlns:sodipodi="http://sodipodi.sourceforge.net/DTD/sodipodi-0.dtd"
   xmlns="http://www.w3.org/2000/svg"
   xmlns:svg="http://www.w3.org/2000/svg"
   xmlns:rdf="http://www.w3.org/1999/02/22-rdf-syntax-ns#"
   xmlns:cc="http://creativecommons.org/ns#"
   xmlns:dc="http://purl.org/dc/elements/1.1/">
  <metadata
     id="metadata10">
    <rdf:RDF>
      <cc:Work
         rdf:about="">
        <dc:format>image/svg+xml</dc:format>
        <dc:type
           rdf:resource="http://purl.org/dc/dcmitype/StillImage" />
      </cc:Work>
    </rdf:RDF>
  </metadata>
  <sodipodi:namedview
     inkscape:document-rotation="0"
     inkscape:current-layer="svg6"
     inkscape:window-maximized="1"
     inkscape:window-y="0"
     inkscape:window-x="0"
     inkscape:cy="20.518246"
     inkscape:cx="15.512076"
     inkscape:zoom="7.0912493"
     showgrid="false"
     id="namedview8"
     inkscape:window-height="1007"
     inkscape:window-width="1920"
     inkscape:pageshadow="2"
     inkscape:pageopacity="0"
     guidetolerance="10"
     gridtolerance="10"
     objecttolerance="10"
     borderopacity="1"
     bordercolor="#000000"
     pagecolor="#ffffff"
     inkscape:pagecheckerboard="0"
     inkscape:showpageshadow="true"
     inkscape:lockguides="true">
    <inkscape:grid
       type="xygrid"
       id="grid871" />
  </sodipodi:namedview>
  <defs
     id="defs3051">
    <style
       id="current-color-scheme"
       type="text/css">
      .ColorScheme-Text {
        color:#eff0f1;
      }
      </style>
  </defs>
  <g
     id="g887" />
  <path
     style="color:#000000;overflow:visible;opacity:0;fill:#0000ff;fill-opacity:1;stroke-width:1.06667"
     id="path940"
     overflow="visible"
     d="m 60.626965,-17.595446 c -8.82859,0 -16,7.171413 -16,15.9999996 0,8.828587 7.17141,16.0000004 16,16.0000004 8.82752,0 16,-7.1714134 16,-16.0000004 0,-8.8275196 -7.17141,-15.9999996 -16,-15.9999996 z"
     inkscape:connector-curvature="0" />
  <path
     d="m 16.015119,28.000018 c 0,0 -0.27528,-0.01211 -0.791088,-0.03446 -0.128796,-0.0092 -0.273738,-0.0047 -0.430771,-0.02638 -0.157046,-0.02299 -0.328672,-0.04778 -0.514256,-0.07483 -0.184976,-0.03007 -0.386391,-0.04932 -0.596502,-0.09406 -0.209178,-0.05026 -0.431391,-0.103646 -0.666019,-0.160132 C 12.086347,27.364999 10.960384,26.974881 9.804001,26.258897 8.6501077,25.55005 7.4400377,24.555055 6.4118317,23.192602 c -1.01424,-1.362758 -1.846604,-3.087083 -2.221512,-5.069626 -0.055295,-0.246111 -0.067391,-0.499361 -0.102729,-0.75292 l -0.04467,-0.383287 -0.0221,-0.193041 -0.005,-0.222524 c -0.003,-0.493773 -0.046,-0.954028 0.0239,-1.530976 0.02796,-0.274043 0.0385,-0.564224 0.0859,-0.833611 0.05065,-0.268767 0.101534,-0.538775 0.152433,-0.810335 0.041,-0.275905 0.134698,-0.537844 0.21011,-0.808472 l 0.121351,-0.405013 c 0.0372,-0.136866 0.08536,-0.270007 0.142446,-0.399736 0.388877,-1.071342 0.97824,-2.0846487 1.677157,-3.0417807 0.186212,-0.2299726 0.376156,-0.4593244 0.569818,-0.6874345 0.185894,-0.2358689 0.417111,-0.4289096 0.626285,-0.6458471 l 0.323725,-0.317182 c 0.109868,-0.1039687 0.23183,-0.193971 0.34791,-0.2917326 0.23648,-0.1902473 0.471111,-0.3860807 0.720017,-0.5629826 C 10.015899,5.5275632 11.137832,4.9776154 12.320589,4.5822244 13.510182,4.1949022 14.764632,4.0378631 16.014421,4 l 0.284907,0.012414 0.206083,0.011796 0.412453,0.023587 0.206077,0.011796 c 0.06636,0.00283 0.13656,0.00713 0.223763,0.022031 l 0.492848,0.072931 0.491912,0.077278 0.245173,0.040348 0.2278,0.058033 c 0.303223,0.076968 0.60333,0.1641774 0.903443,0.247663 1.182453,0.3972529 2.306863,0.9428554 3.305896,1.6526354 0.249523,0.175971 0.482593,0.3745978 0.721573,0.5614306 0.116076,0.097761 0.238357,0.1880748 0.34822,0.2920433 l 0.32401,0.3174927 c 0.209483,0.2172478 0.440699,0.4102874 0.626603,0.6464674 0.190866,0.2296617 0.381426,0.4587033 0.571353,0.6868133 0.698303,0.9586842 1.290153,1.9713703 1.678713,3.0439533 0.384529,1.068859 0.647089,2.157893 0.709471,3.234201 0.0677,0.533809 0.031,1.066687 0.02734,1.585599 l -0.0064,0.232455 -0.02209,0.180316 -0.04404,0.359079 c -0.03506,0.243318 -0.04495,0.465532 -0.100246,0.721574 -0.0549,0.252939 -0.10956,0.504326 -0.16356,0.75385 -0.02947,0.122901 -0.0503,0.249215 -0.08724,0.366528 l -0.11442,0.348218 c -0.0763,0.229663 -0.151763,0.457461 -0.226865,0.683401 -0.0912,0.220039 -0.190872,0.434188 -0.284594,0.647398 -0.169458,0.433878 -0.412772,0.824303 -0.627229,1.214414 -0.101179,0.198632 -0.234932,0.37615 -0.358459,0.555845 -0.123211,0.179386 -0.244864,0.356909 -0.365593,0.532568 -1.029138,1.362454 -2.240142,2.357141 -3.394653,3.065368 -1.156698,0.715992 -2.282972,1.105172 -3.2131,1.350662 -0.234628,0.0562 -0.456841,0.109559 -0.666019,0.159832 -0.210111,0.04468 -0.411222,0.06392 -0.596188,0.09406 -0.185289,0.02701 -0.356908,0.05182 -0.51395,0.07483 -0.157348,0.02207 -0.302594,0.01741 -0.431085,0.02638 -0.516425,0.02265 -0.791714,0.03477 -0.791714,0.03477 z m 0,0 c 0,0 0.274973,-0.01581 0.790474,-0.04529 0.128485,-0.01087 0.273426,-0.0081 0.430156,-0.03231 0.156729,-0.02512 0.327423,-0.05214 0.512074,-0.08163 0.184044,-0.03258 0.384537,-0.0543 0.593097,-0.101794 0.206697,-0.05679 0.42611,-0.117004 0.658254,-0.180627 0.914927,-0.27963 2.019785,-0.708227 3.097957,-1.495905 1.081587,-0.767195 2.160379,-1.846917 2.975365,-3.235442 0.389501,-0.702956 0.74888,-1.457421 0.98072,-2.280795 0.0571,-0.205763 0.119484,-0.410905 0.173181,-0.619464 0.03784,-0.212595 0.07567,-0.426738 0.114211,-0.642435 l 0.05809,-0.322455 c 0.01801,-0.107693 0.01801,-0.214144 0.02796,-0.320906 0.01616,-0.211972 0.03257,-0.425496 0.04903,-0.640571 0.01863,-0.211661 -0.004,-0.468945 -0.003,-0.703883 l -0.0074,-0.361873 -0.004,-0.181868 c 6.27e-4,-0.04283 -9.23e-4,0.03258 -0.002,0.01707 l -0.003,-0.0211 -0.006,-0.04221 -0.01116,-0.08442 c -0.06354,-0.450014 -0.09206,-0.904994 -0.218374,-1.349421 -0.175356,-0.900648 -0.546222,-1.764052 -0.961787,-2.593318 -0.11545,-0.201731 -0.231529,-0.404392 -0.347911,-0.607984 -0.117618,-0.20142 -0.269076,-0.384219 -0.397559,-0.579432 l -0.199872,-0.28894 -0.228417,-0.269387 C 23.929412,10.75704 23.787267,10.569587 23.622773,10.400754 22.976308,9.711768 22.220906,9.132647 21.427022,8.620563 L 20.806007,8.2757595 C 20.604581,8.1503763 20.373368,8.0824088 20.162021,7.9771989 L 19.839249,7.82947 C 19.730319,7.783536 19.615172,7.752502 19.503759,7.7127771 19.278129,7.6407751 19.057781,7.552324 18.829358,7.4905634 18.598143,7.4371814 18.366619,7.3875262 18.13727,7.3279377 l -0.171941,-0.04345 -0.162315,-0.021725 -0.324009,-0.047172 -0.323388,-0.051828 c -0.0481,-0.01148 -0.115449,-0.014898 -0.186833,-0.017072 l -0.206381,-0.009 -0.412772,-0.018001 -0.206391,-0.009 -0.103035,-0.00464 -0.05151,-0.0031 -0.02575,-0.00154 c 0.0264,3.103e-4 -0.09557,-0.0031 0.0528,6.208e-4 -0.952791,0.01397 -1.897199,0.1418319 -2.814598,0.3845286 -0.228737,0.061761 -0.449085,0.1505218 -0.674714,0.222524 -0.111417,0.039724 -0.22656,0.071074 -0.335491,0.1170035 l -0.323075,0.1471153 c -0.21321,0.1017908 -0.443498,0.1725515 -0.645228,0.2973139 L 10.601315,8.6156297 C 9.803697,9.1242942 9.0517017,9.7083806 8.4018297,10.394884 c -0.164495,0.169142 -0.306638,0.356596 -0.462435,0.533498 l -0.22842,0.269677 -0.199876,0.28925 c -0.129408,0.194903 -0.28117,0.377703 -0.398797,0.579744 -0.116382,0.203592 -0.232451,0.406563 -0.34791,0.608604 -0.128797,0.197695 -0.197067,0.420839 -0.301661,0.629087 -0.09308,0.212593 -0.206695,0.419289 -0.270009,0.641503 -0.07543,0.21973 -0.150213,0.43853 -0.224695,0.656399 -0.07267,0.218178 -0.105518,0.428598 -0.162314,0.643674 -0.124451,0.401288 -0.159525,0.928889 -0.223459,1.404042 l -0.01116,0.09062 -0.0059,0.04531 -0.003,0.02265 c -0.002,0.01614 9.22e-4,-0.05958 0,-0.01738 l -0.004,0.169143 -0.0084,0.337665 c 0,0.224386 -0.0242,0.450944 -0.006,0.672227 0.0748,1.782673 0.598052,3.471308 1.409936,4.859216 0.81561,1.388521 1.895648,2.467932 2.9778453,3.234201 1.078484,0.787365 2.183963,1.215348 3.098583,1.494975 0.232145,0.06361 0.45156,0.123832 0.658256,0.180313 0.208874,0.04744 0.409052,0.06918 0.593085,0.101486 0.184661,0.02949 0.355671,0.05679 0.512086,0.08163 0.15673,0.02422 0.301976,0.0214 0.43046,0.03231 0.515814,0.02948 0.790781,0.04529 0.790781,0.04529 z"
     id="path2-3"
     style="fill:#eff0f1;fill-opacity:1;stroke-width:0.310357" />
  <path
     d="m 19.316897,13.547471 3.180535,1.288855 -0.765745,0.375702 c 0.315629,0.745449 0.492749,1.564707 0.492749,2.426307 0,3.452815 -2.799167,6.253574 -6.2536,6.253574 -1.106593,0 -2.145295,-0.290534 -3.046845,-0.795183 l 0.63254,-0.909483 c 0.72707,0.36478 1.544757,0.575079 2.414306,0.575079 2.982968,0 5.122985,-2.141348 5.122985,-5.12308 0,-0.800169 -0.276925,-1.553836 -0.589847,-2.236812 z m -3.344709,-1.034074 c -2.98297,0 -5.122674,2.142025 -5.122674,5.124938 0,0.800188 0.276925,1.554009 0.589847,2.236994 l 1.188,1.761758 -3.1804163,-1.197047 0.7657223,-0.37561 c -0.315609,-0.745671 -0.49272,-1.564726 -0.49272,-2.426095 -9.24e-4,-3.453285 2.799193,-6.253697 6.252232,-6.253697 1.106665,0 2.145349,0.290215 3.04687,0.794898 l -0.632491,0.817553 c -0.727146,-0.364855 -1.546136,-0.483692 -2.41437,-0.483692 z"
     id="path4-9-3"
     sodipodi:nodetypes="cccssccssccccccccccccc"
     style="fill:#eff0f1;fill-opacity:1;stroke-width:0.0133164" />
</svg>
