<?xml version="1.0" encoding="UTF-8" standalone="no"?>
<svg
   xmlns:dc="http://purl.org/dc/elements/1.1/"
   xmlns:cc="http://creativecommons.org/ns#"
   xmlns:rdf="http://www.w3.org/1999/02/22-rdf-syntax-ns#"
   xmlns:svg="http://www.w3.org/2000/svg"
   xmlns="http://www.w3.org/2000/svg"
   xmlns:xlink="http://www.w3.org/1999/xlink"
   xmlns:sodipodi="http://sodipodi.sourceforge.net/DTD/sodipodi-0.dtd"
   xmlns:inkscape="http://www.inkscape.org/namespaces/inkscape"
   width="32"
   version="1.1"
   height="32"
   viewBox="0 0 32 32"
   id="svg15"
   sodipodi:docname="folder-black.svg"
   inkscape:version="1.0.2 (e86c870879, 2021-01-15)">
  <sodipodi:namedview
     pagecolor="#ffffff"
     bordercolor="#666666"
     borderopacity="1"
     objecttolerance="10"
     gridtolerance="10"
     guidetolerance="10"
     inkscape:pageopacity="0"
     inkscape:pageshadow="2"
     inkscape:window-width="1920"
     inkscape:window-height="1007"
     id="namedview17"
     showgrid="false"
     inkscape:zoom="9.8125"
     inkscape:cx="-11.174306"
     inkscape:cy="4.2125611"
     inkscape:window-x="0"
     inkscape:window-y="0"
     inkscape:window-maximized="1"
     inkscape:current-layer="layer1" />
  <defs
     id="defs5455">
    <linearGradient
       inkscape:collect="always"
       xlink:href="#linearGradient885"
       id="linearGradient858"
       x1="210.75999"
       y1="89.093002"
       x2="362.40799"
       y2="89.093002"
       gradientUnits="userSpaceOnUse"
       gradientTransform="matrix(0.05859382,0,0,0.06178774,385.57141,515.92946)" />
    <linearGradient
       inkscape:collect="always"
       id="linearGradient885">
      <stop
         style="stop-color:#00d3ff;stop-opacity:1"
         offset="0"
         id="stop881" />
      <stop
         style="stop-color:#005580;stop-opacity:1"
         offset="1"
         id="stop883" />
    </linearGradient>
    <linearGradient
       inkscape:collect="always"
       xlink:href="#linearGradient885"
       id="linearGradient862"
       x1="476.689"
       y1="163.60085"
       x2="319.6994"
       y2="162.04736"
       gradientUnits="userSpaceOnUse"
       gradientTransform="matrix(0.05859382,0,0,0.06178774,385.57141,515.92946)" />
  </defs>
  <metadata
     id="metadata5458">
    <rdf:RDF>
      <cc:Work
         rdf:about="">
        <dc:format>image/svg+xml</dc:format>
        <dc:type
           rdf:resource="http://purl.org/dc/dcmitype/StillImage" />
      </cc:Work>
    </rdf:RDF>
  </metadata>
  <g
     inkscape:label="Capa 1"
     inkscape:groupmode="layer"
     id="layer1"
     transform="translate(-384.57143,-515.798)">
    <path
       style="fill:url(#linearGradient858);fill-opacity:1;stroke-width:0.0601694"
       d="m 401.36765,522.2832 c 0.48399,0.50447 1.13727,0.78735 1.81803,0.78735 h 1.00639 2.61431 c -0.68065,0 -1.33402,-0.28288 -1.81805,-0.78735 l -1.62892,-1.69771 c -0.48429,-0.50456 -1.13732,-0.78749 -1.81796,-0.78749 h -3.62075 c 0.68059,0 1.33382,0.28293 1.81804,0.78749 z"
       id="path2" />
    <path
       style="fill:#006a80;fill-opacity:1;stroke-width:0.0601694"
       d="m 396.11792,520.58549 1.629,1.69771 c 0.48401,0.50447 1.13716,0.78735 1.81802,0.78735 h 1.00644 2.6143 c -0.68076,0 -1.33404,-0.28288 -1.81803,-0.78735 l -1.62891,-1.69771 c -0.48432,-0.50456 -1.13745,-0.78749 -1.81804,-0.78749 h -3.55616 -0.0655 c 0.68071,0 1.33381,0.283 1.81795,0.78749 z"
       id="path4" />
    <path
       style="fill:#3e3e3e;fill-opacity:1;stroke-width:0.0564462"
       d="m 414.01964,522.67803 h -6.20694 -1.00648 -2.61427 -1.00641 -2.61416 -1.00644 c -0.68086,0 -1.33401,-0.24898 -1.81802,-0.69302 l -1.629,-1.49402 c -0.48423,-0.44401 -1.1373,-0.69299 -1.818,-0.69299 h -3.55605 -3.62065 c -0.85708,0 -1.55179,0.64469 -1.55179,1.44002 v 2.88002 0.48004 17.7599 c 0,0.79533 0.69471,1.44002 1.55179,1.44002 h 26.89642 c 0.8571,0 1.55179,-0.64469 1.55179,-1.44002 v -18.23994 c 0,-0.79542 -0.69469,-1.44001 -1.55179,-1.44001 z m -10.88654,2.92921 0.008,-0.005 -0.007,-0.01 v 0 l 0.007,0.01 v 0 l -0.008,0.005 0.002,-0.01 z m 10.36948,0.43075 c 0,0.53014 -0.46317,0.95997 -1.03466,0.95997 h -7.24134 c -0.57133,0 -1.03454,-0.42983 -1.03454,-0.95997 v -0.48004 c 0,-0.53014 0.46321,-0.95997 1.03454,-0.95997 h 7.24134 c 0.57137,0 1.03456,0.42983 1.03456,0.95997 v 0.48004 z"
       id="path6"
       sodipodi:nodetypes="scccccsccscssccssssssccccccccccssssssscc" />
    <path
       style="fill:url(#linearGradient862);fill-opacity:1;stroke-width:0.0601694"
       d="m 412.46792,524.43062 h -7.24134 c -0.57133,0 -1.04622,0.48836 -1.04622,1.09076 v 0.54557 c 0,0.60242 0.47489,1.09076 1.04622,1.09076 h 7.24134 c 0.57137,0 1.10951,-0.4885 1.12232,-1.09076 l 0.0124,-0.54557 c 10e-5,-0.6024 -0.56257,-1.09076 -1.13405,-1.09076 z"
       id="path8"
       sodipodi:nodetypes="ssssssscs" />
  </g>
</svg>
