<?xml version="1.0" encoding="UTF-8" standalone="no"?>
<svg
   xmlns:dc="http://purl.org/dc/elements/1.1/"
   xmlns:cc="http://creativecommons.org/ns#"
   xmlns:rdf="http://www.w3.org/1999/02/22-rdf-syntax-ns#"
   xmlns:svg="http://www.w3.org/2000/svg"
   xmlns="http://www.w3.org/2000/svg"
   xmlns:xlink="http://www.w3.org/1999/xlink"
   xmlns:sodipodi="http://sodipodi.sourceforge.net/DTD/sodipodi-0.dtd"
   xmlns:inkscape="http://www.inkscape.org/namespaces/inkscape"
   width="32"
   version="1.1"
   height="32"
   viewBox="0 0 32 32"
   id="svg15"
   sodipodi:docname="folder-red.svg"
   inkscape:version="1.0.2 (e86c870879, 2021-01-15)">
  <sodipodi:namedview
     pagecolor="#ffffff"
     bordercolor="#666666"
     borderopacity="1"
     objecttolerance="10"
     gridtolerance="10"
     guidetolerance="10"
     inkscape:pageopacity="0"
     inkscape:pageshadow="2"
     inkscape:window-width="1920"
     inkscape:window-height="1007"
     id="namedview17"
     showgrid="false"
     inkscape:zoom="9.8125"
     inkscape:cx="-6.4186749"
     inkscape:cy="5.9925058"
     inkscape:window-x="0"
     inkscape:window-y="0"
     inkscape:window-maximized="1"
     inkscape:current-layer="g4261" />
  <defs
     id="defs5455">
    <linearGradient
       inkscape:collect="always"
       id="linearGradient4209">
      <stop
         style="stop-color:#eb0a42"
         id="stop4211" />
      <stop
         offset="1"
         style="stop-color:#f62459"
         id="stop4213" />
    </linearGradient>
    <linearGradient
       inkscape:collect="always"
       xlink:href="#linearGradient885"
       id="linearGradient940"
       gradientUnits="userSpaceOnUse"
       gradientTransform="matrix(0.05859379,0,0,0.06178774,385.57144,515.92949)"
       x1="210.75999"
       y1="89.093002"
       x2="362.40799"
       y2="89.093002" />
    <linearGradient
       inkscape:collect="always"
       id="linearGradient885">
      <stop
         style="stop-color:#00d3ff;stop-opacity:1"
         offset="0"
         id="stop881" />
      <stop
         style="stop-color:#005580;stop-opacity:1"
         offset="1"
         id="stop883" />
    </linearGradient>
    <linearGradient
       inkscape:collect="always"
       xlink:href="#linearGradient4209"
       id="linearGradient859"
       x1="0"
       y1="256.82327"
       x2="512"
       y2="256.82327"
       gradientUnits="userSpaceOnUse"
       gradientTransform="matrix(0.05859379,0,0,0.06178774,385.57144,515.92949)" />
    <linearGradient
       inkscape:collect="always"
       xlink:href="#linearGradient885"
       id="linearGradient862"
       x1="476.689"
       y1="163.60085"
       x2="319.6994"
       y2="162.04736"
       gradientUnits="userSpaceOnUse"
       gradientTransform="matrix(0.05859379,0,0,0.06178774,385.57144,515.92949)" />
  </defs>
  <metadata
     id="metadata5458">
    <rdf:RDF>
      <cc:Work
         rdf:about="">
        <dc:format>image/svg+xml</dc:format>
        <dc:type
           rdf:resource="http://purl.org/dc/dcmitype/StillImage" />
      </cc:Work>
    </rdf:RDF>
  </metadata>
  <g
     inkscape:label="Capa 1"
     inkscape:groupmode="layer"
     id="g4261"
     transform="translate(-384.57143,-515.798)">
    <path
       style="fill:url(#linearGradient940);fill-opacity:1;stroke-width:0.0601698"
       d="m 401.36762,522.2832 c 0.48405,0.50451 1.13729,0.78742 1.81793,0.78742 h 1.00659 2.61413 c -0.68065,0 -1.33384,-0.28291 -1.81794,-0.78742 l -1.629,-1.6977 c -0.48422,-0.50459 -1.13732,-0.7875 -1.81791,-0.7875 h -3.62073 c 0.68055,0 1.33378,0.28291 1.81794,0.7875 z"
       id="path2" />
    <path
       style="fill:#006a80;fill-opacity:1;stroke-width:0.0601698"
       d="m 396.11782,520.5855 1.62909,1.6977 c 0.48403,0.50451 1.13724,0.78742 1.81791,0.78742 h 1.00661 2.61412 c -0.68064,0 -1.33388,-0.28291 -1.81793,-0.78742 l -1.62899,-1.6977 c -0.48422,-0.50459 -1.13739,-0.7875 -1.81794,-0.7875 h -3.55616 -0.0647 c 0.68066,0 1.33379,0.28297 1.81789,0.7875 z"
       id="path4" />
    <path
       style="fill:url(#linearGradient859);fill-opacity:1;stroke-width:0.0564453"
       d="m 414.01968,522.67802 h -6.20693 -1.00657 -2.61417 -1.00658 -2.614 -1.00661 c -0.68067,0 -1.33388,-0.24898 -1.81791,-0.693 l -1.62909,-1.49403 c -0.48415,-0.44402 -1.13728,-0.69299 -1.81794,-0.69299 h -3.55603 -3.62067 c -0.85698,0 -1.55175,0.6447 -1.55175,1.44001 v 2.88001 0.48002 17.75995 c 0,0.79531 0.69477,1.44001 1.55175,1.44001 h 26.8965 c 0.85699,0 1.55175,-0.6447 1.55175,-1.44001 v -18.23997 c 0,-0.79537 -0.69476,-1.44 -1.55175,-1.44 z m -10.88655,2.92929 0.004,-0.003 -0.003,-0.005 v 0 l 0.003,0.005 v 0 l -0.004,0.003 0.001,-0.008 z m 10.36939,0.43068 c 0,0.53015 -0.46314,0.95999 -1.03454,0.95999 h -7.24136 c -0.5714,0 -1.03455,-0.42984 -1.03455,-0.95999 v -0.48001 c 0,-0.53015 0.46315,-0.95999 1.03455,-0.95999 h 7.24131 c 0.57139,0 1.03453,0.42984 1.03453,0.95999 v 0.48001 z"
       id="path6"
       sodipodi:nodetypes="scccccsccscssccssssssccccccccccssssssscc" />
    <path
       style="fill:url(#linearGradient862);fill-opacity:1;stroke-width:0.0601698"
       d="m 412.46793,524.43061 h -7.24131 c -0.5714,0 -1.04624,0.48838 -1.04624,1.09082 v 0.5455 c 0,0.60243 0.47484,1.09082 1.04624,1.09082 h 7.24131 c 0.57139,0 1.10943,-0.48855 1.12241,-1.09082 l 0.0117,-0.5455 c 6e-5,-0.60244 -0.56267,-1.09082 -1.1341,-1.09082 z"
       id="path8"
       sodipodi:nodetypes="ssssssscs" />
  </g>
</svg>
