<?xml version="1.0" encoding="UTF-8" standalone="no"?>
<svg
   xmlns:dc="http://purl.org/dc/elements/1.1/"
   xmlns:cc="http://creativecommons.org/ns#"
   xmlns:rdf="http://www.w3.org/1999/02/22-rdf-syntax-ns#"
   xmlns:svg="http://www.w3.org/2000/svg"
   xmlns="http://www.w3.org/2000/svg"
   xmlns:xlink="http://www.w3.org/1999/xlink"
   xmlns:sodipodi="http://sodipodi.sourceforge.net/DTD/sodipodi-0.dtd"
   xmlns:inkscape="http://www.inkscape.org/namespaces/inkscape"
   width="32"
   version="1.1"
   height="32"
   viewBox="0 0 32 32"
   id="svg15"
   sodipodi:docname="folder-IOTA.svg"
   inkscape:version="1.0.2 (e86c870879, 2021-01-15)">
  <sodipodi:namedview
     pagecolor="#ffffff"
     bordercolor="#666666"
     borderopacity="1"
     objecttolerance="10"
     gridtolerance="10"
     guidetolerance="10"
     inkscape:pageopacity="0"
     inkscape:pageshadow="2"
     inkscape:window-width="1920"
     inkscape:window-height="1007"
     id="namedview17"
     showgrid="false"
     inkscape:zoom="9.8125"
     inkscape:cx="-12.999029"
     inkscape:cy="6.4668704"
     inkscape:window-x="0"
     inkscape:window-y="0"
     inkscape:window-maximized="1"
     inkscape:current-layer="layer1"
     inkscape:document-rotation="0" />
  <defs
     id="defs5455">
    <linearGradient
       inkscape:collect="always"
       xlink:href="#linearGradient885"
       id="linearGradient858"
       x1="210.75999"
       y1="89.093002"
       x2="362.40799"
       y2="89.093002"
       gradientUnits="userSpaceOnUse"
       gradientTransform="matrix(0.05859385,0,0,0.06178763,385.57143,515.92958)" />
    <linearGradient
       inkscape:collect="always"
       id="linearGradient885">
      <stop
         style="stop-color:#00d3ff;stop-opacity:1"
         offset="0"
         id="stop881" />
      <stop
         style="stop-color:#005580;stop-opacity:1"
         offset="1"
         id="stop883" />
    </linearGradient>
    <linearGradient
       inkscape:collect="always"
       xlink:href="#linearGradient847"
       id="linearGradient859"
       x1="0"
       y1="256.82327"
       x2="512"
       y2="256.82327"
       gradientUnits="userSpaceOnUse"
       gradientTransform="matrix(0.05859385,0,0,0.06178763,385.57143,515.92958)" />
    <linearGradient
       inkscape:collect="always"
       id="linearGradient847">
      <stop
         style="stop-color:#00d3ff;stop-opacity:1"
         offset="0"
         id="stop843" />
      <stop
         style="stop-color:#006899;stop-opacity:1"
         offset="1"
         id="stop845" />
    </linearGradient>
    <linearGradient
       inkscape:collect="always"
       xlink:href="#linearGradient885"
       id="linearGradient862"
       x1="476.689"
       y1="163.60085"
       x2="319.6994"
       y2="162.04736"
       gradientUnits="userSpaceOnUse"
       gradientTransform="matrix(0.05859385,0,0,0.06178763,385.57143,515.92958)" />
  </defs>
  <metadata
     id="metadata5458">
    <rdf:RDF>
      <cc:Work
         rdf:about="">
        <dc:format>image/svg+xml</dc:format>
        <dc:type
           rdf:resource="http://purl.org/dc/dcmitype/StillImage" />
      </cc:Work>
    </rdf:RDF>
  </metadata>
  <g
     inkscape:label="Capa 1"
     inkscape:groupmode="layer"
     id="layer1"
     transform="translate(-384.57143,-515.798)">
    <path
       style="fill:url(#linearGradient858);fill-opacity:1;stroke-width:0.06017"
       d="m 401.36756,522.28319 c 0.484,0.50449 1.13728,0.78734 1.81807,0.78734 h 1.00651 2.61421 c -0.6808,0 -1.33405,-0.28285 -1.81805,-0.78734 l -1.62892,-1.69761 c -0.48423,-0.50474 -1.1374,-0.78758 -1.81795,-0.78758 h -3.62078 c 0.6806,0 1.33386,0.28284 1.81802,0.78758 z"
       id="path2" />
    <path
       style="fill:#006a80;fill-opacity:1;stroke-width:0.06017"
       d="m 396.11785,520.58558 1.62897,1.69761 c 0.48402,0.50449 1.13723,0.78734 1.81802,0.78734 h 1.00659 2.6142 c -0.68079,0 -1.33407,-0.28285 -1.81807,-0.78734 l -1.62889,-1.69761 c -0.48425,-0.50474 -1.13742,-0.78758 -1.81802,-0.78758 h -3.55613 -0.0644 c 0.68066,0 1.3338,0.28285 1.81786,0.78758 z"
       id="path4" />
    <path
       style="fill:url(#linearGradient859);fill-opacity:1;stroke-width:0.0564447"
       d="m 414.01965,522.67803 h -6.20682 -1.00665 -2.61405 -1.00668 -2.61402 -1.00659 c -0.68079,0 -1.334,-0.249 -1.81802,-0.69304 l -1.62897,-1.49398 c -0.48417,-0.44401 -1.1373,-0.69301 -1.81807,-0.69301 h -3.55595 -3.62071 c -0.85707,0 -1.55169,0.64468 -1.55169,1.44002 v 2.88002 0.48004 17.7599 c 0,0.79534 0.69462,1.44002 1.55169,1.44002 h 26.89653 c 0.85699,0 1.55178,-0.64468 1.55178,-1.44002 v -18.23994 c 0,-0.79544 -0.69479,-1.44001 -1.55178,-1.44001 z m -10.8864,2.92916 0.008,-0.005 -0.007,-0.01 v 0 l 0.007,0.01 v 0 l -0.008,0.005 0.002,-0.01 z m 10.3694,0.4308 c 0,0.53005 -0.46316,0.95997 -1.03466,0.95997 h -7.24134 c -0.57138,0 -1.03452,-0.42992 -1.03452,-0.95997 v -0.48004 c 0,-0.53 0.46314,-0.95997 1.03452,-0.95997 h 7.24127 c 0.57157,0 1.03462,0.42997 1.03462,0.95997 v 0.48004 z"
       id="path6"
       sodipodi:nodetypes="scccccsccscssccssssssccccccccccssssssscc" />
    <path
       style="fill:url(#linearGradient862);fill-opacity:1;stroke-width:0.06017"
       d="m 412.46792,524.4306 h -7.24127 c -0.57138,0 -1.04623,0.4884 -1.04623,1.09081 v 0.54565 c 0,0.60246 0.47485,1.09053 1.04623,1.09053 h 7.24127 c 0.57157,0 1.10948,-0.48838 1.12247,-1.09053 l 0.0123,-0.54565 c 0,-0.60241 -0.56277,-1.09081 -1.13427,-1.09081 z"
       id="path8"
       sodipodi:nodetypes="ssssssscs" />
    <path
       style="isolation:isolate;fill:#004666;fill-opacity:1;stroke-width:0.653841"
       class="ColorScheme-Text"
       d="m 392.60102,540.06548 c 0.21013,-0.01 0.40127,-0.12544 0.50595,-0.30766 0.0822,-0.14174 0.10469,-0.30951 0.0627,-0.46757 -0.0431,-0.1581 -0.14597,-0.29263 -0.288,-0.37497 -0.14204,-0.082 -0.31088,-0.10382 -0.46926,-0.0618 -0.15776,0.0427 -0.29322,0.14561 -0.37506,0.2874 -0.0822,0.14168 -0.10406,0.30955 -0.062,0.4676 0.0425,0.15803 0.14595,0.29266 0.28799,0.37422 0.1021,0.0591 0.2199,0.088 0.33774,0.0827 z m 3.97556,-0.96341 c 0.10342,0 0.20289,-0.0418 0.27621,-0.11429 0.0736,-0.0734 0.11388,-0.17178 0.11388,-0.27496 0,-0.21489 -0.17478,-0.38862 -0.39009,-0.38862 -0.21469,0 -0.38881,0.17439 -0.38881,0.38862 0,0.21419 0.17412,0.38861 0.38881,0.38925 z m -0.98114,-0.0993 c 0.0904,0 0.1774,-0.0354 0.24087,-0.0992 0.0645,-0.0646 0.10015,-0.15029 0.0995,-0.24036 0,-0.18751 -0.15249,-0.33902 -0.34034,-0.33902 -0.1872,0 -0.33903,0.1522 -0.33967,0.33902 0,0.18739 0.15183,0.33958 0.33967,0.33958 z m 2.12131,-0.0384 c 0.12178,0 0.23894,-0.0477 0.32464,-0.13389 0.0861,-0.0859 0.1348,-0.20313 0.1348,-0.32459 0,-0.12154 -0.0479,-0.23776 -0.1348,-0.324 -0.0854,-0.0854 -0.20286,-0.13387 -0.32464,-0.13387 -0.12176,0 -0.23823,0.0477 -0.32467,0.13387 -0.086,0.0859 -0.13417,0.20246 -0.13417,0.324 0,0.12146 0.0472,0.23836 0.13417,0.32459 0.0861,0.0852 0.20291,0.13389 0.32467,0.13389 z m -2.92894,-0.23779 c 0.16359,0 0.29581,-0.13194 0.29581,-0.29453 5.1e-4,-0.0781 -0.0316,-0.15352 -0.0861,-0.209 -0.055,-0.0552 -0.13088,-0.0866 -0.20937,-0.0858 -0.16302,0 -0.29521,0.13193 -0.29521,0.29522 4.9e-4,0.16258 0.13219,0.29389 0.29521,0.29451 z m -2.35697,-0.32004 c 0.17936,-0.01 0.343,-0.10772 0.43264,-0.26321 0.14594,-0.25273 0.0583,-0.57474 -0.19372,-0.72039 -0.25265,-0.14565 -0.57533,-0.0591 -0.72196,0.1927 -0.07,0.12148 -0.0889,0.26517 -0.0533,0.40037 0.036,0.13521 0.12504,0.25081 0.2461,0.32068 0.0881,0.0506 0.18848,0.0749 0.28996,0.0698 z m 1.74234,-0.0554 c 0.0675,0 0.13351,-0.0262 0.18194,-0.0747 0.0474,-0.0472 0.0752,-0.11299 0.0752,-0.18089 0,-0.0673 -0.0263,-0.13328 -0.0752,-0.1809 -0.048,-0.0478 -0.11323,-0.0751 -0.18194,-0.0751 -0.0671,0 -0.13285,0.0271 -0.18063,0.0751 -0.0479,0.0477 -0.075,0.11299 -0.075,0.1809 0,0.14109 0.11454,0.25537 0.25523,0.25537 z m -3.08605,-0.13392 c 0.17937,-0.01 0.34236,-0.10776 0.43264,-0.2632 0.14527,-0.25212 0.0582,-0.57414 -0.19379,-0.72038 -0.12111,-0.0698 -0.26566,-0.0887 -0.40122,-0.0533 -0.1354,0.0358 -0.25061,0.12472 -0.32065,0.24623 -0.14596,0.25206 -0.0582,0.57409 0.19368,0.71972 0.0875,0.0517 0.18786,0.0748 0.28934,0.0708 z m 5.31209,-0.24229 c 0.21465,0 0.38941,-0.17439 0.38876,-0.38928 0,-0.21423 -0.17411,-0.38793 -0.38876,-0.38793 -0.21536,0 -0.39008,0.1737 -0.39008,0.38793 0,0.10386 0.0413,0.20247 0.11388,0.27563 0.0736,0.0734 0.17274,0.11365 0.2762,0.11365 z m -2.68161,-0.0689 c 0.0574,4.6e-4 0.11258,-0.0227 0.15318,-0.063 0.0412,-0.041 0.0642,-0.0951 0.0642,-0.15282 0,-0.0571 -0.0232,-0.11231 -0.0642,-0.15279 -0.0413,-0.041 -0.0954,-0.064 -0.15318,-0.064 -0.0565,0 -0.11257,0.0232 -0.15312,0.064 -0.0412,0.041 -0.0633,0.0952 -0.0633,0.15279 0,0.0572 0.0229,0.11235 0.0633,0.15282 0.0413,0.041 0.0961,0.064 0.15312,0.063 z m 1.70045,-0.0287 c 0.18718,-5.6e-4 0.33972,-0.15217 0.33972,-0.33967 -5.1e-4,-0.18741 -0.15254,-0.33898 -0.33972,-0.33898 -0.18784,0 -0.34031,0.15157 -0.34031,0.33898 -5.3e-4,0.0902 0.0349,0.17637 0.0994,0.24039 0.0642,0.0639 0.15056,0.0993 0.24086,0.0993 z m 2.11999,-0.0384 c 0.12176,0 0.2389,-0.0477 0.32531,-0.13456 0.0856,-0.0852 0.13422,-0.20248 0.13422,-0.32394 0,-0.12147 -0.0479,-0.23775 -0.13422,-0.32395 -0.0861,-0.086 -0.20355,-0.13456 -0.32531,-0.13456 -0.12171,0 -0.23823,0.0478 -0.32459,0.13456 -0.0854,0.0858 -0.13422,0.20248 -0.13422,0.32395 0,0.12146 0.0477,0.23837 0.13422,0.32394 0.086,0.0859 0.20288,0.13456 0.32459,0.13456 z m -2.92764,-0.23778 c 0.16296,-4.5e-4 0.29453,-0.13253 0.2952,-0.29517 0,-0.16267 -0.13224,-0.29458 -0.2952,-0.29522 -0.0782,0 -0.1538,0.032 -0.20947,0.0866 -0.0554,0.055 -0.0869,0.13063 -0.0869,0.20838 5.6e-4,0.16324 0.13289,0.29516 0.29652,0.29516 z m 4.17651,-0.21749 c 0.29192,0 0.52885,-0.23647 0.52885,-0.52772 0,-0.2913 -0.23693,-0.52709 -0.52885,-0.52709 -0.29193,0 -0.52819,0.23579 -0.52819,0.52709 0,0.29125 0.23626,0.52772 0.52819,0.52772 z m -4.79114,-0.15807 c 0.14139,0 0.25595,-0.11433 0.25595,-0.2554 0,-0.14107 -0.11456,-0.25533 -0.25595,-0.25533 -0.14131,0 -0.25591,0.11426 -0.25591,0.25533 0,0.14107 0.1146,0.2554 0.25591,0.2554 z m -1.39867,-0.22793 c 0.15578,-0.01 0.29779,-0.0937 0.37568,-0.22793 0.0614,-0.10581 0.0776,-0.23059 0.0455,-0.34814 -0.0319,-0.1176 -0.10864,-0.21754 -0.21404,-0.27824 -0.21993,-0.12669 -0.50005,-0.0517 -0.62705,0.16784 -0.12625,0.21881 -0.0525,0.49897 0.16754,0.62572 0.0762,0.0445 0.16363,0.0651 0.25198,0.0612 z m -1.34368,-0.18876 c 0.1557,-0.01 0.29713,-0.0937 0.37562,-0.22862 0.0614,-0.10516 0.0769,-0.23052 0.0456,-0.34744 -0.0321,-0.11758 -0.10799,-0.21812 -0.21403,-0.2789 -0.10537,-0.0612 -0.23103,-0.0767 -0.34821,-0.0452 -0.11783,0.032 -0.21867,0.10844 -0.2795,0.21357 -0.12634,0.21943 -0.0519,0.49966 0.16883,0.62573 0.0756,0.0448 0.16367,0.0652 0.25136,0.0618 z m 4.6372,-0.0879 c 0.21538,0 0.39007,-0.17375 0.39007,-0.38867 0,-0.10315 -0.0412,-0.2018 -0.11386,-0.27495 -0.0736,-0.0734 -0.17277,-0.11428 -0.27621,-0.11428 -0.10337,0 -0.20225,0.0418 -0.27554,0.11428 -0.0736,0.0734 -0.11455,0.1718 -0.11389,0.27495 0,0.21492 0.17478,0.38867 0.38943,0.38867 z m -0.98111,-0.0979 c 0.0904,0 0.17739,-0.0356 0.24084,-0.0999 0.0648,-0.064 0.0995,-0.15026 0.0995,-0.23976 0,-0.0901 -0.0352,-0.177 -0.0995,-0.24034 -0.0642,-0.0646 -0.15051,-0.0999 -0.24084,-0.0999 -0.18782,4.9e-4 -0.3397,0.15284 -0.3397,0.34026 0,0.18685 0.15188,0.33898 0.3397,0.33968 z m 2.12128,-0.0409 c 0.12176,0 0.23894,-0.0477 0.32469,-0.13388 0.086,-0.0859 0.1348,-0.20248 0.1348,-0.32395 0,-0.12148 -0.0478,-0.23842 -0.1348,-0.32399 -0.0854,-0.0859 -0.20293,-0.13453 -0.32469,-0.13453 -0.12174,0 -0.23821,0.0478 -0.32461,0.13453 -0.0854,0.0854 -0.1342,0.20251 -0.1342,0.32399 0,0.12148 0.0478,0.23772 0.1342,0.32395 0.086,0.0854 0.20287,0.13388 0.32461,0.13388 z m -6.84556,-0.18286 c 0.15635,-0.01 0.29838,-0.0936 0.3763,-0.22862 0.0615,-0.10514 0.0775,-0.23058 0.0456,-0.34809 -0.0321,-0.11761 -0.1087,-0.21755 -0.21402,-0.27828 -0.21999,-0.12604 -0.5001,-0.0516 -0.62712,0.16786 -0.12624,0.21948 -0.0525,0.499 0.16759,0.62571 0.0761,0.0445 0.16355,0.0652 0.25132,0.0619 z m 3.91657,-0.0548 c 0.0783,0 0.15385,-0.0314 0.20946,-0.0858 0.0554,-0.0552 0.0869,-0.13066 0.0869,-0.209 -5.4e-4,-0.16265 -0.13284,-0.29456 -0.29654,-0.29456 -0.16296,0 -0.29448,0.13191 -0.29517,0.29456 0,0.16326 0.13221,0.29519 0.29517,0.29519 z m 4.17785,-0.21745 c 0.29189,0 0.52819,-0.23577 0.52819,-0.5271 0,-0.29128 -0.2363,-0.52773 -0.52819,-0.52773 -0.2919,0 -0.52819,0.23645 -0.52819,0.52773 0,0.29133 0.23629,0.5271 0.52819,0.5271 z m -5.29636,-0.28801 c 0.13217,-0.01 0.25263,-0.0788 0.31936,-0.19398 0.10736,-0.18615 0.0437,-0.42386 -0.1433,-0.53098 -0.18594,-0.10712 -0.42413,-0.0436 -0.53215,0.14235 -0.10734,0.18615 -0.0443,0.4239 0.14205,0.53098 0.0649,0.0369 0.1394,0.0554 0.21404,0.0521 z m -1.34373,-0.18871 c 0.13285,-0.01 0.2526,-0.0797 0.3187,-0.19471 0.10738,-0.18546 0.0446,-0.42322 -0.14201,-0.53098 -0.0896,-0.0523 -0.19638,-0.0652 -0.2958,-0.0379 -0.1002,0.0262 -0.18529,0.0922 -0.23695,0.18154 -0.10738,0.18554 -0.0446,0.42328 0.14264,0.531 0.065,0.0369 0.13874,0.0548 0.21342,0.0521 z m 4.20199,-0.30902 c 0.0495,-4.5e-4 0.0982,-0.015 0.14137,-0.0397 0.14139,-0.0819 0.18918,-0.26192 0.108,-0.40298 -0.0822,-0.1411 -0.26312,-0.18875 -0.40384,-0.10775 -0.14138,0.0819 -0.18985,0.26251 -0.10801,0.40298 0.0543,0.0937 0.15446,0.1502 0.26248,0.14758 z m 3.71833,-0.0544 c 0.16362,0 0.32071,-0.0652 0.43653,-0.18092 0.11587,-0.11565 0.18068,-0.27239 0.18068,-0.43568 0,-0.34027 -0.27622,-0.61653 -0.61721,-0.61653 -0.16428,0 -0.32139,0.0649 -0.43722,0.18026 -0.11581,0.1156 -0.18135,0.27232 -0.18135,0.43627 0,0.16329 0.065,0.32003 0.18135,0.4363 0.11583,0.11557 0.27294,0.18028 0.43722,0.18028 z m -8.98787,-0.0457 c 0.13225,-0.01 0.25261,-0.0796 0.31943,-0.19463 0.10728,-0.18547 0.0437,-0.42326 -0.14335,-0.53101 -0.18656,-0.10711 -0.42417,-0.0436 -0.53216,0.14302 -0.10737,0.18554 -0.0444,0.42323 0.14207,0.53102 0.0646,0.0369 0.13944,0.0551 0.21401,0.052 z m 2.9427,-0.27368 c 0.11521,-0.01 0.22064,-0.0689 0.27816,-0.16982 0.0454,-0.0774 0.0573,-0.17043 0.0347,-0.25732 -0.0232,-0.0873 -0.0806,-0.1613 -0.15838,-0.20637 -0.0782,-0.0448 -0.1715,-0.0571 -0.25854,-0.0348 -0.0869,0.0232 -0.16169,0.0804 -0.20685,0.15809 -0.0451,0.0782 -0.0572,0.17114 -0.0345,0.258 0.0243,0.0866 0.0807,0.16132 0.15905,0.20641 0.0557,0.0331 0.12113,0.0478 0.18651,0.0448 z m 3.17703,-0.0331 c 0.0437,-0.002 0.0856,-0.0135 0.12242,-0.0349 0.0585,-0.0344 0.10213,-0.0894 0.11979,-0.15477 0.0167,-0.0655 0.01,-0.13522 -0.0256,-0.19398 -0.0348,-0.0582 -0.0896,-0.10124 -0.15576,-0.11889 -0.0654,-0.0171 -0.1355,-0.01 -0.19443,0.0252 -0.12171,0.0716 -0.16362,0.22662 -0.0931,0.34879 0.0458,0.0812 0.13352,0.12998 0.22712,0.12803 z m -4.52141,-0.1574 c 0.11586,-0.01 0.22056,-0.0681 0.2782,-0.16854 0.0455,-0.0774 0.0573,-0.17045 0.0349,-0.25799 -0.0233,-0.0866 -0.0806,-0.16134 -0.1584,-0.20638 -0.0776,-0.0448 -0.17085,-0.0563 -0.2585,-0.0345 -0.0868,0.0243 -0.16101,0.0804 -0.20621,0.15873 -0.0938,0.16199 -0.0373,0.36969 0.12441,0.46308 0.0556,0.033 0.12106,0.0479 0.18586,0.0448 z m 5.28655,-0.006 c 0.0357,-0.002 0.0718,-0.012 0.10279,-0.0288 0.10339,-0.059 0.13878,-0.19142 0.079,-0.29458 -0.0282,-0.0493 -0.0757,-0.0859 -0.13154,-0.1006 -0.055,-0.0151 -0.11452,-0.01 -0.16431,0.0223 -0.0495,0.028 -0.0854,0.0754 -0.10079,0.13128 -0.0151,0.0552 -0.01,0.1143 0.0229,0.16396 0.0385,0.0674 0.1132,0.10968 0.19244,0.10774 z m -1.81691,-0.20256 c 0.0572,-0.002 0.11323,-0.0156 0.16298,-0.0448 0.0775,-0.0452 0.13479,-0.11948 0.15835,-0.20636 0.0243,-0.0866 0.0118,-0.17965 -0.0345,-0.25803 -0.0451,-0.0776 -0.1198,-0.13453 -0.20684,-0.15734 -0.0868,-0.0243 -0.18001,-0.012 -0.25788,0.0345 -0.16297,0.0942 -0.21862,0.30108 -0.125,0.46369 0.0627,0.10704 0.17801,0.17241 0.30233,0.16909 z m -4.53646,-0.20373 c 0.11517,-0.01 0.21993,-0.0681 0.27816,-0.16855 0.0449,-0.078 0.0572,-0.1711 0.0345,-0.25801 -0.0244,-0.0866 -0.0806,-0.16126 -0.15832,-0.20635 -0.0783,-0.0448 -0.17157,-0.0563 -0.25862,-0.0345 -0.0868,0.0242 -0.16161,0.0804 -0.20677,0.15869 -0.0938,0.162 -0.0373,0.36967 0.1244,0.46308 0.0565,0.033 0.1217,0.0477 0.1871,0.0448 z m 3.01465,-0.0262 c 0.10083,-0.008 0.1918,-0.0612 0.24223,-0.14764 0.038,-0.0674 0.0495,-0.14826 0.0288,-0.22401 -0.0218,-0.0754 -0.071,-0.13978 -0.1381,-0.17892 -0.0675,-0.0383 -0.14857,-0.0493 -0.2245,-0.0287 -0.0754,0.0204 -0.14007,0.0698 -0.17931,0.13783 -0.0385,0.0674 -0.0495,0.14827 -0.0288,0.22402 0.0205,0.0751 0.07,0.13979 0.13808,0.17893 0.0484,0.0275 0.10468,0.0424 0.16162,0.0384 z m 2.55921,-0.0656 c 0.0495,-0.002 0.0982,-0.015 0.14135,-0.0384 0.14139,-0.082 0.18984,-0.26255 0.108,-0.40302 -0.0822,-0.14107 -0.26241,-0.18939 -0.40382,-0.10772 -0.14139,0.0819 -0.18981,0.26188 -0.108,0.40294 0.0549,0.0929 0.15446,0.14892 0.26247,0.14697 z m 0.90387,-0.0576 c 0.0437,-0.002 0.0849,-0.0135 0.12175,-0.0349 0.0582,-0.0344 0.1021,-0.0894 0.11979,-0.15478 0.0174,-0.0655 0.01,-0.13522 -0.0251,-0.19398 -0.0347,-0.0582 -0.0904,-0.10188 -0.15582,-0.11887 -0.065,-0.017 -0.13548,-0.01 -0.19436,0.0252 -0.0583,0.0344 -0.1015,0.0901 -0.11915,0.15537 -0.0172,0.0651 -0.01,0.13523 0.0256,0.19399 0.0458,0.0805 0.13358,0.12935 0.22713,0.12742 z m -4.80741,-0.0648 c 0.10079,-0.01 0.19176,-0.0612 0.24213,-0.14822 0.0822,-0.14105 0.0341,-0.32132 -0.10802,-0.40304 -0.0675,-0.0378 -0.14855,-0.0493 -0.22448,-0.028 -0.0751,0.0204 -0.14005,0.0699 -0.17931,0.13712 -0.0822,0.14109 -0.0341,0.32136 0.10801,0.40301 0.0483,0.028 0.10535,0.0429 0.16167,0.0397 z m 2.42038,-0.40354 c 0.0652,-0.002 0.12895,-0.0193 0.18591,-0.0527 0.18587,-0.10713 0.24935,-0.34486 0.14205,-0.53096 -0.10736,-0.18551 -0.34563,-0.24952 -0.53216,-0.14241 -0.0896,0.0521 -0.15512,0.13649 -0.18196,0.23644 -0.0264,0.0999 -0.0136,0.20572 0.0385,0.29526 0.0718,0.12341 0.20416,0.19782 0.34683,0.19394 z m -1.8235,0 c 0.0875,-0.007 0.16627,-0.0523 0.21011,-0.12674 0.0347,-0.0583 0.0437,-0.12871 0.0256,-0.19401 -0.017,-0.0656 -0.0614,-0.12144 -0.1198,-0.15541 -0.12239,-0.0698 -0.27816,-0.0276 -0.34893,0.0943 -0.0343,0.0576 -0.0437,0.12802 -0.0253,0.19331 0.0173,0.0658 0.0614,0.12148 0.11912,0.15543 0.043,0.0249 0.0917,0.0354 0.14008,0.034 z m -1.66443,-0.01 c 0.10079,-0.008 0.19244,-0.0602 0.24281,-0.14765 0.0379,-0.0669 0.0483,-0.14827 0.028,-0.22335 -0.0205,-0.0755 -0.07,-0.14039 -0.13742,-0.17963 -0.0676,-0.0378 -0.14922,-0.0493 -0.22449,-0.0287 -0.0756,0.0216 -0.14069,0.0708 -0.17936,0.13783 -0.0384,0.0673 -0.0495,0.14825 -0.0288,0.22404 0.0205,0.0752 0.07,0.14038 0.13745,0.17896 0.0484,0.0276 0.10474,0.0425 0.16164,0.0384 z m 5.86058,-0.18494 c 0.0483,-0.002 0.0975,-0.015 0.14076,-0.0398 0.0676,-0.038 0.11713,-0.10318 0.1381,-0.17895 0.0205,-0.0751 0.01,-0.15612 -0.0288,-0.22403 -0.0822,-0.14047 -0.26245,-0.18877 -0.40384,-0.10776 -0.0675,0.0383 -0.11782,0.10383 -0.13813,0.1796 -0.0205,0.0749 -0.01,0.15608 0.0288,0.22401 0.0544,0.0929 0.1551,0.14964 0.26311,0.14694 z m -1.08978,-0.0526 c 0.0565,-0.002 0.11257,-0.0155 0.16166,-0.0448 0.0782,-0.0448 0.13552,-0.11885 0.15905,-0.2057 0.0232,-0.0873 0.0118,-0.18032 -0.0344,-0.258 -0.0451,-0.0781 -0.11985,-0.13519 -0.20689,-0.15872 -0.0875,-0.0232 -0.1806,-0.012 -0.25846,0.0345 -0.0782,0.0451 -0.13556,0.11955 -0.15907,0.2064 -0.0234,0.0866 -0.0109,0.1796 0.0346,0.25798 0.0632,0.10778 0.17934,0.17247 0.30371,0.16917 z m -4.17324,-0.16523 c 0.0868,-0.008 0.1656,-0.0527 0.20945,-0.12736 0.035,-0.0582 0.0437,-0.12866 0.0256,-0.194 -0.0172,-0.0655 -0.0604,-0.12152 -0.11913,-0.15548 -0.0583,-0.0344 -0.12893,-0.0436 -0.19443,-0.0252 -0.0652,0.0174 -0.12167,0.0612 -0.15571,0.11956 -0.0348,0.0583 -0.0437,0.128 -0.0254,0.19397 0.0172,0.0651 0.0603,0.12084 0.11913,0.15479 0.043,0.0251 0.0918,0.0356 0.14078,0.0346 z m 0.57798,-0.23122 c 0.0735,-0.006 0.14006,-0.0444 0.1774,-0.10714 0.0592,-0.10318 0.0243,-0.23507 -0.0798,-0.29456 -0.0495,-0.0287 -0.10865,-0.0367 -0.1643,-0.0225 -0.0553,0.0153 -0.10273,0.0517 -0.13157,0.10063 -0.028,0.0493 -0.036,0.10836 -0.0222,0.16385 0.015,0.0554 0.0518,0.10258 0.10077,0.13132 0.036,0.0217 0.0775,0.0314 0.11916,0.0275 z m 1.56367,-0.17115 c 0.0761,-0.003 0.1518,-0.0242 0.21857,-0.0624 0.21924,-0.1267 0.29515,-0.40627 0.16819,-0.6257 -0.0614,-0.10517 -0.16099,-0.18222 -0.27878,-0.21358 -0.11782,-0.0326 -0.24284,-0.0152 -0.34886,0.0453 -0.10544,0.0612 -0.18198,0.16066 -0.21341,0.27823 -0.032,0.11759 -0.0147,0.243 0.0454,0.3481 0.0843,0.145 0.24021,0.23258 0.40844,0.2293 z m 2.91976,-0.15018 c 0.0575,-0.002 0.11326,-0.0156 0.16296,-0.0448 0.0776,-0.0448 0.13551,-0.11892 0.15845,-0.20647 0.0244,-0.0866 0.0117,-0.17956 -0.0348,-0.25729 -0.0448,-0.078 -0.11914,-0.13522 -0.20684,-0.15873 -0.0868,-0.0244 -0.17999,-0.012 -0.25789,0.0346 -0.0782,0.0448 -0.13549,0.11946 -0.15904,0.2064 -0.0243,0.0866 -0.0119,0.1796 0.0346,0.25798 0.0626,0.10711 0.17804,0.17233 0.30238,0.16916 z m -1.33519,-0.10516 c 0.0652,-0.002 0.12954,-0.0193 0.18587,-0.0522 0.0896,-0.0527 0.15513,-0.13714 0.18132,-0.23639 0.0263,-0.0999 0.0136,-0.20642 -0.0385,-0.2959 -0.10732,-0.18547 -0.34555,-0.2488 -0.53212,-0.14173 -0.1859,0.1078 -0.25003,0.34553 -0.14272,0.53099 0.0718,0.12354 0.20428,0.19793 0.34693,0.19468 z m -2.66198,-0.49249 c 0.0882,-0.004 0.17479,-0.0263 0.2514,-0.0707 0.12168,-0.0699 0.21007,-0.18552 0.2467,-0.3207 0.036,-0.1352 0.0172,-0.27891 -0.0533,-0.40033 -0.07,-0.12153 -0.18521,-0.20971 -0.3207,-0.24562 -0.13551,-0.0358 -0.2801,-0.017 -0.40118,0.0532 -0.25267,0.1457 -0.33907,0.46766 -0.1931,0.71977 0.0961,0.16718 0.27682,0.26844 0.46992,0.26451 z m 3.55146,-0.22468 c 0.065,-0.003 0.12896,-0.0193 0.18589,-0.0531 0.18588,-0.10716 0.24937,-0.34489 0.14204,-0.531 -0.10737,-0.18557 -0.34561,-0.24958 -0.53212,-0.14246 -0.18658,0.10713 -0.25003,0.34483 -0.14271,0.53103 0.071,0.12344 0.20417,0.19855 0.3469,0.19529 z m -1.63829,-0.0947 c 0.0769,-0.003 0.15255,-0.0232 0.21928,-0.0621 0.21929,-0.12603 0.29454,-0.40626 0.16823,-0.62573 -0.0614,-0.10514 -0.16168,-0.18223 -0.27883,-0.21354 -0.11782,-0.032 -0.24352,-0.015 -0.34887,0.0452 -0.10534,0.0612 -0.18261,0.16131 -0.21404,0.27889 -0.032,0.11696 -0.0147,0.24232 0.0458,0.34745 0.0842,0.14501 0.24016,0.23257 0.40775,0.22862 z m -3.35702,-0.23385 c 0.10276,-0.004 0.20423,-0.032 0.29325,-0.0833 0.29518,-0.16984 0.39665,-0.54665 0.22644,-0.84124 -0.17084,-0.29454 -0.54844,-0.39585 -0.84368,-0.2253 -0.2952,0.16978 -0.39595,0.54661 -0.22574,0.8412 0.1125,0.19529 0.32327,0.31352 0.54973,0.3083 z m 4.24651,-0.484 c 0.0762,-0.003 0.15187,-0.0233 0.21862,-0.0618 0.21999,-0.12606 0.29521,-0.40631 0.16822,-0.62574 -0.0614,-0.10516 -0.16103,-0.18222 -0.27884,-0.21359 -0.11778,-0.0319 -0.2428,-0.0147 -0.34882,0.0453 -0.1054,0.0612 -0.18195,0.16067 -0.2134,0.27825 -0.0323,0.11756 -0.0149,0.24298 0.0455,0.34815 0.0845,0.14499 0.24085,0.23248 0.40838,0.22856 z m -1.96682,-0.0301 c 0.0881,-0.003 0.17543,-0.0263 0.25132,-0.0707 0.25335,-0.14562 0.33969,-0.46763 0.19443,-0.72045 -0.07,-0.12075 -0.18591,-0.20957 -0.32138,-0.24618 -0.13551,-0.0353 -0.2795,-0.0166 -0.40121,0.0531 -0.12171,0.0699 -0.21011,0.18547 -0.2461,0.3207 -0.036,0.13523 -0.0167,0.27888 0.0532,0.40038 0.0968,0.16657 0.27686,0.2678 0.46995,0.2632 z"
       id="start-here-kde-9-7" />
  </g>
</svg>
