<?xml version="1.0" encoding="UTF-8" standalone="no"?>
<svg
   xmlns:dc="http://purl.org/dc/elements/1.1/"
   xmlns:cc="http://creativecommons.org/ns#"
   xmlns:rdf="http://www.w3.org/1999/02/22-rdf-syntax-ns#"
   xmlns:svg="http://www.w3.org/2000/svg"
   xmlns="http://www.w3.org/2000/svg"
   xmlns:xlink="http://www.w3.org/1999/xlink"
   xmlns:sodipodi="http://sodipodi.sourceforge.net/DTD/sodipodi-0.dtd"
   xmlns:inkscape="http://www.inkscape.org/namespaces/inkscape"
   width="32"
   version="1.1"
   height="32"
   viewBox="0 0 32 32"
   id="svg15"
   sodipodi:docname="folder-cyan.svg"
   inkscape:version="1.0.2 (e86c870879, 2021-01-15)">
  <sodipodi:namedview
     pagecolor="#ffffff"
     bordercolor="#666666"
     borderopacity="1"
     objecttolerance="10"
     gridtolerance="10"
     guidetolerance="10"
     inkscape:pageopacity="0"
     inkscape:pageshadow="2"
     inkscape:window-width="1920"
     inkscape:window-height="1007"
     id="namedview17"
     showgrid="false"
     inkscape:zoom="6.9384853"
     inkscape:cx="-31.730511"
     inkscape:cy="-8.5465733"
     inkscape:window-x="0"
     inkscape:window-y="0"
     inkscape:window-maximized="1"
     inkscape:current-layer="layer1" />
  <defs
     id="defs5455">
    <linearGradient
       inkscape:collect="always"
       xlink:href="#linearGradient885"
       id="linearGradient858"
       x1="210.75999"
       y1="89.093002"
       x2="362.40799"
       y2="89.093002"
       gradientUnits="userSpaceOnUse"
       gradientTransform="matrix(0.0585938,0,0,0.06178772,385.57142,515.92948)" />
    <linearGradient
       inkscape:collect="always"
       id="linearGradient885">
      <stop
         style="stop-color:#00d3ff;stop-opacity:1"
         offset="0"
         id="stop881" />
      <stop
         style="stop-color:#005580;stop-opacity:1"
         offset="1"
         id="stop883" />
    </linearGradient>
    <linearGradient
       inkscape:collect="always"
       xlink:href="#linearGradient885"
       id="linearGradient862"
       x1="476.689"
       y1="163.60085"
       x2="319.6994"
       y2="162.04736"
       gradientUnits="userSpaceOnUse"
       gradientTransform="matrix(0.0585938,0,0,0.06178772,385.57142,515.92948)" />
  </defs>
  <metadata
     id="metadata5458">
    <rdf:RDF>
      <cc:Work
         rdf:about="">
        <dc:format>image/svg+xml</dc:format>
        <dc:type
           rdf:resource="http://purl.org/dc/dcmitype/StillImage" />
      </cc:Work>
    </rdf:RDF>
  </metadata>
  <g
     inkscape:label="Capa 1"
     inkscape:groupmode="layer"
     id="layer1"
     transform="translate(-384.57143,-515.798)">
    <path
       style="fill:url(#linearGradient858);fill-opacity:1;stroke-width:0.0601699"
       d="m 401.36763,522.2832 c 0.48404,0.50451 1.13731,0.78742 1.81795,0.78742 h 1.00656 2.61416 c -0.68066,0 -1.33389,-0.28291 -1.81795,-0.78742 l -1.62899,-1.6977 c -0.48424,-0.50459 -1.13735,-0.7875 -1.81792,-0.7875 h -3.62073 c 0.68056,0 1.33375,0.28291 1.81794,0.7875 z"
       id="path2" />
    <path
       style="fill:#006a80;fill-opacity:1;stroke-width:0.0601699"
       d="m 396.11783,520.5855 1.62911,1.6977 c 0.484,0.50451 1.13719,0.78742 1.81791,0.78742 h 1.00658 2.61415 c -0.68064,0 -1.33391,-0.28291 -1.81795,-0.78742 l -1.62898,-1.6977 c -0.48424,-0.50459 -1.13738,-0.7875 -1.81794,-0.7875 h -3.55618 -0.0647 c 0.68067,0 1.33377,0.28298 1.81789,0.7875 z"
       id="path4" />
    <path
       style="fill:#21bbd7;fill-opacity:1;stroke-width:0.0564454"
       d="m 414.01967,522.67802 h -6.20691 -1.00659 -2.61415 -1.00657 -2.61402 -1.00658 c -0.68072,0 -1.33391,-0.24897 -1.81791,-0.693 l -1.62911,-1.49403 c -0.48417,-0.44402 -1.13728,-0.69299 -1.81792,-0.69299 h -3.55606 -3.62065 c -0.85702,0 -1.55177,0.6447 -1.55177,1.44001 v 2.88001 0.48002 17.75994 c 0,0.79532 0.69475,1.44002 1.55177,1.44002 h 26.89647 c 0.85702,0 1.55176,-0.6447 1.55176,-1.44002 v -18.23996 c 0,-0.79536 -0.69474,-1.44 -1.55176,-1.44 z m -10.88653,2.92929 0.004,-0.002 -0.004,-0.005 v 0 l 0.004,0.005 v 0 l -0.004,0.002 9.9e-4,-0.008 z m 10.36941,0.43069 c 0,0.53014 -0.46316,0.95998 -1.03458,0.95998 h -7.24137 c -0.57136,0 -1.03452,-0.42984 -1.03452,-0.95998 v -0.48002 c 0,-0.53014 0.46316,-0.95998 1.03452,-0.95998 h 7.24134 c 0.57139,0 1.03454,0.42984 1.03454,0.95998 v 0.48002 z"
       id="path6"
       sodipodi:nodetypes="scccccsccscssccssssssccccccccccssssssscc" />
    <path
       style="fill:url(#linearGradient862);fill-opacity:1;stroke-width:0.0601699"
       d="m 412.46794,524.43061 h -7.24134 c -0.57136,0 -1.04621,0.48838 -1.04621,1.09082 v 0.54551 c 0,0.60243 0.47485,1.09082 1.04621,1.09082 h 7.24134 c 0.57139,0 1.10944,-0.48855 1.12239,-1.09082 l 0.012,-0.54551 c 6e-5,-0.60244 -0.56265,-1.09082 -1.13413,-1.09082 z"
       id="path8"
       sodipodi:nodetypes="ssssssscs" />
  </g>
</svg>
