<?xml version="1.0" encoding="UTF-8" standalone="no"?>
<svg
   xmlns:dc="http://purl.org/dc/elements/1.1/"
   xmlns:cc="http://creativecommons.org/ns#"
   xmlns:rdf="http://www.w3.org/1999/02/22-rdf-syntax-ns#"
   xmlns:svg="http://www.w3.org/2000/svg"
   xmlns="http://www.w3.org/2000/svg"
   xmlns:xlink="http://www.w3.org/1999/xlink"
   xmlns:sodipodi="http://sodipodi.sourceforge.net/DTD/sodipodi-0.dtd"
   xmlns:inkscape="http://www.inkscape.org/namespaces/inkscape"
   width="32"
   version="1.1"
   height="32"
   viewBox="0 0 32 32"
   id="svg17"
   sodipodi:docname="certificate-server.svg"
   inkscape:version="1.0.2 (e86c870879, 2021-01-15)">
  <sodipodi:namedview
     pagecolor="#ffffff"
     bordercolor="#666666"
     borderopacity="1"
     objecttolerance="10"
     gridtolerance="10"
     guidetolerance="10"
     inkscape:pageopacity="0"
     inkscape:pageshadow="2"
     inkscape:window-width="1920"
     inkscape:window-height="1007"
     id="namedview19"
     showgrid="true"
     inkscape:zoom="9.8125"
     inkscape:cx="7.7813622"
     inkscape:cy="25.418624"
     inkscape:window-x="0"
     inkscape:window-y="0"
     inkscape:window-maximized="1"
     inkscape:current-layer="layer1"
     inkscape:document-rotation="0">
    <inkscape:grid
       type="xygrid"
       id="grid908" />
  </sodipodi:namedview>
  <defs
     id="defs5455">
    <linearGradient
       inkscape:collect="always"
       xlink:href="#linearGradient885"
       id="linearGradient858"
       x1="210.75999"
       y1="89.093002"
       x2="362.40799"
       y2="89.093002"
       gradientUnits="userSpaceOnUse"
       gradientTransform="matrix(0.05859383,0,0,0.06178768,385.57139,515.92951)" />
    <linearGradient
       inkscape:collect="always"
       id="linearGradient885">
      <stop
         style="stop-color:#00d3ff;stop-opacity:1"
         offset="0"
         id="stop881" />
      <stop
         style="stop-color:#005580;stop-opacity:1"
         offset="1"
         id="stop883" />
    </linearGradient>
    <linearGradient
       inkscape:collect="always"
       xlink:href="#linearGradient847"
       id="linearGradient859"
       x1="0"
       y1="256.82327"
       x2="512"
       y2="256.82327"
       gradientUnits="userSpaceOnUse"
       gradientTransform="matrix(0.05859383,0,0,0.06178768,385.57139,515.92951)" />
    <linearGradient
       inkscape:collect="always"
       id="linearGradient847">
      <stop
         style="stop-color:#00d3ff;stop-opacity:1"
         offset="0"
         id="stop843" />
      <stop
         style="stop-color:#006899;stop-opacity:1"
         offset="1"
         id="stop845" />
    </linearGradient>
    <linearGradient
       inkscape:collect="always"
       xlink:href="#linearGradient885"
       id="linearGradient862"
       x1="476.689"
       y1="163.60085"
       x2="319.6994"
       y2="162.04736"
       gradientUnits="userSpaceOnUse"
       gradientTransform="matrix(0.05859383,0,0,0.06178768,385.57139,515.92951)" />
  </defs>
  <metadata
     id="metadata5458">
    <rdf:RDF>
      <cc:Work
         rdf:about="">
        <dc:format>image/svg+xml</dc:format>
        <dc:type
           rdf:resource="http://purl.org/dc/dcmitype/StillImage" />
      </cc:Work>
    </rdf:RDF>
  </metadata>
  <g
     inkscape:label="Capa 1"
     inkscape:groupmode="layer"
     id="layer1"
     transform="translate(-384.57143,-515.798)">
    <path
       style="fill:url(#linearGradient858);fill-opacity:1;stroke-width:0.0601692"
       d="m 401.36754,522.2832 c 0.48408,0.5045 1.13733,0.78732 1.81808,0.78732 h 1.00652 2.6142 c -0.68075,0 -1.33398,-0.28282 -1.81805,-0.78732 l -1.62893,-1.69763 c -0.48419,-0.50472 -1.13741,-0.78757 -1.81794,-0.78757 h -3.62079 c 0.68061,0 1.33387,0.28285 1.81802,0.78757 z"
       id="path2" />
    <path
       style="fill:#006a80;fill-opacity:1;stroke-width:0.0601692"
       d="m 396.11783,520.58557 1.62899,1.69763 c 0.4841,0.5045 1.13727,0.78732 1.81802,0.78732 h 1.00659 2.61419 c -0.68075,0 -1.334,-0.28282 -1.81808,-0.78732 l -1.62889,-1.69763 c -0.48421,-0.50472 -1.13741,-0.78757 -1.81802,-0.78757 h -3.55616 -0.0638 c 0.68068,0 1.33383,0.28292 1.81789,0.78757 z"
       id="path4" />
    <path
       style="fill:url(#linearGradient859);fill-opacity:1;stroke-width:0.0564457"
       d="m 414.01966,522.67803 h -6.20681 -1.00667 -2.61404 -1.00669 -2.61402 -1.00659 c -0.68075,0 -1.33392,-0.24902 -1.81802,-0.69303 l -1.62899,-1.494 c -0.48415,-0.444 -1.1373,-0.693 -1.818,-0.693 h -3.55606 -3.62068 c -0.85697,0 -1.55166,0.64465 -1.55166,1.44002 v 2.88002 0.48004 17.7599 c 0,0.79537 0.69469,1.44002 1.55166,1.44002 h 26.89657 c 0.85694,0 1.55177,-0.64465 1.55177,-1.44002 v -18.23994 c 0,-0.79547 -0.69483,-1.44001 -1.55177,-1.44001 z m -10.88641,2.92917 0.008,-0.005 -0.007,-0.01 v 0 l 0.007,0.01 v 0 l -0.008,0.005 0.002,-0.01 z m 10.36941,0.43079 c 0,0.53006 -0.46317,0.95997 -1.03472,0.95997 h -7.24137 c -0.57126,0 -1.03443,-0.42991 -1.03443,-0.95997 v -0.48004 c 0,-0.53006 0.46317,-0.95997 1.03443,-0.95997 h 7.24133 c 0.57159,0 1.03464,0.42991 1.03464,0.95997 v 0.48004 z"
       id="path6"
       sodipodi:nodetypes="scccccsccscssccssssssccccccccccssssssscc" />
    <path
       style="fill:url(#linearGradient862);fill-opacity:1;stroke-width:0.0601692"
       d="m 412.4679,524.4306 h -7.24133 c -0.57126,0 -1.04606,0.4884 -1.04606,1.0908 v 0.54562 c 0,0.60242 0.4748,1.0906 1.04606,1.0906 h 7.24133 c 0.57159,0 1.10951,-0.48841 1.12248,-1.0906 l 0.0119,-0.54562 c 5e-5,-0.6024 -0.56272,-1.0908 -1.13422,-1.0908 z"
       id="path8"
       sodipodi:nodetypes="ssssssscs" />
    <path
       id="rect4136-3"
       d="m 393.9399,530.055 c -1.47609,0 -2.6646,1.11579 -2.6646,2.50185 v 0.50021 h 0.53281 v -0.50021 c 0,-1.21288 1.02462,-2.00145 2.13179,-2.00145 1.10719,0 2.13181,0.78857 2.13181,2.00145 v 2.50155 h -4.2636 -0.53281 -1.59878 v 0.50048 4.50305 h 0.93249 6.66179 0.93272 v -5.00353 h -0.93272 -0.66608 v -2.50155 c 0,-1.38606 -1.18844,-2.50185 -2.66482,-2.50185 z m -3.73061,5.50388 h 7.46143 v 4.00266 h -7.46143 z"
       style="fill:#00334d;fill-opacity:1;stroke-width:0.516382" />
  </g>
</svg>
