<?xml version="1.0" encoding="UTF-8" standalone="no"?>
<svg
   xmlns:dc="http://purl.org/dc/elements/1.1/"
   xmlns:cc="http://creativecommons.org/ns#"
   xmlns:rdf="http://www.w3.org/1999/02/22-rdf-syntax-ns#"
   xmlns:svg="http://www.w3.org/2000/svg"
   xmlns="http://www.w3.org/2000/svg"
   xmlns:xlink="http://www.w3.org/1999/xlink"
   xmlns:sodipodi="http://sodipodi.sourceforge.net/DTD/sodipodi-0.dtd"
   xmlns:inkscape="http://www.inkscape.org/namespaces/inkscape"
   width="32"
   version="1.1"
   height="32"
   viewBox="0 0 32 32"
   id="svg15"
   sodipodi:docname="folder.svg"
   inkscape:version="1.0.2 (e86c870879, 2021-01-15)">
  <sodipodi:namedview
     pagecolor="#ffffff"
     bordercolor="#666666"
     borderopacity="1"
     objecttolerance="10"
     gridtolerance="10"
     guidetolerance="10"
     inkscape:pageopacity="0"
     inkscape:pageshadow="2"
     inkscape:window-width="1920"
     inkscape:window-height="1007"
     id="namedview17"
     showgrid="false"
     inkscape:zoom="9.8125"
     inkscape:cx="-12.999029"
     inkscape:cy="6.4668704"
     inkscape:window-x="0"
     inkscape:window-y="0"
     inkscape:window-maximized="1"
     inkscape:current-layer="layer1" />
  <defs
     id="defs5455">
    <linearGradient
       inkscape:collect="always"
       xlink:href="#linearGradient885"
       id="linearGradient858"
       x1="210.75999"
       y1="89.093002"
       x2="362.40799"
       y2="89.093002"
       gradientUnits="userSpaceOnUse"
       gradientTransform="matrix(0.05859385,0,0,0.06178763,385.57143,515.92958)" />
    <linearGradient
       inkscape:collect="always"
       id="linearGradient885">
      <stop
         style="stop-color:#00d3ff;stop-opacity:1"
         offset="0"
         id="stop881" />
      <stop
         style="stop-color:#005580;stop-opacity:1"
         offset="1"
         id="stop883" />
    </linearGradient>
    <linearGradient
       inkscape:collect="always"
       xlink:href="#linearGradient847"
       id="linearGradient859"
       x1="0"
       y1="256.82327"
       x2="512"
       y2="256.82327"
       gradientUnits="userSpaceOnUse"
       gradientTransform="matrix(0.05859385,0,0,0.06178763,385.57143,515.92958)" />
    <linearGradient
       inkscape:collect="always"
       id="linearGradient847">
      <stop
         style="stop-color:#00d3ff;stop-opacity:1"
         offset="0"
         id="stop843" />
      <stop
         style="stop-color:#006899;stop-opacity:1"
         offset="1"
         id="stop845" />
    </linearGradient>
    <linearGradient
       inkscape:collect="always"
       xlink:href="#linearGradient885"
       id="linearGradient862"
       x1="476.689"
       y1="163.60085"
       x2="319.6994"
       y2="162.04736"
       gradientUnits="userSpaceOnUse"
       gradientTransform="matrix(0.05859385,0,0,0.06178763,385.57143,515.92958)" />
  </defs>
  <metadata
     id="metadata5458">
    <rdf:RDF>
      <cc:Work
         rdf:about="">
        <dc:format>image/svg+xml</dc:format>
        <dc:type
           rdf:resource="http://purl.org/dc/dcmitype/StillImage" />
      </cc:Work>
    </rdf:RDF>
  </metadata>
  <g
     inkscape:label="Capa 1"
     inkscape:groupmode="layer"
     id="layer1"
     transform="translate(-384.57143,-515.798)">
    <path
       style="fill:url(#linearGradient858);fill-opacity:1;stroke-width:0.06017"
       d="m 401.36756,522.28319 c 0.484,0.50449 1.13728,0.78734 1.81807,0.78734 h 1.00651 2.61421 c -0.6808,0 -1.33405,-0.28285 -1.81805,-0.78734 l -1.62892,-1.69761 c -0.48423,-0.50474 -1.1374,-0.78758 -1.81795,-0.78758 h -3.62078 c 0.6806,0 1.33386,0.28284 1.81802,0.78758 z"
       id="path2" />
    <path
       style="fill:#006a80;fill-opacity:1;stroke-width:0.06017"
       d="m 396.11785,520.58558 1.62897,1.69761 c 0.48402,0.50449 1.13723,0.78734 1.81802,0.78734 h 1.00659 2.6142 c -0.68079,0 -1.33407,-0.28285 -1.81807,-0.78734 l -1.62889,-1.69761 c -0.48425,-0.50474 -1.13742,-0.78758 -1.81802,-0.78758 h -3.55613 -0.0644 c 0.68066,0 1.3338,0.28285 1.81786,0.78758 z"
       id="path4" />
    <path
       style="fill:url(#linearGradient859);fill-opacity:1;stroke-width:0.0564447"
       d="m 414.01965,522.67803 h -6.20682 -1.00665 -2.61405 -1.00668 -2.61402 -1.00659 c -0.68079,0 -1.334,-0.249 -1.81802,-0.69304 l -1.62897,-1.49398 c -0.48417,-0.44401 -1.1373,-0.69301 -1.81807,-0.69301 h -3.55595 -3.62071 c -0.85707,0 -1.55169,0.64468 -1.55169,1.44002 v 2.88002 0.48004 17.7599 c 0,0.79534 0.69462,1.44002 1.55169,1.44002 h 26.89653 c 0.85699,0 1.55178,-0.64468 1.55178,-1.44002 v -18.23994 c 0,-0.79544 -0.69479,-1.44001 -1.55178,-1.44001 z m -10.8864,2.92916 0.008,-0.005 -0.007,-0.01 v 0 l 0.007,0.01 v 0 l -0.008,0.005 0.002,-0.01 z m 10.3694,0.4308 c 0,0.53005 -0.46316,0.95997 -1.03466,0.95997 h -7.24134 c -0.57138,0 -1.03452,-0.42992 -1.03452,-0.95997 v -0.48004 c 0,-0.53 0.46314,-0.95997 1.03452,-0.95997 h 7.24127 c 0.57157,0 1.03462,0.42997 1.03462,0.95997 v 0.48004 z"
       id="path6"
       sodipodi:nodetypes="scccccsccscssccssssssccccccccccssssssscc" />
    <path
       style="fill:url(#linearGradient862);fill-opacity:1;stroke-width:0.06017"
       d="m 412.46792,524.4306 h -7.24127 c -0.57138,0 -1.04623,0.4884 -1.04623,1.09081 v 0.54565 c 0,0.60246 0.47485,1.09053 1.04623,1.09053 h 7.24127 c 0.57157,0 1.10948,-0.48838 1.12247,-1.09053 l 0.0123,-0.54565 c 0,-0.60241 -0.56277,-1.09081 -1.13427,-1.09081 z"
       id="path8"
       sodipodi:nodetypes="ssssssscs" />
  </g>
</svg>
