<?xml version="1.0" encoding="UTF-8" standalone="no"?>
<svg
   xmlns:dc="http://purl.org/dc/elements/1.1/"
   xmlns:cc="http://creativecommons.org/ns#"
   xmlns:rdf="http://www.w3.org/1999/02/22-rdf-syntax-ns#"
   xmlns:svg="http://www.w3.org/2000/svg"
   xmlns="http://www.w3.org/2000/svg"
   xmlns:sodipodi="http://sodipodi.sourceforge.net/DTD/sodipodi-0.dtd"
   xmlns:inkscape="http://www.inkscape.org/namespaces/inkscape"
   width="30"
   height="30"
   viewBox="0 0 30 30"
   id="svg2"
   version="1.1"
   inkscape:version="1.0.2 (e86c870879, 2021-01-15)"
   sodipodi:docname="calendar.svg">
  <defs
     id="defs4">
    <style
       type="text/css"
       id="current-color-scheme">
      }
      </style>
  </defs>
  <sodipodi:namedview
     id="base"
     pagecolor="#ffffff"
     bordercolor="#000000"
     borderopacity="1"
     inkscape:pageopacity="0"
     inkscape:pageshadow="2"
     inkscape:zoom="8"
     inkscape:cx="18.273236"
     inkscape:cy="18.544706"
     inkscape:document-units="px"
     inkscape:current-layer="layer1"
     showgrid="false"
     inkscape:showpageshadow="false"
     borderlayer="true"
     units="px"
     inkscape:window-width="1920"
     inkscape:window-height="1007"
     inkscape:window-x="0"
     inkscape:window-y="0"
     inkscape:window-maximized="1"
     showguides="true"
     fit-margin-top="0"
     fit-margin-left="0"
     fit-margin-right="0"
     fit-margin-bottom="0"
     showborder="true"
     inkscape:document-rotation="0">
    <inkscape:grid
       type="xygrid"
       id="grid3336"
       empspacing="2"
       originx="0"
       originy="-117.99998" />
  </sodipodi:namedview>
  <metadata
     id="metadata7">
    <rdf:RDF>
      <cc:Work
         rdf:about="">
        <dc:format>image/svg+xml</dc:format>
        <dc:type
           rdf:resource="http://purl.org/dc/dcmitype/StillImage" />
        <dc:title />
      </cc:Work>
    </rdf:RDF>
  </metadata>
  <g
     inkscape:label="Layer 1"
     inkscape:groupmode="layer"
     id="layer1"
     transform="translate(0,-904.36218)">
    <g
       id="event">
      <path
         d="M 29.466667,934.36218 H 14.533334 c -0.32,0 -0.533334,-0.21333 -0.533334,-0.53333 v -14.93333 c 0,-0.32 0.213334,-0.53334 0.533334,-0.53334 h 14.933333 c 0.32,0 0.533333,0.21334 0.533333,0.53334 v 14.93333 c 0,0.32 -0.213333,0.53333 -0.533333,0.53333 z m -14.4,-1.06666 H 28.933333 V 919.42885 H 15.066667 Z"
         id="path2"
         style="fill:#00849e;fill-opacity:1;stroke-width:0.533333" />
      <path
         d="m 22.574708,926.91247 c 0,0.31389 -0.254428,0.56828 -0.569215,0.56828 -0.313857,0 -0.569216,-0.25439 -0.569216,-0.56828 l -0.527427,-3.69476 c -0.02415,-0.092 -0.04085,-0.18666 -0.04085,-0.28696 9.1e-4,-0.6277 0.509786,-1.13657 1.13843,-1.13657 0.628644,0 1.1375,0.5098 1.1375,1.1375 0,0.0994 -0.01675,0.1941 -0.04085,0.28696 z m -0.568285,1.70671 c 0.628644,0 1.1375,0.50887 1.1375,1.1375 0,0.62863 -0.508856,1.1375 -1.1375,1.1375 -0.628644,0 -1.1375,-0.50887 -1.1375,-1.1375 0,-0.62863 0.508856,-1.1375 1.1375,-1.1375 z"
         id="path4"
         style="fill:#00849e;fill-opacity:1;stroke-width:0.00928582" />
    </g>
  </g>
</svg>
