<?xml version="1.0" encoding="UTF-8" standalone="no"?>
<svg
   xmlns:dc="http://purl.org/dc/elements/1.1/"
   xmlns:cc="http://creativecommons.org/ns#"
   xmlns:rdf="http://www.w3.org/1999/02/22-rdf-syntax-ns#"
   xmlns:svg="http://www.w3.org/2000/svg"
   xmlns="http://www.w3.org/2000/svg"
   xmlns:xlink="http://www.w3.org/1999/xlink"
   xmlns:sodipodi="http://sodipodi.sourceforge.net/DTD/sodipodi-0.dtd"
   xmlns:inkscape="http://www.inkscape.org/namespaces/inkscape"
   width="32"
   version="1.1"
   height="32"
   viewBox="0 0 32 32"
   id="svg17"
   sodipodi:docname="folder-documents.svg"
   inkscape:version="1.0.2 (e86c870879, 2021-01-15)">
  <sodipodi:namedview
     pagecolor="#ffffff"
     bordercolor="#666666"
     borderopacity="1"
     objecttolerance="10"
     gridtolerance="10"
     guidetolerance="10"
     inkscape:pageopacity="0"
     inkscape:pageshadow="2"
     inkscape:window-width="1920"
     inkscape:window-height="1007"
     id="namedview19"
     showgrid="false"
     inkscape:zoom="9.8125"
     inkscape:cx="-19.594894"
     inkscape:cy="-7.5868483"
     inkscape:window-x="0"
     inkscape:window-y="0"
     inkscape:window-maximized="1"
     inkscape:current-layer="layer1" />
  <defs
     id="defs5455">
    <linearGradient
       inkscape:collect="always"
       xlink:href="#linearGradient885"
       id="linearGradient858"
       x1="210.75999"
       y1="89.093002"
       x2="362.40799"
       y2="89.093002"
       gradientUnits="userSpaceOnUse"
       gradientTransform="matrix(0.05859381,0,0,0.06178772,385.57143,515.92949)" />
    <linearGradient
       inkscape:collect="always"
       id="linearGradient885">
      <stop
         style="stop-color:#00d3ff;stop-opacity:1"
         offset="0"
         id="stop881" />
      <stop
         style="stop-color:#005580;stop-opacity:1"
         offset="1"
         id="stop883" />
    </linearGradient>
    <linearGradient
       inkscape:collect="always"
       xlink:href="#linearGradient847"
       id="linearGradient859"
       x1="0"
       y1="256.82327"
       x2="512"
       y2="256.82327"
       gradientUnits="userSpaceOnUse"
       gradientTransform="matrix(0.05859381,0,0,0.06178772,385.57143,515.92949)" />
    <linearGradient
       inkscape:collect="always"
       id="linearGradient847">
      <stop
         style="stop-color:#00d3ff;stop-opacity:1"
         offset="0"
         id="stop843" />
      <stop
         style="stop-color:#006899;stop-opacity:1"
         offset="1"
         id="stop845" />
    </linearGradient>
    <linearGradient
       inkscape:collect="always"
       xlink:href="#linearGradient885"
       id="linearGradient862"
       x1="476.689"
       y1="163.60085"
       x2="319.6994"
       y2="162.04736"
       gradientUnits="userSpaceOnUse"
       gradientTransform="matrix(0.05859381,0,0,0.06178772,385.57143,515.92949)" />
  </defs>
  <metadata
     id="metadata5458">
    <rdf:RDF>
      <cc:Work
         rdf:about="">
        <dc:format>image/svg+xml</dc:format>
        <dc:type
           rdf:resource="http://purl.org/dc/dcmitype/StillImage" />
      </cc:Work>
    </rdf:RDF>
  </metadata>
  <g
     inkscape:label="Capa 1"
     inkscape:groupmode="layer"
     id="layer1"
     transform="translate(-384.57143,-515.798)">
    <path
       style="fill:url(#linearGradient858);fill-opacity:1;stroke-width:0.0601699"
       d="m 401.36764,522.2832 c 0.48402,0.50451 1.13729,0.78743 1.81795,0.78743 h 1.00655 2.61417 c -0.68066,0 -1.33391,-0.28292 -1.81795,-0.78743 l -1.62899,-1.69769 c -0.48425,-0.5046 -1.13736,-0.7875 -1.81792,-0.7875 h -3.62073 c 0.68056,0 1.33374,0.2829 1.81794,0.7875 z"
       id="path2" />
    <path
       style="fill:#006a80;fill-opacity:1;stroke-width:0.0601699"
       d="m 396.11784,520.58551 1.62909,1.69769 c 0.48401,0.50451 1.13719,0.78743 1.81793,0.78743 h 1.00657 2.61416 c -0.68066,0 -1.33393,-0.28292 -1.81795,-0.78743 l -1.62898,-1.69769 c -0.48425,-0.5046 -1.13738,-0.7875 -1.81794,-0.7875 h -3.55619 -0.0647 c 0.68067,0 1.33376,0.28297 1.81789,0.7875 z"
       id="path4" />
    <path
       style="fill:url(#linearGradient859);fill-opacity:1;stroke-width:0.0564454"
       d="m 414.01966,522.67802 h -6.2069 -1.00659 -2.61415 -1.00656 -2.61403 -1.00657 c -0.68074,0 -1.33392,-0.24897 -1.81793,-0.693 l -1.62909,-1.49403 c -0.48418,-0.44402 -1.13728,-0.69299 -1.81792,-0.69299 h -3.55607 -3.62064 c -0.85704,0 -1.55178,0.6447 -1.55178,1.44001 v 2.88001 0.48002 17.75994 c 0,0.79532 0.69474,1.44002 1.55178,1.44002 h 26.89645 c 0.85704,0 1.55177,-0.6447 1.55177,-1.44002 v -18.23995 c 0,-0.79537 -0.69473,-1.44001 -1.55177,-1.44001 z m -10.88652,2.92929 0.004,-0.002 -0.003,-0.005 v 0 l 0.003,0.005 v 0 l -0.004,0.002 9.9e-4,-0.008 z m 10.36942,0.43068 c 0,0.53015 -0.46317,0.95999 -1.0346,0.95999 h -7.24137 c -0.57134,0 -1.03451,-0.42984 -1.03451,-0.95999 v -0.48001 c 0,-0.53014 0.46317,-0.95998 1.03451,-0.95998 h 7.24134 c 0.5714,0 1.03456,0.42983 1.03456,0.95998 v 0.48001 z"
       id="path6"
       sodipodi:nodetypes="scccccsccscssccssssssccccccccccssssssscc" />
    <path
       style="fill:url(#linearGradient862);fill-opacity:1;stroke-width:0.0601699"
       d="m 412.46793,524.43062 h -7.24134 c -0.57134,0 -1.0462,0.48838 -1.0462,1.09081 v 0.54551 c 0,0.60243 0.47486,1.09082 1.0462,1.09082 h 7.24134 c 0.5714,0 1.10946,-0.48855 1.12239,-1.09082 l 0.0121,-0.54551 c 6e-5,-0.60243 -0.56264,-1.09081 -1.13413,-1.09081 z"
       id="path8"
       sodipodi:nodetypes="ssssssscs" />
    <g
       id="g4"
       transform="matrix(0.11976198,0,0,0.10680543,387.67259,529.46805)">
      <path
         d="M 79.155,5.496 H 46.842 l -30.11,29.853 v 55.042 4.113 h 4.113 58.31 4.113 V 90.391 9.609 5.496 Z m 0,84.895 H 20.845 V 36.72 L 47.968,36.732 47.907,9.609 h 31.248 z"
         id="path2-3"
         style="fill:#004666;fill-opacity:1" />
    </g>
  </g>
</svg>
