<?xml version="1.0" encoding="UTF-8" standalone="no"?>
<svg
   xmlns:dc="http://purl.org/dc/elements/1.1/"
   xmlns:cc="http://creativecommons.org/ns#"
   xmlns:rdf="http://www.w3.org/1999/02/22-rdf-syntax-ns#"
   xmlns:svg="http://www.w3.org/2000/svg"
   xmlns="http://www.w3.org/2000/svg"
   xmlns:xlink="http://www.w3.org/1999/xlink"
   xmlns:sodipodi="http://sodipodi.sourceforge.net/DTD/sodipodi-0.dtd"
   xmlns:inkscape="http://www.inkscape.org/namespaces/inkscape"
   width="32"
   version="1.1"
   height="32"
   viewBox="0 0 32 32"
   id="svg15"
   sodipodi:docname="folder-Reddit.svg"
   inkscape:version="1.0.2 (e86c870879, 2021-01-15)">
  <sodipodi:namedview
     pagecolor="#ffffff"
     bordercolor="#666666"
     borderopacity="1"
     objecttolerance="10"
     gridtolerance="10"
     guidetolerance="10"
     inkscape:pageopacity="0"
     inkscape:pageshadow="2"
     inkscape:window-width="1920"
     inkscape:window-height="1007"
     id="namedview17"
     showgrid="false"
     inkscape:zoom="9.8125"
     inkscape:cx="-12.999029"
     inkscape:cy="6.4668704"
     inkscape:window-x="0"
     inkscape:window-y="0"
     inkscape:window-maximized="1"
     inkscape:current-layer="layer1"
     inkscape:document-rotation="0" />
  <defs
     id="defs5455">
    <linearGradient
       inkscape:collect="always"
       id="linearGradient885">
      <stop
         style="stop-color:#00d3ff;stop-opacity:1"
         offset="0"
         id="stop881" />
      <stop
         style="stop-color:#005580;stop-opacity:1"
         offset="1"
         id="stop883" />
    </linearGradient>
    <linearGradient
       inkscape:collect="always"
       id="linearGradient847">
      <stop
         style="stop-color:#00d3ff;stop-opacity:1"
         offset="0"
         id="stop843" />
      <stop
         style="stop-color:#006899;stop-opacity:1"
         offset="1"
         id="stop845" />
    </linearGradient>
    <linearGradient
       inkscape:collect="always"
       xlink:href="#linearGradient885"
       id="linearGradient858-3"
       x1="210.75999"
       y1="89.093002"
       x2="362.40799"
       y2="89.093002"
       gradientUnits="userSpaceOnUse"
       gradientTransform="matrix(0.0585938,0,0,0.06178774,385.57143,515.92949)" />
    <linearGradient
       inkscape:collect="always"
       xlink:href="#linearGradient847"
       id="linearGradient859-5"
       x1="0"
       y1="256.82327"
       x2="512"
       y2="256.82327"
       gradientUnits="userSpaceOnUse"
       gradientTransform="matrix(0.0585938,0,0,0.06178774,385.57143,515.92949)" />
    <linearGradient
       inkscape:collect="always"
       xlink:href="#linearGradient885"
       id="linearGradient862-6"
       x1="476.689"
       y1="163.60085"
       x2="319.6994"
       y2="162.04736"
       gradientUnits="userSpaceOnUse"
       gradientTransform="matrix(0.0585938,0,0,0.06178774,385.57143,515.92949)" />
  </defs>
  <metadata
     id="metadata5458">
    <rdf:RDF>
      <cc:Work
         rdf:about="">
        <dc:format>image/svg+xml</dc:format>
        <dc:type
           rdf:resource="http://purl.org/dc/dcmitype/StillImage" />
      </cc:Work>
    </rdf:RDF>
  </metadata>
  <g
     inkscape:label="Capa 1"
     inkscape:groupmode="layer"
     id="layer1"
     transform="translate(-384.57143,-515.798)">
    <path
       style="fill:url(#linearGradient858-3);fill-opacity:1;stroke-width:0.0601699"
       d="m 401.36765,522.2832 c 0.484,0.50451 1.13728,0.78742 1.81794,0.78742 h 1.00655 2.61417 c -0.68066,0 -1.33392,-0.28291 -1.81795,-0.78742 l -1.629,-1.6977 c -0.48425,-0.50459 -1.13736,-0.7875 -1.81791,-0.7875 h -3.62073 c 0.68055,0 1.33375,0.28291 1.81794,0.7875 z"
       id="path2-2" />
    <path
       style="fill:#006a80;fill-opacity:1;stroke-width:0.0601699"
       d="m 396.11785,520.5855 1.62908,1.6977 c 0.48401,0.50451 1.13719,0.78742 1.81792,0.78742 h 1.00658 2.61416 c -0.68066,0 -1.33394,-0.28291 -1.81794,-0.78742 l -1.62899,-1.6977 c -0.48425,-0.50459 -1.13739,-0.7875 -1.81794,-0.7875 h -3.55619 -0.0647 c 0.68066,0 1.33376,0.28297 1.81789,0.7875 z"
       id="path4-9" />
    <path
       style="fill:url(#linearGradient859-5);fill-opacity:1;stroke-width:0.0564454"
       d="m 414.01966,522.67802 h -6.20691 -1.00657 -2.61417 -1.00654 -2.61404 -1.00658 c -0.68073,0 -1.33391,-0.24898 -1.81792,-0.693 l -1.62908,-1.49403 c -0.48418,-0.44402 -1.13728,-0.69299 -1.81793,-0.69299 h -3.55607 -3.62064 c -0.85704,0 -1.55178,0.6447 -1.55178,1.44001 v 2.88001 0.48002 17.75995 c 0,0.79531 0.69474,1.44001 1.55178,1.44001 h 26.89645 c 0.85704,0 1.55177,-0.6447 1.55177,-1.44001 v -18.23997 c 0,-0.79537 -0.69473,-1.44 -1.55177,-1.44 z m -10.88653,2.92929 0.004,-0.003 -0.003,-0.005 v 0 l 0.003,0.005 v 0 l -0.004,0.003 0.001,-0.008 z m 10.36942,0.43068 c 0,0.53015 -0.46317,0.95999 -1.0346,0.95999 h -7.24136 c -0.57134,0 -1.03452,-0.42984 -1.03452,-0.95999 v -0.48001 c 0,-0.53015 0.46318,-0.95999 1.03452,-0.95999 h 7.24134 c 0.57139,0 1.03456,0.42984 1.03456,0.95999 v 0.48001 z"
       id="path6-1"
       sodipodi:nodetypes="scccccsccscssccssssssccccccccccssssssscc" />
    <path
       style="fill:url(#linearGradient862-6);fill-opacity:1;stroke-width:0.0601699"
       d="m 412.46793,524.43061 h -7.24134 c -0.57134,0 -1.04621,0.48838 -1.04621,1.09082 v 0.5455 c 0,0.60243 0.47487,1.09082 1.04621,1.09082 h 7.24134 c 0.57139,0 1.10946,-0.48855 1.12238,-1.09082 l 0.0121,-0.5455 c 6e-5,-0.60244 -0.56263,-1.09082 -1.13412,-1.09082 z"
       id="path8-2"
       sodipodi:nodetypes="ssssssscs" />
    <path
       d="m 399.92217,534.35917 c 0,-0.82315 -0.64632,-1.49072 -1.43874,-1.49072 -0.31222,0 -0.61038,0.10366 -0.8565,0.29236 -0.69847,-0.36492 -1.52893,-0.58464 -2.40738,-0.63648 l 0.57435,-1.6441 1.38883,0.35869 c 0.03,0.59088 0.5042,1.05938 1.08053,1.05938 0.59635,0 1.08266,-0.50381 1.08266,-1.12158 0,-0.61785 -0.48631,-1.12166 -1.08266,-1.12166 -0.40618,0 -0.76038,0.23219 -0.9465,0.57638 l -1.90314,-0.49346 -0.82846,2.37389 c -0.95445,0.029 -1.85908,0.25292 -2.61343,0.64481 -0.24616,-0.1887 -0.54233,-0.29026 -0.85454,-0.29026 -0.79443,0.003 -1.44075,0.67171 -1.44075,1.49275 0,0.40218 0.16002,0.78986 0.4342,1.06773 -0.0175,0.11816 -0.0279,0.23842 -0.0279,0.3586 0,0.90187 0.50829,1.73952 1.42879,2.35736 0.88046,0.59291 2.04721,0.91839 3.28386,0.91839 1.23675,0 2.40141,-0.32548 3.28387,-0.91839 0.9205,-0.61995 1.42878,-1.45751 1.42878,-2.35736 0,-0.11815 -0.0104,-0.23631 -0.0259,-0.35448 0.27811,-0.27575 0.44024,-0.66554 0.44024,-1.07185 z m -7.37618,0.87077 c 0,-0.47896 0.37626,-0.86875 0.83855,-0.86875 0.46224,0 0.83841,0.38979 0.83841,0.86875 0,0.47887 -0.37617,0.86866 -0.83841,0.86866 -0.46229,0 -0.83855,-0.38979 -0.83855,-0.86866 z m 2.30734,2.74909 c -0.65036,0 -1.28474,-0.19073 -1.833,-0.55144 l 0.32217,-0.52455 c 0.45227,0.29852 0.97652,0.45612 1.51282,0.45612 0.5364,0 1.05861,-0.1576 1.51283,-0.45612 l 0.32226,0.52455 c -0.55236,0.36071 -1.18675,0.55144 -1.83708,0.55144 z m 1.48681,-1.88043 c -0.46221,0 -0.83839,-0.38979 -0.83839,-0.86866 0,-0.47896 0.37618,-0.86875 0.83839,-0.86875 0.4623,0 0.83849,0.38979 0.83849,0.86875 0,0.47887 -0.37619,0.86866 -0.83849,0.86866 z m 0,0"
       id="path2-3"
       style="fill:#004666;fill-opacity:1;stroke-width:0.0203687" />
  </g>
</svg>
