<?xml version="1.0" encoding="UTF-8" standalone="no"?>
<svg
   xmlns:dc="http://purl.org/dc/elements/1.1/"
   xmlns:cc="http://creativecommons.org/ns#"
   xmlns:rdf="http://www.w3.org/1999/02/22-rdf-syntax-ns#"
   xmlns:svg="http://www.w3.org/2000/svg"
   xmlns="http://www.w3.org/2000/svg"
   xmlns:xlink="http://www.w3.org/1999/xlink"
   xmlns:sodipodi="http://sodipodi.sourceforge.net/DTD/sodipodi-0.dtd"
   xmlns:inkscape="http://www.inkscape.org/namespaces/inkscape"
   width="32"
   version="1.1"
   height="32"
   viewBox="0 0 32 32"
   id="svg15"
   sodipodi:docname="folder-Pop_OS.svg"
   inkscape:version="1.0.2 (e86c870879, 2021-01-15)">
  <sodipodi:namedview
     pagecolor="#ffffff"
     bordercolor="#666666"
     borderopacity="1"
     objecttolerance="10"
     gridtolerance="10"
     guidetolerance="10"
     inkscape:pageopacity="0"
     inkscape:pageshadow="2"
     inkscape:window-width="1920"
     inkscape:window-height="1007"
     id="namedview17"
     showgrid="false"
     inkscape:zoom="9.8125"
     inkscape:cx="-12.999029"
     inkscape:cy="6.4668704"
     inkscape:window-x="0"
     inkscape:window-y="0"
     inkscape:window-maximized="1"
     inkscape:current-layer="layer1"
     inkscape:document-rotation="0" />
  <defs
     id="defs5455">
    <linearGradient
       inkscape:collect="always"
       id="linearGradient885">
      <stop
         style="stop-color:#00d3ff;stop-opacity:1"
         offset="0"
         id="stop881" />
      <stop
         style="stop-color:#005580;stop-opacity:1"
         offset="1"
         id="stop883" />
    </linearGradient>
    <linearGradient
       inkscape:collect="always"
       id="linearGradient847">
      <stop
         style="stop-color:#00d3ff;stop-opacity:1"
         offset="0"
         id="stop843" />
      <stop
         style="stop-color:#006899;stop-opacity:1"
         offset="1"
         id="stop845" />
    </linearGradient>
    <linearGradient
       inkscape:collect="always"
       xlink:href="#linearGradient885"
       id="linearGradient858-3"
       x1="210.75999"
       y1="89.093002"
       x2="362.40799"
       y2="89.093002"
       gradientUnits="userSpaceOnUse"
       gradientTransform="matrix(0.0585938,0,0,0.06178774,385.57142,515.92949)" />
    <linearGradient
       inkscape:collect="always"
       xlink:href="#linearGradient847"
       id="linearGradient859-5"
       x1="0"
       y1="256.82327"
       x2="512"
       y2="256.82327"
       gradientUnits="userSpaceOnUse"
       gradientTransform="matrix(0.0585938,0,0,0.06178774,385.57142,515.92949)" />
    <linearGradient
       inkscape:collect="always"
       xlink:href="#linearGradient885"
       id="linearGradient862-6"
       x1="476.689"
       y1="163.60085"
       x2="319.6994"
       y2="162.04736"
       gradientUnits="userSpaceOnUse"
       gradientTransform="matrix(0.0585938,0,0,0.06178774,385.57142,515.92949)" />
  </defs>
  <metadata
     id="metadata5458">
    <rdf:RDF>
      <cc:Work
         rdf:about="">
        <dc:format>image/svg+xml</dc:format>
        <dc:type
           rdf:resource="http://purl.org/dc/dcmitype/StillImage" />
      </cc:Work>
    </rdf:RDF>
  </metadata>
  <g
     inkscape:label="Capa 1"
     inkscape:groupmode="layer"
     id="layer1"
     transform="translate(-384.57143,-515.798)">
    <path
       style="fill:url(#linearGradient858-3);fill-opacity:1;stroke-width:0.0601699"
       d="m 401.36765,522.2832 c 0.484,0.50451 1.13727,0.78742 1.81794,0.78742 h 1.00655 2.61417 c -0.68066,0 -1.33392,-0.28291 -1.81795,-0.78742 l -1.629,-1.6977 c -0.48425,-0.50459 -1.13736,-0.7875 -1.81791,-0.7875 h -3.62073 c 0.68055,0 1.33375,0.28291 1.81794,0.7875 z"
       id="path2-2" />
    <path
       style="fill:#006a80;fill-opacity:1;stroke-width:0.0601699"
       d="m 396.11785,520.5855 1.62907,1.6977 c 0.48402,0.50451 1.1372,0.78742 1.81793,0.78742 h 1.00658 2.61416 c -0.68067,0 -1.33394,-0.28291 -1.81794,-0.78742 l -1.62899,-1.6977 c -0.48425,-0.50459 -1.13739,-0.7875 -1.81794,-0.7875 h -3.55619 -0.0647 c 0.68066,0 1.33376,0.28297 1.81789,0.7875 z"
       id="path4-9" />
    <path
       style="fill:url(#linearGradient859-5);fill-opacity:1;stroke-width:0.0564454"
       d="m 414.01966,522.67802 h -6.20691 -1.00657 -2.61417 -1.00654 -2.61404 -1.00658 c -0.68073,0 -1.33391,-0.24898 -1.81793,-0.693 l -1.62907,-1.49403 c -0.48418,-0.44402 -1.13728,-0.69299 -1.81791,-0.69299 h -3.55609 -3.62064 c -0.85704,0 -1.55178,0.6447 -1.55178,1.44001 v 2.88001 0.48002 17.75995 c 0,0.79531 0.69474,1.44001 1.55178,1.44001 h 26.89645 c 0.85704,0 1.55177,-0.6447 1.55177,-1.44001 v -18.23997 c 0,-0.79537 -0.69473,-1.44 -1.55177,-1.44 z m -10.88653,2.92929 0.004,-0.003 -0.004,-0.005 v 0 l 0.004,0.005 v 0 l -0.004,0.003 0.001,-0.008 z m 10.36942,0.43068 c 0,0.53015 -0.46317,0.95999 -1.0346,0.95999 h -7.24136 c -0.57134,0 -1.03452,-0.42984 -1.03452,-0.95999 v -0.48001 c 0,-0.53015 0.46318,-0.95999 1.03452,-0.95999 h 7.24133 c 0.5714,0 1.03457,0.42984 1.03457,0.95999 v 0.48001 z"
       id="path6-1"
       sodipodi:nodetypes="scccccsccscssccssssssccccccccccssssssscc" />
    <path
       style="fill:url(#linearGradient862-6);fill-opacity:1;stroke-width:0.0601699"
       d="m 412.46792,524.43061 h -7.24133 c -0.57134,0 -1.04621,0.48838 -1.04621,1.09082 v 0.5455 c 0,0.60243 0.47487,1.09082 1.04621,1.09082 h 7.24133 c 0.5714,0 1.10947,-0.48855 1.12239,-1.09082 l 0.0121,-0.5455 c 6e-5,-0.60244 -0.56263,-1.09082 -1.13412,-1.09082 z"
       id="path8-2"
       sodipodi:nodetypes="ssssssscs" />
    <path
       style="fill:#004666;fill-opacity:1;stroke-width:0.00971709"
       id="path2-3"
       d="m 398.4251,534.77449 c -0.0176,0.079 -0.0566,0.14896 -0.12278,0.19295 -0.10385,0.069 -0.23043,0.049 -0.32015,-0.035 -0.0839,-0.078 -0.11234,-0.20994 -0.0858,-0.32391 0.0273,-0.11897 0.1143,-0.22394 0.22566,-0.25693 0.24847,-0.073 0.35136,0.21294 0.30318,0.42288 z m -0.15203,-0.81178 c -0.15399,-0.065 -0.10103,-0.91974 0.04,-1.95746 0.04,-0.28992 0.10766,-0.42689 0.18411,-0.49686 0.10961,-0.099 0.30889,-0.10298 0.44393,-0.082 0.15492,0.024 0.30315,0.1 0.41559,0.21495 0.0992,0.10197 0.11048,0.20594 0.0763,0.3409 -0.0556,0.21494 -0.15107,0.42089 -0.24273,0.62183 -0.0214,0.049 -0.21153,0.42989 -0.23707,0.47687 -0.45803,0.85377 -0.54962,0.93675 -0.67999,0.88176 z" />
    <path
       style="fill:#004666;fill-opacity:1;stroke-width:0.00971709"
       id="path4-6"
       d="m 395.16578,533.57781 c 0.0906,0.4099 0.081,0.85977 0.004,1.18368 -0.0732,0.30592 -0.27012,0.57984 -0.58373,0.67182 -0.27481,0.081 -0.59504,0.022 -0.79145,-0.17795 -0.32298,-0.32792 -0.51188,-1.0977 -0.42782,-1.65655 0.0683,-0.44887 0.29655,-1.02372 0.79809,-1.04871 0.0322,-0.002 0.0643,-0.001 0.0965,0.002 0.51099,0.049 0.7896,0.50486 0.90485,1.02572 z m -0.92369,0.93275 c 0.0283,0.005 0.0566,0.005 0.0849,-0.004 0.0955,-0.029 0.15017,-0.13397 0.17573,-0.23594 0.039,-0.15496 0.0332,-0.32191 -0.0169,-0.47387 -0.0253,-0.077 -0.0634,-0.15196 -0.12088,-0.20794 -0.20307,-0.19695 -0.40616,0.008 -0.44107,0.24093 -0.0273,0.18195 0.0127,0.39289 0.11994,0.53985 0.0498,0.068 0.12181,0.12697 0.19835,0.14097 z" />
    <path
       style="fill:#004666;fill-opacity:1;stroke-width:0.00971709"
       id="path6-7"
       d="m 396.27173,534.44658 c -9.1e-4,0.75679 0.0712,1.33563 -0.2437,1.40461 -0.25501,0.055 -0.24644,-0.18195 -0.26632,-0.38089 -0.0757,-0.77079 -0.14453,-2.05144 -0.17378,-2.82623 0.0204,-0.33291 0.23141,-0.53685 0.45053,-0.58684 0.3381,-0.077 0.6989,-0.055 0.99828,0.14097 0.59221,0.38789 0.63942,1.09969 0.28056,1.68053 -0.19649,0.31691 -0.79058,0.54685 -1.04557,0.52686 z m 0.0757,-1.69654 c -0.0371,0.006 -0.0974,0.024 -0.11429,0.062 -0.041,0.089 -0.0381,0.65382 0.0332,0.89075 0.0118,0.039 0.0371,0.076 0.0738,0.09 0.13414,0.052 0.25502,-0.12197 0.30978,-0.22694 0.0769,-0.14596 0.10111,-0.31791 0.0527,-0.47787 -0.0452,-0.14896 -0.18607,-0.3649 -0.35517,-0.33791 z" />
    <path
       style="fill:#004666;fill-opacity:1;stroke-width:0.00971709"
       id="path8-5"
       d="m 392.88484,533.12594 c -0.22195,0.49687 -0.59026,0.89176 -1.10029,1.0867 0.14638,0.40489 0.29559,0.80478 0.44108,1.20867 0.081,0.21794 0.15867,0.45688 0.0878,0.67181 -0.0741,0.21995 -0.36081,0.28093 -0.56952,0.047 -0.40145,-0.45188 -1.75861,-3.31509 -1.85876,-3.53004 -0.0849,-0.18494 -0.21248,-0.38289 -0.20869,-0.59683 0.007,-0.32191 0.47696,-0.64782 0.70263,-0.81478 0.31546,-0.23293 0.68007,-0.39189 1.07014,-0.39289 0.30406,0 0.56385,0.088 0.79429,0.24393 0.35321,0.23994 0.59876,0.62283 0.68944,1.05572 0.079,0.38089 0.0624,0.77078 -0.0478,1.02071 m -1.03416,-0.54385 c -0.079,-0.30491 -0.25882,-0.58583 -0.48457,-0.78278 -0.0488,-0.043 -0.102,-0.083 -0.16336,-0.10497 -0.42311,-0.14696 -0.23987,0.60183 -0.17092,0.79078 0.0955,0.26493 0.23988,0.59984 0.43347,0.79978 0.0429,0.044 0.0927,0.083 0.15016,0.095 0.0878,0.019 0.16909,-0.046 0.21346,-0.12196 0.0371,-0.063 0.0507,-0.13797 0.0594,-0.21094 0.0162,-0.15496 0.002,-0.31292 -0.0381,-0.46488 z" />
    <path
       style="fill:#004666;fill-opacity:1;stroke-width:0.00971709"
       id="path10"
       d="m 397.94477,536.93161 c -0.002,0.43888 -0.255,0.87777 -0.81319,0.87777 -0.55819,0 -0.81796,-0.43189 -0.81796,-0.87277 0,-0.54985 0.36177,-0.88976 0.82928,-0.88976 0.54209,0.005 0.80656,0.43088 0.80187,0.88476 z m -0.80187,-0.60783 c -0.35039,0 -0.54689,0.25793 -0.54874,0.60983 0,0.30591 0.16149,0.59284 0.5421,0.59284 0.38062,0 0.5261,-0.31091 0.5261,-0.59584 0.005,-0.29592 -0.14355,-0.59983 -0.51946,-0.60683 z m 1.03602,1.26066 c 0,0.065 0.002,-0.30892 0,-0.36591 h 0.25696 l 0.0175,0.22894 c 0.0839,0.051 0.21437,0.089 0.32111,0.089 0.19836,0 0.40519,-0.053 0.40519,-0.25793 -0.007,-0.18595 -0.23706,-0.22394 -0.42313,-0.24393 -0.31644,-0.034 -0.57145,-0.11598 -0.57145,-0.49187 0,-0.33491 0.358,-0.50187 0.62432,-0.50187 0.21443,-0.005 0.36646,0.031 0.56011,0.19495 0,0.13497 -0.002,0.21495 -0.002,0.34991 h -0.24829 l -0.0162,-0.22194 c -0.10011,-0.051 -0.20303,-0.065 -0.28235,-0.063 -0.17096,0.002 -0.35325,0.087 -0.35325,0.23894 0,0.14896 0.11808,0.18995 0.32775,0.22193 0.34189,0.048 0.6715,0.12997 0.6715,0.51587 -0.002,0.42188 -0.37592,0.53285 -0.69701,0.53285 -0.24462,10e-4 -0.39761,-0.047 -0.5912,-0.22594 z"
       inkscape:connector-curvature="0" />
    <path
       style="fill:#004666;fill-opacity:1;stroke-width:0.00971709"
       id="path12"
       d="m 395.96702,537.66541 c 0,0.077 -0.0585,0.13896 -0.13125,0.13896 h -1.51783 c -0.0727,0 -0.13128,-0.062 -0.13128,-0.13896 v -0.012 c 0,-0.077 0.0585,-0.13896 0.13128,-0.13896 h 1.51783 c 0.0725,0 0.13125,0.062 0.13125,0.13896 z"
       inkscape:connector-curvature="0" />
  </g>
</svg>
