<?xml version="1.0" encoding="UTF-8" standalone="no"?>
<svg
   xmlns:dc="http://purl.org/dc/elements/1.1/"
   xmlns:cc="http://creativecommons.org/ns#"
   xmlns:rdf="http://www.w3.org/1999/02/22-rdf-syntax-ns#"
   xmlns:svg="http://www.w3.org/2000/svg"
   xmlns="http://www.w3.org/2000/svg"
   xmlns:xlink="http://www.w3.org/1999/xlink"
   xmlns:sodipodi="http://sodipodi.sourceforge.net/DTD/sodipodi-0.dtd"
   xmlns:inkscape="http://www.inkscape.org/namespaces/inkscape"
   width="32"
   version="1.1"
   height="32"
   viewBox="0 0 32 32"
   id="svg17"
   sodipodi:docname="folder_html.svg"
   inkscape:version="1.0.2 (e86c870879, 2021-01-15)">
  <sodipodi:namedview
     pagecolor="#ffffff"
     bordercolor="#666666"
     borderopacity="1"
     objecttolerance="10"
     gridtolerance="10"
     guidetolerance="10"
     inkscape:pageopacity="0"
     inkscape:pageshadow="2"
     inkscape:window-width="1920"
     inkscape:window-height="1007"
     id="namedview19"
     showgrid="false"
     inkscape:zoom="6.9384853"
     inkscape:cx="-28.934281"
     inkscape:cy="34.567061"
     inkscape:window-x="0"
     inkscape:window-y="0"
     inkscape:window-maximized="1"
     inkscape:current-layer="layer1" />
  <defs
     id="defs5455">
    <linearGradient
       inkscape:collect="always"
       xlink:href="#linearGradient885"
       id="linearGradient858"
       x1="210.75999"
       y1="89.093002"
       x2="362.40799"
       y2="89.093002"
       gradientUnits="userSpaceOnUse"
       gradientTransform="matrix(0.05859386,0,0,0.0617877,385.57142,515.92951)" />
    <linearGradient
       inkscape:collect="always"
       id="linearGradient885">
      <stop
         style="stop-color:#00d3ff;stop-opacity:1"
         offset="0"
         id="stop881" />
      <stop
         style="stop-color:#005580;stop-opacity:1"
         offset="1"
         id="stop883" />
    </linearGradient>
    <linearGradient
       inkscape:collect="always"
       xlink:href="#linearGradient847"
       id="linearGradient859"
       x1="0"
       y1="256.82327"
       x2="512"
       y2="256.82327"
       gradientUnits="userSpaceOnUse"
       gradientTransform="matrix(0.05859386,0,0,0.0617877,385.57142,515.92951)" />
    <linearGradient
       inkscape:collect="always"
       id="linearGradient847">
      <stop
         style="stop-color:#00d3ff;stop-opacity:1"
         offset="0"
         id="stop843" />
      <stop
         style="stop-color:#006899;stop-opacity:1"
         offset="1"
         id="stop845" />
    </linearGradient>
    <linearGradient
       inkscape:collect="always"
       xlink:href="#linearGradient885"
       id="linearGradient862"
       x1="476.689"
       y1="163.60085"
       x2="319.6994"
       y2="162.04736"
       gradientUnits="userSpaceOnUse"
       gradientTransform="matrix(0.05859386,0,0,0.0617877,385.57142,515.92951)" />
  </defs>
  <metadata
     id="metadata5458">
    <rdf:RDF>
      <cc:Work
         rdf:about="">
        <dc:format>image/svg+xml</dc:format>
        <dc:type
           rdf:resource="http://purl.org/dc/dcmitype/StillImage" />
      </cc:Work>
    </rdf:RDF>
  </metadata>
  <g
     inkscape:label="Capa 1"
     inkscape:groupmode="layer"
     id="layer1"
     transform="translate(-384.57143,-515.798)">
    <path
       style="fill:url(#linearGradient858);fill-opacity:1;stroke-width:0.0601696"
       d="m 401.36766,522.2832 c 0.48399,0.50446 1.13728,0.78735 1.81791,0.78735 h 1.00663 2.6141 c -0.68064,0 -1.33389,-0.28289 -1.81792,-0.78735 l -1.62903,-1.69767 c -0.48426,-0.50464 -1.13737,-0.78753 -1.81788,-0.78753 h -3.62075 c 0.68053,0 1.33372,0.28289 1.81791,0.78753 z"
       id="path2" />
    <path
       style="fill:#006a80;fill-opacity:1;stroke-width:0.0601696"
       d="m 396.11781,520.58553 1.62913,1.69767 c 0.484,0.50446 1.13717,0.78735 1.81788,0.78735 h 1.00667 2.61408 c -0.68063,0 -1.33392,-0.28289 -1.81791,-0.78735 l -1.62903,-1.69767 c -0.48425,-0.50464 -1.13738,-0.78753 -1.81791,-0.78753 h -3.55622 -0.0643 c 0.68071,0 1.3338,0.28296 1.81782,0.78753 z"
       id="path4" />
    <path
       style="fill:url(#linearGradient859);fill-opacity:1;stroke-width:0.0564452"
       d="m 414.01963,522.67802 h -6.20681 -1.00667 -2.61407 -1.00665 -2.61394 -1.00667 c -0.68071,0 -1.33388,-0.24893 -1.81788,-0.69296 l -1.62913,-1.49411 c -0.48419,-0.44402 -1.13727,-0.69295 -1.8179,-0.69295 h -3.5561 -3.62063 c -0.85703,0 -1.55175,0.64463 -1.55175,1.44001 v 2.88001 0.48002 17.75994 c 0,0.79538 0.69472,1.44002 1.55175,1.44002 h 26.89645 c 0.85703,0 1.5518,-0.64463 1.5518,-1.44002 v -18.23996 c 0,-0.79543 -0.69477,-1.44 -1.5518,-1.44 z m -10.88646,2.92921 0.004,-0.003 -0.004,-0.006 v 0 l 0.004,0.006 v 0 l -0.004,0.003 9.2e-4,-0.008 z m 10.36949,0.43076 c 0,0.53012 -0.46317,0.95999 -1.03471,0.95999 h -7.24138 c -0.57126,0 -1.03444,-0.42986 -1.03444,-0.95999 v -0.48001 c 0,-0.53012 0.46318,-0.95998 1.03444,-0.95998 h 7.24137 c 0.57149,0 1.03464,0.42985 1.03464,0.95998 v 0.48001 z"
       id="path6"
       sodipodi:nodetypes="scccccsccscssccssssssccccccccccssssssscc" />
    <path
       style="fill:url(#linearGradient862);fill-opacity:1;stroke-width:0.0601696"
       d="m 412.46794,524.43065 h -7.24137 c -0.57126,0 -1.04612,0.4883 -1.04612,1.09074 v 0.54555 c 0,0.60243 0.47486,1.09073 1.04612,1.09073 h 7.24137 c 0.57149,0 1.10944,-0.48847 1.12246,-1.09073 l 0.0124,-0.54555 c 5e-5,-0.60244 -0.56271,-1.09074 -1.13424,-1.09074 z"
       id="path8"
       sodipodi:nodetypes="ssssssscs" />
    <path
       style="color:#000000;fill:#004666;fill-opacity:1;stroke-width:0.49995"
       id="path26-3-6-7"
       d="m 394.67602,530.05501 c -0.17311,0 -0.34703,0.0138 -0.5156,0.0318 -0.33691,0.0347 -0.6552,0.09 -0.96864,0.18751 -1.56742,0.48544 -2.81117,1.72913 -3.2966,3.29644 -0.0974,0.31355 -0.1534,0.63177 -0.18745,0.96863 -0.0172,0.16853 -0.0317,0.34254 -0.0317,0.51557 0,0.17313 0.0137,0.34721 0.0317,0.51557 0.035,0.33703 0.0899,0.65519 0.18745,0.96865 0.48543,1.56746 1.72918,2.81104 3.2966,3.29659 0.31344,0.097 0.63173,0.15346 0.96864,0.1875 0.16857,0.0165 0.34249,0.0318 0.5156,0.0318 0.17312,0 0.34703,-0.0138 0.51559,-0.0318 0.337,-0.0347 0.65521,-0.09 0.96866,-0.1875 0.31317,-0.0975 0.62289,-0.23671 0.90612,-0.39055 1.13379,-0.61432 2.00225,-1.65206 2.39057,-2.90604 0.0972,-0.31346 0.15348,-0.63162 0.18735,-0.96865 0.0168,-0.16836 0.0317,-0.34244 0.0317,-0.51557 0,-0.17257 -0.0138,-0.34749 -0.0317,-0.51557 -0.0339,-0.33686 -0.0899,-0.65508 -0.18735,-0.96863 -0.19416,-0.62685 -0.51499,-1.20938 -0.92186,-1.70295 -0.10195,-0.12337 -0.21487,-0.23053 -0.32805,-0.3436 -0.45196,-0.45189 -0.97957,-0.82573 -1.578,-1.07809 -0.14963,-0.0626 -0.31213,-0.12307 -0.46878,-0.1718 -0.31345,-0.0972 -0.63166,-0.15345 -0.96866,-0.18751 -0.16856,-0.0165 -0.34247,-0.0318 -0.51559,-0.0318 z m 0,0.50003 c 0.75664,0 1.46775,0.18559 2.09358,0.51557 0.0166,0.009 0.0309,0.0222 0.0471,0.0318 0.0127,0.0163 0.0103,0.0345 0.0317,0.0468 0.0159,0.01 0.0319,0.023 0.0466,0.0318 0.0265,0.0139 0.0523,0.0364 0.0466,0.0618 -0.008,0.0371 -0.0682,0.035 -0.0935,0.0618 0.004,0.0531 -0.0176,0.0423 -0.0317,0.0785 0.009,0.0227 0.0279,0.0193 0.0317,0.0468 -0.005,0.0294 -0.0419,0.0331 -0.0317,0.0619 0.0489,0.0375 0.0939,0.007 0.14057,0 0.10195,-0.013 0.18722,0.002 0.24998,-0.0468 -0.007,-0.0383 0.0309,-0.0502 0.0469,-0.0785 0.0338,0.0232 0.0612,0.0544 0.0934,0.0785 -0.0184,0.009 -0.0602,0.0201 -0.0787,0.0318 -0.0254,0.0168 -0.034,0.043 -0.0616,0.0619 -0.0204,0.0142 -0.0722,0.0623 -0.0935,0.0623 -0.0265,0 -0.0754,-0.0218 -0.0934,-0.015 -0.0275,0.009 -0.016,0.0519 -0.047,0.0619 -0.0599,0.0216 -0.1665,-0.0593 -0.18734,0.0318 0.0253,0.0522 0.11063,0.0344 0.15614,0.0618 0.0285,0.0177 0.071,0.10967 0.0784,0.14055 0.008,0.0256 0.0111,0.1134 0,0.14067 -0.0285,0.0727 -0.10387,0.0638 -0.18748,0.0617 -0.0223,0 -0.0414,0.002 -0.0616,0 -0.14087,-0.01 -0.28006,-0.0544 -0.3438,0.0468 0.005,0.0775 0.0175,0.12026 0,0.18752 -0.0132,0.0492 -0.0648,0.0826 -0.0617,0.12497 9.8e-4,0.0216 0.0412,0.0631 0.0467,0.0936 0.004,0.0158 -0.008,0.048 0,0.0617 0.0232,0.0443 0.0828,-0.008 0.12501,0 0.0398,0.007 0.0784,0.0643 0.0784,0.10941 0,0.0324 -0.0121,0.0939 -0.0317,0.12496 -0.0398,0.0602 -0.11455,0.0452 -0.17185,0.0785 -0.0475,0.0275 -0.0653,0.0931 -0.0934,0.14061 -0.0304,0.0512 -0.0592,0.0675 -0.0467,0.14059 -0.0407,0.0815 -0.0867,0.1328 -0.1718,0.17187 -0.0242,0.0112 -0.0559,0.031 -0.0784,0.0468 -0.0175,0.0125 -0.0368,0.0341 -0.0619,0.062 -0.0323,0.0358 -0.0768,0.0511 -0.0934,0.0786 -0.0133,0.0207 -0.002,0.0652 -0.0149,0.0936 -0.0193,0.0378 -0.0527,0.0711 -0.0787,0.10934 -0.0123,0.0178 -0.0349,0.0382 -0.0469,0.0618 -0.0293,0.0531 -0.0679,0.0942 -0.0617,0.14064 0.005,0.0443 0.0597,0.0552 0.0617,0.0936 0.003,0.0216 -0.0165,0.0382 -0.015,0.062 9.7e-4,0.0351 0.0129,0.0511 0.015,0.0785 0.007,0.067 -0.0348,0.0941 -0.0469,0.14058 -0.007,0.0216 0.006,0.0451 0,0.062 -0.012,0.0343 -0.0611,0.0542 -0.062,0.0936 -8.6e-4,0.0286 0.044,0.0543 0.0469,0.0936 0.002,0.0275 -0.0204,0.0531 -0.0149,0.0786 0.0108,0.0492 0.10247,0.11805 0.14064,0.15621 0.0518,0.0522 0.10226,0.0856 0.12496,0.14064 0.0184,0.0462 0.0272,0.12168 0.0619,0.15621 0.0265,0.0256 0.0763,0.0359 0.10935,0.062 0.0323,0.0246 0.0766,0.0357 0.10937,0.062 0.0559,0.0433 0.13058,0.13134 0.21878,0.12498 0.0463,-0.004 0.0883,-0.0221 0.14056,-0.0318 0.0537,-0.01 0.11736,-0.0365 0.1719,-0.0318 0.0417,0.005 0.0815,0.0345 0.125,0.0318 0.0454,-0.003 0.1044,-0.0242 0.15621,-0.0468 0.0896,-0.0385 0.22845,-0.11284 0.35936,-0.0936 0.1001,0.0141 0.10195,0.12735 0.17183,0.17187 0.0804,0.008 0.13953,-0.0149 0.2031,0 0.0481,0.0121 0.10482,0.10243 0.10943,0.1406 0.005,0.0385 -0.0259,0.069 -0.0317,0.0936 -0.0131,0.053 -0.0217,0.12261 -0.0317,0.15623 -0.008,0.0266 -0.0161,0.0521 -0.0148,0.0785 0,0.0236 0.0376,0.079 0.0617,0.10936 0.0303,0.0376 0.0733,0.0673 0.10935,0.10935 0.0661,0.0767 0.094,0.18037 0.14067,0.28123 0.0123,0.0256 -0.012,0.0312 0,0.0619 -0.0193,0.15266 -0.0721,0.25282 -0.17192,0.42182 -0.0475,0.055 -0.0944,0.11934 -0.0935,0.1875 -0.004,0.16355 0.0851,0.24808 0.0786,0.4062 -0.0158,0.21263 9.1e-4,0.24575 -0.0148,0.35933 0.0721,0.0362 0.0368,0.14332 0.0148,0.21873 -0.0313,0.0895 -0.0609,0.11189 -0.0786,0.17185 0.0372,0.0156 0.0685,0.0198 0.10944,0.015 -0.81872,0.85111 -1.9756,1.37484 -3.24981,1.37484 -0.59647,0 -1.16645,-0.11733 -1.68732,-0.32808 -0.002,-5e-4 0.002,-0.0142 0,-0.015 0.047,-0.0197 0.13722,0.0354 0.17182,-0.0318 0.0175,-0.0324 -0.0224,-0.093 0,-0.12499 0.0161,-0.0216 0.12266,-0.041 0.15627,-0.0468 0.048,-0.009 0.0979,0.002 0.12497,-0.015 0.0303,-0.0187 0.0679,-0.0683 0.0619,-0.12499 -0.003,-0.0266 -0.0261,-0.0383 -0.0468,-0.0619 -0.0175,-0.0197 -0.004,-0.044 -0.0149,-0.0619 -0.0212,-0.0324 -0.0535,-0.0473 -0.0617,-0.0936 0.065,-0.0126 0.15541,0.0733 0.24998,0.0468 0.0448,-0.0127 0.11969,-0.0988 0.14063,-0.14062 0.007,-0.0126 -0.008,-0.062 0,-0.0785 0.009,-0.0168 0.0288,-0.0221 0.0317,-0.0318 0.007,-0.0246 -0.006,-0.0321 0,-0.0468 0.0155,-0.0463 0.0664,-0.076 0.0935,-0.10936 0.0203,-0.0256 0.0432,-0.0521 0.0617,-0.0785 0.0212,-0.0286 0.0329,-0.0373 0.0468,-0.062 0.0133,-0.083 -0.0512,-0.14603 -0.0317,-0.21874 0.0212,-0.0822 0.13967,-0.1346 0.21871,-0.17184 0.0274,-0.0126 0.0559,-0.0381 0.0785,-0.0468 0.0546,-0.0188 0.12098,-0.0129 0.17187,-0.0318 0.0851,-0.0314 0.11444,-0.12495 0.15621,-0.20309 0.0193,-0.0363 0.0431,-0.067 0.0467,-0.0936 0.004,-0.0236 -0.005,-0.0511 0,-0.0785 0.005,-0.0275 0.009,-0.0482 0.0148,-0.0785 0.0106,-0.0385 0.0153,-0.11261 0.0153,-0.15624 0,-0.0361 -0.0143,-0.0452 -0.0153,-0.0785 -0.007,-0.11814 0.035,-0.12299 0.0786,-0.18748 0.0213,-0.0324 0.032,-0.086 0.0469,-0.10939 0.074,-0.10903 0.19661,-0.16271 0.18751,-0.32807 -0.004,-0.055 -0.022,-0.17021 -0.0618,-0.18748 -0.0223,-0.0108 -0.0766,-0.003 -0.10938,-0.015 -0.10726,-0.0395 -0.18505,-0.16276 -0.29683,-0.17185 -0.0232,-9.3e-4 -0.0365,9.1e-4 -0.0617,0 -0.0434,-9.3e-4 -0.0911,-0.041 -0.14057,-0.0468 -0.0313,-0.004 -0.0908,0.01 -0.10938,0 -0.0285,-0.0132 -0.0238,-0.062 -0.0467,-0.0785 -0.0175,-0.0126 -0.0497,-0.021 -0.0786,-0.0318 -0.0446,-0.0168 -0.0735,-0.0279 -0.12499,-0.0318 -0.0159,-9.5e-4 -0.0599,0.003 -0.0782,0 -0.0285,-0.005 -0.0517,-0.031 -0.0786,-0.0468 -0.0333,-0.0197 -0.0487,-0.0347 -0.0617,-0.0619 0.0304,-0.0982 -0.0742,-0.11461 -0.0935,-0.17184 -0.0103,-0.0266 0.0103,-0.0699 0,-0.0936 -0.0127,-0.0344 -0.0407,-0.0502 -0.0788,-0.0786 -0.065,-0.0512 -0.12509,-0.0976 -0.2187,-0.10936 -0.0417,-0.005 -0.0903,0.004 -0.14063,0 -0.0527,-0.004 -0.11626,-0.0334 -0.15628,-0.0786 -0.0379,-0.0443 -0.044,-0.0879 -0.0781,-0.10937 -0.0323,-0.0197 -0.0869,-0.0262 -0.1094,-0.0468 -0.0108,-0.01 -0.007,-0.0262 -0.0148,-0.0468 -0.0159,-0.0334 -0.0512,-0.0377 -0.0317,-0.0785 -0.0367,-0.0177 -0.023,0.0228 -0.062,0.015 -0.036,-0.0502 -0.0605,-0.0783 -0.14061,-0.0618 -0.0367,0.008 -0.0665,0.0611 -0.10939,0.0618 -0.0358,9.2e-4 -0.0622,-0.0567 -0.10931,-0.0618 -0.0358,-0.005 -0.0842,0.0365 -0.10937,0.0318 -0.0388,-0.008 -0.0426,-0.0549 -0.0787,-0.0785 -0.0265,-0.0169 -0.0794,-0.0627 -0.0934,-0.0619 -0.045,9.3e-4 -0.0781,0.0961 -0.14059,0.0619 -0.0313,-0.0385 0.052,-0.0414 0.015,-0.0786 -0.0274,-0.0275 -0.0405,9.3e-4 -0.0617,0.015 -0.0254,0.0168 -0.0497,0.0367 -0.0787,0.0468 -0.062,0.0236 -0.10723,0.0213 -0.1563,0.0468 -0.0448,0.0236 -0.0517,0.0624 -0.0784,0.10937 -0.0204,0.0377 -0.0611,0.0916 -0.0934,0.0936 -0.0379,0.003 -0.0756,-0.048 -0.10945,-0.0619 -0.10447,-0.0453 -0.16361,0.0308 -0.24998,0.0318 -0.0801,9.2e-4 -0.19111,-0.12769 -0.18741,-0.2031 0.003,-0.0463 0.0258,-0.11462 0.0317,-0.17186 0.005,-0.0453 0.0463,-0.0832 0.0466,-0.12498 9e-4,-0.056 -0.0881,-0.10301 -0.12498,-0.10937 -0.0849,-0.0149 -0.19961,0.0378 -0.29687,0 -0.0175,-0.0314 0.0362,-0.0482 0.0465,-0.0786 0.007,-0.0168 -0.007,-0.0281 0,-0.0468 0.0116,-0.0294 0.0489,-0.0472 0.0617,-0.0785 0.0106,-0.0236 0.006,-0.0641 0.0154,-0.0936 0.0128,-0.0334 0.0436,-0.0549 0.0467,-0.0785 0.004,-0.0314 -0.0219,-0.0739 -0.0467,-0.0936 -0.0762,0.005 -0.12821,0.0117 -0.17181,0.0318 -0.0984,0.0443 -0.0731,0.17223 -0.17202,0.20311 -0.0339,0.0117 -0.0861,0.025 -0.12489,0.0318 0.064,-0.32709 0.16546,-0.63996 0.29691,-0.93739 0.0342,0.007 0.063,0.0289 0.0935,0.0318 0.0836,0.007 0.0865,-0.058 0.15614,-0.0936 0.0711,0.0106 0.10742,-0.008 0.17191,0 0.0435,0.005 0.10611,0.0599 0.14059,0.0618 0.0294,9.4e-4 0.0356,-0.0357 0.0616,-0.0318 0.0274,0.005 0.074,0.0608 0.0787,0.0936 0.005,0.0404 -0.0277,0.0801 -0.0151,0.12498 0.0426,0.0433 0.12658,0.0679 0.18752,0.0936 0.0398,-0.0334 0.007,-0.10897 0,-0.15624 -10e-4,-0.0207 0.003,-0.0431 0,-0.062 -0.005,-0.0333 -0.015,-0.0652 -0.015,-0.0936 0,-0.12992 0.1004,-0.18346 0.18748,-0.23435 0.0371,-0.0216 0.0775,-0.0613 0.10935,-0.0786 0.0464,-0.0227 0.0714,-0.0252 0.10941,-0.0468 0.0691,-0.0385 0.13385,-0.081 0.18751,-0.12498 0.0241,-0.0593 -0.003,-0.12935 0,-0.18747 0.0241,-0.0149 0.0364,0.003 0.0617,0 0.0417,-0.01 0.0547,-0.0699 0.0784,-0.0936 0.0131,-0.0132 0.0609,-0.0172 0.0783,-0.0318 0.0415,-0.0334 0.0415,-0.0797 0.0786,-0.0936 0.0127,-0.005 0.0423,-0.0108 0.0619,-0.015 0.0275,-0.008 0.0655,-0.032 0.10934,-0.0468 0.0285,-0.0106 0.0987,-0.005 0.10938,-0.015 0.0138,-0.0133 -0.004,-0.0729 0,-0.0936 0.0212,-0.10269 0.17381,-0.10607 0.26562,-0.14061 0.0629,-0.0246 0.13223,-0.0764 0.2031,-0.062 -0.0135,0.0492 -0.0747,0.0351 -0.0618,0.0936 0.0149,0.0833 0.11154,-0.0191 0.14061,-0.0318 0.0559,-0.0236 0.16161,-0.0363 0.23437,-0.062 0.0629,-0.0226 0.1693,-0.0666 0.10937,-0.1406 -0.0498,-0.004 -0.0654,0.044 -0.10937,0.0619 -0.0303,0.005 -0.0371,-0.0135 -0.0618,-0.015 -0.0242,-9.3e-4 -0.0378,0.0198 -0.0617,0.015 -0.0242,-0.005 -0.0592,-0.0492 -0.0618,-0.0785 -0.0107,-0.0767 0.0787,-0.0999 0.10934,-0.15623 -0.0202,-0.0688 -0.1137,-0.004 -0.17184,-0.0318 0.007,-0.0404 0.0304,-0.0851 0.0782,-0.0936 0.0388,-0.007 0.13262,0.0125 0.1562,0.0318 0.0138,0.0117 -0.006,0.043 0.0151,0.0619 0.0232,0.0207 0.062,0.005 0.0935,0 0.0115,-0.0522 -0.0718,-0.0293 -0.0617,-0.0619 0.0613,-0.0395 0.17455,-0.021 0.25002,-0.0318 0.0435,-0.007 0.0849,-0.0412 0.12493,-0.062 0.0364,-0.0206 0.0714,-0.0504 0.10939,-0.015 0.0117,0.037 -0.0261,0.0591 -0.0467,0.0785 -0.0701,0.0616 -0.13291,0.13135 -0.18743,0.20313 0.0342,0.0334 0.0839,0.01 0.14057,0.015 0.0212,0.003 0.056,0.0123 0.0784,0.015 0.0275,0.005 0.0569,-0.005 0.0788,0 0.0381,0.01 0.0397,0.062 0.0784,0.062 0.0613,0 0.0665,-0.0523 0.0317,-0.0936 0.0113,-0.0423 0.0316,-0.0799 0.0151,-0.10935 -0.0285,-0.057 -0.13512,0.01 -0.14061,-0.062 -0.004,-0.0453 0.046,-0.0592 0.0617,-0.0936 -0.008,-0.0866 0.0718,-0.0925 0.0618,-0.17186 -0.005,-0.0334 -0.0395,-0.0322 -0.0618,-0.0618 -0.0125,-0.0158 -0.0174,-0.0509 -0.0317,-0.062 -0.0472,-0.0395 -0.13517,-0.0337 -0.14064,-0.10936 -0.003,-0.0453 0.007,-0.0762 0,-0.12499 -0.007,-0.0462 -0.0538,-0.17839 -0.0935,-0.18747 -0.0508,-0.0112 -0.08,0.0818 -0.14057,0.10935 -0.0333,0.0149 -0.0909,0.0219 -0.12499,0.015 -0.0213,-0.005 -0.06,-0.0204 -0.0618,-0.0619 -0.003,-0.0241 0.006,-0.0332 0.0148,-0.0468 0.003,-0.004 -0.003,-0.0121 0,-0.015 0.3955,-0.11365 0.8179,-0.17188 1.24992,-0.17188 z m -1.85924,0.4061 c -0.0445,0.14207 -0.17276,0.22314 -0.34367,0.21876 -0.0417,0.0395 -0.0238,0.11652 -0.0466,0.17186 -0.0184,0.0463 -0.0788,0.0821 -0.12503,0.0785 -0.0337,-0.003 -0.0934,-0.0462 -0.0934,-0.0785 0,-0.0262 0.0249,-0.056 0.0317,-0.0785 0.18411,-0.11891 0.37698,-0.22097 0.57809,-0.31246 z m 3.8278,0.15625 c -0.0167,0.003 -0.0327,0.008 -0.0469,0.015 -0.0355,0.0207 -0.0359,0.0529 -0.0616,0.0619 -0.0379,0.0132 -0.0877,0.013 -0.0935,0.0468 -0.005,0.0286 0.0327,0.0369 0.0317,0.0619 -0.0142,0.0341 -0.0393,0.0366 -0.0467,0.0785 0.0463,0.0757 0.16154,9e-4 0.21872,-0.015 0.0251,-0.008 0.0489,0.004 0.0617,-0.015 0.0149,-0.0246 0.004,-0.075 0.0149,-0.10944 0.0126,-0.0375 0.0513,-0.0293 0.0467,-0.0619 -0.004,-0.0344 -0.0686,-0.0676 -0.12504,-0.0618 z m -4.95259,0.57808 c 0.0335,0.0397 0.0604,0.0987 0,0.12501 -0.0103,0.005 -0.1189,0.0198 -0.14074,0.015 -0.007,-10e-4 -0.0105,-0.0118 -0.0149,-0.015 0.0478,-0.0463 0.10642,-0.0813 0.15617,-0.12501 z m 0.12483,0.15625 c 0.0213,9.9e-4 0.0374,0.0448 0.062,0.0468 0.0242,0.002 0.0628,-0.0198 0.0784,-0.015 0.0378,0.0103 0.052,0.0818 0.0154,0.10928 -0.0303,0.004 -0.0405,-0.0358 -0.0617,-0.0318 -0.0609,0.0117 -0.0787,0.12873 -0.12494,0.12501 -0.0435,-0.005 -0.0767,-0.0929 -0.0317,-0.12501 8.1e-4,-0.0276 -0.0175,-0.035 -0.0152,-0.0619 0.0132,-0.0168 0.0416,-0.0498 0.0781,-0.0468 z m -0.20304,0.0318 c 0.0137,0 0.012,-0.006 0.015,0 -0.007,0.0482 -0.0251,0.056 -0.0617,0.0785 -0.0639,0.0385 -0.10412,0.0877 -0.12503,0.17191 -0.007,0.0246 -0.0786,0.10012 -0.1095,0.0936 -0.0721,-0.0149 0.0309,-0.15098 0.047,-0.17185 0.0178,-0.0227 0.0414,-0.0368 0.0617,-0.0619 0.0203,-0.0256 0.0271,-0.0797 0.0469,-0.0936 0.0213,-0.0149 0.0861,-0.0171 0.12499,-0.015 z m 6.15575,0.125 c 0.0721,-0.005 0.10788,0.0819 0.14077,0.12501 0.0274,0.0354 0.11159,0.084 0.15601,0.10929 0.0254,0.013 0.0497,0.0349 0.0784,0.0468 0.0298,0.013 0.075,0.0309 0.10931,0.0623 0.0356,0.0326 0.061,0.0808 0.0616,0.10932 9.9e-4,0.0294 -0.0194,0.0511 -0.0153,0.0785 0.032,0.006 0.0475,-0.0272 0.0617,-0.0618 0.11779,0.16807 0.21815,0.34739 0.31237,0.53127 -0.0184,0.012 -0.0276,0.0234 -0.0317,0.0468 -0.0103,0.0512 0.0298,0.11596 -0.0467,0.125 -0.0478,0.007 -0.10553,-0.048 -0.17177,-0.0618 -0.0274,-0.007 -0.0722,0.008 -0.0935,0 -0.0498,-0.0168 -0.0354,-0.0799 -0.0784,-0.10937 -0.0244,-0.0168 -0.0855,-0.0419 -0.125,-0.0468 -0.0245,-0.003 -0.0371,0.004 -0.0616,0 -0.0313,-0.004 -0.0837,-1.8e-4 -0.10933,-0.015 -0.0243,-0.0149 -0.0867,-0.0412 -0.0935,-0.0619 -0.0106,-0.0343 0.0765,-0.0818 0.0784,-0.10938 0.002,-0.0216 -0.0268,-0.0302 -0.0317,-0.0619 -0.004,-0.0197 0.005,-0.0499 0,-0.0619 -0.007,-0.0236 -0.0407,-0.0458 -0.0784,-0.0468 -0.0333,0 -0.0653,0.015 -0.0935,0.015 -0.0398,9.2e-4 -0.12192,-0.0198 -0.17189,-0.015 -0.0303,0.003 -0.0497,0.0134 -0.0782,0.015 -0.0797,0.007 -0.12577,-0.005 -0.18753,0 -0.0448,0.003 -0.13008,0.0282 -0.17188,0.0468 -0.0202,0.0107 -0.0357,0.034 -0.0616,0.0468 -0.0129,0.007 -0.0308,0.009 -0.0469,0.015 -0.0254,0.0117 -0.0692,0.0401 -0.0935,0.0468 -0.0355,0.01 -0.0768,-0.003 -0.14052,0 -0.0464,0.003 -0.12408,-0.008 -0.12505,-0.062 -9.9e-4,-0.0843 0.15436,-0.048 0.23431,-0.062 0.0303,-0.007 0.0417,-0.0412 0.0784,-0.062 0.0175,-0.0107 0.0309,-0.0201 0.0467,-0.0318 0.0274,-0.0187 0.0739,-0.057 0.0786,-0.0785 0.004,-0.0197 -0.0177,-0.048 -0.0148,-0.0618 0.004,-0.0187 0.0375,-0.0374 0.0617,-0.0618 0.0378,-0.0376 0.0612,-0.0846 0.1093,-0.10938 0.0323,-0.0168 0.0947,-0.0213 0.1094,-0.0468 0.004,-0.0294 -9e-4,-0.0364 0,-0.062 0.0193,-0.0178 0.0148,-0.028 0.0317,-0.0318 0.0488,-0.0115 0.0992,0.018 0.15628,0.015 0.0242,-9.3e-4 0.0517,0.002 0.0787,-0.015 0.0212,-0.0139 0.0405,-0.036 0.0619,-0.0468 0.0232,-0.0127 0.0487,-0.0448 0.0781,-0.0468 z m -5.73395,0.0468 c 0.0128,-0.002 0.0328,0.002 0.0465,0 0.0204,-8.3e-4 0.0395,0 0.0617,0 0.0223,0 0.0535,-0.01 0.0616,0 -0.0138,0.0599 -0.15582,0.0375 -0.20307,0.015 8.4e-4,-0.0117 0.0184,-0.0135 0.0317,-0.015 z m -0.17182,0.10946 c 0.0153,0 0.0309,-0.007 0.0469,0 -0.0417,0.0355 -0.0992,0.056 -0.17174,0.0785 -0.0354,0.0117 -0.0867,0.0225 -0.0935,-0.015 -0.008,-0.0472 0.0321,-0.0419 0.0616,-0.0468 0.0398,-0.005 0.10988,-0.0141 0.15628,-0.015 z m 5.92148,0 c -0.0303,0.0102 -0.0446,0.0697 0,0.0785 0.0202,-0.0126 0.0205,-0.0394 0.015,-0.0785 -0.0124,-0.0127 -0.007,-0.004 -0.015,0 z m -0.0147,0.12492 c -0.0144,0.005 -0.032,-8.9e-4 -0.0469,0.015 7.7e-4,0.0512 0.0103,0.081 0,0.12501 0.0293,0.057 0.0945,0.0225 0.10923,-0.015 0.0175,-0.0944 -0.0182,-0.13679 -0.0617,-0.12495 z m 0.39051,0.24993 c -0.0398,-0.002 -0.0702,0.0126 -0.0935,0.0318 0.0344,0.0549 0.0967,0.0639 0.17199,0.0785 0.0274,-0.0197 0.0179,-0.075 0.0317,-0.10937 -0.0333,0 -0.0538,0.002 -0.0934,0 z m -7.93686,1.92172 c 0.0324,0.0402 0.0662,0.0876 0.10934,0.10929 0.0223,0.0126 0.0488,0.01 0.0784,0.015 0.0232,0.005 0.0396,0.024 0.0618,0.0318 0.048,0.0158 0.11798,0.0133 0.15616,0.0318 0.0589,0.0256 0.0902,0.12715 0.14066,0.1562 0.003,0.0294 -0.0103,0.0568 0,0.0785 0.0232,0.0324 0.0714,0.0412 0.10931,0.0619 0.0465,0.0256 0.0656,0.0889 0.10947,0.10928 0.015,0.007 0.0386,-0.008 0.0619,0 0.0598,0.0178 0.0735,0.10927 0.12502,0.0936 0.0337,-0.0104 0.0413,-0.0608 0.0467,-0.0936 0.0223,-0.0246 0.0426,-0.0619 0.0784,-0.0619 0.0569,-8.7e-4 0.0732,0.0693 0.0934,0.125 0.0127,0.0314 0.0383,0.0611 0.0469,0.0936 0.0132,0.057 0.0124,0.21638 0,0.25001 -0.014,0.0414 -0.075,0.0634 -0.10941,0.1093 -0.016,0.0216 -0.034,0.048 -0.0467,0.0618 -0.0213,0.0275 -0.0463,0.0377 -0.0616,0.0619 -0.0103,0.0135 -0.008,0.0431 -0.0152,0.062 -0.0275,0.0586 -0.0697,0.10192 -0.0467,0.17193 0.0103,0.0286 0.0467,0.0599 0.0467,0.0936 0,0.0395 -0.0867,0.0503 -0.0935,0.0935 -0.005,0.0324 0.0371,0.0979 0.0466,0.14059 0.008,0.0324 0.0591,0.0579 0.0788,0.0786 0.0323,0.0358 0.064,0.08 0.0935,0.12501 0.0577,0.0876 0.0838,0.19494 0.14063,0.28126 0.0303,0.0443 0.0889,0.0781 0.10931,0.12501 0.0105,0.0236 -0.0103,0.0719 0,0.0936 0.0333,0.0737 0.19202,0.15114 0.26566,0.18744 0.0346,0.0168 0.0611,0.0291 0.0934,0.0468 0.048,0.0276 0.14726,0.083 0.17179,0.12501 0.0212,0.0375 0.0363,0.12656 0.0467,0.18751 0.0132,0.0805 -0.004,0.14796 0,0.23429 0.003,0.0472 0.0152,0.0782 0.0152,0.12501 0,0.0158 9.5e-4,0.046 0,0.0618 -8.3e-4,0.057 0.005,0.11458 0,0.17181 -0.003,0.0314 -0.002,0.067 0,0.0936 0.003,0.0286 0.0298,0.0377 0.0317,0.0621 0.002,0.0266 -0.0345,0.0577 -0.0317,0.0785 0.007,0.058 0.0671,0.1035 0.0783,0.15621 0.0103,0.0414 0.0204,0.13749 0.0149,0.18744 -0.004,0.0266 -0.0126,0.0642 -0.0149,0.0936 -0.003,0.0227 0.004,0.0412 0,0.0621 -1.24579,-0.80019 -2.07802,-2.19029 -2.07802,-3.78084 0,-0.20391 0.0199,-0.39695 0.0469,-0.59368 z m 1.71862,0.45307 c 0.0435,-0.0197 0.0356,0.0577 0,0.0617 -0.0346,0.005 -0.0333,-0.0469 0,-0.0617 z" />
  </g>
</svg>
