<?xml version="1.0" encoding="UTF-8" standalone="no"?>
<svg
   xmlns:dc="http://purl.org/dc/elements/1.1/"
   xmlns:cc="http://creativecommons.org/ns#"
   xmlns:rdf="http://www.w3.org/1999/02/22-rdf-syntax-ns#"
   xmlns:svg="http://www.w3.org/2000/svg"
   xmlns="http://www.w3.org/2000/svg"
   xmlns:xlink="http://www.w3.org/1999/xlink"
   xmlns:sodipodi="http://sodipodi.sourceforge.net/DTD/sodipodi-0.dtd"
   xmlns:inkscape="http://www.inkscape.org/namespaces/inkscape"
   width="32"
   version="1.1"
   height="32"
   viewBox="0 0 32 32"
   id="svg17"
   sodipodi:docname="folder-important.svg"
   inkscape:version="1.0.2 (e86c870879, 2021-01-15)">
  <sodipodi:namedview
     pagecolor="#ffffff"
     bordercolor="#666666"
     borderopacity="1"
     objecttolerance="10"
     gridtolerance="10"
     guidetolerance="10"
     inkscape:pageopacity="0"
     inkscape:pageshadow="2"
     inkscape:window-width="1920"
     inkscape:window-height="1007"
     id="namedview19"
     showgrid="false"
     inkscape:zoom="6.9384853"
     inkscape:cx="25.042827"
     inkscape:cy="-7.9464929"
     inkscape:window-x="0"
     inkscape:window-y="0"
     inkscape:window-maximized="1"
     inkscape:current-layer="layer1" />
  <defs
     id="defs5455">
    <linearGradient
       inkscape:collect="always"
       xlink:href="#linearGradient885"
       id="linearGradient858"
       x1="210.75999"
       y1="89.093002"
       x2="362.40799"
       y2="89.093002"
       gradientUnits="userSpaceOnUse"
       gradientTransform="matrix(0.05859381,0,0,0.06178772,385.57143,515.92949)" />
    <linearGradient
       inkscape:collect="always"
       id="linearGradient885">
      <stop
         style="stop-color:#00d3ff;stop-opacity:1"
         offset="0"
         id="stop881" />
      <stop
         style="stop-color:#005580;stop-opacity:1"
         offset="1"
         id="stop883" />
    </linearGradient>
    <linearGradient
       inkscape:collect="always"
       xlink:href="#linearGradient847"
       id="linearGradient859"
       x1="0"
       y1="256.82327"
       x2="512"
       y2="256.82327"
       gradientUnits="userSpaceOnUse"
       gradientTransform="matrix(0.05859381,0,0,0.06178772,385.57143,515.92949)" />
    <linearGradient
       inkscape:collect="always"
       id="linearGradient847">
      <stop
         style="stop-color:#00d3ff;stop-opacity:1"
         offset="0"
         id="stop843" />
      <stop
         style="stop-color:#006899;stop-opacity:1"
         offset="1"
         id="stop845" />
    </linearGradient>
    <linearGradient
       inkscape:collect="always"
       xlink:href="#linearGradient885"
       id="linearGradient862"
       x1="476.689"
       y1="163.60085"
       x2="319.6994"
       y2="162.04736"
       gradientUnits="userSpaceOnUse"
       gradientTransform="matrix(0.05859381,0,0,0.06178772,385.57143,515.92956)" />
  </defs>
  <metadata
     id="metadata5458">
    <rdf:RDF>
      <cc:Work
         rdf:about="">
        <dc:format>image/svg+xml</dc:format>
        <dc:type
           rdf:resource="http://purl.org/dc/dcmitype/StillImage" />
      </cc:Work>
    </rdf:RDF>
  </metadata>
  <g
     inkscape:label="Capa 1"
     inkscape:groupmode="layer"
     id="layer1"
     transform="translate(-384.57143,-515.798)">
    <path
       style="fill:url(#linearGradient858);fill-opacity:1;stroke-width:0.0601699"
       d="m 401.36764,522.2832 c 0.48402,0.50451 1.13729,0.78742 1.81795,0.78742 h 1.00655 2.61417 c -0.68066,0 -1.33391,-0.28291 -1.81795,-0.78742 l -1.62899,-1.6977 c -0.48425,-0.50459 -1.13736,-0.7875 -1.81792,-0.7875 h -3.62073 c 0.68056,0 1.33374,0.28291 1.81794,0.7875 z"
       id="path2" />
    <path
       style="fill:#006a80;fill-opacity:1;stroke-width:0.0601699"
       d="m 396.11784,520.5855 1.62909,1.6977 c 0.48401,0.50451 1.13719,0.78742 1.81793,0.78742 h 1.00657 2.61416 c -0.68066,0 -1.33393,-0.28291 -1.81795,-0.78742 l -1.62898,-1.6977 c -0.48425,-0.50459 -1.13738,-0.7875 -1.81794,-0.7875 h -3.55619 -0.0647 c 0.68067,0 1.33376,0.28297 1.81789,0.7875 z"
       id="path4" />
    <path
       style="fill:url(#linearGradient859);fill-opacity:1;stroke-width:0.0564454"
       d="m 414.01966,522.67802 h -6.2069 -1.00659 -2.61415 -1.00656 -2.61403 -1.00657 c -0.68074,0 -1.33392,-0.24897 -1.81793,-0.693 l -1.62909,-1.49403 c -0.48418,-0.44402 -1.13728,-0.69299 -1.81792,-0.69299 h -3.55607 -3.62064 c -0.85704,0 -1.55178,0.6447 -1.55178,1.44001 v 2.88001 0.48002 17.75994 c 0,0.79532 0.69474,1.44002 1.55178,1.44002 h 26.89645 c 0.85704,0 1.55177,-0.6447 1.55177,-1.44002 v -18.23996 c 0,-0.79537 -0.69473,-1.44 -1.55177,-1.44 z m -10.88652,2.92929 0.004,-0.002 -0.003,-0.005 v 0 l 0.003,0.005 v 0 l -0.004,0.002 9.9e-4,-0.008 z m 10.36942,0.43068 c 0,0.53015 -0.46317,0.95999 -1.0346,0.95999 h -7.24137 c -0.57134,0 -1.03451,-0.42984 -1.03451,-0.95999 v -0.48001 c 0,-0.53014 0.46317,-0.95999 1.03451,-0.95999 h 7.24134 c 0.5714,0 1.03456,0.42984 1.03456,0.95999 v 0.48001 z"
       id="path6"
       sodipodi:nodetypes="scccccsccscssccssssssccccccccccssssssscc" />
    <path
       style="fill:url(#linearGradient862);fill-opacity:1;stroke-width:0.0601699"
       d="m 412.46793,524.43069 h -7.24134 c -0.57134,0 -1.0462,0.48838 -1.0462,1.09082 v 0.5455 c 0,0.60243 0.47486,1.09082 1.0462,1.09082 h 7.24134 c 0.5714,0 1.10946,-0.48855 1.12239,-1.09082 l 0.0121,-0.5455 c 6e-5,-0.60244 -0.56264,-1.09082 -1.13413,-1.09082 z"
       id="path8"
       sodipodi:nodetypes="ssssssscs" />
    <path
       style="fill:#004666;fill-opacity:1;stroke-width:0.671807"
       id="path4195-3"
       d="m 392.57405,530.05505 c -0.53342,0 -0.96587,0.45869 -0.96587,1.02415 0,0.56546 0.43245,5.98067 0.96587,5.98067 0.53342,0 0.96589,-5.41521 0.96589,-5.98067 0,-0.56546 -0.43246,-1.02414 -0.96589,-1.02415 z m 0.0243,7.95567 a 0.99002606,1.0256987 0 0 0 -0.99042,1.02512 0.99002606,1.0256987 0 0 0 0.99042,1.0261 0.99002606,1.0256987 0 0 0 0.98945,-1.0261 0.99002606,1.0256987 0 0 0 -0.98945,-1.02512 z" />
  </g>
</svg>
