<?xml version="1.0" encoding="UTF-8" standalone="no"?>
<svg
   xmlns:dc="http://purl.org/dc/elements/1.1/"
   xmlns:cc="http://creativecommons.org/ns#"
   xmlns:rdf="http://www.w3.org/1999/02/22-rdf-syntax-ns#"
   xmlns:svg="http://www.w3.org/2000/svg"
   xmlns="http://www.w3.org/2000/svg"
   xmlns:xlink="http://www.w3.org/1999/xlink"
   xmlns:sodipodi="http://sodipodi.sourceforge.net/DTD/sodipodi-0.dtd"
   xmlns:inkscape="http://www.inkscape.org/namespaces/inkscape"
   width="32"
   version="1.1"
   height="32"
   viewBox="0 0 32 32"
   id="svg17"
   sodipodi:docname="folder-activities.svg"
   inkscape:version="1.0.2 (e86c870879, 2021-01-15)">
  <sodipodi:namedview
     pagecolor="#ffffff"
     bordercolor="#666666"
     borderopacity="1"
     objecttolerance="10"
     gridtolerance="10"
     guidetolerance="10"
     inkscape:pageopacity="0"
     inkscape:pageshadow="2"
     inkscape:window-width="1920"
     inkscape:window-height="1007"
     id="namedview19"
     showgrid="true"
     inkscape:zoom="9.8125"
     inkscape:cx="-6.3456666"
     inkscape:cy="5.4925971"
     inkscape:window-x="0"
     inkscape:window-y="0"
     inkscape:window-maximized="1"
     inkscape:current-layer="layer1">
    <inkscape:grid
       type="xygrid"
       id="grid908" />
  </sodipodi:namedview>
  <defs
     id="defs5455">
    <linearGradient
       inkscape:collect="always"
       xlink:href="#linearGradient885"
       id="linearGradient858"
       x1="210.75999"
       y1="89.093002"
       x2="362.40799"
       y2="89.093002"
       gradientUnits="userSpaceOnUse"
       gradientTransform="matrix(0.05859376,0,0,0.06178764,385.57142,515.92954)" />
    <linearGradient
       inkscape:collect="always"
       id="linearGradient885">
      <stop
         style="stop-color:#00d3ff;stop-opacity:1"
         offset="0"
         id="stop881" />
      <stop
         style="stop-color:#005580;stop-opacity:1"
         offset="1"
         id="stop883" />
    </linearGradient>
    <linearGradient
       inkscape:collect="always"
       xlink:href="#linearGradient847"
       id="linearGradient859"
       x1="0"
       y1="256.82327"
       x2="512"
       y2="256.82327"
       gradientUnits="userSpaceOnUse"
       gradientTransform="matrix(0.05859376,0,0,0.06178764,385.57142,515.92954)" />
    <linearGradient
       inkscape:collect="always"
       id="linearGradient847">
      <stop
         style="stop-color:#00d3ff;stop-opacity:1"
         offset="0"
         id="stop843" />
      <stop
         style="stop-color:#006899;stop-opacity:1"
         offset="1"
         id="stop845" />
    </linearGradient>
    <linearGradient
       inkscape:collect="always"
       xlink:href="#linearGradient885"
       id="linearGradient862"
       x1="476.689"
       y1="163.60085"
       x2="319.6994"
       y2="162.04736"
       gradientUnits="userSpaceOnUse"
       gradientTransform="matrix(0.05859376,0,0,0.06178764,385.57142,515.92961)" />
  </defs>
  <metadata
     id="metadata5458">
    <rdf:RDF>
      <cc:Work
         rdf:about="">
        <dc:format>image/svg+xml</dc:format>
        <dc:type
           rdf:resource="http://purl.org/dc/dcmitype/StillImage" />
      </cc:Work>
    </rdf:RDF>
  </metadata>
  <g
     inkscape:label="Capa 1"
     inkscape:groupmode="layer"
     id="layer1"
     transform="translate(-384.57143,-515.798)">
    <path
       style="fill:url(#linearGradient858);fill-opacity:1;stroke-width:0.0601685"
       d="m 401.36754,522.28316 c 0.48404,0.50451 1.13733,0.78732 1.81807,0.78732 h 1.00652 2.61417 c -0.68072,0 -1.33399,-0.28281 -1.81801,-0.78732 l -1.62896,-1.69759 c -0.48421,-0.50472 -1.13742,-0.78757 -1.81792,-0.78757 h -3.62078 c 0.68059,0 1.33382,0.28285 1.818,0.78757 z"
       id="path2" />
    <path
       style="fill:#006a80;fill-opacity:1;stroke-width:0.0601685"
       d="m 396.11782,520.58557 1.62901,1.69759 c 0.48404,0.50451 1.13721,0.78732 1.818,0.78732 h 1.00661 2.61417 c -0.68074,0 -1.33403,-0.28281 -1.81807,-0.78732 l -1.62891,-1.69759 c -0.48424,-0.50472 -1.13741,-0.78757 -1.818,-0.78757 h -3.55615 -0.0639 c 0.68059,0 1.33379,0.28292 1.81781,0.78757 z"
       id="path4" />
    <path
       style="fill:url(#linearGradient859);fill-opacity:1;stroke-width:0.0564451"
       d="m 414.01955,522.67803 h -6.20673 -1.00668 -2.61403 -1.00667 -2.614 -1.00661 c -0.68079,0 -1.33396,-0.24899 -1.818,-0.693 l -1.62901,-1.49405 c -0.48418,-0.444 -1.1373,-0.69298 -1.81798,-0.69298 h -3.55606 -3.62068 c -0.85701,0 -1.55167,0.64461 -1.55167,1.44002 v 2.88003 0.48002 17.75991 c 0,0.7954 0.69466,1.44002 1.55167,1.44002 h 26.89645 c 0.857,0 1.55188,-0.64462 1.55188,-1.44002 v -18.23993 c 0,-0.79551 -0.69488,-1.44002 -1.55188,-1.44002 z m -10.88633,2.92913 0.008,-0.005 -0.007,-0.01 v 0 l 0.007,0.01 v 0 l -0.008,0.005 0.002,-0.01 z m 10.36945,0.43084 c 0,0.53004 -0.46326,0.95995 -1.03474,0.95995 h -7.24139 c -0.57126,0 -1.03441,-0.42991 -1.03441,-0.95995 v -0.48006 c 0,-0.53004 0.46315,-0.95997 1.03441,-0.95997 h 7.24135 c 0.57152,0 1.03468,0.42993 1.03468,0.95997 v 0.48006 z"
       id="path6"
       sodipodi:nodetypes="scccccsccscssccssssssccccccccccssssssscc" />
    <path
       style="fill:url(#linearGradient862);fill-opacity:1;stroke-width:0.0601685"
       d="m 412.46789,524.43072 h -7.24135 c -0.57126,0 -1.04608,0.48826 -1.04608,1.09067 v 0.54569 c 0,0.60243 0.47482,1.09061 1.04608,1.09061 h 7.24135 c 0.57152,0 1.10947,-0.48833 1.12246,-1.09061 l 0.0121,-0.54569 c 0,-0.60241 -0.56287,-1.09067 -1.13424,-1.09067 z"
       id="path8"
       sodipodi:nodetypes="ssssssscs" />
    <path
       style="color:#000000;fill:#004666;fill-opacity:1;stroke-width:0.70001"
       id="path3023-3"
       d="m 391.92654,530.05498 a 0.75002183,0.74999053 0 0 0 -0.75007,0.75015 0.75002183,0.74999053 0 0 0 0.75007,0.75002 0.75002183,0.74999053 0 0 0 0.74991,-0.75002 0.75002183,0.74999053 0 0 0 -0.74991,-0.75015 z m 4.25006,0 -1.4218,1.42184 2.18748,2.18754 -2.2658,2.57807 1.50012,1.31248 3.49994,-3.9998 z m -5.25014,3.50013 a 1.2500313,1.2499888 0 0 0 -1.24992,1.24991 1.2500313,1.2499888 0 0 0 1.24992,1.25004 1.2500313,1.2499888 0 0 0 1.25015,-1.25004 1.2500313,1.2499888 0 0 0 -1.25015,-1.24991 z m 2.25015,3.50005 a 1.5000367,1.499986 0 0 0 -1.50023,1.49976 1.5000367,1.499986 0 0 0 1.50023,1.50006 1.5000367,1.499986 0 0 0 1.49987,-1.50006 1.5000367,1.499986 0 0 0 -1.49987,-1.49976 z" />
  </g>
</svg>
