<?xml version="1.0" encoding="UTF-8" standalone="no"?>
<svg
   xmlns:dc="http://purl.org/dc/elements/1.1/"
   xmlns:cc="http://creativecommons.org/ns#"
   xmlns:rdf="http://www.w3.org/1999/02/22-rdf-syntax-ns#"
   xmlns:svg="http://www.w3.org/2000/svg"
   xmlns="http://www.w3.org/2000/svg"
   xmlns:xlink="http://www.w3.org/1999/xlink"
   xmlns:sodipodi="http://sodipodi.sourceforge.net/DTD/sodipodi-0.dtd"
   xmlns:inkscape="http://www.inkscape.org/namespaces/inkscape"
   width="32"
   version="1.1"
   height="32"
   viewBox="0 0 32 32"
   id="svg15"
   sodipodi:docname="folder-openSUSE.svg"
   inkscape:version="1.0.2 (e86c870879, 2021-01-15)">
  <sodipodi:namedview
     pagecolor="#ffffff"
     bordercolor="#666666"
     borderopacity="1"
     objecttolerance="10"
     gridtolerance="10"
     guidetolerance="10"
     inkscape:pageopacity="0"
     inkscape:pageshadow="2"
     inkscape:window-width="1920"
     inkscape:window-height="1007"
     id="namedview17"
     showgrid="false"
     inkscape:zoom="9.8125"
     inkscape:cx="-12.999029"
     inkscape:cy="6.4668704"
     inkscape:window-x="0"
     inkscape:window-y="0"
     inkscape:window-maximized="1"
     inkscape:current-layer="layer1"
     inkscape:document-rotation="0" />
  <defs
     id="defs5455">
    <linearGradient
       inkscape:collect="always"
       id="linearGradient885">
      <stop
         style="stop-color:#00d3ff;stop-opacity:1"
         offset="0"
         id="stop881" />
      <stop
         style="stop-color:#005580;stop-opacity:1"
         offset="1"
         id="stop883" />
    </linearGradient>
    <linearGradient
       inkscape:collect="always"
       id="linearGradient847">
      <stop
         style="stop-color:#00d3ff;stop-opacity:1"
         offset="0"
         id="stop843" />
      <stop
         style="stop-color:#006899;stop-opacity:1"
         offset="1"
         id="stop845" />
    </linearGradient>
    <linearGradient
       inkscape:collect="always"
       xlink:href="#linearGradient885"
       id="linearGradient858-3"
       x1="210.75999"
       y1="89.093002"
       x2="362.40799"
       y2="89.093002"
       gradientUnits="userSpaceOnUse"
       gradientTransform="matrix(0.0585938,0,0,0.06178774,385.57143,515.92948)" />
    <linearGradient
       inkscape:collect="always"
       xlink:href="#linearGradient847"
       id="linearGradient859-5"
       x1="0"
       y1="256.82327"
       x2="512"
       y2="256.82327"
       gradientUnits="userSpaceOnUse"
       gradientTransform="matrix(0.0585938,0,0,0.06178774,385.57143,515.92948)" />
    <linearGradient
       inkscape:collect="always"
       xlink:href="#linearGradient885"
       id="linearGradient862-6"
       x1="476.689"
       y1="163.60085"
       x2="319.6994"
       y2="162.04736"
       gradientUnits="userSpaceOnUse"
       gradientTransform="matrix(0.0585938,0,0,0.06178774,385.57143,515.92948)" />
  </defs>
  <metadata
     id="metadata5458">
    <rdf:RDF>
      <cc:Work
         rdf:about="">
        <dc:format>image/svg+xml</dc:format>
        <dc:type
           rdf:resource="http://purl.org/dc/dcmitype/StillImage" />
      </cc:Work>
    </rdf:RDF>
  </metadata>
  <g
     inkscape:label="Capa 1"
     inkscape:groupmode="layer"
     id="layer1"
     transform="translate(-384.57143,-515.798)">
    <path
       style="fill:url(#linearGradient858-3);fill-opacity:1;stroke-width:0.0601699"
       d="m 401.36765,522.2832 c 0.484,0.50451 1.13729,0.78742 1.81794,0.78742 h 1.00655 2.61417 c -0.68066,0 -1.33392,-0.28291 -1.81795,-0.78742 l -1.629,-1.6977 c -0.48425,-0.50459 -1.13736,-0.7875 -1.81791,-0.7875 h -3.62073 c 0.68055,0 1.33375,0.28291 1.81794,0.7875 z"
       id="path2-2" />
    <path
       style="fill:#006a80;fill-opacity:1;stroke-width:0.0601699"
       d="m 396.11785,520.5855 1.62909,1.6977 c 0.484,0.50451 1.13718,0.78742 1.81791,0.78742 h 1.00658 2.61416 c -0.68065,0 -1.33394,-0.28291 -1.81794,-0.78742 l -1.62899,-1.6977 c -0.48425,-0.50459 -1.13739,-0.7875 -1.81794,-0.7875 h -3.55619 -0.0647 c 0.68066,0 1.33376,0.28297 1.81789,0.7875 z"
       id="path4-9" />
    <path
       style="fill:url(#linearGradient859-5);fill-opacity:1;stroke-width:0.0564454"
       d="m 414.01966,522.67802 h -6.20691 -1.00657 -2.61417 -1.00654 -2.61404 -1.00658 c -0.68073,0 -1.33391,-0.24898 -1.81791,-0.693 l -1.62909,-1.49403 c -0.48418,-0.44402 -1.13728,-0.69299 -1.81793,-0.69299 h -3.55607 -3.62064 c -0.85704,0 -1.55178,0.6447 -1.55178,1.44001 v 2.88001 0.48002 17.75995 c 0,0.79531 0.69474,1.44001 1.55178,1.44001 h 26.89645 c 0.85704,0 1.55177,-0.6447 1.55177,-1.44001 v -18.23997 c 0,-0.79537 -0.69473,-1.44 -1.55177,-1.44 z m -10.88653,2.92929 0.004,-0.003 -0.004,-0.005 v 0 l 0.004,0.005 v 0 l -0.004,0.003 0.001,-0.008 z m 10.36942,0.43068 c 0,0.53015 -0.46317,0.95999 -1.0346,0.95999 h -7.24136 c -0.57134,0 -1.03452,-0.42984 -1.03452,-0.95999 v -0.48001 c 0,-0.53015 0.46318,-0.95999 1.03452,-0.95999 h 7.24135 c 0.57138,0 1.03455,0.42984 1.03455,0.95999 v 0.48001 z"
       id="path6-1"
       sodipodi:nodetypes="scccccsccscssccssssssccccccccccssssssscc" />
    <path
       style="fill:url(#linearGradient862-6);fill-opacity:1;stroke-width:0.0601699"
       d="m 412.46794,524.43061 h -7.24135 c -0.57134,0 -1.04621,0.48838 -1.04621,1.09082 v 0.5455 c 0,0.60243 0.47487,1.09082 1.04621,1.09082 h 7.24135 c 0.57138,0 1.10945,-0.48855 1.12237,-1.09082 l 0.0121,-0.5455 c 6e-5,-0.60244 -0.56263,-1.09082 -1.13412,-1.09082 z"
       id="path8-2"
       sodipodi:nodetypes="ssssssscs" />
    <path
       style="color:#4d4d4d;font-size:20.4884px;font-family:TrebuchetMS-Bold;fill:#004666;fill-opacity:1;fill-rule:evenodd;stroke:none;stroke-width:0.0715896;stroke-miterlimit:4"
       d="m 394.67645,530.05506 c -2.76122,0 -5.00001,2.23853 -5.00001,5 0,2.76147 2.23879,5 5.00001,5 2.76121,0 4.99999,-2.23853 4.99999,-5 0,-2.76147 -2.23878,-5 -4.99999,-5 z m 0.0236,0.69244 c 2.37914,0 4.30945,1.92868 4.30945,4.30756 0,2.37913 -1.93057,4.30756 -4.30945,4.30756 -1.28461,0 -2.43738,-0.56304 -3.22652,-1.45488 0.32452,-0.25184 0.86738,-0.1904 1.53592,-0.11419 0.32035,0.0364 0.68567,0.0781 1.0626,0.0865 1.05321,0.006 2.1864,-0.18611 2.88582,-0.49172 0.45224,-0.19829 0.74167,-0.32889 0.92266,-0.49355 0.0655,-0.0536 0.0997,-0.14294 0.13448,-0.23571 l 0.0236,-0.0627 c 0.0292,-0.075 0.0716,-0.23619 0.0902,-0.32412 0.008,-0.0385 0.0129,-0.0798 -0.0151,-0.10129 l -0.0978,0.0184 c -0.30689,0.18403 -1.07362,0.53453 -1.79192,0.5488 -0.89004,0.0187 -2.68399,-0.89603 -2.87104,-0.99264 l -0.0181,-0.0221 c -0.0454,-0.10706 -0.3134,-0.74438 -0.37018,-0.87846 1.29124,0.85032 2.3618,1.32097 3.18229,1.39412 0.91224,0.081 1.62383,-0.41701 1.92818,-0.62984 0.0593,-0.0406 0.10484,-0.0724 0.12344,-0.0792 l 0.0199,-0.0332 c -0.0501,-0.32065 -0.52909,-1.87229 -0.88947,-2.24494 -0.10011,-0.10221 -0.17941,-0.20168 -0.34075,-0.2965 -1.30452,-0.76033 -4.40194,-1.21826 -4.54697,-1.23941 l -0.0236,0.007 -0.009,0.0203 c 0,0 -0.012,0.64318 -0.0132,0.71455 -0.10629,-0.0352 -0.43589,-0.14308 -0.90795,-0.27257 0.61596,-0.76211 1.55987,-1.43831 3.21181,-1.43831 z m 1.13818,2.27994 c 0.0216,-3.3e-4 0.0441,-5e-4 0.0665,0 0.73081,0.0263 1.30493,0.64174 1.27994,1.372 -0.0131,0.35328 -0.16195,0.67968 -0.41987,0.92082 -0.25866,0.24239 -0.59496,0.36873 -0.9503,0.35727 -0.72947,-0.0273 -1.30362,-0.64278 -1.27985,-1.372 0.0125,-0.3538 0.16217,-0.6823 0.42172,-0.92266 0.2423,-0.22725 0.5524,-0.35049 0.88214,-0.35543 z m -0.035,0.39042 c -0.21279,0.013 -0.4137,0.0993 -0.57088,0.24678 -0.17918,0.16822 -0.28491,0.39598 -0.29285,0.64271 -0.0168,0.50978 0.38205,0.93879 0.89133,0.95765 0.24749,0.008 0.48231,-0.079 0.66303,-0.24677 0.18023,-0.16899 0.28517,-0.39886 0.29275,-0.64457 0.0176,-0.51054 -0.38364,-0.93797 -0.89314,-0.9558 -0.0308,-10e-4 -0.0598,-10e-4 -0.0902,0 z m 0.24312,0.46224 c 0.22631,0 0.40882,0.12299 0.40882,0.2744 0,0.15065 -0.18251,0.2744 -0.40882,0.2744 -0.22711,0 -0.41071,-0.12401 -0.41071,-0.2744 0,-0.15141 0.1836,-0.2744 0.41071,-0.2744 z"
       id="path2445"
       class="ColorScheme-Text"
       inkscape:connector-curvature="0" />
  </g>
</svg>
