<?xml version="1.0" encoding="UTF-8" standalone="no"?>
<svg
   xmlns:dc="http://purl.org/dc/elements/1.1/"
   xmlns:cc="http://creativecommons.org/ns#"
   xmlns:rdf="http://www.w3.org/1999/02/22-rdf-syntax-ns#"
   xmlns:svg="http://www.w3.org/2000/svg"
   xmlns="http://www.w3.org/2000/svg"
   xmlns:xlink="http://www.w3.org/1999/xlink"
   xmlns:sodipodi="http://sodipodi.sourceforge.net/DTD/sodipodi-0.dtd"
   xmlns:inkscape="http://www.inkscape.org/namespaces/inkscape"
   width="32"
   version="1.1"
   height="32"
   viewBox="0 0 32 32"
   id="svg15"
   sodipodi:docname="folder-Github.svg"
   inkscape:version="1.0.2 (e86c870879, 2021-01-15)">
  <sodipodi:namedview
     pagecolor="#ffffff"
     bordercolor="#666666"
     borderopacity="1"
     objecttolerance="10"
     gridtolerance="10"
     guidetolerance="10"
     inkscape:pageopacity="0"
     inkscape:pageshadow="2"
     inkscape:window-width="1920"
     inkscape:window-height="1007"
     id="namedview17"
     showgrid="false"
     inkscape:zoom="9.8125"
     inkscape:cx="-12.999029"
     inkscape:cy="6.4668704"
     inkscape:window-x="0"
     inkscape:window-y="0"
     inkscape:window-maximized="1"
     inkscape:current-layer="layer1"
     inkscape:document-rotation="0" />
  <defs
     id="defs5455">
    <linearGradient
       inkscape:collect="always"
       id="linearGradient885">
      <stop
         style="stop-color:#00d3ff;stop-opacity:1"
         offset="0"
         id="stop881" />
      <stop
         style="stop-color:#005580;stop-opacity:1"
         offset="1"
         id="stop883" />
    </linearGradient>
    <linearGradient
       inkscape:collect="always"
       id="linearGradient847">
      <stop
         style="stop-color:#00d3ff;stop-opacity:1"
         offset="0"
         id="stop843" />
      <stop
         style="stop-color:#006899;stop-opacity:1"
         offset="1"
         id="stop845" />
    </linearGradient>
    <linearGradient
       inkscape:collect="always"
       xlink:href="#linearGradient885"
       id="linearGradient858-3"
       x1="210.75999"
       y1="89.093002"
       x2="362.40799"
       y2="89.093002"
       gradientUnits="userSpaceOnUse"
       gradientTransform="matrix(0.0585938,0,0,0.06178774,385.57143,515.92949)" />
    <linearGradient
       inkscape:collect="always"
       xlink:href="#linearGradient847"
       id="linearGradient859-5"
       x1="0"
       y1="256.82327"
       x2="512"
       y2="256.82327"
       gradientUnits="userSpaceOnUse"
       gradientTransform="matrix(0.0585938,0,0,0.06178774,385.57143,515.92949)" />
    <linearGradient
       inkscape:collect="always"
       xlink:href="#linearGradient885"
       id="linearGradient862-6"
       x1="476.689"
       y1="163.60085"
       x2="319.6994"
       y2="162.04736"
       gradientUnits="userSpaceOnUse"
       gradientTransform="matrix(0.0585938,0,0,0.06178774,385.57143,515.92949)" />
  </defs>
  <metadata
     id="metadata5458">
    <rdf:RDF>
      <cc:Work
         rdf:about="">
        <dc:format>image/svg+xml</dc:format>
        <dc:type
           rdf:resource="http://purl.org/dc/dcmitype/StillImage" />
      </cc:Work>
    </rdf:RDF>
  </metadata>
  <g
     inkscape:label="Capa 1"
     inkscape:groupmode="layer"
     id="layer1"
     transform="translate(-384.57143,-515.798)">
    <path
       style="fill:url(#linearGradient858-3);fill-opacity:1;stroke-width:0.0601699"
       d="m 401.36765,522.2832 c 0.484,0.50451 1.13728,0.78742 1.81794,0.78742 h 1.00655 2.61417 c -0.68066,0 -1.33392,-0.28291 -1.81795,-0.78742 l -1.629,-1.6977 c -0.48425,-0.50459 -1.13736,-0.7875 -1.81791,-0.7875 h -3.62073 c 0.68055,0 1.33375,0.28291 1.81794,0.7875 z"
       id="path2-2" />
    <path
       style="fill:#006a80;fill-opacity:1;stroke-width:0.0601699"
       d="m 396.11785,520.5855 1.62908,1.6977 c 0.48401,0.50451 1.13719,0.78742 1.81792,0.78742 h 1.00658 2.61416 c -0.68066,0 -1.33394,-0.28291 -1.81794,-0.78742 l -1.62899,-1.6977 c -0.48425,-0.50459 -1.13739,-0.7875 -1.81794,-0.7875 h -3.55619 -0.0647 c 0.68066,0 1.33376,0.28297 1.81789,0.7875 z"
       id="path4-9" />
    <path
       style="fill:url(#linearGradient859-5);fill-opacity:1;stroke-width:0.0564454"
       d="m 414.01966,522.67802 h -6.20691 -1.00657 -2.61417 -1.00654 -2.61404 -1.00658 c -0.68073,0 -1.33391,-0.24898 -1.81792,-0.693 l -1.62908,-1.49403 c -0.48418,-0.44402 -1.13728,-0.69299 -1.81793,-0.69299 h -3.55607 -3.62064 c -0.85704,0 -1.55178,0.6447 -1.55178,1.44001 v 2.88001 0.48002 17.75995 c 0,0.79531 0.69474,1.44001 1.55178,1.44001 h 26.89645 c 0.85704,0 1.55177,-0.6447 1.55177,-1.44001 v -18.23997 c 0,-0.79537 -0.69473,-1.44 -1.55177,-1.44 z m -10.88653,2.92929 0.004,-0.003 -0.004,-0.005 v 0 l 0.004,0.005 v 0 l -0.004,0.003 0.001,-0.008 z m 10.36942,0.43068 c 0,0.53015 -0.46317,0.95999 -1.0346,0.95999 h -7.24136 c -0.57134,0 -1.03452,-0.42984 -1.03452,-0.95999 v -0.48001 c 0,-0.53015 0.46318,-0.95999 1.03452,-0.95999 h 7.24134 c 0.57139,0 1.03456,0.42984 1.03456,0.95999 v 0.48001 z"
       id="path6-1"
       sodipodi:nodetypes="scccccsccscssccssssssccccccccccssssssscc" />
    <path
       style="fill:url(#linearGradient862-6);fill-opacity:1;stroke-width:0.0601699"
       d="m 412.46793,524.43061 h -7.24134 c -0.57134,0 -1.04621,0.48838 -1.04621,1.09082 v 0.5455 c 0,0.60243 0.47487,1.09082 1.04621,1.09082 h 7.24134 c 0.57139,0 1.10946,-0.48855 1.12238,-1.09082 l 0.0121,-0.5455 c 6e-5,-0.60244 -0.56263,-1.09082 -1.13412,-1.09082 z"
       id="path8-2"
       sodipodi:nodetypes="ssssssscs" />
    <path
       d="m 394.7157,530.05506 c -2.78421,0 -5.03926,2.2972 -5.03926,5.13041 0,2.26717 1.44368,4.18977 3.44556,4.86762 0.25197,0.0482 0.34433,-0.11051 0.34433,-0.24669 0,-0.12182 -0.005,-0.44465 -0.007,-0.87232 -1.40177,0.30934 -1.69746,-0.68829 -1.69746,-0.68829 -0.22925,-0.59214 -0.56061,-0.75052 -0.56061,-0.75052 -0.45646,-0.31803 0.0355,-0.31151 0.0355,-0.31151 0.50601,0.0356 0.77179,0.52862 0.77179,0.52862 0.44933,0.78445 1.17963,0.55778 1.46772,0.42682 0.0452,-0.33197 0.17513,-0.55777 0.31919,-0.68612 -1.11915,-0.12834 -2.29541,-0.56951 -2.29541,-2.53518 0,-0.55994 0.19528,-1.01764 0.51862,-1.37658 -0.0565,-0.12965 -0.22681,-0.65131 0.0441,-1.35787 0,0 0.42207,-0.13748 1.38579,0.52601 0.40318,-0.114 0.83151,-0.17056 1.25982,-0.17317 0.42841,0.002 0.85674,0.0592 1.25982,0.17317 0.95747,-0.66349 1.37957,-0.52601 1.37957,-0.52601 0.27081,0.70656 0.10075,1.22822 0.0501,1.35787 0.32126,0.35894 0.51654,0.81664 0.51654,1.37658 0,1.97089 -1.178,2.40466 -2.29921,2.53083 0.17636,0.15402 0.34019,0.46858 0.34019,0.94934 0,0.68655 -0.007,1.23822 -0.007,1.40486 0,0.13443 0.0882,0.29497 0.34643,0.24364 2.01611,-0.6735 3.45868,-2.59741 3.45868,-4.8611 -10e-6,-2.83321 -2.25634,-5.13041 -5.03935,-5.13041 z"
       id="path2-3-3"
       style="fill:#004666;fill-opacity:1;stroke-width:0.427441" />
  </g>
</svg>
