<?xml version="1.0" encoding="UTF-8" standalone="no"?>
<svg
   xmlns:dc="http://purl.org/dc/elements/1.1/"
   xmlns:cc="http://creativecommons.org/ns#"
   xmlns:rdf="http://www.w3.org/1999/02/22-rdf-syntax-ns#"
   xmlns:svg="http://www.w3.org/2000/svg"
   xmlns="http://www.w3.org/2000/svg"
   xmlns:xlink="http://www.w3.org/1999/xlink"
   xmlns:sodipodi="http://sodipodi.sourceforge.net/DTD/sodipodi-0.dtd"
   xmlns:inkscape="http://www.inkscape.org/namespaces/inkscape"
   width="32"
   version="1.1"
   height="32"
   viewBox="0 0 32 32"
   id="svg15"
   sodipodi:docname="folder-blue.svg"
   inkscape:version="1.0.2 (e86c870879, 2021-01-15)">
  <sodipodi:namedview
     pagecolor="#ffffff"
     bordercolor="#666666"
     borderopacity="1"
     objecttolerance="10"
     gridtolerance="10"
     guidetolerance="10"
     inkscape:pageopacity="0"
     inkscape:pageshadow="2"
     inkscape:window-width="1920"
     inkscape:window-height="1007"
     id="namedview17"
     showgrid="false"
     inkscape:zoom="9.8125"
     inkscape:cx="-8.1530754"
     inkscape:cy="4.5332228"
     inkscape:window-x="0"
     inkscape:window-y="0"
     inkscape:window-maximized="1"
     inkscape:current-layer="layer1" />
  <defs
     id="defs5455">
    <linearGradient
       id="linearGradient4172-7-9">
      <stop
         style="stop-color:#4183d7"
         id="stop4174-9-8" />
      <stop
         offset="1"
         style="stop-color:#5b94df"
         id="stop4176-4-6" />
    </linearGradient>
    <linearGradient
       inkscape:collect="always"
       xlink:href="#linearGradient885"
       id="linearGradient858"
       x1="210.75999"
       y1="89.093002"
       x2="362.40799"
       y2="89.093002"
       gradientUnits="userSpaceOnUse"
       gradientTransform="matrix(0.05859383,0,0,0.06178763,385.57143,515.92956)" />
    <linearGradient
       inkscape:collect="always"
       id="linearGradient885">
      <stop
         style="stop-color:#00d3ff;stop-opacity:1"
         offset="0"
         id="stop881" />
      <stop
         style="stop-color:#005580;stop-opacity:1"
         offset="1"
         id="stop883" />
    </linearGradient>
    <linearGradient
       inkscape:collect="always"
       xlink:href="#linearGradient885"
       id="linearGradient862"
       x1="476.689"
       y1="163.60085"
       x2="319.6994"
       y2="162.04736"
       gradientUnits="userSpaceOnUse"
       gradientTransform="matrix(0.05859383,0,0,0.06178763,385.57143,515.92956)" />
  </defs>
  <metadata
     id="metadata5458">
    <rdf:RDF>
      <cc:Work
         rdf:about="">
        <dc:format>image/svg+xml</dc:format>
        <dc:type
           rdf:resource="http://purl.org/dc/dcmitype/StillImage" />
      </cc:Work>
    </rdf:RDF>
  </metadata>
  <g
     inkscape:label="Capa 1"
     inkscape:groupmode="layer"
     id="layer1"
     transform="translate(-384.57143,-515.798)">
    <path
       style="fill:url(#linearGradient858);fill-opacity:1;stroke-width:0.0601689"
       d="m 401.36755,522.2832 c 0.48403,0.50449 1.1373,0.78727 1.81807,0.78727 h 1.00651 2.6142 c -0.68077,0 -1.33403,-0.28278 -1.81803,-0.78727 l -1.62895,-1.69761 c -0.48419,-0.50476 -1.1374,-0.78759 -1.81793,-0.78759 h -3.62077 c 0.68059,0 1.33384,0.28283 1.81801,0.78759 z"
       id="path2" />
    <path
       style="fill:#006a80;fill-opacity:1;stroke-width:0.0601689"
       d="m 396.11783,520.58559 1.62899,1.69761 c 0.48403,0.50449 1.13722,0.78727 1.81803,0.78727 h 1.00658 2.61419 c -0.68077,0 -1.33404,-0.28278 -1.81807,-0.78727 l -1.62889,-1.69761 c -0.48424,-0.50476 -1.13742,-0.78759 -1.81801,-0.78759 h -3.55619 -0.0637 c 0.68059,0 1.33377,0.28288 1.81781,0.78759 z"
       id="path4" />
    <path
       style="fill:#2a7fff;fill-opacity:1;stroke-width:0.056445"
       d="m 414.01962,522.67803 h -6.20679 -1.00665 -2.61405 -1.00669 -2.61401 -1.00658 c -0.68081,0 -1.334,-0.24901 -1.81803,-0.69303 l -1.62899,-1.494 c -0.48417,-0.44401 -1.13729,-0.693 -1.81803,-0.693 h -3.55604 -3.62067 c -0.85701,0 -1.55166,0.64462 -1.55166,1.44002 v 2.88002 0.48004 17.7599 c 0,0.7954 0.69465,1.44002 1.55166,1.44002 h 26.89653 c 0.85696,0 1.55181,-0.64462 1.55181,-1.44002 v -18.23994 c 0,-0.7955 -0.69485,-1.44001 -1.55181,-1.44001 z m -10.88635,2.92917 0.008,-0.005 -0.007,-0.01 v 0 l 0.007,0.01 v 0 l -0.008,0.005 0.002,-0.01 z m 10.36943,0.43079 c 0,0.53004 -0.46321,0.95997 -1.03478,0.95997 h -7.24135 c -0.57124,0 -1.03444,-0.42993 -1.03444,-0.95997 v -0.48004 c 0,-0.53002 0.4632,-0.95997 1.03444,-0.95997 h 7.24133 c 0.57159,0 1.03469,0.42995 1.03469,0.95997 v 0.48004 z"
       id="path6"
       sodipodi:nodetypes="scccccsccscssccssssssccccccccccssssssscc" />
    <path
       style="fill:url(#linearGradient862);fill-opacity:1;stroke-width:0.0601689"
       d="m 412.4679,524.43061 h -7.24133 c -0.57124,0 -1.04608,0.48838 -1.04608,1.09078 v 0.54566 c 0,0.60244 0.47484,1.09055 1.04608,1.09055 h 7.24133 c 0.57159,0 1.1095,-0.48839 1.12248,-1.09055 l 0.0122,-0.54566 c 4e-5,-0.6024 -0.56271,-1.09078 -1.13434,-1.09078 z"
       id="path8"
       sodipodi:nodetypes="ssssssscs" />
  </g>
</svg>
