<?xml version="1.0" encoding="UTF-8" standalone="no"?>
<svg
   xmlns:dc="http://purl.org/dc/elements/1.1/"
   xmlns:cc="http://creativecommons.org/ns#"
   xmlns:rdf="http://www.w3.org/1999/02/22-rdf-syntax-ns#"
   xmlns:svg="http://www.w3.org/2000/svg"
   xmlns="http://www.w3.org/2000/svg"
   xmlns:xlink="http://www.w3.org/1999/xlink"
   xmlns:sodipodi="http://sodipodi.sourceforge.net/DTD/sodipodi-0.dtd"
   xmlns:inkscape="http://www.inkscape.org/namespaces/inkscape"
   width="32"
   version="1.1"
   height="32"
   viewBox="0 0 32 32"
   id="svg15"
   sodipodi:docname="folder-orange.svg"
   inkscape:version="1.0.2 (e86c870879, 2021-01-15)">
  <sodipodi:namedview
     pagecolor="#ffffff"
     bordercolor="#666666"
     borderopacity="1"
     objecttolerance="10"
     gridtolerance="10"
     guidetolerance="10"
     inkscape:pageopacity="0"
     inkscape:pageshadow="2"
     inkscape:window-width="1920"
     inkscape:window-height="1007"
     id="namedview17"
     showgrid="false"
     inkscape:zoom="9.8125"
     inkscape:cx="-10.778832"
     inkscape:cy="0.84602898"
     inkscape:window-x="0"
     inkscape:window-y="0"
     inkscape:window-maximized="1"
     inkscape:current-layer="layer1" />
  <defs
     id="defs5455">
    <linearGradient
       id="linearGradient4172-0">
      <stop
         style="stop-color:#f89406"
         id="stop4174-4" />
      <stop
         offset="1"
         style="stop-color:#faa938"
         id="stop4176-5" />
    </linearGradient>
    <linearGradient
       inkscape:collect="always"
       xlink:href="#linearGradient885"
       id="linearGradient956"
       gradientUnits="userSpaceOnUse"
       gradientTransform="matrix(0.05859379,0,0,0.06178774,385.57143,515.92949)"
       x1="210.75999"
       y1="89.093002"
       x2="362.40799"
       y2="89.093002" />
    <linearGradient
       inkscape:collect="always"
       id="linearGradient885">
      <stop
         style="stop-color:#00d3ff;stop-opacity:1"
         offset="0"
         id="stop881" />
      <stop
         style="stop-color:#005580;stop-opacity:1"
         offset="1"
         id="stop883" />
    </linearGradient>
    <linearGradient
       inkscape:collect="always"
       xlink:href="#linearGradient4172-0"
       id="linearGradient859"
       x1="0"
       y1="256.82327"
       x2="512"
       y2="256.82327"
       gradientUnits="userSpaceOnUse"
       gradientTransform="matrix(0.05859379,0,0,0.06178774,385.57143,515.92949)" />
    <linearGradient
       inkscape:collect="always"
       xlink:href="#linearGradient885"
       id="linearGradient862"
       x1="476.689"
       y1="163.60085"
       x2="319.6994"
       y2="162.04736"
       gradientUnits="userSpaceOnUse"
       gradientTransform="matrix(0.05859379,0,0,0.06178774,385.57143,515.92949)" />
  </defs>
  <metadata
     id="metadata5458">
    <rdf:RDF>
      <cc:Work
         rdf:about="">
        <dc:format>image/svg+xml</dc:format>
        <dc:type
           rdf:resource="http://purl.org/dc/dcmitype/StillImage" />
      </cc:Work>
    </rdf:RDF>
  </metadata>
  <g
     inkscape:label="Capa 1"
     inkscape:groupmode="layer"
     id="layer1"
     transform="translate(-384.57143,-515.798)">
    <path
       style="fill:url(#linearGradient956);fill-opacity:1;stroke-width:0.0601699"
       d="m 401.36764,522.2832 c 0.48402,0.50451 1.1373,0.78742 1.81794,0.78742 h 1.00656 2.61416 c -0.68066,0 -1.3339,-0.28291 -1.81795,-0.78742 l -1.629,-1.6977 c -0.48424,-0.50459 -1.13735,-0.7875 -1.81791,-0.7875 h -3.62073 c 0.68055,0 1.33376,0.28291 1.81794,0.7875 z"
       id="path2" />
    <path
       style="fill:#006a80;fill-opacity:1;stroke-width:0.0601699"
       d="m 396.11784,520.5855 1.6291,1.6977 c 0.484,0.50451 1.13719,0.78742 1.8179,0.78742 h 1.00659 2.61415 c -0.68064,0 -1.33392,-0.28291 -1.81794,-0.78742 l -1.62899,-1.6977 c -0.48424,-0.50459 -1.13739,-0.7875 -1.81794,-0.7875 h -3.55618 -0.0647 c 0.68066,0 1.33377,0.28297 1.81789,0.7875 z"
       id="path4" />
    <path
       style="fill:url(#linearGradient859);fill-opacity:1;stroke-width:0.0564454"
       d="m 414.01967,522.67802 h -6.20692 -1.00657 -2.61417 -1.00655 -2.61403 -1.00659 c -0.68071,0 -1.3339,-0.24898 -1.8179,-0.693 l -1.6291,-1.49403 c -0.48417,-0.44402 -1.13728,-0.69299 -1.81793,-0.69299 h -3.55606 -3.62065 c -0.85702,0 -1.55177,0.6447 -1.55177,1.44001 v 2.88001 0.48002 17.75995 c 0,0.79531 0.69475,1.44001 1.55177,1.44001 h 26.89647 c 0.85702,0 1.55176,-0.6447 1.55176,-1.44001 v -18.23997 c 0,-0.79537 -0.69474,-1.44 -1.55176,-1.44 z m -10.88654,2.92929 0.004,-0.003 -0.004,-0.005 v 0 l 0.004,0.005 v 0 l -0.004,0.003 0.001,-0.008 z m 10.36941,0.43068 c 0,0.53015 -0.46316,0.95999 -1.03458,0.95999 h -7.24136 c -0.57136,0 -1.03453,-0.42984 -1.03453,-0.95999 v -0.48001 c 0,-0.53015 0.46317,-0.95999 1.03453,-0.95999 h 7.24134 c 0.57138,0 1.03454,0.42984 1.03454,0.95999 v 0.48001 z"
       id="path6"
       sodipodi:nodetypes="scccccsccscssccssssssccccccccccssssssscc" />
    <path
       style="fill:url(#linearGradient862);fill-opacity:1;stroke-width:0.0601699"
       d="m 412.46794,524.43061 h -7.24134 c -0.57136,0 -1.04622,0.48838 -1.04622,1.09082 v 0.5455 c 0,0.60243 0.47486,1.09082 1.04622,1.09082 h 7.24134 c 0.57138,0 1.10944,-0.48855 1.12238,-1.09082 l 0.012,-0.5455 c 6e-5,-0.60244 -0.56264,-1.09082 -1.13412,-1.09082 z"
       id="path8"
       sodipodi:nodetypes="ssssssscs" />
  </g>
</svg>
