<?xml version="1.0" encoding="UTF-8" standalone="no"?>
<svg
   xmlns:dc="http://purl.org/dc/elements/1.1/"
   xmlns:cc="http://creativecommons.org/ns#"
   xmlns:rdf="http://www.w3.org/1999/02/22-rdf-syntax-ns#"
   xmlns:svg="http://www.w3.org/2000/svg"
   xmlns="http://www.w3.org/2000/svg"
   xmlns:xlink="http://www.w3.org/1999/xlink"
   xmlns:sodipodi="http://sodipodi.sourceforge.net/DTD/sodipodi-0.dtd"
   xmlns:inkscape="http://www.inkscape.org/namespaces/inkscape"
   height="32"
   width="32"
   version="1.1"
   id="svg23"
   sodipodi:docname="folder-root.svg"
   inkscape:version="1.0.2 (e86c870879, 2021-01-15)">
  <metadata
     id="metadata29">
    <rdf:RDF>
      <cc:Work
         rdf:about="">
        <dc:format>image/svg+xml</dc:format>
        <dc:type
           rdf:resource="http://purl.org/dc/dcmitype/StillImage" />
      </cc:Work>
    </rdf:RDF>
  </metadata>
  <defs
     id="defs27">
    <linearGradient
       inkscape:collect="always"
       xlink:href="#linearGradient885"
       id="linearGradient858"
       x1="210.75999"
       y1="89.093002"
       x2="362.40799"
       y2="89.093002"
       gradientUnits="userSpaceOnUse"
       gradientTransform="matrix(0.05859376,0,0,0.06178764,1,0.13148999)" />
    <linearGradient
       inkscape:collect="always"
       id="linearGradient885">
      <stop
         style="stop-color:#00d3ff;stop-opacity:1"
         offset="0"
         id="stop881" />
      <stop
         style="stop-color:#005580;stop-opacity:1"
         offset="1"
         id="stop883" />
    </linearGradient>
    <linearGradient
       inkscape:collect="always"
       xlink:href="#linearGradient847"
       id="linearGradient859"
       x1="0"
       y1="256.82327"
       x2="512"
       y2="256.82327"
       gradientUnits="userSpaceOnUse"
       gradientTransform="matrix(0.05859376,0,0,0.06178764,1,0.13148999)" />
    <linearGradient
       inkscape:collect="always"
       id="linearGradient847">
      <stop
         style="stop-color:#00d3ff;stop-opacity:1"
         offset="0"
         id="stop843" />
      <stop
         style="stop-color:#006899;stop-opacity:1"
         offset="1"
         id="stop845" />
    </linearGradient>
    <linearGradient
       inkscape:collect="always"
       xlink:href="#linearGradient885"
       id="linearGradient862"
       x1="476.689"
       y1="163.60085"
       x2="319.6994"
       y2="162.04736"
       gradientUnits="userSpaceOnUse"
       gradientTransform="matrix(0.05859376,0,0,0.06178764,1,0.13148999)" />
  </defs>
  <sodipodi:namedview
     pagecolor="#ffffff"
     bordercolor="#666666"
     borderopacity="1"
     objecttolerance="10"
     gridtolerance="10"
     guidetolerance="10"
     inkscape:pageopacity="0"
     inkscape:pageshadow="2"
     inkscape:window-width="1920"
     inkscape:window-height="1007"
     id="namedview25"
     showgrid="false"
     inkscape:zoom="9.8125"
     inkscape:cx="-11.333592"
     inkscape:cy="3.6133077"
     inkscape:window-x="0"
     inkscape:window-y="0"
     inkscape:window-maximized="1"
     inkscape:current-layer="svg23" />
  <linearGradient
     id="a"
     gradientUnits="userSpaceOnUse"
     x2="0"
     y1="29"
     y2="8">
    <stop
       offset="0"
       stop-color="#3daee9"
       id="stop2" />
    <stop
       offset="1"
       stop-color="#6cc1ef"
       id="stop4" />
  </linearGradient>
  <path
     style="fill:url(#linearGradient858);fill-opacity:1;stroke-width:0.0601693"
     d="m 16.796166,6.485199 c 0.48409,0.504516 1.137304,0.787408 1.81797,0.787408 h 1.006572 2.614158 c -0.680674,0 -1.333866,-0.282892 -1.817971,-0.787408 L 18.787899,4.787502 C 18.303693,4.282901 17.650557,4 16.969985,4 h -3.620742 c 0.680568,0 1.333803,0.282901 1.817951,0.787502 z"
     id="path2" />
  <path
     style="fill:#006a80;fill-opacity:1;stroke-width:0.0601693"
     d="m 11.546385,4.787502 1.629072,1.697697 c 0.484079,0.504516 1.137255,0.787408 1.817925,0.787408 h 1.006605 2.614149 c -0.680666,0 -1.33388,-0.282892 -1.81797,-0.787408 L 15.167194,4.787502 C 14.682978,4.282901 14.029811,4 13.349243,4 h -3.5561408 -0.06449 c 0.6806768,0 1.3337968,0.282989 1.8179058,0.787502 z"
     id="path4" />
  <path
     style="fill:url(#linearGradient859);fill-opacity:1;stroke-width:0.0564447"
     d="m 29.448249,6.880032 h -6.206903 -1.00663 -2.614112 -1.006597 -2.61402 -1.006605 c -0.68067,0 -1.333846,-0.248992 -1.817925,-0.693026 L 11.546385,4.692999 C 11.062234,4.248976 10.409081,4 9.72845,4 H 6.172422 2.55174 C 1.69478,4 1,4.644702 1,5.440021 V 8.320033 8.800042 26.559988 C 1,27.3553 1.69478,28 2.55174,28 H 29.448249 C 30.305219,28 31,27.3553 31,26.559988 V 8.320033 C 31,7.524669 30.305219,6.880032 29.448249,6.880032 Z m -10.886525,2.929287 0.0042,-0.0034 -0.0042,-0.0058 v 0 l 0.0042,0.0058 v 0 l -0.0042,0.0034 0.002,-0.0081 z m 10.369363,0.430666 c 0,0.530142 -0.463145,0.959982 -1.034513,0.959982 h -7.241389 c -0.571391,0 -1.034525,-0.42984 -1.034525,-0.959982 V 9.759967 c 0,-0.530142 0.463134,-0.959983 1.034525,-0.959983 h 7.241312 c 0.571399,0 1.034528,0.429841 1.034528,0.959983 v 0.480018 z"
     id="path6"
     sodipodi:nodetypes="scccccsccscssccssssssccccccccccssssssscc" />
  <path
     style="fill:url(#linearGradient862);fill-opacity:1;stroke-width:0.0601693"
     d="m 27.896497,8.632599 h -7.241312 c -0.571391,0 -1.046241,0.488402 -1.046241,1.090822 v 0.545498 c 0,0.602434 0.47485,1.090825 1.046241,1.090825 h 7.241312 c 0.571399,0 1.109448,-0.48854 1.122426,-1.090825 l 0.01174,-0.545498 c 5.7e-5,-0.60242 -0.562676,-1.090822 -1.134115,-1.090822 z"
     id="path8"
     sodipodi:nodetypes="ssssssscs" />
  <path
     d="M 10.900231,14.257054 H 9.934366 L 5.104972,24.263942 h 0.965894 z m -0.965865,9.506542 h 4.829371 v 0.500346 H 9.934366 Z"
     id="path17-3-6"
     style="fill:#00334d;fill-opacity:1;stroke-width:0.491556" />
</svg>
