<?xml version="1.0" encoding="UTF-8" standalone="no"?>
<svg
   xmlns:dc="http://purl.org/dc/elements/1.1/"
   xmlns:cc="http://creativecommons.org/ns#"
   xmlns:rdf="http://www.w3.org/1999/02/22-rdf-syntax-ns#"
   xmlns:svg="http://www.w3.org/2000/svg"
   xmlns="http://www.w3.org/2000/svg"
   xmlns:xlink="http://www.w3.org/1999/xlink"
   xmlns:sodipodi="http://sodipodi.sourceforge.net/DTD/sodipodi-0.dtd"
   xmlns:inkscape="http://www.inkscape.org/namespaces/inkscape"
   width="32"
   version="1.1"
   height="32"
   viewBox="0 0 32 32"
   id="svg36"
   sodipodi:docname="desktop.svg"
   inkscape:version="1.0.2 (e86c870879, 2021-01-15)">
  <sodipodi:namedview
     pagecolor="#ffffff"
     bordercolor="#666666"
     borderopacity="1"
     objecttolerance="10"
     gridtolerance="10"
     guidetolerance="10"
     inkscape:pageopacity="0"
     inkscape:pageshadow="2"
     inkscape:window-width="1920"
     inkscape:window-height="1007"
     id="namedview38"
     showgrid="false"
     inkscape:zoom="9.8125"
     inkscape:cx="-10.754499"
     inkscape:cy="4.5849357"
     inkscape:window-x="0"
     inkscape:window-y="0"
     inkscape:window-maximized="1"
     inkscape:current-layer="layer1" />
  <defs
     id="defs5455">
    <linearGradient
       inkscape:collect="always"
       xlink:href="#linearGradient840"
       id="linearGradient867"
       x1="384.57144"
       y1="536.78772"
       x2="448.53244"
       y2="536.78772"
       gradientUnits="userSpaceOnUse"
       gradientTransform="matrix(0.50237887,0,0,0.57026477,191.37091,237.62806)" />
    <linearGradient
       inkscape:collect="always"
       id="linearGradient840">
      <stop
         style="stop-color:#005580;stop-opacity:1"
         offset="0"
         id="stop836" />
      <stop
         style="stop-color:#00d3ff;stop-opacity:1"
         offset="1"
         id="stop838" />
    </linearGradient>
    <linearGradient
       inkscape:collect="always"
       xlink:href="#linearGradient848"
       id="linearGradient859"
       x1="384.57144"
       y1="512.23773"
       x2="448.53244"
       y2="512.23773"
       gradientUnits="userSpaceOnUse"
       gradientTransform="matrix(0.50237887,0,0,0.57026477,191.37091,237.62806)" />
    <linearGradient
       inkscape:collect="always"
       id="linearGradient848">
      <stop
         style="stop-color:#00d3ff;stop-opacity:1"
         offset="0"
         id="stop844" />
      <stop
         style="stop-color:#005580;stop-opacity:1"
         offset="1"
         id="stop846" />
    </linearGradient>
    <linearGradient
       inkscape:collect="always"
       xlink:href="#linearGradient840"
       id="linearGradient851"
       x1="384.57144"
       y1="508.62741"
       x2="438.09518"
       y2="508.62741"
       gradientUnits="userSpaceOnUse"
       gradientTransform="matrix(0.50237887,0,0,0.57026477,191.37091,237.62806)" />
    <linearGradient
       inkscape:collect="always"
       xlink:href="#linearGradient840"
       id="linearGradient842"
       x1="388.57144"
       y1="503.798"
       x2="397.57144"
       y2="495.798"
       gradientUnits="userSpaceOnUse"
       gradientTransform="matrix(0.50237887,0,0,0.57026477,191.37091,237.62806)" />
    <linearGradient
       inkscape:collect="always"
       xlink:href="#linearGradient848"
       id="linearGradient850"
       x1="389.57144"
       y1="512.79797"
       x2="406.57144"
       y2="495.798"
       gradientUnits="userSpaceOnUse"
       gradientTransform="matrix(0.50237887,0,0,0.57026477,191.37091,237.62806)" />
  </defs>
  <metadata
     id="metadata5458">
    <rdf:RDF>
      <cc:Work
         rdf:about="">
        <dc:format>image/svg+xml</dc:format>
        <dc:type
           rdf:resource="http://purl.org/dc/dcmitype/StillImage" />
      </cc:Work>
    </rdf:RDF>
  </metadata>
  <g
     inkscape:label="Capa 1"
     inkscape:groupmode="layer"
     id="layer1"
     transform="translate(-384.57143,-515.798)">
    <path
       id="path4"
       d="m 416.70408,541.68037 v 0.82348 c 0,1.81932 -1.30784,3.29415 -2.9212,3.29415 h -26.29023 c -1.61336,0 -2.92122,-1.47483 -2.92122,-3.29415 v -0.82348 z"
       style="fill:url(#linearGradient867);fill-opacity:1;fill-rule:nonzero;stroke-width:0.77553" />
    <path
       id="path6"
       d="m 416.70408,521.09215 v 20.58822 h -32.13265 v -20.58822 c 0,-1.81932 1.30786,-3.29415 2.92122,-3.29415 h 26.29023 c 1.61336,0 2.9212,1.47483 2.9212,3.29415 z"
       style="fill:url(#linearGradient859);fill-opacity:1;fill-rule:nonzero;stroke-width:0.77553" />
    <path
       id="path27"
       d="m 411.46068,517.798 c -0.12429,5.01531 -1.43145,19.76469 -26.88925,19.76469 v -16.47054 c 0,-1.81932 1.30786,-3.29415 2.92122,-3.29415 z"
       style="fill:url(#linearGradient851);fill-opacity:1;fill-rule:nonzero;stroke-width:0.77553" />
    <path
       id="path29"
       d="m 387.49265,525.20977 c -0.29538,-7e-5 -0.56159,-0.20073 -0.67459,-0.50838 -0.11304,-0.30772 -0.0504,-0.66185 0.15824,-0.89739 l 2.92112,-3.29415 c 0.28654,-0.31206 0.74207,-0.30761 1.02377,0.01 0.28161,0.31763 0.28561,0.83129 0.0101,1.15444 l -2.92116,3.29414 c -0.13691,0.15446 -0.32263,0.24126 -0.51623,0.24131 z"
       style="fill:url(#linearGradient842);fill-opacity:1;fill-rule:nonzero;stroke-width:0.77553" />
    <path
       id="path31"
       d="m 387.49265,530.15092 c -0.29538,-4e-5 -0.56159,-0.2007 -0.67459,-0.50837 -0.11304,-0.30769 -0.0504,-0.66186 0.15824,-0.89737 l 7.3029,-8.23533 c 0.28653,-0.31206 0.74199,-0.30761 1.02367,0.01 0.28179,0.31763 0.28562,0.83129 0.0101,1.15444 l -7.30284,8.23524 c -0.13689,0.15446 -0.32263,0.24125 -0.51623,0.24129 z"
       style="fill:url(#linearGradient850);fill-opacity:1;fill-rule:nonzero;stroke-width:0.77553" />
  </g>
</svg>
