<?xml version="1.0" encoding="UTF-8" standalone="no"?>
<svg
   xmlns:dc="http://purl.org/dc/elements/1.1/"
   xmlns:cc="http://creativecommons.org/ns#"
   xmlns:rdf="http://www.w3.org/1999/02/22-rdf-syntax-ns#"
   xmlns:svg="http://www.w3.org/2000/svg"
   xmlns="http://www.w3.org/2000/svg"
   xmlns:xlink="http://www.w3.org/1999/xlink"
   xmlns:sodipodi="http://sodipodi.sourceforge.net/DTD/sodipodi-0.dtd"
   xmlns:inkscape="http://www.inkscape.org/namespaces/inkscape"
   version="1.1"
   width="24"
   height="24"
   id="svg14997"
   style="display:inline"
   sodipodi:docname="amarok.svg"
   inkscape:version="1.0.2 (e86c870879, 2021-01-15)">
  <sodipodi:namedview
     pagecolor="#ffffff"
     bordercolor="#666666"
     borderopacity="1"
     objecttolerance="10"
     gridtolerance="10"
     guidetolerance="10"
     inkscape:pageopacity="0"
     inkscape:pageshadow="2"
     inkscape:window-width="1920"
     inkscape:window-height="1007"
     id="namedview14"
     showgrid="false"
     inkscape:zoom="9.8333333"
     inkscape:cx="-6.2542373"
     inkscape:cy="12"
     inkscape:window-x="0"
     inkscape:window-y="0"
     inkscape:window-maximized="1"
     inkscape:current-layer="svg14997"
     inkscape:document-rotation="0" />
  <metadata
     id="metadata15003">
    <rdf:RDF>
      <cc:Work
         rdf:about="">
        <dc:format>image/svg+xml</dc:format>
        <dc:type
           rdf:resource="http://purl.org/dc/dcmitype/StillImage" />
        <dc:title />
      </cc:Work>
    </rdf:RDF>
  </metadata>
  <defs
     id="defs15001">
    <linearGradient
       id="linearGradient6847">
      <stop
         id="stop6849"
         style="stop-color:#404e64;stop-opacity:1"
         offset="0" />
      <stop
         id="stop6851"
         style="stop-color:#ffffff;stop-opacity:1"
         offset="1" />
    </linearGradient>
    <linearGradient
       x1="10.916737"
       y1="7.415791"
       x2="10.890035"
       y2="18.022392"
       id="linearGradient7391"
       xlink:href="#linearGradient6847"
       gradientUnits="userSpaceOnUse"
       gradientTransform="matrix(1.0341148,0,0,1.0702948,-0.41060311,-0.75997057)" />
  </defs>
  <g
     id="amarok">
    <rect
       width="24"
       height="24"
       x="0"
       y="0"
       id="rect16227"
       style="fill:#ffffff;fill-opacity:0;stroke:none" />
    <path
       d="M 12,2 C 6.4771525,2 2,6.4771525 2,12 2,17.522847 6.4771525,22 12,22 17.522847,22 22,17.522847 22,12 22,6.4771525 17.522847,2 12,2 Z m 0,1 c 4.970563,0 9,4.0294373 9,9 0,3.968123 -2.560202,7.33403 -6.125,8.53125 -0.24744,-1.008112 -0.812509,-3.76047 -0.28125,-5.5625 0.46467,-1.576161 1.757572,-1.734405 2.71875,-2.40625 1.026178,-0.717277 1.210032,-1.427293 0.875,-1.78125 C 17.768795,10.33889 17.540534,10.76011 17.0625,10.875 16.584465,10.989934 15.768334,11.103123 15.65625,11 14.989442,10.386502 17,9.03125 17,8.03125 17,7.03125 17.0087,6.3808901 16.34375,6.25 15.678828,6.11911 13.148433,8.676048 12.5,9.09375 11.646597,9.6434882 11.906981,8.9310693 10.59375,9.25 8.9941229,9.6384848 8.2559976,10.597308 7.0625,11.53125 6.4657512,11.998223 5.8652239,11.984132 5.03125,12.21875 4.5568168,12.35222 3.535065,12.881455 3.5,13.28125 3.4390571,13.976085 5.5093259,14.401178 5.71875,15.375 5.8752306,16.102634 5.130042,16.839284 4.65625,17.21875 3.6079752,15.747273 3,13.944339 3,12 3,7.0294373 7.0294373,3 12,3 Z"
       id="path15048"
       style="fill:#d3dae3;fill-opacity:1;stroke:none" />
    <path
       d="M 8.5927686,12.827942 C 8.2138492,12.647137 8.74989,11.290428 9.6177774,10.656203 10.485665,10.021976 11.628871,9.8160005 11.787498,10.055357 c 0.547797,0.826587 -0.388007,1.040573 -1.60417,1.751508 -1.2428825,0.726555 -1.21164,1.201882 -1.5905594,1.021077 z"
       id="path15823"
       style="fill:#0075b0;fill-opacity:1;stroke:none" />
  </g>
</svg>
