<?xml version="1.0" encoding="UTF-8" standalone="no"?>
<svg
   width="32"
   height="32"
   version="1.1"
   id="svg12"
   sodipodi:docname="applications.svg"
   inkscape:version="1.1 (c68e22c387, 2021-05-23)"
   xmlns:inkscape="http://www.inkscape.org/namespaces/inkscape"
   xmlns:sodipodi="http://sodipodi.sourceforge.net/DTD/sodipodi-0.dtd"
   xmlns:xlink="http://www.w3.org/1999/xlink"
   xmlns="http://www.w3.org/2000/svg"
   xmlns:svg="http://www.w3.org/2000/svg"
   xmlns:rdf="http://www.w3.org/1999/02/22-rdf-syntax-ns#"
   xmlns:cc="http://creativecommons.org/ns#"
   xmlns:dc="http://purl.org/dc/elements/1.1/">
  <metadata
     id="metadata18">
    <rdf:RDF>
      <cc:Work
         rdf:about="">
        <dc:format>image/svg+xml</dc:format>
        <dc:type
           rdf:resource="http://purl.org/dc/dcmitype/StillImage" />
      </cc:Work>
    </rdf:RDF>
  </metadata>
  <defs
     id="defs16">
    <linearGradient
       inkscape:collect="always"
       id="linearGradient851">
      <stop
         style="stop-color:#ffc299;stop-opacity:1"
         offset="0"
         id="stop845" />
      <stop
         style="stop-color:#ff67ff;stop-opacity:1"
         offset="1"
         id="stop847" />
    </linearGradient>
    <linearGradient
       inkscape:collect="always"
       xlink:href="#linearGradient851"
       id="linearGradient848"
       x1="11.21974"
       y1="16.399529"
       x2="28.779566"
       y2="16.205999"
       gradientUnits="userSpaceOnUse"
       gradientTransform="translate(0.1827078,-0.20599996)" />
    <linearGradient
       inkscape:collect="always"
       xlink:href="#linearGradient851"
       id="linearGradient856"
       x1="10.529866"
       y1="16.189341"
       x2="21.083916"
       y2="16.189341"
       gradientUnits="userSpaceOnUse"
       gradientTransform="translate(0.200134,-0.200316)" />
    <linearGradient
       inkscape:collect="always"
       xlink:href="#linearGradient851"
       id="linearGradient848-5"
       x1="14.988328"
       y1="16.317486"
       x2="28.779566"
       y2="16.205999"
       gradientUnits="userSpaceOnUse"
       gradientTransform="matrix(0.76923066,0,0,0.76923068,-1.167146,-1.4661541)" />
    <linearGradient
       inkscape:collect="always"
       xlink:href="#linearGradient851"
       id="linearGradient849"
       x1="6.9327507"
       y1="10.987188"
       x2="15.051249"
       y2="10.987188"
       gradientUnits="userSpaceOnUse" />
  </defs>
  <sodipodi:namedview
     pagecolor="#ffffff"
     bordercolor="#000000"
     borderopacity="1"
     objecttolerance="10"
     gridtolerance="10"
     guidetolerance="10"
     inkscape:pageopacity="0"
     inkscape:pageshadow="2"
     inkscape:window-width="1920"
     inkscape:window-height="1007"
     id="namedview14"
     showgrid="false"
     inkscape:zoom="13.876971"
     inkscape:cx="26.69891"
     inkscape:cy="17.65515"
     inkscape:window-x="0"
     inkscape:window-y="0"
     inkscape:window-maximized="1"
     inkscape:current-layer="svg12"
     inkscape:document-rotation="0"
     inkscape:pagecheckerboard="0"
     inkscape:showpageshadow="false">
    <inkscape:grid
       type="xygrid"
       id="grid844"
       originx="0"
       originy="0" />
  </sodipodi:namedview>
  <g
     id="applications-other">
    <path
       style="clip-rule:evenodd;fill:#ffffc1;fill-opacity:0;fill-rule:evenodd;stroke-width:1.00213;stroke-linejoin:round;stroke-miterlimit:1.41421"
       d="M 0,0 V 32 H 32 V 0 Z"
       id="rect817"
       inkscape:connector-curvature="0" />
    <path
       d="m 16.007024,10.712 c -2.90967,0 -5.277024,2.367354 -5.277024,5.277024 0,2.90967 2.367354,5.277024 5.277024,5.277024 2.90967,0 5.277025,-2.367354 5.277025,-5.277024 0,-2.90967 -2.367355,-5.277024 -5.277025,-5.277024 z m 0,9.471853 c -2.31296,0 -4.194557,-1.881598 -4.194557,-4.194558 0,-2.312961 1.881597,-4.194558 4.194557,-4.194558 2.312961,0 4.194558,1.881597 4.194558,4.194558 0,2.31269 -1.881597,4.194558 -4.194558,4.194558 z"
       id="path2"
       style="fill:url(#linearGradient856);fill-opacity:1;stroke-width:0.270617" />
    <path
       d="M 25.174597,6.7983412 C 20.109195,1.733751 11.868919,1.7340216 6.8045992,6.7983412 4.3511888,9.2517516 3,12.513764 3,15.98334 3,19.453187 4.3511888,22.714929 6.8045992,25.168339 9.3475836,27.711324 12.661555,29 15.988516,29 c 2.938355,0 5.886724,-1.005882 8.321191,-3.040378 0.229483,-0.191596 0.260062,-0.533115 0.06819,-0.762056 -0.191326,-0.229212 -0.532573,-0.260333 -0.762056,-0.0682 -4.757441,3.976171 -11.655188,3.663879 -16.0454018,-0.726335 -4.6424282,-4.642428 -4.6424282,-12.196691 0,-16.8393899 4.6424288,-4.6424283 12.1964208,-4.6426989 16.8393908,0 4.007832,4.0078319 4.602377,10.3602869 1.490827,15.0235529 L 23.540344,20.22688 c 0.366415,-0.651375 0.644879,-1.347401 0.831875,-2.078607 h 0.277382 c 0.74609,0 1.353083,-0.680059 1.353083,-1.515724 v -1.29923 c 0,-0.835664 -0.606993,-1.515453 -1.353083,-1.515453 H 24.372219 C 24.169798,13.027395 23.861024,12.278869 23.45077,11.583655 l 0.19322,-0.19322 C 24.171422,10.863003 24.120004,9.95319 23.529248,9.3621632 L 22.610776,8.4434197 C 22.019478,7.8526636 21.109394,7.8012465 20.582233,8.3289489 l -0.19322,0.1929497 C 19.694069,8.1116437 18.945544,7.8031408 18.154802,7.6007196 V 7.3230669 c 0,-0.7460901 -0.679789,-1.3530832 -1.515453,-1.3530832 h -1.29896 c -0.835664,0 -1.515453,0.6069931 -1.515453,1.3530832 v 0.2776527 c -0.790201,0.2021506 -1.538997,0.5106535 -2.234211,0.921179 L 11.397505,8.3289489 C 11.133112,8.0645565 10.75479,7.9341192 10.358066,7.9692994 9.993004,8.0025852 9.6420145,8.1709088 9.369233,8.4434197 L 8.4504895,9.3618926 C 7.8597334,9.952919 7.8083163,10.862732 8.3357481,11.390164 l 0.1932202,0.19322 c -0.4105254,0.695485 -0.719299,1.444011 -0.9214496,2.234211 H 7.3298661 c -0.7460901,0 -1.3530832,0.679789 -1.3530832,1.515453 v 1.29896 c 0,0.835664 0.6069931,1.515453 1.3530832,1.515453 h 0.2776526 c 0.2021506,0.790742 0.5109242,1.539268 0.921179,2.234482 l -0.1929496,0.19295 c -0.2646631,0.264392 -0.3956415,0.643255 -0.3596495,1.039709 0.033286,0.365061 0.2016094,0.716051 0.4741203,0.988562 l 0.9184728,0.918744 c 0.272511,0.272781 0.6237713,0.441105 0.9891043,0.47412 0.396182,0.03707 0.775046,-0.09499 1.039438,-0.359379 l 0.19322,-0.19322 c 0.694944,0.410255 1.44347,0.718758 2.234211,0.921179 v 0.277652 c 0,0.746091 0.679789,1.353084 1.515454,1.353084 h 1.298959 c 0.835664,0 1.515453,-0.606993 1.515453,-1.353084 v -0.277923 c 0.25871,-0.06603 0.513631,-0.143968 0.762057,-0.232459 0.512007,-0.182396 1.005341,-0.412961 1.471884,-0.688179 l 0.19322,0.193491 c 0.527702,0.52662 1.437516,0.475474 2.028542,-0.115012 l 0.59671,-0.596709 c 0.211352,-0.211352 0.211352,-0.553953 0,-0.765304 -0.211352,-0.211352 -0.553952,-0.211352 -0.765304,0 l -0.59671,0.596439 c -0.172112,0.172383 -0.409443,0.203233 -0.497934,0.115012 l -0.497664,-0.497664 c -0.182125,-0.182125 -0.467084,-0.21054 -0.681683,-0.06847 -0.501724,0.332588 -1.045122,0.603746 -1.614499,0.806708 -0.338542,0.120424 -0.691155,0.218388 -1.048098,0.290913 -0.252215,0.05115 -0.433528,0.273052 -0.433528,0.530409 v 0.708744 c 0,0.125296 -0.189161,0.270617 -0.432987,0.270617 h -1.29896 c -0.243825,0 -0.432986,-0.145321 -0.432986,-0.270617 v -0.708744 c 0,-0.257357 -0.181043,-0.479263 -0.433528,-0.530409 -0.962313,-0.195656 -1.858054,-0.565048 -2.662597,-1.098162 -0.214329,-0.142074 -0.499558,-0.113659 -0.681683,0.06847 l -0.497664,0.497664 c -0.05034,0.04979 -0.132332,0.05033 -0.176172,0.04682 -0.111765,-0.01001 -0.228671,-0.06901 -0.321222,-0.161558 L 9.2149815,21.83759 c -0.092551,-0.09255 -0.1512747,-0.209458 -0.1615581,-0.321493 -0.00406,-0.04411 -0.00325,-0.125837 0.046817,-0.175901 l 0.497664,-0.497934 C 9.7797584,20.660137 9.8084438,20.374907 9.6660994,20.160308 9.132714,19.356035 8.7633223,18.460565 8.5679371,17.498252 8.5167906,17.245767 8.294885,17.064454 8.0375285,17.064454 H 7.3287836 c -0.1250249,0 -0.2706166,-0.189161 -0.2706166,-0.432987 v -1.29896 c 0,-0.243825 0.1455917,-0.432986 0.2706166,-0.432986 h 0.7087449 c 0.2573565,0 0.4792621,-0.181314 0.5304086,-0.433528 C 8.7630517,13.504762 9.1324434,12.609021 9.66637,11.803666 9.8084438,11.589067 9.7797584,11.304108 9.597904,11.121983 L 9.10024,10.624319 C 9.011748,10.535829 9.042599,10.299038 9.2149815,10.126655 L 10.133454,9.2081823 c 0.172383,-0.1721121 0.408361,-0.2032331 0.497665,-0.1147414 l 0.497664,0.497664 c 0.182125,0.182125 0.467084,0.2108102 0.681683,0.068466 C 12.61555,9.1259149 13.511291,8.7565232 14.472792,8.5614086 14.725007,8.5102616 14.90632,8.2883564 14.90632,8.031 V 7.322255 c 0,-0.1250248 0.189161,-0.2706166 0.432987,-0.2706166 h 1.298959 c 0.243555,0 0.432987,0.1455918 0.432987,0.2706166 V 8.031 c 0,0.2573564 0.181313,0.479262 0.433528,0.5304086 0.962313,0.1956558 1.857783,0.5650475 2.662597,1.0984329 0.214599,0.1420736 0.499558,0.1131177 0.681683,-0.068466 l 0.497664,-0.4973934 c 0.08822,-0.088492 0.325281,-0.058183 0.497935,0.1144709 l 0.918202,0.918473 c 0.172653,0.172653 0.203504,0.409172 0.115012,0.497664 l -0.497664,0.497664 c -0.182125,0.182125 -0.21054,0.467084 -0.06847,0.681683 0.533386,0.804814 0.902777,1.700555 1.098433,2.662326 0.05115,0.252215 0.273052,0.433528 0.530409,0.433528 h 0.708474 c 0.125295,0 0.270617,0.189161 0.270617,0.432987 v 1.29923 c 0,0.243826 -0.145322,0.433257 -0.270617,0.433257 h -0.708474 c -0.257357,0 -0.479262,0.181314 -0.530409,0.433799 -0.184019,0.905213 -0.523373,1.754137 -1.008859,2.523229 -0.135037,0.213788 -0.103917,0.492523 0.07496,0.6714 l 3.112091,3.112091 c 0.110953,0.111224 0.264934,0.167242 0.421621,0.157229 0.156687,-0.01137 0.300655,-0.09012 0.394559,-0.215952 3.833555,-5.127644 3.30477,-12.414268 -1.229953,-16.9487198 z"
       id="path4"
       style="fill:url(#linearGradient848);fill-opacity:1;stroke-width:0.270617" />
  </g>
  <g
     id="22-22-applications-other"
     transform="translate(32,9.9999997)">
    <path
       style="clip-rule:evenodd;fill:#ffffc1;fill-opacity:0;fill-rule:evenodd;stroke-width:0.688964;stroke-linejoin:round;stroke-miterlimit:1.41421"
       d="M 0,0 V 22 H 22 V 0 Z"
       id="rect817-5"
       inkscape:connector-curvature="0" />
    <path
       d="m 10.991997,6.9279349 c -2.2382092,0 -4.0592461,1.8210403 -4.0592461,4.0592491 0,2.238205 1.8210369,4.059258 4.0592461,4.059258 2.238211,0 4.059252,-1.821053 4.059252,-4.059258 0,-2.2382088 -1.821041,-4.0592491 -4.059252,-4.0592491 z m 0,7.2860351 c -1.7791992,0 -3.2265761,-1.44738 -3.2265761,-3.226579 0,-1.7792002 1.4473769,-3.2265812 3.2265761,-3.2265812 1.779202,0 3.22658,1.447381 3.22658,3.2265812 0,1.778992 -1.447378,3.226579 -3.22658,3.226579 z"
       id="path2-5"
       style="fill:url(#linearGradient849);fill-opacity:1;stroke-width:0.208158" />
    <path
       d="M 18.057378,3.9218009 C 14.160911,0.02596287 7.8222489,0.02616987 3.9266189,3.9218009 2.039369,5.8090389 1,8.318279 1,10.987184 1,13.656299 2.039369,16.165324 3.9266189,18.05256 5.8827509,20.008699 8.4319559,21 10.991156,21 c 2.260293,0 4.528264,-0.773751 6.400929,-2.338751 0.176525,-0.147386 0.20004,-0.410098 0.05246,-0.5862 -0.147167,-0.17632 -0.409663,-0.200256 -0.586196,-0.05249 -3.659562,3.058591 -8.9655151,2.818365 -12.3426121,-0.558712 -3.57109389,-3.571105 -3.57109389,-9.3820751 0,-12.9533821 3.571105,-3.571098 9.3818691,-3.571306 12.9533751,0 3.082954,3.0829478 3.540302,7.9694501 1.14679,11.5565831 L 16.80028,14.251424 c 0.281853,-0.501066 0.496056,-1.036471 0.639903,-1.598936 h 0.213363 c 0.573926,0 1.040842,-0.52312 1.040842,-1.165938 v -0.999387 c 0,-0.642819 -0.466916,-1.1657336 -1.040842,-1.1657336 H 17.440183 C 17.284477,8.713378 17.04695,8.1375892 16.731375,7.6028091 l 0.14864,-0.1486311 c 0.405707,-0.4057161 0.366154,-1.1055721 -0.0883,-1.5602081 l -0.706523,-0.706725 c -0.454862,-0.454427 -1.154924,-0.493979 -1.560429,-0.08805 l -0.148636,0.148423 c -0.534573,-0.315585 -1.110358,-0.552895 -1.718624,-0.708603 v -0.21358 c 0,-0.573914 -0.522905,-1.040832 -1.16573,-1.040832 h -0.999202 c -0.6428242,0 -1.1657322,0.466918 -1.1657322,1.040832 v 0.21358 c -0.607842,0.1555 -1.1838379,0.39281 -1.7186189,0.708599 l -0.148631,-0.148423 c -0.203369,-0.203379 -0.49439,-0.303715 -0.799566,-0.276653 -0.280811,0.02561 -0.550802,0.155084 -0.760641,0.364707 l -0.706723,0.706519 c -0.454429,0.454634 -0.493988,1.154491 -0.0883,1.5602069 l 0.148631,0.1486323 c -0.315788,0.5349868 -0.553314,1.1107766 -0.708803,1.7186224 h -0.213582 c -0.573926,0 -1.0408319,0.5229145 -1.0408319,1.1657325 v 0.9992 c 0,0.642817 0.4669059,1.165735 1.0408319,1.165735 h 0.213582 c 0.155489,0.608256 0.393015,1.184052 0.708599,1.718825 l -0.148427,0.148429 c -0.203584,0.203374 -0.304336,0.494803 -0.276665,0.79977 0.02554,0.280824 0.155096,0.550811 0.364722,0.760434 l 0.70651,0.706734 c 0.209628,0.209819 0.479828,0.339308 0.760859,0.364703 0.304746,0.02855 0.596187,-0.0731 0.79956,-0.276441 l 0.148638,-0.148643 c 0.534566,0.315594 1.1103539,0.552902 1.7186209,0.708599 v 0.213594 c 0,0.573913 0.522903,1.040822 1.1657282,1.040822 h 0.999195 c 0.642826,0 1.165731,-0.466909 1.165731,-1.040822 v -0.213799 c 0.19901,-0.05081 0.395114,-0.110747 0.586197,-0.178803 0.393853,-0.140313 0.77335,-0.317659 1.132223,-0.529381 l 0.148628,0.148837 c 0.405928,0.405098 1.10578,0.365748 1.560419,-0.08845 l 0.459009,-0.459005 c 0.162575,-0.162591 0.162575,-0.426128 0,-0.5887 -0.162571,-0.162573 -0.42611,-0.162573 -0.588698,0 l -0.459002,0.458799 c -0.132399,0.132603 -0.31496,0.156328 -0.383024,0.08847 l -0.382819,-0.382811 c -0.140106,-0.140102 -0.359305,-0.16196 -0.52437,-0.05269 -0.385949,0.255836 -0.803947,0.464415 -1.241933,0.620543 -0.260413,0.09262 -0.531653,0.167995 -0.806229,0.223784 -0.194008,0.03933 -0.333469,0.21003 -0.333469,0.408007 v 0.545186 c 0,0.0964 -0.14552,0.208173 -0.333082,0.208173 h -0.999199 c -0.187546,0 -0.333064,-0.11179 -0.333064,-0.208173 v -0.545178 c 0,-0.197976 -0.139255,-0.368659 -0.3334722,-0.408006 -0.740252,-0.150513 -1.4292869,-0.434648 -2.0481529,-0.844742 -0.164872,-0.109288 -0.38428,-0.08746 -0.524382,0.05269 l -0.382807,0.382817 c -0.03876,0.03839 -0.101797,0.03875 -0.13553,0.03602 -0.08596,-0.0082 -0.175888,-0.05309 -0.247081,-0.124275 l -0.706739,-0.70673 c -0.07112,-0.07118 -0.116359,-0.161124 -0.12426,-0.247309 -0.004,-0.03391 -0.0033,-0.09678 0.03602,-0.1353 l 0.382812,-0.383022 c 0.139891,-0.140106 0.161962,-0.359515 0.0525,-0.52458 -0.410298,-0.618681 -0.69445,-1.307499 -0.844734,-2.047743 -0.03933,-0.194217 -0.210041,-0.333689 -0.408006,-0.333689 h -0.54518 c -0.09618,0 -0.208174,-0.145508 -0.208174,-0.333066 v -0.999202 c 0,-0.187557 0.111996,-0.333065 0.208174,-0.333065 h 0.545189 c 0.197966,0 0.368654,-0.139472 0.408007,-0.333483 0.150074,-0.7394084 0.434228,-1.42844 0.844944,-2.0479445 0.109284,-0.1650755 0.08722,-0.3842746 -0.05269,-0.5243706 l -0.382796,-0.382819 c -0.06809,-0.06807 -0.04442,-0.250217 0.08829,-0.382818 l 0.706522,-0.706518 c 0.132602,-0.132394 0.314127,-0.156333 0.382814,-0.08826 l 0.382814,0.38282 c 0.140104,0.140097 0.359303,0.162161 0.524374,0.05267 0.619292,-0.410504 1.3083329,-0.694651 2.0479489,-0.84474 0.1940112,-0.03934 0.3334772,-0.21004 0.3334772,-0.408006 v -0.545195 c 0,-0.09617 0.145514,-0.208167 0.333063,-0.208167 h 0.999198 c 0.187354,0 0.333075,0.111994 0.333075,0.208167 v 0.545188 c 0,0.197967 0.139463,0.368663 0.333479,0.408007 0.740236,0.150504 1.429065,0.434651 2.048156,0.844948 0.165069,0.109287 0.384268,0.08702 0.524371,-0.05267 l 0.382818,-0.382611 c 0.06782,-0.06807 0.250214,-0.04475 0.383024,0.08805 l 0.706324,0.706518 c 0.132812,0.13281 0.156534,0.314748 0.08846,0.382818 l -0.382828,0.38282 c -0.140102,0.140096 -0.161958,0.3592948 -0.05269,0.5243703 0.410303,0.619088 0.694453,1.308119 0.844946,2.0479428 0.03933,0.194012 0.210044,0.333484 0.408008,0.333484 h 0.544992 c 0.0964,0 0.208167,0.145507 0.208167,0.333066 v 0.999408 c 0,0.187558 -0.111782,0.333274 -0.208167,0.333274 h -0.544986 c -0.197964,0 -0.368655,0.139474 -0.408008,0.333693 -0.14155,0.696322 -0.402594,1.349337 -0.776038,1.940948 -0.103875,0.164446 -0.07992,0.378859 0.05756,0.516458 l 2.393917,2.393917 c 0.08534,0.08557 0.203794,0.128646 0.324324,0.120949 0.120535,-0.0089 0.231272,-0.0693 0.30351,-0.166121 2.948886,-3.944341 2.542126,-9.5494371 -0.946122,-13.0374761 z"
       id="path4-6"
       style="fill:url(#linearGradient848-5);fill-opacity:1;stroke-width:0.208158" />
  </g>
</svg>
