<?xml version="1.0" encoding="UTF-8" standalone="no"?>
<svg
   xmlns:dc="http://purl.org/dc/elements/1.1/"
   xmlns:cc="http://creativecommons.org/ns#"
   xmlns:rdf="http://www.w3.org/1999/02/22-rdf-syntax-ns#"
   xmlns:svg="http://www.w3.org/2000/svg"
   xmlns="http://www.w3.org/2000/svg"
   xmlns:sodipodi="http://sodipodi.sourceforge.net/DTD/sodipodi-0.dtd"
   xmlns:inkscape="http://www.inkscape.org/namespaces/inkscape"
   version="1.1"
   id="svg2"
   viewBox="0 0 32 32"
   inkscape:version="1.0.2 (e86c870879, 2021-01-15)"
   sodipodi:docname="apport.svg"
   width="32"
   height="32">
  <sodipodi:namedview
     pagecolor="#ffffff"
     bordercolor="#666666"
     borderopacity="1"
     objecttolerance="10"
     gridtolerance="10"
     guidetolerance="10"
     inkscape:pageopacity="0"
     inkscape:pageshadow="2"
     inkscape:window-width="1920"
     inkscape:window-height="1007"
     id="namedview12"
     showgrid="false"
     inkscape:zoom="10.429825"
     inkscape:cx="26.130657"
     inkscape:cy="9.5714329"
     inkscape:window-x="0"
     inkscape:window-y="0"
     inkscape:window-maximized="1"
     inkscape:current-layer="svg2"
     inkscape:document-rotation="0"
     inkscape:lockguides="false"
     showguides="false">
    <inkscape:grid
       type="xygrid"
       id="grid851"
       originx="0"
       originy="0" />
  </sodipodi:namedview>
  <metadata
     id="metadata18">
    <rdf:RDF>
      <cc:Work
         rdf:about="">
        <dc:format>image/svg+xml</dc:format>
        <dc:type
           rdf:resource="http://purl.org/dc/dcmitype/StillImage" />
        <dc:title />
      </cc:Work>
    </rdf:RDF>
  </metadata>
  <defs
     id="defs3051">
    <style
       id="current-color-scheme"
       type="text/css" />
  </defs>
  <g
     id="22-22-apport"
     transform="translate(-22,10)">
    <path
       style="fill:#d3dae3;fill-opacity:1;stroke-width:0.0167246"
       inkscape:connector-curvature="0"
       id="path4-36-5"
       d="m 11.110848,5.710142 h -0.406092 c -0.335837,0 -0.60999,0.259575 -0.60999,0.581196 v 3.643988 c 0,0.319991 0.272442,0.581224 0.60999,0.581224 h 0.406092 c 0.335839,0 0.609991,-0.259595 0.609991,-0.581224 V 6.291338 C 11.719095,5.969717 11.446687,5.710142 11.110848,5.710142 Z M 13.751284,3 H 8.0626034 C 5.8179682,3 4,4.73384 4,6.870923 v 5.567204 c 0,2.138721 1.8196906,3.725618 4.0626034,3.725618 h 0.8121857 c 0.5808615,0.961607 1.5386809,2.571362 1.6260679,2.710133 0.102807,0.166526 0.30328,0.169792 0.406088,0 0.116516,-0.191015 1.055489,-1.769751 1.626073,-2.710133 h 1.218266 c 2.244629,0 4.062609,-1.586897 4.062609,-3.725618 V 6.870923 C 17.813893,4.73384 15.995913,3 13.751284,3 Z m 3.250429,9.065882 c 0,1.879151 -1.677475,3.322365 -3.656517,3.322365 h -1.218269 c -0.502042,0.826106 -1.117175,2.155053 -1.218267,2.323212 -0.09081,0.148568 -0.315277,0.146934 -0.406091,0 -0.07539,-0.122445 -0.7059416,-1.477512 -1.2182721,-2.323212 H 8.0626034 c -1.9807521,0 -3.2504198,-1.443214 -3.2504198,-3.322365 V 7.176229 c 0,-1.879152 1.6055123,-3.400746 3.5845564,-3.400746 h 5.018707 C 15.396203,3.775483 17,5.298716 17,7.176229 v 4.889653 z m -5.890865,-0.548544 h -0.406092 c -0.335837,0 -0.60999,0.259579 -0.60999,0.581197 v 0.386944 c 0,0.319993 0.272442,0.581198 0.60999,0.581198 h 0.406092 c 0.335839,0 0.609991,-0.259576 0.609991,-0.581198 v -0.386944 c -0.0017,-0.321618 -0.274152,-0.581197 -0.609991,-0.581197 z" />
    <path
       id="path9"
       d="M 0,0 V 22 H 22 V 0 Z"
       style="fill:none" />
  </g>
  <g
     id="apport">
    <path
       id="path14"
       d="M 0,0 V 32 H 32 V 0 Z"
       style="fill:none" />
    <path
       style="fill:#d3dae3;fill-opacity:1;stroke-width:0.0247628"
       inkscape:connector-curvature="0"
       id="path4-36"
       d="m 16.391408,8.0652031 h -0.593439 c -0.490775,0 -0.891407,0.3893763 -0.891407,0.8718143 V 14.403 c 0,0.479988 0.398129,0.871814 0.891407,0.871814 h 0.593439 c 0.490775,0 0.891407,-0.389378 0.891407,-0.871814 V 8.9370174 C 17.280299,8.4545794 16.882183,8.0652031 16.391408,8.0652031 Z M 20.249999,4 H 11.936873 C 8.6566943,4 5.9999997,6.6007508 5.9999997,9.806382 v 8.350807 c 0,3.208081 2.6591985,5.588428 5.9368733,5.588428 h 1.186874 c 0.848841,1.442414 2.24855,3.857046 2.376253,4.065202 0.150237,0.24979 0.443199,0.254687 0.593436,0 0.170269,-0.286521 1.542435,-2.654626 2.376254,-4.065202 h 1.780309 c 3.280179,0 5.936876,-2.380347 5.936876,-5.588428 V 9.806382 C 26.186875,6.6007508 23.530178,4 20.249999,4 Z M 25,17.598836 c 0,2.818704 -2.451372,4.983546 -5.343437,4.983546 h -1.780312 c -0.733657,1.239153 -1.632578,3.232571 -1.78031,3.484808 -0.132711,0.222853 -0.460728,0.220403 -0.593438,0 -0.110174,-0.183667 -1.031629,-2.216268 -1.78031,-3.484808 h -1.78532 c -2.8945699,0 -4.7499991,-2.164842 -4.7499991,-4.983546 v -7.334505 c 0,-2.8187056 2.3462043,-5.1010954 5.2382701,-5.1010954 h 7.33408 c 2.89457,0 5.238271,2.2848404 5.238271,5.1010954 v 7.334505 z M 16.391408,16.776 h -0.593439 c -0.490775,0 -0.891407,0.389378 -0.891407,0.871815 v 0.580393 c 0,0.479988 0.398129,0.871814 0.891407,0.871814 h 0.593439 c 0.490775,0 0.891407,-0.389378 0.891407,-0.871814 V 17.647815 C 17.280299,17.165378 16.882183,16.776 16.391408,16.776 Z" />
  </g>
</svg>
