<?xml version="1.0" encoding="UTF-8" standalone="no"?>
<svg
   width="32"
   height="32"
   version="1.1"
   id="svg12"
   sodipodi:docname="bookmarks.svg"
   inkscape:version="1.1.1 (3bf5ae0d25, 2021-09-20)"
   xmlns:inkscape="http://www.inkscape.org/namespaces/inkscape"
   xmlns:sodipodi="http://sodipodi.sourceforge.net/DTD/sodipodi-0.dtd"
   xmlns:xlink="http://www.w3.org/1999/xlink"
   xmlns="http://www.w3.org/2000/svg"
   xmlns:svg="http://www.w3.org/2000/svg"
   xmlns:rdf="http://www.w3.org/1999/02/22-rdf-syntax-ns#"
   xmlns:cc="http://creativecommons.org/ns#"
   xmlns:dc="http://purl.org/dc/elements/1.1/">
  <metadata
     id="metadata18">
    <rdf:RDF>
      <cc:Work
         rdf:about="">
        <dc:format>image/svg+xml</dc:format>
        <dc:type
           rdf:resource="http://purl.org/dc/dcmitype/StillImage" />
      </cc:Work>
    </rdf:RDF>
  </metadata>
  <defs
     id="defs16">
    <linearGradient
       inkscape:collect="always"
       id="linearGradient855">
      <stop
         style="stop-color:#aad400;stop-opacity:1"
         offset="0"
         id="stop851" />
      <stop
         style="stop-color:#00ccff;stop-opacity:1"
         offset="1"
         id="stop853" />
    </linearGradient>
    <linearGradient
       inkscape:collect="always"
       id="linearGradient858">
      <stop
         style="stop-color:#00d4aa;stop-opacity:1"
         offset="0"
         id="stop854" />
      <stop
         style="stop-color:#00ccff;stop-opacity:1"
         offset="1"
         id="stop856" />
    </linearGradient>
    <linearGradient
       gradientUnits="userSpaceOnUse"
       y2="277.13901"
       x2="316.02301"
       y1="277.13901"
       x1="247.34599"
       id="linearGradient1618"
       xlink:href="#linearGradient855"
       inkscape:collect="always"
       gradientTransform="matrix(0.04802178,0,0,0.04802178,2.423914,2.3895525)" />
    <linearGradient
       gradientUnits="userSpaceOnUse"
       y2="246.5"
       x2="483.85001"
       y1="246.5"
       x1="444.862"
       id="linearGradient1626"
       xlink:href="#linearGradient858"
       inkscape:collect="always"
       gradientTransform="matrix(0.04802178,0,0,0.04802178,2.423914,2.3895525)" />
    <linearGradient
       inkscape:collect="always"
       xlink:href="#linearGradient855"
       id="linearGradient959"
       gradientUnits="userSpaceOnUse"
       gradientTransform="matrix(0.03693978,0,0,0.03693978,32.326632,10.530429)"
       x1="247.34599"
       y1="277.13901"
       x2="316.02301"
       y2="277.13901" />
    <linearGradient
       inkscape:collect="always"
       xlink:href="#linearGradient855"
       id="linearGradient961"
       gradientUnits="userSpaceOnUse"
       gradientTransform="matrix(0.03693978,0,0,0.03693978,32.326632,10.530429)"
       x1="444.862"
       y1="246.5"
       x2="483.85001"
       y2="246.5" />
    <linearGradient
       inkscape:collect="always"
       xlink:href="#linearGradient855"
       id="linearGradient864"
       x1="3.3"
       y1="15.999999"
       x2="28.795862"
       y2="15.999999"
       gradientUnits="userSpaceOnUse" />
    <linearGradient
       inkscape:collect="always"
       xlink:href="#linearGradient855"
       id="linearGradient872"
       x1="33"
       y1="21"
       x2="52.612705"
       y2="21"
       gradientUnits="userSpaceOnUse" />
  </defs>
  <sodipodi:namedview
     pagecolor="#ffffff"
     bordercolor="#000000"
     borderopacity="1"
     objecttolerance="10"
     gridtolerance="10"
     guidetolerance="10"
     inkscape:pageopacity="0"
     inkscape:pageshadow="2"
     inkscape:window-width="1920"
     inkscape:window-height="1015"
     id="namedview14"
     showgrid="false"
     inkscape:zoom="5.6568543"
     inkscape:cx="18.915106"
     inkscape:cy="20.85965"
     inkscape:window-x="0"
     inkscape:window-y="0"
     inkscape:window-maximized="1"
     inkscape:current-layer="svg12"
     inkscape:document-rotation="0"
     inkscape:pagecheckerboard="0"
     inkscape:showpageshadow="false"
     inkscape:lockguides="true">
    <inkscape:grid
       type="xygrid"
       id="grid903"
       originx="0"
       originy="0" />
  </sodipodi:namedview>
  <g
     id="g997" />
  <g
     id="g999"
     transform="translate(32,10)" />
  <g
     id="bookmarks">
    <rect
       y="0"
       x="0"
       height="32"
       width="32"
       id="rect820"
       style="clip-rule:evenodd;fill:#2020ff;fill-opacity:0;fill-rule:evenodd;stroke-linejoin:round;stroke-miterlimit:1.41421" />
    <path
       sodipodi:nodetypes="ccccsccccscccccscscccccccssccccscccsccsccsccccccccccccccccccsccccccscsccccccccccccccccccccsccsssssscs"
       style="fill:url(#linearGradient864);fill-opacity:1;stroke-width:0.0480218"
       d="m 28.169195,12.173345 v 0 c -0.08791,-0.116834 -0.181944,-0.228775 -0.289085,-0.331207 -0.05264,-0.05027 -0.109928,-0.09579 -0.166784,-0.141664 -0.568713,-0.457166 -1.347249,-0.691225 -2.323098,-0.691225 H 24.470807 22.708794 L 21.153512,10.677756 16.851778,3.5601721 C 16.626081,3.18666 16.330172,3 16.034357,3 15.738539,3 15.442582,3.1867569 15.216883,3.5601721 L 10.915195,10.677661 9.359917,11.009153 H 7.597905 5.835989 4.036902 c -0.335477,0 -0.615254,0.226136 -0.703322,0.533426 -0.0183,0.06435 -0.03138,0.130909 -0.03138,0.201307 v 0.181041 0.375578 0 L 3.3,13.746829 5.788701,16.65156 v 0.511816 0.511719 1.955875 c 0,0.405639 0.329034,0.734684 0.734724,0.734684 H 7.689302 8.060227 8.43109 l -1.060955,7.616155 c -0.08893,0.638435 0.18132,1.018002 0.64449,1.018002 0.163856,0 0.351966,-0.04749 0.55678,-0.147805 l 7.463862,-3.654548 7.463714,3.654624 c 0.20486,0.100316 0.392927,0.147917 0.556779,0.147917 0.463305,0 0.733511,-0.379456 0.644551,-1.018108 l -1.061237,-7.616046 h 0.14844 c 0.07627,0 0.148243,-0.01483 0.217441,-0.0365 0.134222,-0.04173 0.250732,-0.11986 0.339752,-0.224261 0.109172,-0.128218 0.177637,-0.292355 0.177637,-0.474022 v -0.250051 -0.511527 -0.511768 l 0.959291,-0.930132 c 0.208701,-0.01154 0.406596,-0.03462 0.596468,-0.06661 0.257734,-0.04332 0.497694,-0.105692 0.7199,-0.186467 0.396466,-0.144156 0.738677,-0.344509 1.018477,-0.606371 0.324729,-0.304169 0.56556,-0.666973 0.724279,-1.083514 0.08132,-0.21336 0.158517,-0.441559 0.195753,-0.683155 0.02743,-0.178066 0.05574,-0.363669 0.05935,-0.55662 v -0.220589 l -0.02485,-0.309493 -0.06902,-0.457453 -0.170896,-0.48234 z m -0.269061,2.908483 c -0.116985,0.373703 -0.31065,0.691703 -0.586445,0.950012 -0.241108,0.225846 -0.54668,0.394594 -0.91563,0.506484 -0.363525,0.110603 -0.788943,0.165915 -1.276656,0.165915 h -1.334281 v 2.36574 0.561087 H 23.5364 21.339117 v -7.887083 h 4.051159 c 0.882259,0 1.543079,0.209854 1.982432,0.629516 0.439356,0.41971 0.659099,1.016859 0.659099,1.791594 0,0.337448 -0.04572,0.64181 -0.131698,0.916735 z M 6.522507,18.387736 V 17.876016 17.364153 13.69155 H 4.036902 v -1.547499 -0.375577 -0.0244 h 0.114436 1.761867 5.531953 V 13.69169 H 8.959554 v 5.939614 H 8.532355 8.161484 7.790565 6.522507 Z m 9.51185,1.377888 c -0.889458,0 -1.62568,-0.141715 -2.208472,-0.424994 -0.58279,-0.283329 -1.055372,-0.731658 -1.4176,-1.344991 -0.36218,-0.613381 -0.543365,-1.380913 -0.543365,-2.302689 0,-1.287654 0.358673,-2.290154 1.075926,-3.007405 0.717396,-0.717396 1.716154,-1.075928 2.996649,-1.075928 1.31267,0 2.324109,0.352384 3.034304,1.05715 0.710189,0.704766 1.06526,1.692092 1.06526,2.961691 0,0.921776 -0.155161,1.677734 -0.465379,2.26768 -0.310221,0.589947 -0.758546,1.049083 -1.344993,1.377359 -0.586534,0.328276 -1.317139,0.492127 -2.19233,0.492127 z"
       id="path1535" />
    <path
       style="fill:url(#linearGradient1618);fill-opacity:1;stroke-width:0.0480218"
       d="m 15.93207,13.454804 c -0.491358,0 -0.885955,0.173982 -1.183641,0.521803 -0.297686,0.347965 -0.446552,0.923553 -0.446552,1.727052 0,0.796345 0.148004,1.368379 0.443961,1.716152 0.295955,0.347965 0.698427,0.521852 1.207747,0.521852 0.523577,0 0.92898,-0.170333 1.215862,-0.511095 0.286978,-0.340857 0.430413,-0.95227 0.430413,-1.834669 0,-0.742368 -0.14973,-1.284868 -0.44919,-1.627407 -0.299418,-0.342299 -0.705583,-0.513688 -1.2186,-0.513688 z"
       id="path1537" />
    <path
       style="fill:url(#linearGradient1626);fill-opacity:1;stroke-width:0.0480218"
       d="m 24.480943,13.347283 h -0.694011 v 1.759227 h 0.597197 c 0.469793,0 0.799852,-0.08154 0.989963,-0.244815 0.19017,-0.163274 0.285111,-0.372071 0.285111,-0.626731 0,-0.247456 -0.08247,-0.457262 -0.247457,-0.629516 -0.165009,-0.172062 -0.475226,-0.258165 -0.930803,-0.258165 z"
       id="path1539" />
  </g>
  <g
     id="22-22-bookmarks">
    <rect
       y="10"
       x="32"
       height="22"
       width="22"
       id="rect820-6"
       style="clip-rule:evenodd;fill:#2020ff;fill-opacity:0;fill-rule:evenodd;stroke-width:0.6875;stroke-linejoin:round;stroke-miterlimit:1.41421" />
    <path
       sodipodi:nodetypes="ccccsccccscccccscscccccccssccccscccsccsccsccccccccccccccccccsccccccscsccccccccccccccccccccsccsssssscs"
       style="fill:url(#linearGradient872);fill-opacity:1;stroke-width:0.0369397"
       d="m 52.130699,18.056425 v 0 c -0.06759,-0.08986 -0.139956,-0.175983 -0.222373,-0.254775 -0.04054,-0.03873 -0.08459,-0.07366 -0.128297,-0.10897 -0.437468,-0.351672 -1.036345,-0.531722 -1.787,-0.531722 H 49.285787 47.930392 L 46.734019,16.905964 43.424995,11.4309 C 43.25138,11.14358 43.02376,11 42.796209,11 c -0.227556,0 -0.455211,0.143663 -0.628827,0.4309 l -3.30899,5.475 -1.19637,0.254997 h -1.355395 -1.355316 -1.383913 c -0.25806,0 -0.473274,0.173944 -0.541018,0.410322 -0.0141,0.04947 -0.02418,0.100686 -0.02418,0.154853 v 0.13925 0.288915 0 L 33,19.266789 l 1.914381,2.234412 v 0.393699 0.39363 1.504525 c 0,0.312036 0.253118,0.56514 0.565172,0.56514 h 0.896829 0.285322 0.285286 l -0.81611,5.858582 c -0.06844,0.491103 0.139468,0.783077 0.495757,0.783077 0.126048,0 0.270736,-0.03653 0.428283,-0.113694 l 5.741436,-2.811191 5.741329,2.811247 C 48.695811,30.963386 48.840476,31 48.966519,31 c 0.356389,0 0.564241,-0.29189 0.495807,-0.78316 l -0.816334,-5.8585 h 0.114185 c 0.05873,0 0.114032,-0.01137 0.167256,-0.02809 0.103251,-0.03212 0.192877,-0.09221 0.261354,-0.172516 0.08397,-0.09864 0.136639,-0.224882 0.136639,-0.364635 v -0.192346 -0.393467 -0.393672 l 0.737921,-0.715494 c 0.160536,-0.0095 0.312765,-0.02668 0.458821,-0.05116 0.198254,-0.03326 0.382842,-0.08125 0.553769,-0.143431 0.304975,-0.110887 0.568214,-0.265006 0.783443,-0.466434 0.249792,-0.233979 0.435045,-0.513061 0.557138,-0.833481 0.0626,-0.164115 0.121932,-0.339663 0.150579,-0.525498 0.02104,-0.136981 0.0429,-0.279752 0.04561,-0.428177 v -0.169673 l -0.0191,-0.238077 -0.05302,-0.351883 -0.131458,-0.37103 z m -0.20697,2.23728 c -0.08999,0.287468 -0.23896,0.532087 -0.451111,0.730795 -0.185466,0.173726 -0.420523,0.303532 -0.704332,0.3896 -0.279638,0.08505 -0.606877,0.127616 -0.982046,0.127616 h -1.02637 v 1.8198 0.431608 h -0.192859 -1.690217 v -6.066986 h 3.116272 c 0.678664,0 1.186983,0.161427 1.524951,0.484241 0.337967,0.322862 0.506999,0.782199 0.506999,1.378149 0,0.259572 -0.03511,0.493707 -0.101304,0.705177 z M 35.479401,22.836713 V 22.4431 22.049348 19.224276 h -1.912003 v -1.190381 -0.288921 -0.01884 h 0.08803 1.355284 4.255345 v 1.498165 h -1.912003 v 4.568946 h -0.328619 -0.285279 -0.285327 -0.975426 z m 7.316808,1.059922 c -0.684198,0 -1.250525,-0.109008 -1.698825,-0.326926 -0.448302,-0.217944 -0.811823,-0.562809 -1.090461,-1.034609 -0.2786,-0.471818 -0.417973,-1.062228 -0.417973,-1.77129 0,-0.99051 0.275897,-1.761662 0.827635,-2.313385 0.55184,-0.551854 1.320118,-0.827648 2.305114,-0.827648 1.009742,0 1.787773,0.271075 2.33408,0.813192 0.546297,0.542131 0.819432,1.301611 0.819432,2.278229 0,0.709062 -0.119359,1.290563 -0.357987,1.744367 -0.238629,0.453803 -0.583495,0.806985 -1.034609,1.059515 -0.451183,0.252514 -1.013186,0.378555 -1.686406,0.378555 z"
       id="path1535-5" />
    <path
       style="fill:url(#linearGradient959);fill-opacity:1;stroke-width:0.0369397"
       d="m 42.717526,19.042153 c -0.377966,0 -0.681505,0.133833 -0.910496,0.401389 -0.22899,0.26767 -0.343498,0.710423 -0.343498,1.328509 0,0.612573 0.113848,1.052599 0.341504,1.320109 0.227662,0.267674 0.537255,0.401424 0.929037,0.401424 0.402752,0 0.7146,-0.131025 0.935284,-0.393144 0.220751,-0.262197 0.331081,-0.732525 0.331081,-1.411292 0,-0.571048 -0.115177,-0.988357 -0.345526,-1.251848 -0.230322,-0.263307 -0.542756,-0.395147 -0.937386,-0.395147 z"
       id="path1537-6" />
    <path
       style="fill:url(#linearGradient961);fill-opacity:1;stroke-width:0.0369397"
       d="M 49.293583,18.959452 H 48.759727 V 20.3127 h 0.459385 c 0.361376,0 0.615269,-0.06279 0.761507,-0.188324 0.146286,-0.125594 0.219318,-0.286209 0.219318,-0.482088 0,-0.190365 -0.06341,-0.351751 -0.190351,-0.484248 -0.126935,-0.13235 -0.365562,-0.198588 -0.716003,-0.198588 z"
       id="path1539-2" />
  </g>
</svg>
