<?xml version="1.0" encoding="UTF-8" standalone="no"?>
<svg
   xmlns:dc="http://purl.org/dc/elements/1.1/"
   xmlns:cc="http://creativecommons.org/ns#"
   xmlns:rdf="http://www.w3.org/1999/02/22-rdf-syntax-ns#"
   xmlns:svg="http://www.w3.org/2000/svg"
   xmlns="http://www.w3.org/2000/svg"
   xmlns:sodipodi="http://sodipodi.sourceforge.net/DTD/sodipodi-0.dtd"
   xmlns:inkscape="http://www.inkscape.org/namespaces/inkscape"
   width="32"
   height="32"
   version="1.1"
   id="svg12"
   sodipodi:docname="kmail.svg"
   inkscape:version="1.0.2 (e86c870879, 2021-01-15)">
  <g
     id="kmail">
    <rect
       style="opacity:0.00100002"
       width="32"
       height="32"
       x="0"
       y="0"
       id="rect7" />
    <path
       d="M 30.489654,5.7 H 1.506897 C 1.118103,5.7 0.8,6.0181035 0.8,6.4068965 V 25.493104 C 0.8,25.881898 1.118103,26.2 1.506897,26.2 h 28.982757 c 0.388797,0 0.706896,-0.318102 0.706896,-0.706896 V 6.4068965 C 31.19655,6.0181035 30.878451,5.7 30.489654,5.7 Z M 29.78276,24.786211 H 2.213793 V 7.1137928 H 29.78276 Z"
       id="path2-1"
       style="fill:#d3dae3;fill-opacity:1;stroke-width:0.35345" />
    <path
       d="m 22.700842,14.823607 c 0.282756,0.247412 0.742239,0.247412 0.989652,-0.03534 l 6.185348,-6.7862034 c 0.106031,-0.141379 0.176725,-0.3181041 0.176725,-0.4594832 0,-0.176724 -0.07071,-0.3887929 -0.247419,-0.530172 -0.282753,-0.2474195 -0.742241,-0.2474195 -0.989652,0.035342 l -6.185348,6.7861966 c -0.247413,0.282762 -0.247413,0.706899 0.07071,0.989659 z"
       id="path6-2"
       style="fill:#d3dae3;fill-opacity:1;stroke-width:0.35345" />
    <path
       d="m 1.966379,7.5210852 c 0,0.1767238 0.07069,0.3534474 0.176725,0.4594834 l 6.185344,6.8215494 c 0.247415,0.282758 0.706897,0.318106 0.989656,0.03536 0.282759,-0.247414 0.318103,-0.706901 0.03534,-0.989654 L 3.203443,7.0616025 C 2.95603,6.7788433 2.496547,6.7434987 2.213788,7.0262585 2.037064,7.132293 1.966374,7.3443616 1.966374,7.5210852 Z"
       id="path8-7"
       style="fill:#d3dae3;fill-opacity:1;stroke-width:0.35345" />
    <path
       inkscape:connector-curvature="0"
       id="path4252-3-3-0"
       style="font-style:normal;font-variant:normal;font-weight:normal;font-stretch:normal;font-size:18.5263px;line-height:125%;font-family:'Product Sans';-inkscape-font-specification:'Product Sans';letter-spacing:0px;word-spacing:0px;fill:#d3dae3;fill-opacity:1;stroke:none;stroke-width:0.412214;stroke-linecap:butt;stroke-linejoin:miter;stroke-miterlimit:4;stroke-dasharray:none;stroke-opacity:0.85"
       d="m 16.033795,10.2 q 2.775391,0 4.670835,1.93208 1.89537,1.932205 1.89537,4.667871 0,1.538928 -0.659971,2.547698 -0.643075,1.008835 -1.878495,1.008835 -1.269326,0 -1.895431,-1.248187 -0.829277,1.248187 -2.369281,1.248187 -1.387767,0 -2.335385,-0.974583 -0.947759,-0.991776 -0.947759,-2.513475 0,-1.504637 0.947759,-2.496479 0.947618,-0.991652 2.26768,-0.991652 1.303126,0 2.166212,1.008866 h 0.0679 v -0.769425 h 1.218469 v 4.462666 q 0,0.444551 0.23693,0.803578 0.253801,0.359015 0.76159,0.359015 1.201537,0 1.201537,-2.445044 0,-2.256967 -1.556959,-3.812917 -1.556994,-1.555951 -3.790828,-1.555951 -2.233861,0 -3.79091,1.555951 -1.556888,1.55595 -1.556888,3.812917 0,2.257072 1.556888,3.813017 1.557049,1.555864 3.79091,1.555864 1.201516,0 2.149204,-0.47871 l 0.473908,1.162691 Q 17.4724,23.4 16.033976,23.4 13.224727,23.4 11.312318,21.484931 9.4,19.552847 9.4,16.799951 9.4,14.064285 11.312314,12.13208 13.241578,10.2 16.033977,10.2 Z m -1.573911,8.258568 q 0.609289,0.598455 1.45541,0.598455 0.846162,0 1.438494,-0.598455 0.609264,-0.598487 0.609264,-1.590142 0,-0.991803 -0.609264,-1.590171 -0.592332,-0.59845 -1.438494,-0.59845 -0.846121,0 -1.45541,0.59845 -0.592329,0.598368 -0.592329,1.590171 0,0.991655 0.592329,1.590142 z" />
  </g>
  <metadata
     id="metadata18">
    <rdf:RDF>
      <cc:Work
         rdf:about="">
        <dc:format>image/svg+xml</dc:format>
        <dc:type
           rdf:resource="http://purl.org/dc/dcmitype/StillImage" />
      </cc:Work>
    </rdf:RDF>
  </metadata>
  <defs
     id="defs16" />
  <sodipodi:namedview
     pagecolor="#ffffff"
     bordercolor="#666666"
     borderopacity="1"
     objecttolerance="10"
     gridtolerance="10"
     guidetolerance="10"
     inkscape:pageopacity="0"
     inkscape:pageshadow="2"
     inkscape:window-width="1920"
     inkscape:window-height="1007"
     id="namedview14"
     showgrid="false"
     inkscape:zoom="8.0000005"
     inkscape:cx="39.340737"
     inkscape:cy="8.9053084"
     inkscape:window-x="0"
     inkscape:window-y="0"
     inkscape:window-maximized="1"
     inkscape:current-layer="svg12"
     inkscape:document-rotation="0"
     inkscape:lockguides="false">
    <inkscape:grid
       type="xygrid"
       id="grid873"
       originx="0"
       originy="0" />
  </sodipodi:namedview>
  <g
     id="22-22-kmail"
     transform="translate(32,10)">
    <rect
       style="opacity:0.00100002"
       width="22"
       height="22"
       x="0"
       y="0"
       id="rect2" />
    <path
       d="M 20.875862,4 H 1.082757 C 0.817243,4 0.6,4.217244 0.6,4.482757 V 17.517242 C 0.6,17.78276 0.817243,18 1.082757,18 h 19.793105 c 0.265518,0 0.482758,-0.21724 0.482758,-0.482758 V 4.482757 C 21.35862,4.217244 21.14138,4 20.875862,4 Z M 20.393103,17.034486 H 1.565516 V 4.965516 h 18.827587 z"
       id="path2-5"
       style="fill:#d3dae3;fill-opacity:1;stroke-width:0.24138" />
    <path
       d="m 15.55667,10.230754 c 0.193105,0.168965 0.506901,0.168965 0.675859,-0.0241 L 20.45667,5.572175 c 0.07244,-0.09655 0.120694,-0.217245 0.120694,-0.313792 0,-0.120691 -0.0483,-0.265515 -0.168978,-0.362072 C 20.215292,4.727344 19.9015,4.727344 19.732531,4.920441 l -4.224145,4.634466 c -0.168956,0.193111 -0.168956,0.482765 0.04836,0.675875 z"
       id="path6-6"
       style="fill:#d3dae3;fill-opacity:1;stroke-width:0.24138" />
    <path
       d="m 1.396551,5.243668 c 0,0.120688 0.04829,0.241378 0.120693,0.313796 l 4.224136,4.658617 c 0.168968,0.193103 0.482757,0.217241 0.675864,0.02415 0.193104,-0.168965 0.21724,-0.482759 0.02412,-0.675857 l -4.2,-4.634492 C 2.072394,4.736777 1.758604,4.712637 1.565497,4.905752 1.444807,4.978182 1.396538,5.122991 1.396538,5.243678 Z"
       id="path8-2"
       style="fill:#d3dae3;fill-opacity:1;stroke-width:0.24138" />
    <path
       inkscape:connector-curvature="0"
       id="path4252-3-3-9"
       style="font-style:normal;font-variant:normal;font-weight:normal;font-stretch:normal;font-size:18.5263px;line-height:125%;font-family:'Product Sans';-inkscape-font-specification:'Product Sans';letter-spacing:0px;word-spacing:0px;fill:#d3dae3;fill-opacity:1;stroke:none;stroke-width:0.28106;stroke-linecap:butt;stroke-linejoin:miter;stroke-miterlimit:4;stroke-dasharray:none;stroke-opacity:0.85"
       d="m 11.023059,6.9 q 1.892306,0 3.184652,1.3173282 Q 15.5,9.5347434 15.5,11.399963 q 0,1.049276 -0.449978,1.737068 -0.438444,0.687846 -1.28079,0.687846 -0.865433,0 -1.292328,-0.851036 -0.565405,0.851036 -1.615417,0.851036 -0.946205,0 -1.592304,-0.664489 -0.6462015,-0.676214 -0.6462015,-1.713735 0,-1.025886 0.6462015,-1.7021403 0.646099,-0.6761287 1.546152,-0.6761287 0.888493,0 1.476957,0.6878626 h 0.04622 V 9.2316433 h 0.830774 v 3.0427187 q 0,0.303106 0.161533,0.5479 0.173055,0.244783 0.519277,0.244783 0.819221,0 0.819221,-1.667082 0,-1.5388354 -1.061557,-2.5997086 -1.061582,-1.0608762 -2.584649,-1.0608762 -1.523082,0 -2.5847124,1.0608762 -1.0614995,1.0608732 -1.0614995,2.5997086 0,1.538917 1.0615042,2.599786 1.0616299,1.060817 2.5847117,1.060817 0.819213,0 1.465359,-0.326393 l 0.323123,0.792744 Q 12.003857,15.9 11.023119,15.9 9.1077252,15.9 7.8038146,14.594276 6.5,13.276945 6.5,11.399963 6.5,9.5347434 7.8038472,8.2173282 9.1192441,6.9 11.023153,6.9 Z m -1.073113,5.630846 q 0.415414,0.408034 0.992316,0.408034 0.576941,0 0.980784,-0.408034 0.415412,-0.40806 0.415412,-1.084193 0,-0.676228 -0.415412,-1.084205 -0.403843,-0.4080393 -0.980784,-0.4080393 -0.576902,0 -0.992316,0.4080393 -0.4038683,0.407977 -0.4038683,1.084205 0,0.676133 0.4038683,1.084193 z" />
  </g>
</svg>
