<?xml version="1.0" encoding="UTF-8" standalone="no"?>
<svg
   width="8.4666662mm"
   height="8.4666662mm"
   viewBox="0 0 31.999999 31.999999"
   version="1.1"
   id="svg881"
   inkscape:version="1.1 (c68e22c387, 2021-05-23)"
   sodipodi:docname="notification.svg"
   xmlns:inkscape="http://www.inkscape.org/namespaces/inkscape"
   xmlns:sodipodi="http://sodipodi.sourceforge.net/DTD/sodipodi-0.dtd"
   xmlns="http://www.w3.org/2000/svg"
   xmlns:svg="http://www.w3.org/2000/svg"
   xmlns:rdf="http://www.w3.org/1999/02/22-rdf-syntax-ns#"
   xmlns:cc="http://creativecommons.org/ns#"
   xmlns:dc="http://purl.org/dc/elements/1.1/">
  <defs
     id="defs875" />
  <sodipodi:namedview
     id="base"
     pagecolor="#ffffff"
     bordercolor="#000000"
     borderopacity="1"
     inkscape:pageopacity="0.0"
     inkscape:pageshadow="2"
     inkscape:zoom="3.9999998"
     inkscape:cx="9.6250005"
     inkscape:cy="-32.000002"
     inkscape:document-units="px"
     inkscape:current-layer="layer1"
     showgrid="false"
     inkscape:window-width="1920"
     inkscape:window-height="1007"
     inkscape:window-x="0"
     inkscape:window-y="0"
     inkscape:window-maximized="1"
     inkscape:lockguides="true"
     inkscape:document-rotation="0"
     inkscape:pagecheckerboard="0"
     inkscape:showpageshadow="false">
    <inkscape:grid
       type="xygrid"
       id="grid866"
       originx="5.0000121"
       originy="-34.99999" />
  </sodipodi:namedview>
  <metadata
     id="metadata878">
    <rdf:RDF>
      <cc:Work
         rdf:about="">
        <dc:format>image/svg+xml</dc:format>
        <dc:type
           rdf:resource="http://purl.org/dc/dcmitype/StillImage" />
      </cc:Work>
    </rdf:RDF>
  </metadata>
  <g
     inkscape:label="Layer 1"
     inkscape:groupmode="layer"
     id="layer1"
     transform="translate(-204.82493,-721.24546)">
    <g
       id="notification-progress-active"
       transform="translate(248.82493,685.24546)">
      <path
         style="fill:none"
         inkscape:connector-curvature="0"
         id="empty-rectangle"
         d="M 1,1 H 23 V 23 H 1 Z" />
      <circle
         id="circle-blue"
         cx="12"
         cy="12"
         r="8"
         class="ColorScheme-ButtonFocus"
         style="fill:#0092af;fill-opacity:1" />
    </g>
    <g
       id="notification-progress-inactive"
       transform="translate(248.82493,725.24546)">
      <path
         style="fill:none"
         inkscape:connector-curvature="0"
         id="path10"
         d="M 1,1 H 23 V 23 H 1 Z" />
      <circle
         id="circle-transparent"
         cx="12"
         cy="12"
         r="8"
         class="ColorScheme-Text"
         style="opacity:0.4;fill:#0092af;fill-opacity:1" />
    </g>
    <path
       inkscape:connector-curvature="0"
       id="expander-bottom"
       d="m 191.82493,709.24546 2,-2 2,2 z"
       class="ColorScheme-Text"
       style="fill:#0092af;fill-opacity:1" />
    <path
       inkscape:connector-curvature="0"
       id="expander-top"
       d="m 191.82493,703.24546 2,2 2,-2 z"
       class="ColorScheme-Text"
       style="fill:#0092af;fill-opacity:1" />
    <path
       inkscape:connector-curvature="0"
       id="expander-right"
       d="m 196.82493,704.24546 -2,2 2,2 z"
       class="ColorScheme-Text"
       style="fill:#0092af;fill-opacity:1" />
    <path
       inkscape:connector-curvature="0"
       id="expander-left"
       d="m 190.82493,704.24546 2,2 -2,2 z"
       class="ColorScheme-Text"
       style="fill:#0092af;fill-opacity:1" />
    <g
       id="notification-empty"
       transform="translate(248.82493,645.24546)">
      <path
         style="fill:none"
         inkscape:connector-curvature="0"
         id="path31"
         d="M 1,1 H 23 V 23 H 1 Z" />
      <path
         inkscape:connector-curvature="0"
         id="circle-outline"
         d="m 12,4 a 8,8 0 0 0 -8,8 8,8 0 0 0 8,8 8,8 0 0 0 8,-8 8,8 0 0 0 -8,-8 z m 0,1 a 7,7 0 0 1 7,7 7,7 0 0 1 -7,7 7,7 0 0 1 -7,-7 7,7 0 0 1 7,-7 z"
         class="ColorScheme-Text"
         style="fill:#d3dae3;fill-opacity:1" />
    </g>
    <g
       id="notification-disabled">
      <path
         style="fill:none;stroke-width:1.45455"
         inkscape:connector-curvature="0"
         d="m 204.82493,641.24546 h 32 v 32 h -32 z"
         id="path25" />
      <path
         d="m 220.83864,645.25095 c -0.35332,0 -0.70664,0.0869 -1.02596,0.25999 -0.5797,0.31402 -0.96641,0.88615 -1.02905,1.52595 -1.73797,0.34011 -3.41813,1.17702 -4.67542,2.8884 l -0.0113,0.0151 -0.01,0.0151 c -0.9746,1.5586 -1.0225,3.36352 -1.00185,5.10763 0.0206,1.7443 0.10459,3.45052 -0.40209,4.88612 -0.2269,0.64279 -0.82342,1.65275 -1.3576,2.4632 -0.40121,0.60871 -0.69689,1.01683 -0.85367,1.2306 h -0.54525 c -0.83709,0 -1.60152,0.60191 -1.60152,1.43916 0,0.83725 0.76443,1.44025 1.60152,1.44025 h 7.61537 c 0.19542,0.93493 0.76299,1.76222 1.59642,2.25653 1.04881,0.62197 2.35172,0.62197 3.40053,0 0.83343,-0.49431 1.39992,-1.32171 1.59545,-2.25653 h 7.61633 c 0.83714,0 1.60252,-0.603 1.60252,-1.44025 0,-0.83725 -0.76538,-1.43916 -1.60252,-1.43916 h -0.53011 c -0.1533,-0.23089 -0.43341,-0.65718 -0.81433,-1.2891 -0.5136,-0.85206 -1.08922,-1.90649 -1.31829,-2.58106 -0.48336,-1.4237 -0.42231,-3.10524 -0.4334,-4.81753 -0.0109,-1.71234 -0.0996,-3.47753 -1.06528,-5.00187 l -0.006,-0.0113 -0.006,-0.0113 c -1.02988,-1.48345 -2.82596,-2.44208 -4.67945,-2.85722 -0.0496,-0.65666 -0.44069,-1.2472 -1.03308,-1.56821 -0.31931,-0.17307 -0.67264,-0.25999 -1.02601,-0.25999 z m 0,1.03504 c 0.18566,0 0.37128,0.045 0.53418,0.13302 0.21003,0.11374 0.35338,0.28341 0.43238,0.4747 -0.33407,-0.0378 -0.665,-0.0548 -0.98973,-0.0541 v 0 c -0.3092,5e-4 -0.62098,0.0113 -0.93328,0.0382 0.0803,-0.18441 0.21921,-0.34804 0.42329,-0.45864 0.16286,-0.0881 0.34852,-0.13302 0.53414,-0.13302 z m -0.0253,1.58532 v 0 c 2.15909,-0.0113 4.77229,1.02721 5.90299,2.64455 0.78069,1.23842 0.89122,2.77455 0.90206,4.44758 0.009,1.47456 -0.0603,3.036 0.30941,4.53037 h -14.05052 c 0.33551,-1.46697 0.25192,-2.99603 0.23478,-4.44271 -0.0201,-1.7059 0.0581,-3.27225 0.84055,-4.53323 1.52217,-2.05584 3.65747,-2.64358 5.8597,-2.64656 z m -7.25755,12.65451 h 14.7197 c 0.31648,0.76259 0.79803,1.62294 1.24372,2.36231 0.25605,0.42486 0.30048,0.47743 0.48072,0.75601 H 211.7215 c 0.18272,-0.2581 0.21657,-0.28984 0.46261,-0.6632 0.50349,-0.76387 1.05207,-1.66502 1.37169,-2.45512 z m -3.62929,4.15034 h 21.82409 c 0.36612,0 0.57047,0.22144 0.57047,0.40714 0,0.18592 -0.20435,0.40823 -0.57047,0.40823 h -21.8241 c -0.36612,0 -0.56948,-0.2222 -0.56948,-0.40823 0,-0.18593 0.20336,-0.40714 0.56948,-0.40714 z m 8.67764,1.84739 h 4.46881 c -0.17271,0.5694 -0.54425,1.06251 -1.06027,1.36868 -0.72821,0.43181 -1.62005,0.43181 -2.34832,0 -0.51602,-0.3061 -0.88755,-0.79928 -1.06022,-1.36868 z"
         style="color:#000000;font-style:normal;font-variant:normal;font-weight:normal;font-stretch:normal;font-size:medium;line-height:normal;font-family:sans-serif;text-indent:0;text-align:start;text-decoration:none;text-decoration-line:none;text-decoration-style:solid;text-decoration-color:#000000;letter-spacing:normal;word-spacing:normal;text-transform:none;writing-mode:lr-tb;direction:ltr;baseline-shift:baseline;text-anchor:start;white-space:normal;clip-rule:nonzero;display:inline;overflow:visible;visibility:visible;isolation:auto;mix-blend-mode:normal;color-interpolation:sRGB;color-interpolation-filters:linearRGB;solid-color:#000000;solid-opacity:1;fill:#ff557f;fill-opacity:1;fill-rule:evenodd;stroke:none;stroke-width:1.03209;stroke-linecap:butt;stroke-linejoin:miter;stroke-miterlimit:4;stroke-dasharray:none;stroke-dashoffset:0;stroke-opacity:1;color-rendering:auto;image-rendering:auto;shape-rendering:auto;text-rendering:auto;enable-background:accumulate"
         id="path2" />
    </g>
    <g
       id="notification-active">
      <path
         style="fill:none;stroke-width:1.45455"
         inkscape:connector-curvature="0"
         d="m 204.82493,721.24546 h 32 v 32 h -32 z"
         id="path14" />
      <path
         style="fill:#0092af;fill-opacity:1;fill-rule:evenodd;stroke-width:1.94327"
         id="path16"
         class="ColorScheme-Text"
         d="m 209.81963,723.22746 c -2.91605,2.91344 -4.55569,6.86571 -4.55834,10.98779 h 1.94327 c 0.001,-1.63958 0.29836,-3.24841 0.86187,-4.75512 0.67605,-1.80768 1.73552,-3.46832 3.12717,-4.85857 z m 21.9757,0 -1.37397,1.3741 c 2.55158,2.54902 3.98642,6.00699 3.98902,9.61369 h 1.94328 c -0.003,-4.12208 -1.64227,-8.07435 -4.55833,-10.98779 z m -2.75171,2.7521 -1.37776,1.37701 c 1.82372,1.81731 2.85162,4.28409 2.85798,6.85868 h 1.94327 c -0.001,-1.16454 -0.17766,-2.31087 -0.51329,-3.40416 -0.55509,-1.80808 -1.54697,-3.47106 -2.9102,-4.83153 z m -16.46468,0.006 c -0.79491,0.7918 -1.4639,1.68646 -1.99397,2.65276 -0.92939,1.69427 -1.43177,3.60895 -1.43713,5.57616 h 1.94327 c 0.003,-2.57607 1.02762,-5.04576 2.85039,-6.86615 z"
         inkscape:connector-curvature="0"
         sodipodi:nodetypes="cccscccccccccccsccscccc" />
      <path
         d="m 220.83864,725.25095 c -0.35332,0 -0.70664,0.0869 -1.02596,0.25999 -0.5797,0.31402 -0.96641,0.88615 -1.02905,1.52595 -1.73797,0.34011 -3.41813,1.17702 -4.67542,2.8884 l -0.0113,0.0151 -0.01,0.0151 c -0.9746,1.5586 -1.0225,3.36352 -1.00185,5.10763 0.0206,1.7443 0.10459,3.45052 -0.40209,4.88612 -0.2269,0.64279 -0.82342,1.65275 -1.3576,2.4632 -0.40121,0.60871 -0.69689,1.01683 -0.85367,1.2306 h -0.54525 c -0.83709,0 -1.60152,0.60191 -1.60152,1.43916 0,0.83725 0.76443,1.44025 1.60152,1.44025 h 7.61537 c 0.19542,0.93493 0.76299,1.76222 1.59642,2.25653 1.04881,0.62197 2.35172,0.62197 3.40053,0 0.83343,-0.49431 1.39992,-1.32171 1.59545,-2.25653 h 7.61633 c 0.83714,0 1.60252,-0.603 1.60252,-1.44025 0,-0.83725 -0.76538,-1.43916 -1.60252,-1.43916 h -0.53011 c -0.1533,-0.23089 -0.43341,-0.65718 -0.81433,-1.2891 -0.5136,-0.85206 -1.08922,-1.90649 -1.31829,-2.58106 -0.48336,-1.4237 -0.42231,-3.10524 -0.4334,-4.81753 -0.0109,-1.71234 -0.0996,-3.47753 -1.06528,-5.00187 l -0.006,-0.0113 -0.006,-0.0113 c -1.02988,-1.48345 -2.82596,-2.44208 -4.67945,-2.85722 -0.0496,-0.65666 -0.44069,-1.2472 -1.03308,-1.56821 -0.31931,-0.17307 -0.67264,-0.25999 -1.02601,-0.25999 z m 0,1.03504 c 0.18566,0 0.37128,0.045 0.53418,0.13302 0.21003,0.11374 0.35338,0.28341 0.43238,0.4747 -0.33407,-0.0378 -0.665,-0.0548 -0.98973,-0.0541 v 0 c -0.3092,5e-4 -0.62098,0.0113 -0.93328,0.0382 0.0803,-0.18441 0.21921,-0.34804 0.42329,-0.45864 0.16286,-0.0881 0.34852,-0.13302 0.53414,-0.13302 z m -0.0253,1.58532 v 0 c 2.15909,-0.0113 4.77229,1.02721 5.90299,2.64455 0.78069,1.23842 0.89122,2.77455 0.90206,4.44758 0.009,1.47456 -0.0603,3.036 0.30941,4.53037 h -14.05052 c 0.33551,-1.46697 0.25192,-2.99603 0.23478,-4.44271 -0.0201,-1.7059 0.0581,-3.27225 0.84055,-4.53323 1.52217,-2.05584 3.65747,-2.64358 5.8597,-2.64656 z m -7.25755,12.65451 h 14.7197 c 0.31648,0.76259 0.79803,1.62294 1.24372,2.36231 0.25605,0.42486 0.30048,0.47743 0.48072,0.75601 H 211.7215 c 0.18272,-0.2581 0.21657,-0.28984 0.46261,-0.6632 0.50349,-0.76387 1.05207,-1.66502 1.37169,-2.45512 z m -3.62929,4.15034 h 21.82409 c 0.36612,0 0.57047,0.22144 0.57047,0.40714 0,0.18592 -0.20435,0.40823 -0.57047,0.40823 h -21.8241 c -0.36612,0 -0.56948,-0.2222 -0.56948,-0.40823 0,-0.18593 0.20336,-0.40714 0.56948,-0.40714 z m 8.67764,1.84739 h 4.46881 c -0.17271,0.5694 -0.54425,1.06251 -1.06027,1.36868 -0.72821,0.43181 -1.62005,0.43181 -2.34832,0 -0.51602,-0.3061 -0.88755,-0.79928 -1.06022,-1.36868 z"
         style="color:#000000;font-style:normal;font-variant:normal;font-weight:normal;font-stretch:normal;font-size:medium;line-height:normal;font-family:sans-serif;text-indent:0;text-align:start;text-decoration:none;text-decoration-line:none;text-decoration-style:solid;text-decoration-color:#000000;letter-spacing:normal;word-spacing:normal;text-transform:none;writing-mode:lr-tb;direction:ltr;baseline-shift:baseline;text-anchor:start;white-space:normal;clip-rule:nonzero;display:inline;overflow:visible;visibility:visible;isolation:auto;mix-blend-mode:normal;color-interpolation:sRGB;color-interpolation-filters:linearRGB;solid-color:#000000;solid-opacity:1;fill:#d3dae3;fill-opacity:1;fill-rule:evenodd;stroke:none;stroke-width:1.03209;stroke-linecap:butt;stroke-linejoin:miter;stroke-miterlimit:4;stroke-dasharray:none;stroke-dashoffset:0;stroke-opacity:1;color-rendering:auto;image-rendering:auto;shape-rendering:auto;text-rendering:auto;enable-background:accumulate"
         id="path2-3" />
    </g>
    <g
       id="notification-inactive">
      <path
         style="fill:none"
         inkscape:connector-curvature="0"
         d="m 209.82493,686.24546 h 22 v 22 h -22 z"
         id="path6" />
      <path
         d="m 220.77113,689.25417 c -0.23549,0 -0.47091,0.0575 -0.68373,0.17328 -0.38636,0.20923 -0.64408,0.5905 -0.68584,1.01694 -1.15822,0.22666 -2.27791,0.78442 -3.11583,1.92491 l -0.0104,0.0104 -0.0104,0.0104 c -0.64946,1.03868 -0.68143,2.24157 -0.66771,3.40389 0.0133,1.1624 0.0701,2.29955 -0.26796,3.25627 -0.15122,0.42841 -0.54872,1.10142 -0.90474,1.64152 -0.26739,0.40564 -0.46449,0.67766 -0.56884,0.82014 h -0.3634 c -0.55787,0 -1.06735,0.40113 -1.06735,0.95902 0,0.55806 0.50948,0.95989 1.06735,0.95989 h 5.07506 c 0.13024,0.62311 0.50851,1.17435 1.0639,1.50378 0.69896,0.41448 1.56732,0.41448 2.26628,0 0.55538,-0.32943 0.93291,-0.88077 1.06321,-1.50378 h 5.07578 c 0.55791,0 1.06796,-0.40183 1.06796,-0.95989 0,-0.55789 -0.51005,-0.95902 -1.06796,-0.95902 h -0.353 c -0.10212,-0.15386 -0.28882,-0.43798 -0.54266,-0.85913 -0.34229,-0.56784 -0.72596,-1.27053 -0.87855,-1.72009 -0.32217,-0.94884 -0.28145,-2.06941 -0.28886,-3.21058 -0.0104,-1.14114 -0.0669,-2.3175 -0.70992,-3.33337 l -0.006,-0.0104 -0.006,-0.0104 c -0.68633,-0.98856 -1.88327,-1.62747 -3.11852,-1.90417 -0.0336,-0.4375 -0.29363,-0.83107 -0.68842,-1.04502 -0.21279,-0.11531 -0.4483,-0.1733 -0.6838,-0.1733 z m 0,0.68978 c 0.12372,0 0.24742,0.0294 0.356,0.0884 0.13994,0.0758 0.23547,0.18887 0.28814,0.31638 -0.22263,-0.0247 -0.44318,-0.0366 -0.65959,-0.0362 v 0 c -0.20607,3.7e-4 -0.41384,0.0104 -0.62194,0.0253 0.0541,-0.12291 0.14604,-0.23194 0.28205,-0.30567 0.10855,-0.0583 0.23227,-0.0884 0.356,-0.0884 z m -0.0173,1.05647 v 0 c 1.43893,-0.0104 3.18037,0.68458 3.93394,1.76245 0.52027,0.82533 0.59396,1.84907 0.60111,2.96404 0.009,0.98264 -0.0404,2.02328 0.20616,3.01917 h -9.36358 c 0.22359,-0.97766 0.16789,-1.99665 0.15647,-2.96079 -0.013,-1.13683 0.039,-2.1807 0.56014,-3.02105 1.01441,-1.3701 2.43751,-1.76178 3.90509,-1.76382 z m -4.83667,8.4334 h 9.80969 c 0.21092,0.5082 0.53185,1.08159 0.8288,1.57433 0.17068,0.28315 0.20026,0.31816 0.32042,0.50382 h -12.18123 c 0.12178,-0.17201 0.14433,-0.19317 0.30829,-0.44201 0.3355,-0.50905 0.70112,-1.10957 0.91412,-1.63614 z m -2.41868,2.76592 h 14.54429 c 0.24393,0 0.38015,0.14756 0.38015,0.27129 0,0.124 -0.13622,0.27208 -0.38015,0.27208 h -14.54424 c -0.24401,0 -0.37952,-0.148 -0.37952,-0.27208 0,-0.12383 0.13551,-0.27129 0.37952,-0.27129 z m 5.78304,1.23118 h 2.97819 c -0.11507,0.37943 -0.3627,0.70809 -0.70662,0.91209 -0.4853,0.28778 -1.07965,0.28778 -1.56497,0 -0.34391,-0.20394 -0.59152,-0.53266 -0.7066,-0.91209 z"
         style="color:#000000;font-style:normal;font-variant:normal;font-weight:normal;font-stretch:normal;font-size:medium;line-height:normal;font-family:sans-serif;text-indent:0;text-align:start;text-decoration:none;text-decoration-line:none;text-decoration-style:solid;text-decoration-color:#000000;letter-spacing:normal;word-spacing:normal;text-transform:none;writing-mode:lr-tb;direction:ltr;baseline-shift:baseline;text-anchor:start;white-space:normal;clip-rule:nonzero;display:inline;overflow:visible;visibility:visible;isolation:auto;mix-blend-mode:normal;color-interpolation:sRGB;color-interpolation-filters:linearRGB;solid-color:#000000;solid-opacity:1;fill:#d3dae3;fill-opacity:1;fill-rule:evenodd;stroke:none;stroke-width:0.687819;stroke-linecap:butt;stroke-linejoin:miter;stroke-miterlimit:4;stroke-dasharray:none;stroke-dashoffset:0;stroke-opacity:1;color-rendering:auto;image-rendering:auto;shape-rendering:auto;text-rendering:auto;enable-background:accumulate"
         id="path2-3-6" />
    </g>
  </g>
</svg>
