<?xml version="1.0" encoding="UTF-8" standalone="no"?>
<svg
   xmlns:dc="http://purl.org/dc/elements/1.1/"
   xmlns:cc="http://creativecommons.org/ns#"
   xmlns:rdf="http://www.w3.org/1999/02/22-rdf-syntax-ns#"
   xmlns:svg="http://www.w3.org/2000/svg"
   xmlns="http://www.w3.org/2000/svg"
   xmlns:xlink="http://www.w3.org/1999/xlink"
   xmlns:sodipodi="http://sodipodi.sourceforge.net/DTD/sodipodi-0.dtd"
   xmlns:inkscape="http://www.inkscape.org/namespaces/inkscape"
   sodipodi:docname="phone.svg"
   inkscape:version="1.0.2 (e86c870879, 2021-01-15)"
   id="svg"
   viewBox="0 0 32.000015 31.999973"
   height="31.999973"
   width="32.000015"
   version="1.1">
  <sodipodi:namedview
     inkscape:document-rotation="0"
     fit-margin-bottom="0"
     fit-margin-right="0"
     fit-margin-left="0"
     fit-margin-top="0"
     inkscape:snap-bbox-midpoints="true"
     inkscape:snap-bbox="true"
     inkscape:current-layer="svg"
     inkscape:window-maximized="1"
     inkscape:window-y="0"
     inkscape:window-x="0"
     inkscape:cy="37.607935"
     inkscape:cx="37.258725"
     inkscape:zoom="5.6842261"
     showgrid="false"
     id="namedview10"
     inkscape:window-height="1007"
     inkscape:window-width="1920"
     inkscape:pageshadow="2"
     inkscape:pageopacity="0"
     guidetolerance="10"
     gridtolerance="10"
     objecttolerance="10"
     borderopacity="1"
     bordercolor="#000000"
     pagecolor="#ffffff"
     inkscape:lockguides="false">
    <inkscape:grid
       spacingy="1.0666667"
       spacingx="1.0666667"
       originy="-27.733351"
       originx="-52.266646"
       empopacity="0.07843137"
       empcolor="#0000ff"
       opacity="0.03921569"
       color="#0000ff"
       snapvisiblegridlinesonly="true"
       enabled="true"
       visible="true"
       empspacing="4"
       id="grid2987"
       type="xygrid" />
  </sodipodi:namedview>
  <defs
     id="defs81">
    <linearGradient
       inkscape:collect="always"
       id="linearGradient877">
      <stop
         style="stop-color:#000000;stop-opacity:1;"
         offset="0"
         id="stop873" />
      <stop
         style="stop-color:#000000;stop-opacity:0;"
         offset="1"
         id="stop875" />
    </linearGradient>
    <style
       id="current-color-scheme"
       type="text/css" />
    <linearGradient
       inkscape:collect="always"
       xlink:href="#linearGradient877"
       id="linearGradient879"
       x1="69.162473"
       y1="76.339386"
       x2="69.662723"
       y2="76.339386"
       gradientUnits="userSpaceOnUse" />
  </defs>
  <metadata
     id="metadata34">
    <rdf:RDF>
      <cc:Work
         rdf:about="">
        <dc:format>image/svg+xml</dc:format>
        <dc:type
           rdf:resource="http://purl.org/dc/dcmitype/StillImage" />
        <dc:title />
      </cc:Work>
    </rdf:RDF>
  </metadata>
  <g
     id="phone">
    <rect
       width="32.000015"
       height="31.999973"
       rx="0"
       ry="0"
       x="-2.9711913e-07"
       y="-3.8330079e-08"
       id="rect3860"
       style="opacity:0.01;fill:#eff0f1;fill-opacity:0;stroke:none" />
    <path
       d="m 14.8,6.500125 h 3 c 0.27614,0 0.4995,-0.224109 0.4995,-0.50025 C 18.2995,5.723735 18.07614,5.5 17.8,5.5 h -3 c -0.27614,0 -0.49988,0.223735 -0.49988,0.499875 0,0.276141 0.22374,0.50025 0.49988,0.50025 z"
       id="path2"
       style="stroke-width:0.046875;fill:#d3dae3;fill-opacity:1" />
    <path
       d="m 19.7995,6.500125 c 0.27684,0 0.501,-0.224109 0.501,-0.50025 C 20.3005,5.723735 20.07634,5.5 19.7995,5.5 19.52411,5.5 19.3,5.723735 19.3,5.999875 c 0,0.276141 0.22411,0.50025 0.4995,0.50025 z"
       id="path4"
       style="stroke-width:0.046875;fill:#d3dae3;fill-opacity:1" />
    <path
       d="M 23.3005,13 V 5.999875 C 23.3005,4.895406 22.40472,4 21.2995,4 H 11.300125 C 10.195281,4 9.2998753,4.895406 9.2998753,5.999875 v 2.00025 c -0.276141,0 -0.499875,0.223735 -0.499875,0.499875 v 1.999875 c 0,0.27614 0.223734,0.50025 0.499875,0.50025 V 11.5 v 0 2.999999 0 11.5005 c 0,1.104469 0.8954057,1.9995 2.0002497,1.9995 H 21.2995 c 1.10522,0 2.001,-0.895031 2.001,-1.9995 v -10.0005 0 z M 11.300125,5.000125 H 21.2995 c 0.55223,0 1.0005,0.448594 1.0005,0.99975 V 7 h -12 V 5.999875 c 0,-0.551156 0.448594,-0.99975 1.000125,-0.99975 z M 10.3,23.000499 V 8.000125 h 12 v 15.000374 z m 10.9995,3.999 h -9.999375 c -0.551531,0 -1.000125,-0.448219 -1.000125,-0.999 v -2.001 h 12 v 2.001 c 0,0.550781 -0.44822,0.999 -1.0005,0.999 z"
       id="path6"
       sodipodi:nodetypes="csssscsscccccsssscccssssccscccccssssccs"
       style="fill:#d3dae3;stroke-width:0.046875;fill-opacity:1" />
    <path
       d="m 17.51434,24.249999 h -2.5005 c -0.69032,0 -1.24987,0.559594 -1.24987,1.2495 0,0.691406 0.55959,1.251 1.24987,1.251 h 2.5005 c 0.68996,0 1.2495,-0.559594 1.2495,-1.251 0,-0.689906 -0.55954,-1.2495 -1.2495,-1.2495 z m 0,1.5 h -2.5005 c -0.13771,0 -0.25012,-0.112078 -0.25012,-0.2505 0,-0.137719 0.11241,-0.249 0.25012,-0.249 h 2.5005 c 0.13772,0 0.249,0.111328 0.249,0.249 5e-5,0.138422 -0.11128,0.2505 -0.249,0.2505 z"
       id="path8"
       style="stroke-width:0.046875;fill:#d3dae3;fill-opacity:1" />
    <path
       class="fil1"
       d="m 11.447065,8.595906 h 9.685765 c 0.31597,0 0.57363,0.220468 0.57363,0.489974 v 12.861304 c 0,0.269503 -0.25811,0.489971 -0.57363,0.489971 h -9.685765 c -0.315519,0 -0.573631,-0.220084 -0.573631,-0.489971 V 9.08588 c 0,-0.269892 0.257662,-0.489974 0.573631,-0.489974 z"
       id="path8-3"
       style="opacity:0.4;fill:#005580;stroke-width:0.0417778;image-rendering:optimizeQuality;shape-rendering:geometricPrecision;text-rendering:geometricPrecision;fill-opacity:1" />
  </g>
  <g
     id="22-22-phone">
    <rect
       style="fill:#000000;fill-opacity:0;stroke:none"
       id="rect3841"
       width="22"
       height="22"
       x="4.5624752"
       y="38.781208" />
    <path
       d="m 14.562475,43.447958 h 2.000001 c 0.18409,0 0.332999,-0.149404 0.332999,-0.3335 0,-0.18409 -0.148909,-0.33325 -0.332999,-0.33325 h -2.000001 c -0.18409,0 -0.333255,0.14916 -0.333255,0.33325 0,0.184096 0.149165,0.3335 0.333255,0.3335 z"
       id="path2-3"
       style="stroke-width:0.0312501;fill:#d3dae3;fill-opacity:1" />
    <path
       d="m 17.895475,43.447958 c 0.18456,0 0.334,-0.149404 0.334,-0.3335 0,-0.18409 -0.14944,-0.33325 -0.334,-0.33325 -0.183594,0 -0.332999,0.14916 -0.332999,0.33325 0,0.184096 0.149405,0.3335 0.332999,0.3335 z"
       id="path4-6"
       style="stroke-width:0.0312501;fill:#d3dae3;fill-opacity:1" />
    <path
       d="m 20.229475,47.781209 v -4.666751 c 0,-0.736315 -0.597184,-1.33325 -1.334,-1.33325 h -6.66625 c -0.736565,0 -1.3335,0.596935 -1.3335,1.33325 v 1.3335 c -0.184091,0 -0.33325,0.14916 -0.33325,0.33325 v 1.333251 c 0,0.184094 0.149159,0.333499 0.33325,0.333499 v 0.33325 0 2 0 7.666999 c 0,0.736312 0.596935,1.333001 1.3335,1.333001 h 6.66625 c 0.736816,0 1.334,-0.596689 1.334,-1.333001 v -6.666999 0 z m -8.00025,-5.333251 h 6.66625 c 0.368156,0 0.667001,0.299065 0.667001,0.6665 v 0.66675 h -8.000001 v -0.66675 c 0,-0.367435 0.299065,-0.6665 0.66675,-0.6665 z m -0.66675,12.000249 V 44.447958 h 8.000001 v 10.000249 z m 7.333,2.666002 h -6.66625 c -0.367685,0 -0.66675,-0.298814 -0.66675,-0.666002 V 55.11421 h 8.000001 v 1.333997 c 0,0.367188 -0.298811,0.666002 -0.667001,0.666002 z"
       id="path6-7"
       sodipodi:nodetypes="csssscsscccccsssscccssssccscccccssssccs"
       style="fill:#d3dae3;stroke-width:0.0312501;fill-opacity:1" />
    <path
       d="m 16.372035,55.281208 h -1.667 c -0.460215,0 -0.833245,0.373061 -0.833245,0.833002 0,0.460935 0.37306,0.833997 0.833245,0.833997 h 1.667 c 0.459971,0 0.833001,-0.373062 0.833001,-0.833997 0,-0.459941 -0.37303,-0.833002 -0.833001,-0.833002 z m 0,1 h -1.667 c -0.09181,0 -0.166745,-0.0747 -0.166745,-0.166998 0,-0.09182 0.07496,-0.166003 0.166745,-0.166003 h 1.667 c 0.09182,0 0.166,0.07422 0.166,0.166003 4e-5,0.09228 -0.07419,0.166998 -0.166,0.166998 z"
       id="path8-5"
       style="stroke-width:0.0312501;fill:#d3dae3;fill-opacity:1" />
    <path
       class="fil1"
       d="m 12.32719,44.845145 h 6.457171 c 0.21065,0 0.382418,0.146982 0.382418,0.326648 v 8.574201 c 0,0.179674 -0.172064,0.326654 -0.382418,0.326654 H 12.32719 c -0.210354,0 -0.382425,-0.146722 -0.382425,-0.326654 v -8.574201 c 0,-0.179926 0.171771,-0.326648 0.382425,-0.326648 z"
       id="path8-3-3"
       style="opacity:0.4;fill:#005580;stroke-width:0.0278519;image-rendering:optimizeQuality;shape-rendering:geometricPrecision;text-rendering:geometricPrecision;fill-opacity:1" />
  </g>
  <g
     id="16-16-phone">
    <rect
       style="fill:#566060;fill-opacity:0;stroke:none"
       id="rect3889"
       width="16"
       height="16"
       x="7.5624762"
       y="73.281212"
       ry="2.9278411e-07" />
    <path
       d="m 14.812476,76.781277 h 1.500001 c 0.138059,0 0.249752,-0.11205 0.249752,-0.250136 0,-0.138059 -0.111693,-0.249932 -0.249752,-0.249932 h -1.500001 c -0.13806,0 -0.249937,0.111873 -0.249937,0.249932 0,0.138086 0.111877,0.250136 0.249937,0.250136 z"
       id="path2-3-5"
       style="stroke-width:0.0234381;fill:#d3dae3;fill-opacity:1" />
    <path
       d="m 17.312229,76.781277 c 0.138414,0 0.250494,-0.11205 0.250494,-0.250136 0,-0.138059 -0.11208,-0.249932 -0.250494,-0.249932 -0.137705,0 -0.249752,0.111873 -0.249752,0.249932 0,0.138086 0.112047,0.250136 0.249752,0.250136 z"
       id="path4-6-6"
       style="stroke-width:0.0234381;fill:#d3dae3;fill-opacity:1" />
    <path
       d="m 19.062723,80.03121 v -3.500069 c 0,-0.552235 -0.447879,-0.999932 -1.000494,-0.999932 h -4.999685 c -0.552435,0 -1.000136,0.447697 -1.000136,0.999932 v 1.000136 c -0.138059,0 -0.249932,0.111872 -0.249932,0.249932 v 0.999933 c 0,0.138084 0.111873,0.250135 0.249932,0.250135 v 0.249932 0 1.5 0 5.750247 c 0,0.552232 0.447701,0.999753 1.000136,0.999753 h 4.999685 c 0.552615,0 1.000494,-0.447521 1.000494,-0.999753 v -5.000247 0 z m -6.000179,-3.999933 h 4.999685 c 0.27612,0 0.500248,0.224299 0.500248,0.499864 v 0.500068 h -6.000001 v -0.500068 c 0,-0.275565 0.224303,-0.499864 0.500068,-0.499864 z m -0.500068,9.000179 v -7.500179 h 6.000001 v 7.500179 z m 5.499753,1.999506 h -4.999685 c -0.275765,0 -0.500068,-0.224118 -0.500068,-0.499506 v -1.000493 h 6.000001 v 1.000493 c 0,0.275388 -0.224101,0.499506 -0.500248,0.499506 z"
       id="path6-7-2"
       sodipodi:nodetypes="csssscsscccccsssscccssssccscccccssssccs"
       style="fill:#d3dae3;stroke-width:0.0234381;fill-opacity:1" />
    <path
       d="m 16.169643,85.656209 h -1.250247 c -0.345167,0 -0.624927,0.279789 -0.624927,0.624754 0,0.345703 0.279784,0.625493 0.624927,0.625493 h 1.250247 c 0.344973,0 0.624754,-0.27979 0.624754,-0.625493 0,-0.344965 -0.279781,-0.624754 -0.624754,-0.624754 z m 0,0.75 h -1.250247 c -0.06893,0 -0.125063,-0.05598 -0.125063,-0.125246 0,-0.06894 0.05616,-0.124507 0.125063,-0.124507 h 1.250247 c 0.06894,0 0.124506,0.05574 0.124506,0.124507 2.7e-5,0.06916 -0.05571,0.125246 -0.124506,0.125246 z"
       id="path8-5-9"
       style="stroke-width:0.0234381;fill:#d3dae3;fill-opacity:1" />
    <path
       class="fil1"
       d="m 13.136016,77.829154 h 4.842868 c 0.158,0 0.286816,0.110248 0.286816,0.244998 v 6.430643 c 0,0.134754 -0.129044,0.244994 -0.286816,0.244994 h -4.842868 c -0.157773,0 -0.286818,-0.11004 -0.286818,-0.244994 v -6.430643 c 0,-0.134956 0.128819,-0.244998 0.286818,-0.244998 z"
       id="path8-3-3-1"
       style="opacity:0.4;fill:#005580;stroke-width:0.0208887;image-rendering:optimizeQuality;shape-rendering:geometricPrecision;text-rendering:geometricPrecision;fill-opacity:1" />
  </g>
  <g
     id="phone-battery">
    <rect
       style="opacity:0.01;fill:#eff0f1;fill-opacity:0;stroke:none"
       id="rect3038"
       y="-2.8146974e-06"
       x="52"
       ry="0"
       rx="0"
       height="31.999973"
       width="32.000015" />
    <path
       sodipodi:nodetypes="ccccccc"
       inkscape:connector-curvature="0"
       id="path4444"
       d="m 69.513561,9.454587 -4.363559,6.5454 h 2.181719 v 5.4546 l 4.36356,-6.54552 h -2.18172 z"
       style="color:#7b7c7e;fill:#ff557f;fill-opacity:1;fill-rule:evenodd;stroke:none"
       class="ColorScheme-Text" />
    <path
       d="m 67.000002,6.500125 h 3 c 0.27614,0 0.4995,-0.224109 0.4995,-0.50025 0,-0.27614 -0.22336,-0.499875 -0.4995,-0.499875 h -3 c -0.27614,0 -0.49988,0.223735 -0.49988,0.499875 0,0.276141 0.22374,0.50025 0.49988,0.50025 z"
       id="path2-2"
       style="fill:#d3dae3;fill-opacity:1;stroke-width:0.046875" />
    <path
       d="m 71.999502,6.500125 c 0.27684,0 0.501,-0.224109 0.501,-0.50025 0,-0.27614 -0.22416,-0.499875 -0.501,-0.499875 -0.27539,0 -0.4995,0.223735 -0.4995,0.499875 0,0.276141 0.22411,0.50025 0.4995,0.50025 z"
       id="path4-7"
       style="fill:#d3dae3;fill-opacity:1;stroke-width:0.046875" />
    <path
       d="M 75.500502,13 V 5.999875 C 75.500502,4.895406 74.604722,4 73.499502,4 h -9.999375 c -1.104844,0 -2.00025,0.895406 -2.00025,1.999875 v 2.00025 c -0.276141,0 -0.499875,0.223735 -0.499875,0.499875 v 1.999875 c 0,0.27614 0.223734,0.50025 0.499875,0.50025 V 11.5 v 0 2.999999 0 11.5005 c 0,1.104469 0.895406,1.9995 2.00025,1.9995 h 9.999375 c 1.10522,0 2.001,-0.895031 2.001,-1.9995 v -10.0005 0 z M 63.500127,5.000125 h 9.999375 c 0.55223,0 1.0005,0.448594 1.0005,0.99975 V 7 h -12 V 5.999875 c 0,-0.551156 0.448594,-0.99975 1.000125,-0.99975 z M 62.500002,23.000499 V 8.000125 h 12 v 15.000374 z m 10.9995,3.999 h -9.999375 c -0.551531,0 -1.000125,-0.448219 -1.000125,-0.999 v -2.001 h 12 v 2.001 c 0,0.550781 -0.44822,0.999 -1.0005,0.999 z"
       id="path6-0"
       sodipodi:nodetypes="csssscsscccccsssscccssssccscccccssssccs"
       style="fill:#d3dae3;fill-opacity:1;stroke-width:0.046875" />
    <path
       d="m 69.714342,24.249999 h -2.5005 c -0.69032,0 -1.24987,0.559594 -1.24987,1.2495 0,0.691406 0.55959,1.251 1.24987,1.251 h 2.5005 c 0.68996,0 1.2495,-0.559594 1.2495,-1.251 0,-0.689906 -0.55954,-1.2495 -1.2495,-1.2495 z m 0,1.5 h -2.5005 c -0.13771,0 -0.25012,-0.112078 -0.25012,-0.2505 0,-0.137719 0.11241,-0.249 0.25012,-0.249 h 2.5005 c 0.13772,0 0.249,0.111328 0.249,0.249 5e-5,0.138422 -0.11128,0.2505 -0.249,0.2505 z"
       id="path8-9"
       style="fill:#d3dae3;fill-opacity:1;stroke-width:0.046875" />
  </g>
  <g
     id="22-22-phone-battery">
    <rect
       y="38.781208"
       x="56.562481"
       height="22"
       width="22"
       id="rect3054"
       style="fill:#000000;fill-opacity:0;stroke:none" />
    <path
       sodipodi:nodetypes="ccccccc"
       inkscape:connector-curvature="0"
       id="path4444-0"
       d="m 68.338189,45.518 -2.90905,4.363588 h 1.45449 V 53.518 l 2.909029,-4.36368 h -1.454469 z"
       style="color:#7b7c7e;fill:#ff557f;fill-opacity:1;fill-rule:evenodd;stroke:none;stroke-width:0.666659"
       class="ColorScheme-Text" />
    <path
       d="m 66.662479,43.447963 h 2 c 0.184084,0 0.333002,-0.149402 0.333002,-0.33351 0,-0.184083 -0.148918,-0.333245 -0.333002,-0.333245 h -2 c -0.184083,0 -0.33325,0.149162 -0.33325,0.333245 0,0.184108 0.149167,0.33351 0.33325,0.33351 z"
       id="path2-2-6"
       style="fill:#d3dae3;fill-opacity:1;stroke-width:0.0312506" />
    <path
       d="m 69.995481,43.447963 c 0.184556,0 0.333996,-0.149402 0.333996,-0.33351 0,-0.184083 -0.14944,-0.333245 -0.333996,-0.333245 -0.183601,0 -0.333002,0.149162 -0.333002,0.333245 0,0.184108 0.149401,0.33351 0.333002,0.33351 z"
       id="path4-7-2"
       style="fill:#d3dae3;fill-opacity:1;stroke-width:0.0312506" />
    <path
       d="m 72.329477,47.781208 v -4.666755 c 0,-0.736315 -0.597177,-1.333245 -1.333996,-1.333245 h -6.666247 c -0.736575,0 -1.33351,0.59693 -1.33351,1.333245 v 1.33351 c -0.184084,0 -0.333245,0.149162 -0.333245,0.333245 v 1.333245 c 0,0.184107 0.149161,0.33351 0.333245,0.33351 v 0.333245 0 1.999999 0 7.666999 c 0,0.73631 0.596935,1.333002 1.33351,1.333002 h 6.666247 c 0.736819,0 1.333996,-0.596692 1.333996,-1.333002 v -6.666998 0 z m -8.000243,-5.333245 h 6.666247 c 0.368158,0 0.666999,0.299065 0.666999,0.66649 v 0.666755 h -8.000001 v -0.666755 c 0,-0.367425 0.29907,-0.66649 0.666755,-0.66649 z M 63.662479,54.448206 V 44.447963 h 8.000001 v 10.000243 z m 7.333002,2.666004 h -6.666247 c -0.367685,0 -0.666755,-0.298822 -0.666755,-0.666004 V 55.11421 h 8.000001 v 1.333996 c 0,0.367182 -0.298804,0.666004 -0.666999,0.666004 z"
       id="path6-0-6"
       sodipodi:nodetypes="csssscsscccccsssscccssssccscccccssssccs"
       style="fill:#d3dae3;fill-opacity:1;stroke-width:0.0312506" />
    <path
       d="m 68.472037,55.281208 h -1.666998 c -0.46022,0 -0.83324,0.373053 -0.83324,0.833002 0,0.460941 0.37305,0.833996 0.83324,0.833996 h 1.666998 c 0.459966,0 0.833002,-0.373055 0.833002,-0.833996 0,-0.459949 -0.373036,-0.833002 -0.833002,-0.833002 z m 0,1 h -1.666998 c -0.09183,0 -0.16675,-0.07467 -0.16675,-0.166998 0,-0.09183 0.0749,-0.166004 0.16675,-0.166004 h 1.666998 c 0.09183,0 0.166004,0.07429 0.166004,0.166004 3.8e-5,0.09227 -0.07425,0.166998 -0.166004,0.166998 z"
       id="path8-9-1"
       style="fill:#d3dae3;fill-opacity:1;stroke-width:0.0312506" />
  </g>
  <g
     id="16-16-phone-battery">
    <path
       d="m 68.269643,85.464352 h -1.25025 c -0.345168,0 -0.624931,0.279785 -0.624931,0.62475 0,0.34571 0.279787,0.6255 0.624931,0.6255 h 1.25025 c 0.34497,0 0.62475,-0.27979 0.62475,-0.6255 0,-0.344965 -0.27978,-0.62475 -0.62475,-0.62475 z m 0,0.75 h -1.25025 c -0.06891,0 -0.125064,-0.05599 -0.125064,-0.12525 0,-0.06891 0.05616,-0.1245 0.125064,-0.1245 h 1.25025 c 0.06891,0 0.1245,0.05577 0.1245,0.1245 3e-5,0.06919 -0.05573,0.12525 -0.1245,0.12525 z"
       id="path8-9-1-2"
       style="fill:#d3dae3;fill-opacity:1;stroke-width:0.023438" />
    <rect
       ry="2.9278411e-07"
       y="73.281212"
       x="59.562473"
       height="16"
       width="16"
       id="rect3060"
       style="fill:#566060;fill-opacity:0;stroke:none" />
    <path
       sodipodi:nodetypes="ccccccc"
       inkscape:connector-curvature="0"
       id="path4444-0-7"
       d="m 68.169257,78.066652 -2.181792,3.272688 h 1.090872 v 2.727312 l 2.181767,-3.27276 h -1.090847 z"
       style="color:#7b7c7e;fill:#ff557f;fill-opacity:1;fill-rule:evenodd;stroke:none;stroke-width:0.499991"
       class="ColorScheme-Text" />
    <path
       d="m 66.912473,76.589421 h 1.5 c 0.13806,0 0.24975,-0.112049 0.24975,-0.250138 0,-0.138061 -0.11169,-0.249931 -0.24975,-0.249931 h -1.5 c -0.13806,0 -0.249936,0.11187 -0.249936,0.249931 0,0.138089 0.111876,0.250138 0.249936,0.250138 z"
       id="path2-2-6-9"
       style="fill:#d3dae3;fill-opacity:1;stroke-width:0.023438" />
    <path
       d="m 69.412223,76.589421 c 0.13842,0 0.2505,-0.112049 0.2505,-0.250138 0,-0.138061 -0.11208,-0.249931 -0.2505,-0.249931 -0.137699,0 -0.24975,0.11187 -0.24975,0.249931 0,0.138089 0.112051,0.250138 0.24975,0.250138 z"
       id="path4-7-2-2"
       style="fill:url(#linearGradient879);fill-opacity:1;stroke-width:0.023438" />
    <path
       d="m 71.162723,79.839352 v -3.500069 c 0,-0.552235 -0.447881,-0.999931 -1.0005,-0.999931 h -4.999681 c -0.552437,0 -1.000138,0.447696 -1.000138,0.999931 v 1.000138 c -0.138062,0 -0.249931,0.111871 -0.249931,0.249931 v 0.999931 c 0,0.138089 0.111869,0.250138 0.249931,0.250138 v 0.249931 0 1.499999 0 5.750251 c 0,0.55223 0.447701,0.99975 1.000138,0.99975 h 4.999681 c 0.552619,0 1.0005,-0.44752 1.0005,-0.99975 v -5.00025 0 z m -6.000181,-3.999931 h 4.999681 c 0.276119,0 0.500251,0.224299 0.500251,0.499862 v 0.500069 h -6.000001 v -0.500069 c 0,-0.275563 0.224304,-0.499862 0.500069,-0.499862 z m -0.500069,9.000181 v -7.500181 h 6.000001 v 7.500181 z m 5.49975,1.9995 h -4.999681 c -0.275765,0 -0.500069,-0.224118 -0.500069,-0.4995 v -1.0005 h 6.000001 v 1.0005 c 0,0.275382 -0.224101,0.4995 -0.500251,0.4995 z"
       id="path6-0-6-0"
       sodipodi:nodetypes="csssscsscccccsssscccssssccscccccssssccs"
       style="fill:#d3dae3;fill-opacity:1;stroke-width:0.023438" />
  </g>
</svg>
