<?xml version="1.0" encoding="UTF-8" standalone="no"?>
<svg
   xmlns:dc="http://purl.org/dc/elements/1.1/"
   xmlns:cc="http://creativecommons.org/ns#"
   xmlns:rdf="http://www.w3.org/1999/02/22-rdf-syntax-ns#"
   xmlns:svg="http://www.w3.org/2000/svg"
   xmlns="http://www.w3.org/2000/svg"
   xmlns:sodipodi="http://sodipodi.sourceforge.net/DTD/sodipodi-0.dtd"
   xmlns:inkscape="http://www.inkscape.org/namespaces/inkscape"
   width="32"
   height="32"
   x="0"
   y="0"
   version="1.1"
   xml:space="preserve"
   id="svg16"
   sodipodi:docname="thunderbird.svg"
   inkscape:version="1.0.2 (e86c870879, 2021-01-15)"><metadata
   id="metadata22"><rdf:RDF><cc:Work
       rdf:about=""><dc:format>image/svg+xml</dc:format><dc:type
         rdf:resource="http://purl.org/dc/dcmitype/StillImage" /></cc:Work></rdf:RDF></metadata><defs
   id="defs20">
  </defs><sodipodi:namedview
   pagecolor="#ffffff"
   bordercolor="#666666"
   borderopacity="1"
   objecttolerance="10"
   gridtolerance="10"
   guidetolerance="10"
   inkscape:pageopacity="0"
   inkscape:pageshadow="2"
   inkscape:window-width="1920"
   inkscape:window-height="1007"
   id="namedview18"
   showgrid="false"
   inkscape:zoom="9.8125"
   inkscape:cx="13.726816"
   inkscape:cy="19.161783"
   inkscape:window-x="0"
   inkscape:window-y="0"
   inkscape:window-maximized="1"
   inkscape:current-layer="svg16"
   inkscape:document-rotation="0"><inkscape:grid
     type="xygrid"
     id="grid904"
     originx="0"
     originy="0" /></sodipodi:namedview>
 <g
   id="thunderbird"><g
     id="g944"><rect
       style="opacity:0.00100002"
       width="32"
       height="32"
       x="0"
       y="0"
       id="rect9" /><path
       d="M 13.085396,4.2500335 C 12.365656,4.62423 11.751464,5.1039754 11.147068,5.7757169 10.715322,6.2459115 10.350676,6.5241099 9.5444884,6.965652 6.9246231,8.4242347 5.5524876,9.9883663 4.784748,12.396889 c -0.297545,0.921287 -0.3837473,3.694456 -0.1535479,4.98994 0.5948451,3.435359 2.638967,6.342973 5.3641363,7.638457 0.4892966,0.230445 0.6046406,0.249546 0.6237426,0.134447 0.03845,-0.182446 0.191996,-0.182446 0.652395,0.0096 0.412645,0.163099 0.383747,0.134447 -0.239995,-0.345299 -0.527745,-0.403094 -0.911737,-0.930838 -1.1419364,-1.573682 -0.4030939,-1.074591 -0.3741965,-1.12259 0.2879944,-0.575744 0.652395,0.556642 1.89988,1.093937 1.89988,0.82529 0,-0.03845 -0.105549,-0.220649 -0.239995,-0.403094 -0.287995,-0.383747 -0.297545,-0.479745 -0.0671,-0.479745 0.201547,0 7.321811,2.389421 7.446461,2.50452 0.220894,0.191996 -0.796392,1.122835 -2.341422,2.139875 -0.623742,0.412645 -0.767739,0.546846 -0.642844,0.594845 0.355095,0.134447 2.466073,-0.249546 3.291362,-0.594845 0.76774,-0.326442 0.614192,-0.048 -0.249546,0.441297 l -0.527254,0.297301 0.431746,-0.0671 c 1.237689,-0.182445 2.446971,-0.729291 3.339361,-1.506582 0.345544,-0.297545 0.671741,-0.508643 0.748393,-0.479745 0.297545,0.115099 2.178323,-2.149426 2.773168,-3.32981 0.518194,-1.045938 0.94994,-2.475869 1.266587,-4.174202 0.1822,-1.026836 0.211098,-4.155099 0.03845,-5.133936 C 26.970829,11.2263 25.694447,9.009529 24.130315,7.714045 23.084377,6.8598582 20.800505,5.8043694 19.293924,5.4972736 c -1.324382,-0.2781985 -4.164651,-0.2781985 -5.345035,0 l -0.287994,0.067101 0.326197,-0.3550949 C 14.457287,4.7199832 14.284637,4.6719842 13.660895,5.1132814 12.864503,5.6699232 12.557407,5.8521235 12.490061,5.7850229 12.41341,5.7081265 12.873809,5.1132814 13.488,4.4990897 13.910196,4.0768942 13.948644,3.9999978 13.77575,3.9999978 13.66114,4.0004876 13.354044,4.1155873 13.085396,4.2500335 Z M 8.8054013,10.765657 c 0.1535479,0.07665 0.3261975,0.268647 0.3837473,0.441297 0.2110978,0.594845 0.086447,1.813677 -0.1822004,1.813677 -0.05755,0 -0.3837473,-0.431746 -0.7292913,-0.969286 -0.5661926,-0.863738 -0.6237425,-0.988388 -0.5277444,-1.199486 0.076896,-0.1822 0.1728944,-0.230199 0.441542,-0.230199 0.1917513,0 0.4699497,0.06734 0.6139468,0.143997 z m 2.9651647,0.345544 c 0.03845,0.451093 -0.182446,0.681292 -0.594845,0.642844 -0.239995,-0.0191 -0.307096,-0.07665 -0.326198,-0.278199 -0.03845,-0.355094 0.316647,-0.77729 0.642844,-0.738842 0.211098,0.02865 0.249546,0.07665 0.278199,0.374197 z m -3.4258084,1.650334 c 0.3166466,0.470194 0.6141916,1.045938 0.6717415,1.276382 0.086447,0.316647 0.1726495,0.460644 0.3357483,0.518194 0.2399951,0.096 0.5181936,0.460643 1.9383276,2.542968 0.71019,1.036388 0.892391,1.247485 1.074836,1.218588 0.1151,-0.0096 1.516132,-0.53754 3.109161,-1.161283 3.579356,-1.410583 4.491093,-1.746332 4.826841,-1.765678 l 0.268648,-0.0191 -0.0096,1.103488 c 0,0.901941 -0.0382,1.209037 -0.220648,1.679231 -0.374197,1.017041 -0.374197,0.94994 0.048,0.76774 0.489541,-0.201547 1.103487,-0.681292 1.42993,-1.122834 0.153548,-0.191997 0.316647,-0.335749 0.364646,-0.297545 0.249545,0.153547 -0.326198,2.638967 -1.055489,4.490847 -0.182446,0.470195 -0.556642,1.266587 -0.82529,1.746577 -0.575743,1.074836 -0.489541,1.055489 -2.235873,0.499092 C 15.74371,23.508909 7.2319638,20.668395 6.9824178,20.543744 6.7808709,20.447746 6.675322,20.25575 6.4835708,19.622457 6.1955766,18.720516 5.9844788,17.617028 5.8789299,16.570845 l -0.067101,-0.71974 0.5372952,0.499092 c 0.297545,0.278198 0.6141917,0.508642 0.7197405,0.508642 0.1726496,0 0.1630988,-0.03845 -0.05755,-0.700394 -0.4126447,-1.189935 -0.297545,-3.281811 0.2399951,-4.318198 0.1342014,-0.268647 0.1439971,-0.268647 0.3357483,-0.096 0.105304,0.09624 0.4506031,0.556887 0.757699,1.017286 z m 6.7845154,-0.89239 c 1.525684,0.172649 4.452645,0.786841 4.634845,0.969286 0.191996,0.191996 0.690843,1.698578 0.604396,1.832779 -0.02865,0.03845 -0.191996,0.153548 -0.355095,0.239995 -0.594845,0.307096 -7.600009,3.070714 -7.705558,3.032266 -0.105549,-0.03845 -2.130324,-3.051612 -2.389421,-3.56001 -0.201547,-0.412645 -0.1535479,-0.518194 0.316647,-0.76774 0.211097,-0.105548 0.585294,-0.355094 0.844391,-0.547091 0.53754,-0.412644 0.911736,-0.60464 1.813677,-0.940389 1.055734,-0.383747 1.103733,-0.393298 2.236118,-0.259096 z"
       id="path4-6"
       style="fill:#d3dae3;fill-opacity:1;stroke-width:0.00244893"
       inkscape:connector-curvature="0" /></g></g><g
   id="22-22-thunderbird"
   transform="translate(32,10)"><g
     id="g931"><rect
       style="opacity:0.00100002"
       width="22"
       height="22"
       x="0"
       y="0"
       id="rect2" /><path
       d="M 9.0235854,3.166595 C 8.5437594,3.416067 8.1342995,3.735894 7.7313665,4.183715 7.4435394,4.497186 7.2004344,4.682649 6.6629734,4.977006 c -1.746573,0.972387 -2.661317,2.015134 -3.17314,3.6208201 -0.198376,0.614182 -0.255833,2.4629569 -0.102376,3.3266109 0.396574,2.290232 1.759315,4.22864 3.5760911,5.092295 0.326186,0.15363 0.403092,0.166363 0.4158308,0.08963 0.02565,-0.12163 0.1279951,-0.12163 0.4349292,0.0065 0.2750849,0.108731 0.2558289,0.08963 -0.1599951,-0.230201 -0.351833,-0.268727 -0.607833,-0.620554 -0.7612919,-1.04912 -0.2687391,-0.716384 -0.2494631,-0.748383 0.1919949,-0.383826 0.434918,0.371096 1.2665831,0.729287 1.2665831,0.550194 0,-0.02564 -0.07035,-0.147099 -0.16,-0.268734 -0.1919991,-0.255829 -0.198366,-0.319827 -0.0447,-0.319827 0.1343609,0 4.8811865,1.592942 4.9642865,1.669678 0.147269,0.127997 -0.530927,0.748554 -1.560939,1.42658 -0.415821,0.275093 -0.511817,0.364563 -0.428562,0.396561 0.236733,0.08963 1.644043,-0.166363 2.194237,-0.396561 0.511831,-0.217628 0.409454,-0.032 -0.166366,0.294196 l -0.351505,0.1982 0.287833,-0.04473 c 0.825125,-0.121628 1.631317,-0.486192 2.226237,-1.004384 0.23036,-0.198364 0.447821,-0.339097 0.49893,-0.319831 0.198355,0.07673 1.452216,-1.432946 1.848766,-2.219874 0.345469,-0.69729 0.633294,-1.650572 0.844399,-2.782784 0.121464,-0.684569 0.140721,-2.7700669 0.02565,-3.42262 C 18.28057,7.817562 17.429654,6.3397261 16.386902,5.4760731 15.689606,4.906614 14.167033,4.202958 13.162648,3.99822 c -0.882913,-0.185466 -2.776433,-0.185466 -3.5633485,0 L 9.4073044,4.04292 9.6247624,3.806183 C 9.938229,3.479986 9.823131,3.447987 9.4073044,3.742183 8.8763824,4.113281 8.6716423,4.234751 8.6267515,4.190007 8.5757014,4.138707 8.8825794,3.742183 9.2920454,3.33272 9.5735093,3.051272 9.5991365,3 9.4838775,3 9.4074974,3.00033 9.2027323,3.07709 9.0236394,3.166685 Z m -2.853323,4.343746 c 0.1023529,0.05105 0.217459,0.1790891 0.2558301,0.2941981 0.1407209,0.3965509 0.05765,1.2091129 -0.1214772,1.2091129 -0.03835,0 -0.2558299,-0.287829 -0.486182,-0.646191 C 5.4409705,7.791635 5.4026014,7.708541 5.4666014,7.567802 c 0.0513,-0.12146 0.1152539,-0.15346 0.294359,-0.15346 0.127831,0 0.313305,0.04495 0.409302,0.095999 z m 1.976762,0.230362 C 8.1726745,8.041422 8.0253954,8.1948881 7.7504755,8.169255 7.5904804,8.156555 7.5457294,8.1182051 7.5330003,7.9837941 7.5073504,7.747059 7.7440934,7.465602 7.9615584,7.4912311 c 0.140742,0.01905 0.166361,0.05105 0.185466,0.2494719 z M 5.8631593,8.8409181 c 0.2111061,0.313458 0.409456,0.6972879 0.4478251,0.850916 0.05765,0.2111059 0.1151081,0.3071039 0.223829,0.3454589 0.159998,0.064 0.3454651,0.307104 1.2922209,1.695309 0.4734651,0.690926 0.5949272,0.831662 0.7165652,0.812396 0.07671,-0.0072 1.0107389,-0.358358 2.0727595,-0.774183 2.386236,-0.940397 2.994056,-1.164224 3.217891,-1.177115 l 0.179098,-0.0127 -0.0072,0.735654 c 0,0.601298 -0.0254,0.806027 -0.1471,1.11949 -0.249462,0.678029 -0.249462,0.633288 0.032,0.511822 0.326361,-0.134369 0.735655,-0.454197 0.953283,-0.748555 0.102367,-0.127996 0.2111,-0.223829 0.243099,-0.198356 0.166366,0.102359 -0.217465,1.759303 -0.70366,2.99389 -0.121627,0.31346 -0.371091,0.844385 -0.550191,1.164377 -0.383827,0.716557 -0.326359,0.70366 -1.490577,0.332729 -1.547986,-0.486194 -7.2224686,-2.379867 -7.3888316,-2.462968 -0.134363,-0.064 -0.20473,-0.191997 -0.332564,-0.61419 -0.191994,-0.601297 -0.332727,-1.336948 -0.403092,-2.034407 l -0.0447,-0.479821 0.358195,0.332732 c 0.198363,0.185461 0.409459,0.339084 0.479823,0.339084 0.115101,0 0.108735,-0.02565 -0.03835,-0.46692 -0.2750931,-0.793286 -0.1983631,-2.187867 0.1599958,-2.878796 0.08945,-0.1790949 0.096,-0.1790949 0.223833,-0.064 0.07015,0.06424 0.3004011,0.371261 0.5051311,0.678191 z m 4.5229987,-0.594923 c 1.01712,0.115092 2.968428,0.5245529 3.089895,0.6461809 0.127997,0.1279971 0.46055,1.132391 0.402923,1.221854 -0.01905,0.02565 -0.127996,0.10237 -0.236723,0.159998 C 13.245681,10.47876 8.5755995,12.32117 8.5052205,12.295529 8.4348704,12.269879 7.0850164,10.261127 6.9122785,9.9221961 6.7779145,9.647108 6.8099134,9.576741 7.1233844,9.4103699 7.2641073,9.34002 7.5135664,9.173647 7.6863125,9.045651 8.0446674,8.770548 8.2941294,8.6425521 8.8954244,8.4187231 9.5992404,8.162889 9.6312404,8.156528 10.386158,8.2459951 Z"
       id="path4-6-7"
       style="fill:#d3dae3;fill-opacity:1;stroke-width:0.00163266"
       inkscape:connector-curvature="0" /></g></g></svg>
