<?xml version="1.0" encoding="UTF-8" standalone="no"?>
<svg
   xmlns:dc="http://purl.org/dc/elements/1.1/"
   xmlns:cc="http://creativecommons.org/ns#"
   xmlns:rdf="http://www.w3.org/1999/02/22-rdf-syntax-ns#"
   xmlns:svg="http://www.w3.org/2000/svg"
   xmlns="http://www.w3.org/2000/svg"
   xmlns:sodipodi="http://sodipodi.sourceforge.net/DTD/sodipodi-0.dtd"
   xmlns:inkscape="http://www.inkscape.org/namespaces/inkscape"
   width="32"
   height="32"
   version="1.1"
   id="svg22"
   sodipodi:docname="mail.svg"
   inkscape:version="1.0.2 (e86c870879, 2021-01-15)">
  <g
     id="22-22-mail-unread-new"
     transform="translate(32,-22)">
    <rect
       style="opacity:0.00100002"
       width="22"
       height="22"
       x="0"
       y="0"
       id="rect2" />
    <path
       d="m 1.516459,5.27477 c 0,0.123699 0.04954,0.247398 0.123711,0.32162 l 4.329747,4.775083 c 0.173191,0.197948 0.494823,0.222691 0.692753,0.02471 0.197938,-0.17319 0.222677,-0.494841 0.02469,-0.692767 L 2.382363,4.953061 C 2.209171,4.755138 1.887531,4.730402 1.689595,4.928371 1.565902,5.002601 1.516406,5.151031 1.516406,5.274754 Z"
       id="path8-7-7-3-2-8"
       style="fill:#0094b2;fill-opacity:1;stroke-width:0.247417" />
    <path
       inkscape:connector-curvature="0"
       id="path4252-3-3-0-5-5-7-7"
       style="font-style:normal;font-variant:normal;font-weight:normal;font-stretch:normal;font-size:18.5263px;line-height:125%;font-family:'Product Sans';-inkscape-font-specification:'Product Sans';letter-spacing:0px;word-spacing:0px;fill:#0094b2;fill-opacity:1;stroke:none;stroke-width:0.28105;stroke-linecap:butt;stroke-linejoin:miter;stroke-miterlimit:4;stroke-dasharray:none;stroke-opacity:0.85"
       d="m 11.323101,6.9 q 1.892305,0 3.184611,1.31732 Q 15.8,9.534728 15.8,11.399947 q 0,1.049283 -0.449975,1.73708 -0.438461,0.687859 -1.280765,0.687859 -0.865455,0 -1.292324,-0.851052 -0.565427,0.851052 -1.615392,0.851052 -0.946198,0 -1.592294,-0.664495 -0.6461848,-0.676193 -0.6461848,-1.713735 0,-1.025883 0.6461848,-1.702148 0.646096,-0.676121 1.546123,-0.676121 0.888486,0 1.476945,0.687858 h 0.04614 V 9.231634 h 0.830764 v 3.042741 q 0,0.303085 0.161543,0.547879 0.173044,0.244796 0.519257,0.244796 0.819218,0 0.819218,-1.667103 0,-1.538833 -1.061546,-2.59969 -1.061569,-1.0608936 -2.584616,-1.0608936 -1.523063,0 -2.5846703,1.0608936 -1.0615033,1.060857 -1.0615033,2.59969 0,1.538929 1.0615033,2.599812 1.0616073,1.060814 2.5846703,1.060814 0.819197,0 1.465345,-0.326382 l 0.323111,0.792746 Q 12.303815,15.9 11.323082,15.9 9.4077206,15.9 8.103819,14.594267 6.8,13.276942 6.8,11.399947 6.8,9.534728 8.1038244,8.21732 9.419249,6.9 11.323132,6.9 Z m -1.0731,5.630835 q 0.41541,0.408041 0.992315,0.408041 0.57692,0 0.980773,-0.408041 0.415409,-0.408041 0.415409,-1.084179 0,-0.676219 -0.415409,-1.084206 -0.403853,-0.40804 -0.980773,-0.40804 -0.576905,0 -0.992315,0.40804 -0.40385,0.407987 -0.40385,1.084206 0,0.676138 0.40385,1.084179 z" />
    <path
       d="M 20.97585,4 H 1.182762 C 0.917238,4 0.7,4.217238 0.7,4.482761 V 17.51724 C 0.7,17.782761 0.917238,18 1.182762,18 H 20.97585 c 0.265547,0 0.482753,-0.217239 0.482753,-0.48276 V 4.482761 C 21.458603,4.217238 21.241397,4 20.97585,4 Z M 20.493107,17.03449 H 1.66551 V 4.96551 h 18.827597 z"
       id="path2-1-3-6-9-9"
       style="fill:#0094b2;fill-opacity:1;stroke-width:0.24139" />
    <path
       d="m 16.030597,10.386527 c 0.197921,0.173192 0.51957,0.173192 0.692753,-0.02469 l 4.329747,-4.750341 c 0.07423,-0.09897 0.123695,-0.22268 0.123695,-0.32164 0,-0.123706 -0.04955,-0.272153 -0.173189,-0.371115 C 20.805672,4.745545 20.48403,4.745545 20.31085,4.943431 l -4.329747,4.750338 c -0.173193,0.197927 -0.173193,0.494839 0.04956,0.692767 z"
       id="path6-2-6-2-1-2"
       style="fill:#0094b2;fill-opacity:1;stroke-width:0.247417" />
  </g>
  <g
     id="mail-unread-new"
     transform="translate(0,-32)">
    <rect
       style="opacity:0.00100002"
       width="32"
       height="32"
       x="0"
       y="0"
       id="rect7-5" />
    <path
       d="m 2.366379,7.821085 c 0,0.176724 0.07069,0.353448 0.176725,0.459484 l 6.185344,6.821549 c 0.247415,0.282758 0.706897,0.318106 0.989656,0.03536 0.282759,-0.247414 0.318103,-0.706901 0.03534,-0.989654 L 3.603443,7.361602 C 3.35603,7.078843 2.896547,7.043499 2.613788,7.326262 2.437064,7.432296 2.366374,7.644365 2.366374,7.821088 Z"
       id="path8-7-7-0"
       style="fill:#0094b2;fill-opacity:1;stroke-width:0.35345" />
    <path
       inkscape:connector-curvature="0"
       id="path4252-3-3-0-5-9"
       style="font-style:normal;font-variant:normal;font-weight:normal;font-stretch:normal;font-size:18.5263px;line-height:125%;font-family:'Product Sans';-inkscape-font-specification:'Product Sans';letter-spacing:0px;word-spacing:0px;fill:#0094b2;fill-opacity:1;stroke:none;stroke-width:0.412214;stroke-linecap:butt;stroke-linejoin:miter;stroke-miterlimit:4;stroke-dasharray:none;stroke-opacity:0.85"
       d="m 16.433802,10.2 q 2.775387,0 4.670828,1.932081 Q 23,14.064285 23,16.799949 q 0,1.53893 -0.659969,2.547701 -0.643074,1.008834 -1.878493,1.008834 -1.269332,0 -1.895432,-1.248187 -0.829277,1.248187 -2.369278,1.248187 -1.387767,0 -2.335382,-0.974583 -0.947761,-0.991775 -0.947761,-2.513474 0,-1.50464 0.947761,-2.496482 0.947615,-0.99165 2.267678,-0.99165 1.303125,0 2.166209,1.008866 h 0.06789 v -0.769425 h 1.218463 v 4.462666 q 0,0.444551 0.236932,0.803579 0.253799,0.359012 0.761589,0.359012 1.201533,0 1.201533,-2.445044 0,-2.256964 -1.556956,-3.812914 -1.556993,-1.555951 -3.790825,-1.555951 -2.23386,0 -3.790909,1.555951 -1.556886,1.55595 -1.556886,3.812914 0,2.257073 1.556886,3.813018 1.557049,1.555865 3.790909,1.555865 1.201515,0 2.149202,-0.478709 l 0.473906,1.162689 Q 17.872388,23.4 16.433967,23.4 13.62472,23.4 11.712311,21.484931 9.8,19.552847 9.8,16.799949 9.8,14.064285 11.712311,12.132081 13.64157,10.2 16.433966,10.2 Z m -1.573909,8.258569 q 0.609284,0.598453 1.455408,0.598453 0.846159,0 1.438492,-0.598453 0.609263,-0.598488 0.609263,-1.590142 0,-0.991805 -0.609263,-1.590173 -0.592333,-0.598449 -1.438492,-0.598449 -0.846124,0 -1.455408,0.598449 -0.592334,0.598368 -0.592334,1.590173 0,0.991654 0.592334,1.590142 z" />
    <path
       d="M 30.165502,6 H 1.889657 C 1.510343,6 1.2,6.310343 1.2,6.689656 V 25.310345 C 1.2,25.689656 1.510343,26 1.889657,26 h 28.275845 c 0.37935,0 0.68965,-0.310344 0.68965,-0.689655 V 6.689656 C 30.855152,6.310343 30.544852,6 30.165502,6 Z m -0.68964,18.620693 H 2.579308 V 7.379308 h 26.896554 z"
       id="path2-1-3-3"
       style="fill:#0094b2;fill-opacity:1;stroke-width:0.34483" />
    <path
       d="m 23.100842,15.123607 c 0.282756,0.247412 0.74224,0.247412 0.98965,-0.03534 l 6.18535,-6.786203 c 0.10603,-0.141379 0.17673,-0.318105 0.17673,-0.459484 0,-0.176724 -0.0707,-0.388793 -0.24742,-0.530172 -0.28276,-0.247419 -0.74225,-0.247419 -0.98966,0.03534 l -6.185344,6.786197 c -0.247413,0.282762 -0.247413,0.706899 0.07071,0.989659 z"
       id="path6-2-6-6"
       style="fill:#0094b2;fill-opacity:1;stroke-width:0.35345" />
  </g>
  <metadata
     id="metadata28">
    <rdf:RDF>
      <cc:Work
         rdf:about="">
        <dc:format>image/svg+xml</dc:format>
        <dc:type
           rdf:resource="http://purl.org/dc/dcmitype/StillImage" />
      </cc:Work>
    </rdf:RDF>
  </metadata>
  <defs
     id="defs26" />
  <sodipodi:namedview
     pagecolor="#ffffff"
     bordercolor="#666666"
     borderopacity="1"
     objecttolerance="10"
     gridtolerance="10"
     guidetolerance="10"
     inkscape:pageopacity="0"
     inkscape:pageshadow="2"
     inkscape:window-width="1920"
     inkscape:window-height="1007"
     id="namedview24"
     showgrid="false"
     inkscape:zoom="4.90625"
     inkscape:cx="35.926062"
     inkscape:cy="1.1026034"
     inkscape:window-x="0"
     inkscape:window-y="0"
     inkscape:window-maximized="1"
     inkscape:current-layer="svg22"
     inkscape:document-rotation="0"
     inkscape:lockguides="false">
    <inkscape:grid
       type="xygrid"
       id="grid880"
       originx="0"
       originy="0" />
  </sodipodi:namedview>
  <g
     id="mail-unread"
     transform="translate(32,10)">
    <rect
       style="opacity:0.00100002"
       width="32"
       height="32"
       x="-32"
       y="-10"
       id="rect7-3" />
    <path
       d="M -1.834498,-4 H -30.110343 C -30.489657,-4 -30.8,-3.689657 -30.8,-3.310344 V 15.310345 C -30.8,15.689656 -30.489657,16 -30.110343,16 h 28.275845 c 0.37935,0 0.68965,-0.310344 0.68965,-0.689655 V -3.310344 C -1.144848,-3.689657 -1.455148,-4 -1.834498,-4 Z m -0.68964,18.620693 H -29.420692 V -2.620692 h 26.896554 z"
       id="path2-1"
       style="fill:#d3dae3;fill-opacity:1;stroke-width:0.34483" />
    <path
       d="m -8.899158,5.123607 c 0.282756,0.247412 0.74224,0.247412 0.98965,-0.03534 l 6.18535,-6.786203 c 0.10603,-0.141379 0.17673,-0.318105 0.17673,-0.459484 0,-0.176724 -0.0707,-0.388793 -0.24742,-0.530172 -0.28276,-0.247419 -0.74225,-0.247419 -0.98966,0.03534 l -6.185344,6.786197 c -0.247413,0.282762 -0.247413,0.706899 0.07071,0.989659 z"
       id="path6-2"
       style="fill:#d3dae3;fill-opacity:1;stroke-width:0.35345" />
    <path
       d="m -29.633621,-2.178915 c 0,0.176724 0.07069,0.353448 0.176725,0.459484 l 6.185344,6.821549 c 0.247415,0.282758 0.706897,0.318106 0.989656,0.03536 0.282759,-0.247414 0.318103,-0.706901 0.03534,-0.989654 l -6.150001,-6.786222 c -0.247413,-0.282759 -0.706896,-0.318103 -0.989655,-0.03534 -0.176724,0.106034 -0.247414,0.318103 -0.247414,0.494826 z"
       id="path8-7"
       style="fill:#d3dae3;fill-opacity:1;stroke-width:0.35345" />
    <path
       inkscape:connector-curvature="0"
       id="path4252-3-3-0"
       style="font-style:normal;font-variant:normal;font-weight:normal;font-stretch:normal;font-size:18.5263px;line-height:125%;font-family:'Product Sans';-inkscape-font-specification:'Product Sans';letter-spacing:0px;word-spacing:0px;fill:#d3dae3;fill-opacity:1;stroke:none;stroke-width:0.412214;stroke-linecap:butt;stroke-linejoin:miter;stroke-miterlimit:4;stroke-dasharray:none;stroke-opacity:0.85"
       d="m -15.566206,0.2 q 2.775398,0 4.670836,1.9320799 Q -9,4.0642826 -9,6.7999454 q 0,1.5389382 -0.659966,2.5477044 -0.643074,1.0088342 -1.878496,1.0088342 -1.269329,0 -1.895434,-1.2481856 -0.829273,1.2481856 -2.369284,1.2481856 -1.387771,0 -2.335387,-0.9745841 -0.94777,-0.9917704 -0.94777,-2.5134684 0,-1.5046483 0.94777,-2.4964897 0.947616,-0.9916431 2.267683,-0.9916431 1.303127,0 2.166218,1.0088644 h 0.0679 V 3.6197389 h 1.218471 v 4.4626683 q 0,0.4445455 0.236933,0.803572 0.253799,0.3590143 0.761589,0.3590143 1.201535,0 1.201535,-2.4450481 0,-2.2569557 -1.556958,-3.8129138 -1.556996,-1.555944 -3.790832,-1.555944 -2.233863,0 -3.790915,1.555944 -1.556891,1.5559581 -1.556891,3.8129138 0,2.257075 1.556891,3.8130226 1.557052,1.555864 3.790915,1.555864 1.201517,0 2.149206,-0.478711 l 0.473908,1.162693 Q -14.127595,13.4 -15.56602,13.4 q -2.809252,0 -4.721664,-1.915068 Q -22.2,9.552847 -22.2,6.7999454 -22.2,4.0642826 -20.287684,2.1320799 -18.358417,0.2 -15.566014,0.2 Z m -1.573914,8.2585666 q 0.609285,0.5984538 1.455413,0.5984538 0.846167,0 1.438492,-0.5984538 0.609268,-0.5984881 0.609268,-1.5901351 0,-0.9918117 -0.609268,-1.5901819 -0.592325,-0.5984476 -1.438492,-0.5984476 -0.846128,0 -1.455413,0.5984476 -0.592332,0.5983702 -0.592332,1.5901819 0,0.991647 0.592332,1.5901351 z" />
  </g>
  <g
     id="22-22-mail-unread"
     transform="translate(32,10)">
    <rect
       style="opacity:0.00100002"
       width="22"
       height="22"
       x="0"
       y="0"
       id="rect2-6" />
    <path
       d="M 20.97585,4 H 1.182762 C 0.917238,4 0.7,4.217238 0.7,4.482761 V 17.51724 C 0.7,17.782761 0.917238,18 1.182762,18 H 20.97585 c 0.265547,0 0.482753,-0.217239 0.482753,-0.48276 V 4.482761 C 21.458603,4.217238 21.241397,4 20.97585,4 Z M 20.493107,17.03449 H 1.66551 V 4.96551 h 18.827597 z"
       id="path2-1-3-6-0"
       style="fill:#d3dae3;fill-opacity:1;stroke-width:0.24139" />
    <path
       d="m 16.030597,10.386527 c 0.197921,0.173192 0.51957,0.173192 0.692753,-0.02469 l 4.329747,-4.750341 c 0.07423,-0.09897 0.123695,-0.22268 0.123695,-0.32164 0,-0.123706 -0.04955,-0.272153 -0.173189,-0.371115 C 20.805672,4.745545 20.48403,4.745545 20.31085,4.943431 l -4.329747,4.750338 c -0.173193,0.197927 -0.173193,0.494839 0.04956,0.692767 z"
       id="path6-2-6-2-6"
       style="fill:#d3dae3;fill-opacity:1;stroke-width:0.247417" />
    <path
       d="m 1.516459,5.27477 c 0,0.123699 0.04954,0.247398 0.123711,0.32162 l 4.329747,4.775083 c 0.173191,0.197948 0.494823,0.222691 0.692753,0.02471 0.197938,-0.17319 0.222677,-0.494841 0.02469,-0.692767 L 2.382363,4.953061 C 2.209171,4.755138 1.887531,4.730402 1.689595,4.928371 1.565902,5.002601 1.516406,5.151031 1.516406,5.274754 Z"
       id="path8-7-7-3-26"
       style="fill:#d3dae3;fill-opacity:1;stroke-width:0.247417" />
    <path
       inkscape:connector-curvature="0"
       id="path4252-3-3-0-5-5-1"
       style="font-style:normal;font-variant:normal;font-weight:normal;font-stretch:normal;font-size:18.5263px;line-height:125%;font-family:'Product Sans';-inkscape-font-specification:'Product Sans';letter-spacing:0px;word-spacing:0px;fill:#d3dae3;fill-opacity:1;stroke:none;stroke-width:0.281051;stroke-linecap:butt;stroke-linejoin:miter;stroke-miterlimit:4;stroke-dasharray:none;stroke-opacity:0.85"
       d="m 11.373092,6.9 q 1.892307,0 3.184616,1.31732 Q 15.85,9.534727 15.85,11.399948 q 0,1.049282 -0.449981,1.73708 -0.438458,0.687858 -1.280767,0.687858 -0.865454,0 -1.292323,-0.851052 -0.565428,0.851052 -1.615398,0.851052 -0.946197,0 -1.592294,-0.664495 -0.6461869,-0.676194 -0.6461869,-1.713734 0,-1.025885 0.6461869,-1.70215 0.646097,-0.67612 1.546124,-0.67612 0.88849,0 1.476948,0.687858 h 0.04616 V 9.231634 h 0.830765 v 3.042742 q 0,0.303084 0.161543,0.547878 0.173044,0.244796 0.519259,0.244796 0.819219,0 0.819219,-1.667102 0,-1.538833 -1.061548,-2.599691 -1.061572,-1.0608937 -2.584622,-1.0608937 -1.523065,0 -2.5846755,1.0608937 -1.0615054,1.060858 -1.0615054,2.599691 0,1.538927 1.0615054,2.599811 1.0616105,1.060814 2.5846755,1.060814 0.8192,0 1.465348,-0.326383 l 0.323112,0.792747 Q 12.353823,15.9 11.373089,15.9 9.457724,15.9 8.1538198,14.594267 6.85,13.276942 6.85,11.399948 6.85,9.534727 8.153827,8.21732 9.46924,6.9 11.373124,6.9 Z m -1.073103,5.630835 q 0.41541,0.40804 0.992317,0.40804 0.57692,0 0.980775,-0.40804 0.415406,-0.408041 0.415406,-1.084178 0,-0.67622 -0.415406,-1.084208 -0.403855,-0.408039 -0.980775,-0.408039 -0.576907,0 -0.992317,0.408039 -0.403851,0.407988 -0.403851,1.084208 0,0.676137 0.403851,1.084178 z" />
  </g>
</svg>
