<?xml version="1.0" encoding="UTF-8" standalone="no"?>
<svg
   xmlns:dc="http://purl.org/dc/elements/1.1/"
   xmlns:cc="http://creativecommons.org/ns#"
   xmlns:rdf="http://www.w3.org/1999/02/22-rdf-syntax-ns#"
   xmlns:svg="http://www.w3.org/2000/svg"
   xmlns="http://www.w3.org/2000/svg"
   xmlns:xlink="http://www.w3.org/1999/xlink"
   xmlns:sodipodi="http://sodipodi.sourceforge.net/DTD/sodipodi-0.dtd"
   xmlns:inkscape="http://www.inkscape.org/namespaces/inkscape"
   id="svg12"
   width="32"
   height="32"
   version="1.1"
   sodipodi:docname="start.svg"
   inkscape:version="1.0.2 (e86c870879, 2021-01-15)">
  <metadata
     id="metadata19">
    <rdf:RDF>
      <cc:Work
         rdf:about="">
        <dc:format>image/svg+xml</dc:format>
        <dc:type
           rdf:resource="http://purl.org/dc/dcmitype/StillImage" />
        <dc:title />
      </cc:Work>
    </rdf:RDF>
  </metadata>
  <defs
     id="g17">
    <linearGradient
       inkscape:collect="always"
       id="linearGradient855">
      <stop
         style="stop-color:#006498;stop-opacity:1"
         offset="0"
         id="stop851" />
      <stop
         style="stop-color:#00dddd;stop-opacity:1"
         offset="1"
         id="stop853" />
    </linearGradient>
    <linearGradient
       id="linearGradient865"
       x1="0"
       x2="0"
       y1="0"
       y2="1">
      <stop
         offset="0%"
         style="stop-color:#096b83;stop-opacity:1"
         id="stop861" />
      <stop
         offset="100%"
         style="stop-color:#11c3ee;stop-opacity:1"
         id="stop863" />
    </linearGradient>
    <clipPath
       id="_clipPath_gNaW6PK2HuleaAjec1GHnM0Z84ZMay60">
      <rect
         width="16"
         height="16"
         id="rect56"
         x="0"
         y="0" />
    </clipPath>
    <linearGradient
       id="oomox"
       x1="0"
       x2="0"
       y1="0"
       y2="1">
      <stop
         offset="0%"
         style="stop-color:#303b3d; stop-opacity:1"
         id="stop18" />
      <stop
         offset="100%"
         style="stop-color:#bc985d; stop-opacity:1"
         id="stop20" />
    </linearGradient>
    <linearGradient
       inkscape:collect="always"
       xlink:href="#linearGradient855"
       id="linearGradient857"
       x1="17"
       y1="29"
       x2="17"
       y2="3"
       gradientUnits="userSpaceOnUse"
       gradientTransform="rotate(180,16.01247,16)" />
    <linearGradient
       inkscape:collect="always"
       xlink:href="#linearGradient855"
       id="linearGradient867"
       x1="10"
       y1="21"
       x2="10"
       y2="1"
       gradientUnits="userSpaceOnUse"
       gradientTransform="rotate(180,10.971074,11.000003)" />
  </defs>
  <sodipodi:namedview
     pagecolor="#ffffff"
     bordercolor="#666666"
     borderopacity="1"
     objecttolerance="10"
     gridtolerance="10"
     guidetolerance="10"
     inkscape:pageopacity="0"
     inkscape:pageshadow="2"
     inkscape:window-width="1920"
     inkscape:window-height="1007"
     id="namedview15"
     showgrid="false"
     inkscape:zoom="7.1363635"
     inkscape:cx="18.347053"
     inkscape:cy="8.6137423"
     inkscape:window-x="0"
     inkscape:window-y="0"
     inkscape:window-maximized="1"
     inkscape:current-layer="svg12"
     inkscape:document-rotation="0"
     inkscape:lockguides="false">
    <inkscape:grid
       type="xygrid"
       id="grid1122"
       originx="0"
       originy="0" />
  </sodipodi:namedview>
  <g
     id="g16"
     transform="matrix(0.046875,0,0,0.046875,-59.692605,-9.860676)">
    <g
       id="g857" />
  </g>
  <g
     id="start-here-kde">
    <rect
       id="rect7"
       style="opacity:0.00100002"
       width="32"
       height="32"
       x="0"
       y="0" />
    <path
       style="isolation:isolate;fill:url(#linearGradient857);fill-opacity:1;stroke-width:1.69974"
       class="ColorScheme-Text"
       d="m 9.9292023,28.998048 c 0.5462157,-0.02547 1.0430767,-0.326013 1.3153247,-0.799751 0.212695,-0.368462 0.27225,-0.804843 0.161646,-1.215755 C 11.295607,26.57163 11.026726,26.221845 10.657481,26.0079 10.288236,25.795652 9.8492293,25.737921 9.4374533,25.84829 c -0.410081,0.110368 -0.762311,0.378649 -0.975003,0.747112 -0.212695,0.368462 -0.27055,0.804843 -0.159951,1.215755 0.108903,0.410912 0.379447,0.760697 0.7487,0.972944 0.265438,0.154516 0.571727,0.229228 0.878003,0.213947 z M 20.264577,26.493522 c 0.268851,0 0.52748,-0.106969 0.718065,-0.297146 0.190573,-0.190174 0.296071,-0.44657 0.296071,-0.714851 0,-0.558632 -0.454326,-1.0103 -1.014136,-1.0103 -0.558116,0 -1.010735,0.453359 -1.010735,1.0103 0,0.556938 0.452619,1.0103 1.010735,1.011997 z M 17.713909,26.23543 c 0.234827,0 0.46113,-0.09338 0.626187,-0.258094 0.166753,-0.166402 0.260343,-0.390536 0.258633,-0.624859 0,-0.487314 -0.396463,-0.881252 -0.88482,-0.881252 -0.486647,0 -0.881416,0.39563 -0.88311,0.881252 0,0.487323 0.394766,0.882953 0.88311,0.882953 z m 5.514806,-0.101885 c 0.316503,0 0.621085,-0.12565 0.843983,-0.348086 0.224609,-0.224133 0.350525,-0.528072 0.350525,-0.843895 0,-0.315822 -0.125916,-0.618056 -0.350525,-0.842202 -0.222898,-0.22243 -0.52748,-0.348083 -0.843983,-0.348083 -0.316493,0 -0.619369,0.125653 -0.843975,0.348083 -0.224605,0.224146 -0.348829,0.52638 -0.348829,0.842202 0,0.315823 0.124224,0.619762 0.348829,0.843895 0.224606,0.22244 0.527482,0.34809 0.843975,0.348086 z M 15.614166,25.51548 c 0.425397,0 0.769111,-0.342989 0.769111,-0.765788 0.0014,-0.203758 -0.07999,-0.399025 -0.224607,-0.543348 -0.14463,-0.144324 -0.340309,-0.225841 -0.544504,-0.224132 -0.423692,0 -0.767407,0.342983 -0.767407,0.76748 0.0014,0.422799 0.343715,0.76409 0.767407,0.765788 z M 9.4867933,24.68347 c 0.466241,-0.0221 0.8916317,-0.280171 1.1247427,-0.684288 0.379458,-0.657108 0.153146,-1.494224 -0.503664,-1.872862 -0.6568097,-0.378657 -1.4956797,-0.15452 -1.8768317,0.500893 -0.182075,0.315825 -0.231415,0.689393 -0.137828,1.040866 0.09537,0.351489 0.324997,0.652019 0.639782,0.833703 0.229719,0.130746 0.490058,0.193577 0.753799,0.181688 z m 4.5295987,-0.144323 c 0.176958,0 0.347114,-0.0697 0.473041,-0.193579 0.124206,-0.123948 0.195681,-0.293742 0.195681,-0.470341 0,-0.176592 -0.06983,-0.346385 -0.195681,-0.47034 -0.125927,-0.12565 -0.294373,-0.195268 -0.473041,-0.195268 -0.175267,0 -0.345427,0.07136 -0.469632,0.195268 -0.125925,0.125655 -0.195683,0.293748 -0.193985,0.47034 0,0.366768 0.297776,0.66392 0.663617,0.66392 z M 5.9934643,24.191052 c 0.466228,-0.02209 0.889926,-0.280158 1.124748,-0.684287 0.377741,-0.655421 0.153136,-1.492516 -0.503672,-1.872867 -0.314792,-0.18169 -0.690841,-0.230928 -1.043068,-0.137536 -0.352225,0.09517 -0.651701,0.324306 -0.833774,0.640136 -0.379448,0.655429 -0.153138,1.492526 0.503667,1.871186 0.228014,0.132428 0.48836,0.195268 0.752099,0.183368 z M 19.803452,23.561101 c 0.558114,0 1.012434,-0.45335 1.01073,-1.011991 0,-0.556935 -0.452616,-1.008603 -1.01073,-1.008603 -0.559829,0 -1.014139,0.451668 -1.014139,1.008603 0,0.269973 0.105522,0.526371 0.29607,0.716552 0.190572,0.190167 0.449215,0.295439 0.718069,0.295439 z M 12.832103,23.38112 c 0.149726,0.0014 0.292663,-0.05766 0.398162,-0.163008 0.105508,-0.105277 0.16505,-0.247899 0.16505,-0.397321 0,-0.149432 -0.05963,-0.292054 -0.16505,-0.397332 -0.105541,-0.105297 -0.248436,-0.164712 -0.398162,-0.164712 -0.148043,0 -0.292682,0.0595 -0.398174,0.164712 -0.105469,0.105267 -0.163353,0.2479 -0.163353,0.397332 0,0.149422 0.05778,0.292045 0.163353,0.397321 0.105562,0.105277 0.250131,0.164712 0.398174,0.163008 z m 4.420681,-0.07635 c 0.486648,-0.0014 0.883124,-0.395619 0.883124,-0.882947 -0.0014,-0.487318 -0.396476,-0.881245 -0.883124,-0.881245 -0.488352,0 -0.884814,0.393927 -0.884814,0.881245 -0.0014,0.234325 0.09187,0.458462 0.258634,0.624864 0.16506,0.164699 0.391362,0.258084 0.62618,0.258083 z m 5.5114,-0.101818 c 0.316497,0 0.62108,-0.125652 0.845686,-0.349785 0.222911,-0.222429 0.348831,-0.526369 0.348831,-0.842197 0,-0.315828 -0.12592,-0.618059 -0.348831,-0.842194 -0.224606,-0.224136 -0.529189,-0.349797 -0.845686,-0.349797 -0.316484,0 -0.61937,0.125661 -0.843979,0.349797 -0.222898,0.224135 -0.348825,0.526366 -0.348825,0.842194 0,0.315828 0.125927,0.619768 0.348825,0.842197 0.224609,0.224133 0.527495,0.349785 0.843979,0.349785 z m -7.611141,-0.618067 c 0.423694,-0.0014 0.765703,-0.344689 0.767412,-0.767485 0,-0.422802 -0.343718,-0.765795 -0.767412,-0.76749 -0.204186,0 -0.399867,0.08146 -0.544499,0.225827 -0.144635,0.142643 -0.226318,0.339599 -0.226318,0.541663 0.0014,0.42449 0.345424,0.767485 0.770817,0.767485 z m 10.857751,-0.5655 c 0.758903,0 1.374873,-0.614673 1.374873,-1.371968 0,-0.757303 -0.61597,-1.370278 -1.374873,-1.370278 -0.758902,0 -1.37317,0.612975 -1.37317,1.370278 0,0.757295 0.614268,1.371968 1.37317,1.371968 z M 13.55526,21.608468 c 0.367547,0 0.665325,-0.29715 0.665325,-0.663907 0,-0.366767 -0.297778,-0.663916 -0.665325,-0.663916 -0.367531,0 -0.665307,0.297149 -0.665307,0.663916 0,0.366757 0.297776,0.663907 0.665307,0.663907 z M 9.9189943,21.015879 c 0.4049797,-0.0186 0.7742237,-0.242817 0.9767117,-0.592598 0.15824,-0.275072 0.202484,-0.599393 0.119135,-0.905021 -0.08164,-0.305649 -0.282463,-0.565437 -0.556421,-0.723344 -0.5717287,-0.329408 -1.2999997,-0.132447 -1.6301077,0.436375 -0.328395,0.568831 -0.134424,1.297265 0.435605,1.626674 0.199085,0.113787 0.425398,0.169797 0.6551,0.157914 z M 6.4256733,20.52516 c 0.404966,-0.02046 0.772512,-0.242812 0.976692,-0.59429 0.158255,-0.273384 0.200789,-0.599397 0.119134,-0.903337 -0.08163,-0.305631 -0.280756,-0.567125 -0.556414,-0.725031 -0.27395,-0.157913 -0.600649,-0.200371 -0.905232,-0.118885 -0.30629,0.08147 -0.568335,0.281865 -0.726579,0.555234 -0.328399,0.570526 -0.132714,1.298957 0.439007,1.626675 0.197382,0.115441 0.4254,0.169795 0.653411,0.159601 z M 18.481326,20.295935 c 0.559814,0 1.014141,-0.451666 1.014141,-1.010309 0,-0.268284 -0.105509,-0.524674 -0.296075,-0.714843 -0.190581,-0.190181 -0.449219,-0.297145 -0.718066,-0.297145 -0.268846,0 -0.525784,0.106912 -0.716369,0.297145 -0.190565,0.190169 -0.297778,0.446559 -0.296067,0.714843 0,0.558643 0.454321,1.010309 1.012436,1.010309 z m -2.550663,-0.254708 c 0.234812,0 0.461127,-0.09342 0.626175,-0.259786 0.166754,-0.164701 0.258642,-0.390539 0.258642,-0.623166 0,-0.234316 -0.09183,-0.460146 -0.258642,-0.624851 -0.165048,-0.166405 -0.391363,-0.259786 -0.626175,-0.259786 -0.488348,0.0014 -0.883114,0.397322 -0.883114,0.884637 0,0.485629 0.394766,0.881264 0.883114,0.882952 z m 5.514805,-0.105202 c 0.316495,0 0.621074,-0.125651 0.843976,-0.348081 0.224608,-0.224138 0.350536,-0.526385 0.350536,-0.842205 0,-0.31582 -0.125928,-0.619757 -0.350536,-0.842203 -0.222902,-0.224133 -0.527481,-0.349778 -0.843976,-0.349778 -0.316499,0 -0.619369,0.125645 -0.843978,0.349778 -0.222914,0.222446 -0.348825,0.526383 -0.348825,0.842203 0,0.31582 0.125911,0.618067 0.348825,0.842205 0.224609,0.22243 0.527479,0.348081 0.843978,0.348081 z M 3.6486963,19.460582 c 0.406674,-0.0186 0.775918,-0.242817 0.978407,-0.594302 0.158244,-0.273371 0.202483,-0.59938 0.119133,-0.905027 -0.08163,-0.305625 -0.282461,-0.565426 -0.556417,-0.72334 -0.571725,-0.3277 -1.3,-0.132434 -1.630107,0.436386 -0.328396,0.570525 -0.134422,1.297258 0.435607,1.626666 0.199081,0.113792 0.425393,0.169798 0.653407,0.159617 z M 13.830916,19.319641 c 0.204194,0 0.399874,-0.07982 0.544509,-0.224133 0.144629,-0.144334 0.226312,-0.339604 0.226312,-0.54336 -0.0014,-0.422794 -0.345422,-0.765791 -0.770821,-0.765791 -0.42369,0 -0.765708,0.342997 -0.767406,0.765791 0,0.424496 0.343716,0.767493 0.767406,0.767493 z m 10.861158,-0.565462 c 0.758902,0 1.373171,-0.612974 1.373171,-1.37027 0,-0.757305 -0.614269,-1.371975 -1.373171,-1.371975 -0.758897,0 -1.373177,0.61467 -1.373177,1.371975 0,0.757296 0.61428,1.37027 1.373177,1.37027 z M 10.92292,18.005372 c 0.343726,-0.01535 0.656814,-0.205449 0.830371,-0.504303 0.279058,-0.483929 0.11228,-1.101987 -0.372637,-1.380458 -0.483257,-0.278468 -1.102625,-0.112041 -1.3833817,0.370164 -0.279056,0.483923 -0.114033,1.101987 0.3692427,1.380454 0.168448,0.09671 0.362436,0.144324 0.556405,0.134143 z M 7.4295983,17.514657 c 0.345413,-0.01702 0.656809,-0.207156 0.828661,-0.505999 0.279055,-0.482224 0.114031,-1.100291 -0.36924,-1.380463 -0.233123,-0.134144 -0.510472,-0.169796 -0.769114,-0.10018 -0.260341,0.06968 -0.481545,0.239414 -0.615968,0.472029 -0.27906,0.482231 -0.114025,1.100293 0.370947,1.380468 0.168449,0.09676 0.360728,0.142621 0.554714,0.134137 z M 18.35371,16.711512 c 0.129316,-0.0014 0.255224,-0.03905 0.36753,-0.103635 0.367545,-0.212244 0.491765,-0.680893 0.280766,-1.047646 -0.212693,-0.366772 -0.684031,-0.490727 -1.049869,-0.280176 -0.367542,0.212251 -0.493455,0.682595 -0.280761,1.047662 0.139532,0.242808 0.401566,0.390537 0.682334,0.383743 z m 9.666645,-0.140934 c 0.425393,0 0.833771,-0.169797 1.13495,-0.470339 0.301179,-0.300541 0.469635,-0.708066 0.469635,-1.132556 0,-0.884655 -0.718064,-1.602892 -1.604585,-1.602892 -0.427095,0 -0.835474,0.168089 -1.136652,0.468633 -0.301179,0.300547 -0.471336,0.708061 -0.471336,1.134259 0,0.42449 0.170157,0.832015 0.471336,1.134249 0.301178,0.300514 0.709557,0.468617 1.136652,0.468617 z M 4.6543223,16.450027 c 0.34372,-0.017 0.656811,-0.207159 0.830366,-0.505995 0.27906,-0.482233 0.11228,-1.100297 -0.372638,-1.380469 -0.484947,-0.278468 -1.102622,-0.112039 -1.383385,0.371865 -0.279058,0.482219 -0.114028,1.100289 0.369253,1.380459 0.168443,0.09671 0.362432,0.14263 0.556404,0.13414 z m 7.6502807,-0.711452 c 0.299486,-0.01535 0.573436,-0.179993 0.723177,-0.441476 0.117398,-0.202066 0.149733,-0.443179 0.0885,-0.669008 -0.05962,-0.227532 -0.209294,-0.419405 -0.411775,-0.536562 -0.204198,-0.117148 -0.445816,-0.149426 -0.672132,-0.08831 -0.226299,0.0595 -0.420288,0.208853 -0.537687,0.410923 -0.117403,0.203747 -0.149745,0.444869 -0.0885,0.670691 0.06128,0.225839 0.209284,0.419403 0.413478,0.536568 0.146342,0.08494 0.314788,0.125646 0.484948,0.117159 z m 8.259448,-0.08494 c 0.112277,-0.0027 0.22291,-0.03393 0.318188,-0.09005 0.153146,-0.08831 0.26545,-0.232628 0.311399,-0.402426 0.04425,-0.171498 0.0205,-0.351486 -0.068,-0.504305 -0.0885,-0.152808 -0.23311,-0.263187 -0.404973,-0.309027 -0.170154,-0.04589 -0.352228,-0.02213 -0.505366,0.06617 -0.316489,0.185074 -0.425387,0.589206 -0.241627,0.906725 0.120809,0.210575 0.347118,0.337921 0.590441,0.332829 z M 8.8095673,15.244425 c 0.301184,-0.0135 0.573434,-0.17829 0.723179,-0.438083 0.11913,-0.202057 0.149728,-0.443163 0.09025,-0.670695 -0.05963,-0.225834 -0.20929,-0.419409 -0.411777,-0.536566 -0.202495,-0.117146 -0.444117,-0.14772 -0.672125,-0.08831 -0.226318,0.06116 -0.418593,0.20886 -0.535996,0.41261 -0.243325,0.421107 -0.09875,0.961065 0.3233,1.20387 0.146327,0.08494 0.314792,0.125658 0.483235,0.117148 z m 13.7436277,-0.0082 c 0.09362,-0.0027 0.185465,-0.02881 0.267153,-0.07635 0.268844,-0.154516 0.360722,-0.497509 0.205882,-0.765789 -0.07491,-0.129045 -0.197384,-0.224132 -0.342021,-0.261488 -0.144632,-0.03904 -0.297767,-0.01859 -0.427093,0.05608 -0.129312,0.07476 -0.2229,0.196967 -0.262043,0.341295 -0.03913,0.144332 -0.017,0.297146 0.05778,0.426194 0.10202,0.176593 0.294372,0.285261 0.500262,0.280167 z m -4.723579,-0.526373 c 0.149741,-0.0027 0.294377,-0.04242 0.423696,-0.117146 0.202491,-0.117158 0.350531,-0.310728 0.411784,-0.536564 0.06134,-0.225828 0.02888,-0.466946 -0.0885,-0.670701 -0.117389,-0.20206 -0.311384,-0.349787 -0.537688,-0.409209 -0.226314,-0.0611 -0.467932,-0.02882 -0.670423,0.08831 -0.4237,0.244511 -0.568331,0.782767 -0.325003,1.205568 0.161651,0.278406 0.46283,0.448202 0.786124,0.439714 z M 6.0360023,14.180081 c 0.29948,-0.0135 0.571731,-0.178291 0.723179,-0.438081 0.117398,-0.203761 0.149728,-0.444873 0.0885,-0.6707 -0.06126,-0.225832 -0.209288,-0.419405 -0.411776,-0.536563 -0.204193,-0.117147 -0.445813,-0.147725 -0.672126,-0.08831 -0.2263,0.0611 -0.42029,0.20885 -0.537688,0.412605 -0.243327,0.421103 -0.09875,0.961061 0.323293,1.203871 0.148041,0.08494 0.316492,0.125654 0.486648,0.11716 z m 7.8374587,-0.06968 c 0.262033,-0.01143 0.49856,-0.157911 0.629583,-0.383744 0.100296,-0.176589 0.129314,-0.385441 0.07651,-0.582408 -0.05449,-0.196965 -0.183776,-0.363367 -0.35903,-0.465246 -0.176969,-0.101824 -0.386265,-0.129048 -0.583643,-0.07635 -0.197385,0.05258 -0.364143,0.181685 -0.466236,0.358273 -0.102021,0.176587 -0.129315,0.385443 -0.07651,0.582408 0.05268,0.195266 0.182069,0.36337 0.359036,0.465248 0.127617,0.07297 0.272247,0.108717 0.420292,0.101806 z m 6.653154,-0.171496 c 0.129326,-0.0027 0.255238,-0.03905 0.36754,-0.101803 0.367543,-0.212249 0.493461,-0.682591 0.280764,-1.047658 -0.212707,-0.366762 -0.682327,-0.492414 -1.049876,-0.280164 -0.367532,0.212247 -0.493462,0.680888 -0.280755,1.047652 0.141231,0.241113 0.401573,0.387139 0.682327,0.382048 z m 2.349873,-0.151121 c 0.112281,-0.0027 0.219511,-0.03393 0.316496,-0.09005 0.15315,-0.08831 0.265453,-0.232628 0.311388,-0.402426 0.04599,-0.17149 0.02218,-0.351482 -0.06633,-0.504296 -0.0885,-0.152818 -0.234817,-0.264883 -0.404972,-0.309032 -0.170158,-0.0459 -0.352222,-0.02214 -0.505358,0.0662 -0.153139,0.08831 -0.263751,0.234319 -0.30969,0.404114 -0.04599,0.169801 -0.0205,0.351487 0.068,0.5043 0.120818,0.208891 0.347128,0.336239 0.590456,0.331144 z M 10.378425,13.619657 c 0.262037,-0.0135 0.498559,-0.157916 0.629583,-0.385447 0.212691,-0.366762 0.08676,-0.835406 -0.280766,-1.047653 -0.176959,-0.100279 -0.38625,-0.12905 -0.583639,-0.07473 -0.1956807,0.05256 -0.3641267,0.181687 -0.4662257,0.356583 -0.2127,0.366757 -0.08674,0.835405 0.280754,1.04765 0.1276167,0.07473 0.2739587,0.110381 0.4202937,0.103623 z m 6.292425,-1.049265 c 0.170155,-0.0027 0.335212,-0.05101 0.483248,-0.135848 0.483238,-0.278466 0.648302,-0.896533 0.369244,-1.380457 -0.279057,-0.482227 -0.898433,-0.648627 -1.383391,-0.37016 -0.233106,0.13414 -0.403263,0.35488 -0.473031,0.614668 -0.06984,0.25979 -0.034,0.534866 0.102024,0.767491 0.185471,0.320915 0.530889,0.514489 0.901841,0.504306 z m -4.740591,0 c 0.228014,-0.0095 0.432198,-0.134146 0.546209,-0.329413 0.0885,-0.152819 0.11228,-0.334506 0.0663,-0.504302 -0.046,-0.171499 -0.158248,-0.315828 -0.311385,-0.404118 -0.3182,-0.181686 -0.723168,-0.07297 -0.90694,0.244504 -0.0885,0.15112 -0.112277,0.332805 -0.068,0.502606 0.046,0.171496 0.158254,0.315826 0.309693,0.404125 0.110594,0.06274 0.238209,0.09342 0.364134,0.08656 z m -4.3271047,-0.01706 c 0.262049,-0.01143 0.500262,-0.156214 0.631287,-0.383742 0.100421,-0.174886 0.127616,-0.385439 0.07489,-0.580706 -0.0527,-0.19697 -0.18207,-0.365066 -0.357324,-0.466948 -0.176968,-0.10025 -0.387959,-0.129045 -0.58364,-0.07635 -0.197391,0.05438 -0.365845,0.183379 -0.466243,0.358275 -0.10202,0.176584 -0.129317,0.385442 -0.07651,0.582405 0.05268,0.196973 0.18206,0.365068 0.35733,0.46525 0.127618,0.07297 0.272253,0.108717 0.420283,0.101807 z M 22.83906,12.072744 c 0.127611,-0.0028 0.253532,-0.03905 0.365837,-0.103647 0.176967,-0.100178 0.304582,-0.268274 0.359032,-0.465241 0.05271,-0.195268 0.02561,-0.405821 -0.07651,-0.582407 -0.212696,-0.365063 -0.682341,-0.490719 -1.049875,-0.280175 -0.176964,0.101806 -0.306283,0.269993 -0.359027,0.46695 -0.05271,0.195266 -0.02563,0.405818 0.07651,0.582407 0.141232,0.241116 0.403273,0.388845 0.684039,0.382051 z m -2.833128,-0.135851 c 0.148036,-0.0027 0.29267,-0.04241 0.420292,-0.117147 0.204195,-0.117161 0.352228,-0.309042 0.41348,-0.534869 0.05962,-0.227534 0.02887,-0.468647 -0.0885,-0.670707 -0.117401,-0.20376 -0.311395,-0.351483 -0.537694,-0.412611 -0.228013,-0.0595 -0.469646,-0.02881 -0.672129,0.08831 -0.204185,0.117158 -0.352229,0.310737 -0.413484,0.536555 -0.05963,0.225839 -0.02717,0.46695 0.0885,0.67071 0.163349,0.280137 0.466226,0.448239 0.789527,0.439748 z M 9.1566943,11.507285 c 0.226307,-0.01143 0.430503,-0.135836 0.544498,-0.331106 0.0885,-0.152814 0.11228,-0.334502 0.06634,-0.504301 -0.04599,-0.169797 -0.156548,-0.315827 -0.309691,-0.404111 -0.153139,-0.08831 -0.335203,-0.112043 -0.505359,-0.06618 -0.170159,0.04589 -0.316499,0.157908 -0.40498,0.310731 -0.0885,0.152821 -0.112279,0.332805 -0.06632,0.504308 0.046,0.169795 0.156546,0.31412 0.309681,0.402416 0.110585,0.0646 0.238228,0.09342 0.365842,0.08831 z m 1.5024897,-0.601086 c 0.190575,-0.0082 0.364141,-0.113802 0.461128,-0.278469 0.154839,-0.268286 0.06125,-0.611278 -0.207595,-0.7657865 -0.129315,-0.07635 -0.282458,-0.0967 -0.427093,-0.05766 -0.144632,0.03905 -0.267146,0.132439 -0.342021,0.2614925 -0.07489,0.129043 -0.09535,0.281866 -0.05616,0.426193 0.03912,0.144327 0.132716,0.266577 0.26203,0.341287 0.09537,0.05438 0.202496,0.07982 0.309692,0.07297 z m 4.065063,-0.444866 c 0.199086,-0.0044 0.394765,-0.06111 0.568325,-0.161303 0.570029,-0.3294105 0.767408,-1.0561415 0.437308,-1.6266745 -0.158252,-0.273374 -0.41859,-0.473736 -0.724875,-0.555234 -0.306281,-0.0832 -0.631281,-0.03905 -0.906937,0.118878 -0.273956,0.157913 -0.473039,0.417712 -0.554712,0.723342 -0.08163,0.305648 -0.03913,0.631651 0.119137,0.905026 0.217804,0.3769555 0.624476,0.6044835 1.061778,0.5959895 z m 7.590722,-0.39054 c 0.149748,-0.0027 0.294377,-0.04241 0.423691,-0.1171565 0.202495,-0.117155 0.352227,-0.309034 0.411786,-0.536561 0.06129,-0.225836 0.02888,-0.466946 -0.0885,-0.668999 -0.117404,-0.203767 -0.309678,-0.35149 -0.537697,-0.412613 -0.226302,-0.0611 -0.467926,-0.02882 -0.670427,0.08831 -0.20418,0.117159 -0.352216,0.310734 -0.413477,0.536563 -0.06123,0.225843 -0.02888,0.466947 0.0885,0.670712 0.161649,0.278447 0.462823,0.4482405 0.786126,0.4397485 z M 18.843764,9.7974305 c 0.170156,-0.0027 0.33691,-0.05101 0.483237,-0.134144 0.233123,-0.135849 0.40328,-0.356583 0.471334,-0.614666 0.06981,-0.259799 0.034,-0.536572 -0.10204,-0.769197 -0.279061,-0.482226 -0.898439,-0.64693 -1.383386,-0.368463 -0.483247,0.280179 -0.650001,0.89824 -0.370944,1.380462 0.185471,0.320898 0.530898,0.514464 0.901845,0.50598 z m -6.920316,-1.280288 c 0.229717,-0.0058 0.454328,-0.06967 0.65341,-0.183382 0.316496,-0.181682 0.546207,-0.482227 0.64149,-0.8337 0.09537,-0.351488 0.04599,-0.725049 -0.137828,-1.040875 -0.182068,-0.315817 -0.48154,-0.545051 -0.833771,-0.638435 -0.352229,-0.09516 -0.728267,-0.04589 -1.04306,0.137536 -0.65681,0.378642 -0.88142,1.215758 -0.501972,1.871179 0.250131,0.434695 0.719775,0.697885 1.221731,0.687689 z m 9.232757,-0.584095 c 0.170157,-0.0044 0.335201,-0.05101 0.483245,-0.137536 0.483239,-0.278469 0.648298,-0.896528 0.36924,-1.380452 -0.279058,-0.48223 -0.898429,-0.648631 -1.383387,-0.370164 -0.484943,0.278467 -0.649992,0.896529 -0.370932,1.380456 0.183769,0.320885 0.530885,0.516153 0.901834,0.507662 z M 16.89716,7.6868425 c 0.200783,-0.0044 0.396463,-0.0595 0.570019,-0.159609 0.570032,-0.327706 0.765717,-1.056149 0.437314,-1.626665 -0.158255,-0.273383 -0.420287,-0.473732 -0.72487,-0.555242 -0.306286,-0.08146 -0.632995,-0.03905 -0.906938,0.118883 -0.273964,0.157912 -0.474743,0.419404 -0.556424,0.725031 -0.08163,0.303937 -0.03912,0.629954 0.120809,0.903327 0.217802,0.376935 0.62448,0.604459 1.060083,0.594267 z m -8.7273747,-0.60788 c 0.26714,-0.0058 0.530882,-0.08146 0.762297,-0.215633 0.767418,-0.441477 1.031155,-1.421214 0.588748,-2.187013 -0.444111,-0.765783 -1.425926,-1.028972 -2.193332,-0.585807 -0.767403,0.441477 -1.029451,1.421218 -0.587041,2.187013 0.292668,0.507644 0.840576,0.814979 1.429328,0.801394 z m 11.0398137,-1.25824 c 0.199087,-0.0044 0.394771,-0.05949 0.568327,-0.159616 0.571725,-0.327705 0.767403,-1.056141 0.437298,-1.626663 -0.158242,-0.273387 -0.418579,-0.473734 -0.724871,-0.555248 -0.306274,-0.08146 -0.631285,-0.03905 -0.906939,0.118888 -0.273948,0.157914 -0.473033,0.41771 -0.554711,0.723339 -0.08163,0.305644 -0.03912,0.631658 0.119133,0.90503 0.219504,0.376915 0.626183,0.604439 1.061785,0.59426 z m -5.113234,-0.07808 c 0.229717,-0.0044 0.45602,-0.06969 0.653406,-0.183391 0.658504,-0.378644 0.883112,-1.215757 0.505365,-1.872868 -0.182062,-0.314131 -0.483244,-0.545051 -0.835469,-0.640138 -0.352227,-0.09343 -0.726578,-0.04416 -1.043065,0.137537 -0.316495,0.181683 -0.546214,0.482219 -0.639793,0.833701 -0.09537,0.351479 -0.04425,0.725043 0.137824,1.040867 0.251837,0.432984 0.719767,0.696167 1.221732,0.684292 z"
       id="start-here-kde-9" />
  </g>
  <g
     id="22-22-start-here-kde"
     transform="translate(-22,10)">
    <rect
       id="rect2"
       style="opacity:0.00100002"
       width="22"
       height="22"
       x="0"
       y="0" />
    <path
       style="isolation:isolate;fill:url(#linearGradient867);fill-opacity:1;stroke-width:1.30755"
       class="ColorScheme-Text"
       d="m 6.2916367,20.998503 c 0.420159,-0.01959 0.802357,-0.250779 1.011776,-0.615192 0.163621,-0.28343 0.209433,-0.619107 0.124347,-0.935192 -0.08503,-0.316085 -0.291878,-0.585149 -0.575909,-0.749723 -0.284043,-0.163266 -0.621735,-0.207675 -0.938486,-0.122776 -0.315443,0.0849 -0.586393,0.291268 -0.75,0.5747 -0.163613,0.283431 -0.208112,0.619108 -0.123038,0.935193 0.08378,0.316085 0.291876,0.585149 0.575926,0.748415 0.204181,0.118859 0.43979,0.17633 0.675384,0.164575 z m 7.9502623,-1.926552 c 0.206807,0 0.405755,-0.08228 0.552358,-0.228573 0.146594,-0.146288 0.227737,-0.343515 0.227737,-0.549884 0,-0.429715 -0.349479,-0.777151 -0.780095,-0.777151 -0.429324,0 -0.777497,0.348737 -0.777497,0.777151 0,0.428412 0.348173,0.777151 0.777497,0.778457 z m -1.962046,-0.198532 c 0.180631,0 0.354708,-0.07183 0.481672,-0.198533 0.128269,-0.128001 0.200262,-0.300411 0.198949,-0.480659 0,-0.374855 -0.304967,-0.677884 -0.680621,-0.677884 -0.374347,0 -0.678008,0.30433 -0.679318,0.677884 0,0.374862 0.30366,0.679192 0.679318,0.679192 z m 4.24214,-0.07837 c 0.243463,0 0.477755,-0.09665 0.649211,-0.267757 0.172776,-0.172409 0.269645,-0.406208 0.269645,-0.649148 0,-0.242939 -0.09685,-0.475426 -0.269645,-0.647845 -0.171456,-0.171099 -0.405748,-0.267755 -0.649211,-0.267755 -0.243459,0 -0.476437,0.09665 -0.649211,0.267755 -0.172777,0.172419 -0.268326,0.404906 -0.268326,0.647845 0,0.24294 0.09559,0.476739 0.268326,0.649149 0.172774,0.171105 0.405752,0.267759 0.649211,0.267756 z m -5.857326,-0.475435 c 0.327233,0 0.591625,-0.263837 0.591625,-0.589065 0.0014,-0.156737 -0.06157,-0.306941 -0.172778,-0.417959 -0.111242,-0.111018 -0.261774,-0.173723 -0.418847,-0.172409 -0.32592,0 -0.590314,0.263833 -0.590314,0.590368 0.0014,0.325228 0.264394,0.587759 0.590314,0.589065 z M 5.9513207,17.679609 c 0.358645,-0.017 0.685866,-0.215516 0.865183,-0.526374 0.291886,-0.505466 0.117801,-1.149399 -0.387431,-1.440658 -0.505233,-0.291273 -1.150525,-0.118861 -1.443715,0.385301 -0.140054,0.24294 -0.178013,0.530299 -0.10603,0.800662 0.07337,0.270376 0.249996,0.501552 0.492145,0.641309 0.176704,0.100573 0.37697,0.148904 0.579843,0.139761 z m 3.484291,-0.111017 c 0.136122,0 0.26701,-0.05362 0.363883,-0.148906 0.09557,-0.09535 0.150516,-0.225955 0.150516,-0.3618 0,-0.13584 -0.05375,-0.266449 -0.150516,-0.361798 -0.0968,-0.09665 -0.226437,-0.150206 -0.363883,-0.150206 -0.134824,0 -0.265708,0.0549 -0.361253,0.150206 -0.0968,0.09666 -0.150519,0.225958 -0.14922,0.361798 0,0.282129 0.229058,0.510706 0.510473,0.510706 z m -6.171462,-0.267764 c 0.358638,-0.01699 0.684557,-0.215506 0.865186,-0.526373 0.290573,-0.504168 0.117795,-1.148085 -0.387432,-1.440663 -0.24215,-0.13976 -0.531416,-0.177636 -0.802364,-0.105796 -0.270941,0.07321 -0.501298,0.249466 -0.641359,0.492411 -0.291882,0.504174 -0.117797,1.148092 0.387435,1.439369 0.175392,0.101866 0.37566,0.150205 0.578534,0.141052 z M 13.887182,16.816252 c 0.429325,0 0.778795,-0.34873 0.777484,-0.778453 0,-0.428409 -0.348159,-0.775846 -0.777484,-0.775846 -0.430635,0 -0.780103,0.347437 -0.780103,0.775846 0,0.207672 0.08125,0.4049 0.227743,0.551193 0.146593,0.14628 0.345551,0.227259 0.55236,0.22726 z M 8.5246257,16.677805 c 0.115172,0.001 0.225122,-0.04436 0.306279,-0.12539 0.08122,-0.08098 0.126959,-0.190692 0.126959,-0.305631 0,-0.114947 -0.04583,-0.224656 -0.126959,-0.305639 -0.08125,-0.081 -0.191107,-0.126701 -0.306279,-0.126701 -0.113883,0 -0.225138,0.04577 -0.306288,0.126701 -0.08119,0.08098 -0.125651,0.190692 -0.125651,0.305639 0,0.114939 0.04439,0.224649 0.125651,0.305631 0.08125,0.08098 0.192405,0.1267 0.306288,0.12539 z m 3.4005123,-0.05873 c 0.374344,-10e-4 0.679325,-0.304322 0.679325,-0.679188 -0.0014,-0.374858 -0.304981,-0.677878 -0.679325,-0.677878 -0.375651,0 -0.680625,0.30302 -0.680625,0.677878 -0.0013,0.180248 0.07066,0.352661 0.198951,0.480662 0.126971,0.126693 0.301045,0.198527 0.481674,0.198526 z m 4.239521,-0.07833 c 0.24346,0 0.477751,-0.09665 0.650526,-0.269065 0.171474,-0.171098 0.268334,-0.404898 0.268334,-0.647841 0,-0.242944 -0.0968,-0.475429 -0.268334,-0.647839 -0.172775,-0.172412 -0.407066,-0.269074 -0.650526,-0.269074 -0.243449,0 -0.476437,0.09666 -0.649203,0.269074 -0.171468,0.17241 -0.268336,0.404895 -0.268336,0.647839 0,0.242944 0.09682,0.476743 0.268336,0.647842 0.172766,0.172412 0.405754,0.269066 0.649203,0.269064 z M 10.309955,16.06531 c 0.325921,-0.001 0.589001,-0.265144 0.590318,-0.590371 0,-0.325231 -0.264397,-0.589071 -0.590318,-0.590375 -0.15706,0 -0.307584,0.06266 -0.4188413,0.173713 -0.111263,0.109727 -0.174092,0.261229 -0.174092,0.416663 0.0012,0.326531 0.265711,0.590373 0.5929333,0.59037 z m 8.352098,-0.434999 c 0.58376,0 1.057583,-0.472823 1.057583,-1.055356 0,-0.582539 -0.473823,-1.054056 -1.057583,-1.054056 -0.583775,0 -1.05629,0.471517 -1.05629,1.054056 0,0.582533 0.472515,1.055356 1.05629,1.055356 z M 9.0809007,15.314223 c 0.282725,0 0.511788,-0.228577 0.511788,-0.510697 0,-0.282127 -0.229063,-0.510702 -0.511788,-0.510702 -0.282719,0 -0.511775,0.228575 -0.511775,0.510702 0,0.28212 0.229056,0.510697 0.511775,0.510697 z m -2.797122,-0.455837 c 0.311523,-0.0143 0.595554,-0.186781 0.751316,-0.455842 0.121719,-0.211594 0.15576,-0.461071 0.09169,-0.696168 -0.06277,-0.235114 -0.217265,-0.43495 -0.428009,-0.556417 -0.439798,-0.25339 -1,-0.101881 -1.253925,0.335672 -0.25264,0.437563 -0.103459,0.997895 0.335055,1.251285 0.153137,0.08753 0.327218,0.130614 0.503913,0.121474 z m -2.687157,-0.377475 c 0.311506,-0.01574 0.594237,-0.186778 0.7513,-0.457144 0.121734,-0.210295 0.154448,-0.461073 0.0917,-0.694873 -0.06274,-0.2351 -0.21596,-0.436248 -0.428011,-0.557713 -0.210724,-0.121472 -0.462036,-0.154132 -0.696324,-0.09145 -0.235617,0.06267 -0.437187,0.216816 -0.558921,0.4271 -0.252626,0.438866 -0.102101,0.999196 0.337683,1.251286 0.15183,0.0888 0.327229,0.130611 0.502621,0.122769 z m 9.2735453,-0.176324 c 0.430619,0 0.780104,-0.347434 0.780104,-0.777158 0,-0.206372 -0.08123,-0.403594 -0.227751,-0.549878 -0.146599,-0.146292 -0.345548,-0.228572 -0.552353,-0.228572 -0.206805,0 -0.404447,0.08223 -0.551051,0.228572 -0.146591,0.146284 -0.229058,0.343506 -0.227743,0.549878 0,0.429724 0.349479,0.777158 0.778794,0.777158 z m -1.962043,-0.195929 c 0.180621,0 0.354719,-0.07186 0.481669,-0.199833 0.128276,-0.126694 0.198956,-0.300415 0.198956,-0.479358 0,-0.180242 -0.0706,-0.353958 -0.198956,-0.480653 -0.12695,-0.128004 -0.301048,-0.199835 -0.481669,-0.199835 -0.375648,0.0011 -0.679318,0.305631 -0.679318,0.680488 0,0.373559 0.30367,0.677893 0.679318,0.679191 z m 4.242142,-0.08093 c 0.243454,0 0.477746,-0.09665 0.649211,-0.267753 0.172779,-0.172412 0.269642,-0.40491 0.269642,-0.647847 0,-0.242938 -0.09683,-0.476735 -0.269642,-0.647846 -0.171465,-0.172409 -0.405757,-0.269059 -0.649211,-0.269059 -0.243462,0 -0.476439,0.09665 -0.649208,0.269059 -0.171474,0.171113 -0.268331,0.40491 -0.268331,0.647848 0,0.242937 0.0968,0.475434 0.268331,0.647847 0.172769,0.171107 0.405746,0.267761 0.649208,0.26776 z M 1.4604927,13.662008 c 0.312824,-0.01431 0.596853,-0.186782 0.752615,-0.457154 0.121732,-0.210285 0.155758,-0.46106 0.0917,-0.696172 -0.06274,-0.235097 -0.217271,-0.434943 -0.428012,-0.556413 -0.439786,-0.252077 -0.999998,-0.101869 -1.25392,0.335678 -0.252631,0.438868 -0.103452,0.997891 0.335063,1.251281 0.153127,0.08754 0.327206,0.130614 0.502604,0.122782 z m 7.832447,-0.108413 c 0.15707,0 0.307594,-0.0614 0.418848,-0.17241 0.111257,-0.111025 0.174091,-0.261232 0.174091,-0.417967 -0.0014,-0.325225 -0.265708,-0.58907 -0.592939,-0.58907 -0.325913,0 -0.589004,0.263845 -0.590303,0.58907 0,0.326534 0.26439,0.590378 0.590303,0.590378 z m 8.3547153,-0.434968 c 0.583759,0 1.05627,-0.471517 1.05627,-1.054052 0,-0.582538 -0.472511,-1.05536 -1.05627,-1.05536 -0.583772,0 -1.056294,0.472822 -1.056294,1.05536 0,0.582535 0.472522,1.054052 1.056294,1.054052 z M 7.0560337,12.542623 c 0.264402,-0.01181 0.505236,-0.158038 0.63874,-0.387922 0.214662,-0.372251 0.08629,-0.84768 -0.286644,-1.06189 -0.371737,-0.214206 -0.848171,-0.08618 -1.06414,0.284741 -0.214659,0.372249 -0.08774,0.847682 0.284041,1.061887 0.129569,0.07439 0.278791,0.111017 0.428003,0.103185 z m -2.687165,-0.377475 c 0.265698,-0.01306 0.505236,-0.159348 0.637428,-0.389224 0.214654,-0.370945 0.08777,-0.846377 -0.28403,-1.061888 -0.17933,-0.103191 -0.392672,-0.130614 -0.591619,-0.07706 -0.200269,0.05361 -0.370423,0.184165 -0.473823,0.3631 -0.214665,0.370953 -0.08775,0.846385 0.28534,1.061899 0.129573,0.07444 0.277485,0.109712 0.426704,0.103181 z m 8.4031263,-0.617799 c 0.09949,-0.0013 0.196328,-0.03004 0.28272,-0.0797 0.282733,-0.163272 0.378276,-0.523765 0.215975,-0.805881 -0.163611,-0.282131 -0.526179,-0.377479 -0.807585,-0.215519 -0.282727,0.163269 -0.379584,0.525071 -0.215977,0.805893 0.107341,0.186776 0.308894,0.300411 0.524867,0.295187 z m 7.43586,-0.108411 c 0.327226,0 0.64136,-0.130614 0.873038,-0.361798 0.231676,-0.231183 0.361255,-0.544658 0.361255,-0.87119 0,-0.6805017 -0.552357,-1.2329907 -1.234293,-1.2329907 -0.328533,0 -0.642671,0.129298 -0.87434,0.360486 -0.231679,0.231197 -0.362569,0.544666 -0.362569,0.8725047 0,0.326532 0.13089,0.640007 0.362569,0.872498 0.231669,0.231163 0.545807,0.360472 0.87434,0.360472 z M 2.2340497,11.346208 c 0.264398,-0.01307 0.505234,-0.159355 0.638739,-0.389229 0.214662,-0.370941 0.08629,-0.846378 -0.286648,-1.0618887 -0.373033,-0.214205 -0.848167,-0.08621 -1.064141,0.2860447 -0.214658,0.370941 -0.08775,0.846377 0.284048,1.061894 0.129568,0.07441 0.278795,0.109713 0.428002,0.103183 z m 5.884809,-0.547269 c 0.230377,-0.01178 0.441101,-0.138452 0.556282,-0.339596 0.09025,-0.155434 0.115186,-0.340902 0.0681,-0.5146187 -0.04583,-0.175021 -0.160994,-0.322617 -0.316752,-0.412742 -0.157079,-0.09012 -0.342938,-0.114939 -0.517022,-0.06791 -0.174077,0.04575 -0.323303,0.16066 -0.413602,0.316097 -0.09025,0.156732 -0.115188,0.3422057 -0.0681,0.5159157 0.04713,0.173719 0.160985,0.322619 0.318059,0.412745 0.112567,0.06533 0.242144,0.09665 0.373035,0.09012 z m 6.3534003,-0.06533 c 0.0863,-0.0024 0.171463,-0.02613 0.244754,-0.06924 0.117806,-0.06792 0.20419,-0.17894 0.23954,-0.309557 0.03405,-0.131916 0.01577,-0.270368 -0.05228,-0.3879217 -0.0681,-0.117543 -0.179322,-0.202448 -0.311524,-0.237713 -0.130878,-0.03528 -0.270941,-0.01704 -0.388738,0.05095 -0.243463,0.142349 -0.327233,0.4532197 -0.185872,0.6974647 0.09295,0.161981 0.267005,0.259939 0.454182,0.256017 z M 5.4303747,10.418837 c 0.231683,-0.01037 0.441105,-0.137146 0.556294,-0.33699 0.09169,-0.1554257 0.115179,-0.3408957 0.06948,-0.5159157 -0.04584,-0.173719 -0.160992,-0.322622 -0.316759,-0.412744 -0.155758,-0.09012 -0.341619,-0.113629 -0.517012,-0.06791 -0.174089,0.04706 -0.322001,0.160664 -0.412304,0.31739 -0.187172,0.323929 -0.07595,0.7392867 0.248688,0.9260617 0.112565,0.06533 0.242147,0.09665 0.371719,0.09012 z m 10.5719873,-0.0063 c 0.07202,-0.0024 0.142663,-0.0222 0.205501,-0.05877 0.206804,-0.118859 0.277478,-0.3827017 0.158368,-0.5890647 -0.05767,-0.09927 -0.151834,-0.17241 -0.263088,-0.201144 -0.111253,-0.03004 -0.22905,-0.01432 -0.328537,0.04314 -0.09949,0.05752 -0.171453,0.151513 -0.201561,0.262535 -0.03013,0.111024 -0.01308,0.2285697 0.0444,0.3278377 0.07849,0.135855 0.226449,0.219448 0.384831,0.215526 z m -3.633507,-0.404908 c 0.115188,-0.0024 0.226448,-0.03264 0.325917,-0.09012 0.155759,-0.09013 0.269634,-0.239023 0.316752,-0.41274 0.04723,-0.173714 0.02222,-0.359186 -0.0681,-0.515921 -0.09024,-0.15543 -0.239522,-0.269064 -0.413604,-0.314782 -0.174087,-0.047 -0.359947,-0.02219 -0.515706,0.06791 -0.325931,0.188074 -0.437179,0.602118 -0.250005,0.927346 0.124344,0.214079 0.356021,0.344693 0.604707,0.338163 z M 3.2968737,9.6000893 c 0.230373,-0.01035 0.439793,-0.13715 0.556288,-0.336985 0.09024,-0.15674 0.115171,-0.342214 0.0681,-0.515922 -0.04718,-0.173722 -0.16099,-0.322618 -0.316748,-0.412737 -0.157077,-0.09012 -0.342943,-0.113634 -0.517023,-0.06791 -0.174073,0.04702 -0.323298,0.160654 -0.413607,0.317384 -0.187171,0.323926 -0.07595,0.739282 0.248683,0.926053 0.113883,0.06534 0.243459,0.09664 0.374349,0.09013 z m 6.028795,-0.05361 c 0.201567,-0.0084 0.383506,-0.121472 0.48429,-0.295188 0.07718,-0.135843 0.09949,-0.296492 0.05884,-0.44801 -0.04189,-0.151509 -0.141366,-0.279511 -0.276178,-0.357877 -0.136131,-0.07827 -0.297128,-0.09932 -0.448959,-0.0587 -0.151828,0.04039 -0.28011,0.13976 -0.358638,0.275594 -0.07846,0.135843 -0.09951,0.296502 -0.05884,0.44801 0.0405,0.150187 0.140064,0.279496 0.276185,0.357866 0.09816,0.05617 0.209416,0.08367 0.323304,0.0783 z m 5.1177933,-0.13196 c 0.09951,-0.0023 0.196333,-0.03005 0.282722,-0.0783 0.282724,-0.163266 0.379583,-0.525065 0.215968,-0.805885 -0.163622,-0.282124 -0.524862,-0.378777 -0.807594,-0.215515 -0.282705,0.163263 -0.379583,0.523755 -0.215965,0.805882 0.108642,0.185469 0.30891,0.297797 0.524869,0.293881 z m 1.807594,-0.116251 c 0.0863,-0.0022 0.168851,-0.02613 0.243454,-0.06929 0.117808,-0.06791 0.204197,-0.178944 0.239521,-0.30956 0.03541,-0.131913 0.01707,-0.270363 -0.05101,-0.387915 -0.0681,-0.117547 -0.180626,-0.20375 -0.311517,-0.237715 -0.13089,-0.03533 -0.270933,-0.01704 -0.388729,0.05094 -0.1178,0.06791 -0.202886,0.180239 -0.238226,0.310852 -0.03542,0.130619 -0.0158,0.270377 0.05228,0.387927 0.09293,0.160684 0.267024,0.258646 0.4542,0.254723 z M 6.6371867,9.1689403 c 0.201564,-0.0104 0.383505,-0.121474 0.484296,-0.296497 0.163606,-0.282121 0.0667,-0.642614 -0.215978,-0.805881 -0.13612,-0.07717 -0.297113,-0.09932 -0.448951,-0.05751 -0.150517,0.0404 -0.280094,0.139761 -0.358631,0.274298 -0.163619,0.28212 -0.06668,0.64262 0.215964,0.805882 0.09816,0.0575 0.210736,0.08494 0.3233,0.07974 z m 4.8403153,-0.807124 c 0.130881,-0.0021 0.257848,-0.03928 0.37172,-0.104473 0.371723,-0.214202 0.498696,-0.689643 0.284038,-1.061886 -0.214665,-0.370941 -0.691102,-0.498941 -1.064145,-0.284735 -0.179316,0.103191 -0.310202,0.272979 -0.363862,0.472821 -0.05375,0.199834 -0.0262,0.411432 0.07846,0.590374 0.142661,0.246845 0.408374,0.395742 0.693723,0.387908 z m -3.6465973,0 c 0.175396,-0.0069 0.332456,-0.103222 0.420154,-0.253393 0.0681,-0.117555 0.08631,-0.257306 0.05101,-0.387923 -0.03542,-0.131917 -0.121732,-0.242942 -0.239529,-0.310863 -0.24477,-0.139752 -0.556275,-0.05614 -0.697639,0.188085 -0.0681,0.116247 -0.08631,0.256001 -0.05226,0.386617 0.03543,0.131942 0.121732,0.242966 0.23823,0.310886 0.08506,0.04823 0.183232,0.07183 0.280095,0.06655 z m -3.328535,-0.01311 c 0.201573,-0.0081 0.384815,-0.120161 0.485601,-0.295187 0.0773,-0.134531 0.09816,-0.296493 0.05765,-0.446698 -0.04053,-0.15151 -0.140052,-0.280817 -0.274859,-0.35919 -0.136131,-0.07705 -0.298429,-0.09932 -0.448961,-0.05869 -0.151832,0.04182 -0.281415,0.141056 -0.35864,0.275595 -0.07844,0.135832 -0.09952,0.29649 -0.05878,0.448003 0.04052,0.151508 0.140039,0.280822 0.27486,0.357881 0.09817,0.05616 0.209426,0.0837 0.3233,0.07827 z M 16.22226,7.9789683 c 0.09816,-0.0021 0.195021,-0.03005 0.28141,-0.07977 0.136125,-0.07698 0.234291,-0.206371 0.276185,-0.357874 0.0405,-0.150206 0.01973,-0.312168 -0.05884,-0.448005 -0.163614,-0.28082 -0.524875,-0.37748 -0.807591,-0.215516 -0.136129,0.07827 -0.235602,0.207683 -0.276182,0.359189 -0.04052,0.150205 -0.01975,0.312171 0.05879,0.448005 0.108612,0.185469 0.310211,0.299105 0.526185,0.293878 z m -2.179326,-0.104477 c 0.113871,-0.0021 0.225133,-0.03258 0.323309,-0.09012 0.157069,-0.09013 0.270939,-0.23773 0.318061,-0.411434 0.04583,-0.175034 0.02221,-0.360504 -0.0681,-0.515926 -0.09026,-0.156741 -0.239532,-0.270377 -0.413613,-0.317393 -0.175394,-0.04578 -0.361264,-0.02219 -0.517017,0.06791 -0.15706,0.09013 -0.270942,0.239032 -0.31806,0.412731 -0.04585,0.173731 -0.02092,0.35919 0.0681,0.515942 0.125657,0.215478 0.358642,0.344797 0.607324,0.338252 z M 5.6973967,7.5440323 c 0.174083,-0.0081 0.331152,-0.104482 0.41885,-0.254696 0.0681,-0.117549 0.08629,-0.257307 0.051,-0.387922 -0.03542,-0.130615 -0.120422,-0.242943 -0.238227,-0.310853 -0.117798,-0.06791 -0.257848,-0.08618 -0.388738,-0.05094 -0.130891,0.03535 -0.243454,0.121469 -0.311519,0.239026 -0.0681,0.117563 -0.08631,0.256003 -0.05102,0.387932 0.03543,0.130614 0.120422,0.241633 0.238218,0.30955 0.08505,0.04973 0.183249,0.07183 0.281416,0.06791 z m 1.155756,-0.462387 c 0.146595,-0.0059 0.280108,-0.08758 0.354716,-0.214207 0.119105,-0.20637 0.04708,-0.470208 -0.159691,-0.589058 -0.09949,-0.05869 -0.217274,-0.07434 -0.328526,-0.0443 -0.111266,0.03005 -0.205503,0.101877 -0.263098,0.201149 -0.05765,0.09932 -0.07338,0.216811 -0.04325,0.327836 0.03012,0.111025 0.102083,0.205054 0.201553,0.26253 0.0734,0.04183 0.155771,0.06143 0.238227,0.05617 z m 3.126963,-0.342207 c 0.1531433,-0.0028 0.3036653,-0.04703 0.4371763,-0.124074 0.43848,-0.253391 0.590303,-0.812418 0.336384,-1.251287 -0.121735,-0.210285 -0.321986,-0.364411 -0.557591,-0.427097 -0.2356003,-0.064 -0.4855993,-0.03005 -0.6976373,0.09146 -0.210743,0.121463 -0.363881,0.321319 -0.426709,0.556412 -0.06274,0.235119 -0.03013,0.485887 0.09171,0.696177 0.167536,0.289963 0.480365,0.464986 0.816744,0.458451 z m 5.8389993,-0.300415 c 0.115191,-0.0021 0.226441,-0.03258 0.32591,-0.09014 0.155765,-0.09013 0.270945,-0.237707 0.316758,-0.412733 0.04715,-0.173721 0.02222,-0.359185 -0.0681,-0.514612 -0.09025,-0.156738 -0.23821,-0.270373 -0.413608,-0.317395 -0.174083,-0.04706 -0.359943,-0.02219 -0.515712,0.06791 -0.157059,0.09014 -0.270937,0.239026 -0.318058,0.412747 -0.04707,0.173716 -0.0222,0.359193 0.0681,0.515925 0.124351,0.214202 0.356018,0.344817 0.604716,0.338284 z m -2.670152,-0.21028 c 0.130893,-0.002 0.259159,-0.03928 0.37172,-0.103222 0.179321,-0.104485 0.310221,-0.274294 0.362571,-0.472814 0.05372,-0.199853 0.02618,-0.412743 -0.07845,-0.591689 -0.214654,-0.370944 -0.691093,-0.497633 -1.06414,-0.283431 -0.37172,0.215521 -0.499999,0.69095 -0.285335,1.061885 0.142666,0.246884 0.408386,0.395773 0.693719,0.389251 z M 7.8256607,5.2439113 c 0.176707,-0.0042 0.349479,-0.05365 0.502626,-0.141064 0.243451,-0.139761 0.42016,-0.370941 0.493449,-0.641305 0.0734,-0.27037 0.03541,-0.557727 -0.106021,-0.800674 -0.140054,-0.242932 -0.370412,-0.419258 -0.641363,-0.491096 -0.270946,-0.07324 -0.560204,-0.03532 -0.802354,0.105798 -0.505232,0.291258 -0.67801,0.935195 -0.386125,1.439364 0.192409,0.334377 0.553665,0.536831 0.939787,0.528989 z m 7.1020963,-0.449295 c 0.130899,-0.0028 0.257845,-0.0393 0.371726,-0.105808 0.371719,-0.214206 0.498691,-0.689639 0.284034,-1.061885 -0.214659,-0.370947 -0.691102,-0.498949 -1.064142,-0.284742 -0.373034,0.214206 -0.499993,0.68963 -0.285324,1.061881 0.141349,0.24684 0.408359,0.397046 0.693706,0.390515 z m -3.276174,-0.189395 c 0.154448,-0.0028 0.304967,-0.04579 0.438475,-0.122778 0.438483,-0.252074 0.58901,-0.812419 0.336396,-1.251271 -0.121737,-0.2103 -0.323303,-0.364408 -0.557593,-0.427109 -0.235601,-0.06263 -0.486918,-0.03005 -0.697644,0.09146 -0.210741,0.121471 -0.365179,0.32262 -0.428021,0.557715 -0.06274,0.233798 -0.03012,0.484581 0.09295,0.694855 0.167537,0.289949 0.480369,0.464977 0.815444,0.457136 z m -6.7133393,-0.4676 c 0.205484,-0.0042 0.408359,-0.06263 0.586376,-0.165863 0.590313,-0.339603 0.793191,-1.093241 0.452883,-1.68232 -0.341624,-0.58906 -1.096858,-0.791509 -1.687177,-0.45062 -0.590301,0.339598 -0.791878,1.093247 -0.451567,1.68232 0.22513,0.390496 0.646594,0.626907 1.099485,0.616467 z m 8.4921313,-0.967849 c 0.153143,-0.0028 0.303678,-0.04579 0.437172,-0.122783 0.439784,-0.252079 0.59031,-0.812413 0.336379,-1.251273 -0.121727,-0.210299 -0.32198,-0.364412 -0.557589,-0.427109 -0.235593,-0.06263 -0.485603,-0.03005 -0.697636,0.09147 -0.210734,0.12147 -0.36388,0.321316 -0.426707,0.556414 -0.06274,0.235108 -0.03012,0.48589 0.0917,0.696167 0.168843,0.289938 0.481668,0.464958 0.816745,0.457124 z m -3.9332453,-0.06008 c 0.176713,-0.0028 0.350785,-0.05365 0.502615,-0.141064 0.5065503,-0.291259 0.6793203,-0.9352 0.3887503,-1.440659 -0.140045,-0.241639 -0.37173,-0.419277 -0.6426703,-0.492416 -0.270942,-0.07183 -0.558903,-0.03396 -0.802354,0.105811 -0.243461,0.13975 -0.420165,0.370928 -0.492145,0.641308 -0.0734,0.270363 -0.03405,0.55772 0.10601,0.800661 0.193723,0.333082 0.553664,0.535525 0.939792,0.526393 z"
       id="start-here-kde-9-7" />
  </g>
</svg>
