<?xml version="1.0" encoding="UTF-8" standalone="no"?>
<svg
   xmlns:dc="http://purl.org/dc/elements/1.1/"
   xmlns:cc="http://creativecommons.org/ns#"
   xmlns:rdf="http://www.w3.org/1999/02/22-rdf-syntax-ns#"
   xmlns:svg="http://www.w3.org/2000/svg"
   xmlns="http://www.w3.org/2000/svg"
   xmlns:sodipodi="http://sodipodi.sourceforge.net/DTD/sodipodi-0.dtd"
   xmlns:inkscape="http://www.inkscape.org/namespaces/inkscape"
   inkscape:version="1.0.2 (e86c870879, 2021-01-15)"
   sodipodi:docname="system-lock-screen.svg"
   id="svg6"
   version="1.1"
   viewBox="0 0 32 32">
  <metadata
     id="metadata10">
    <rdf:RDF>
      <cc:Work
         rdf:about="">
        <dc:format>image/svg+xml</dc:format>
        <dc:type
           rdf:resource="http://purl.org/dc/dcmitype/StillImage" />
      </cc:Work>
    </rdf:RDF>
  </metadata>
  <sodipodi:namedview
     inkscape:document-rotation="0"
     inkscape:current-layer="svg6"
     inkscape:window-maximized="1"
     inkscape:window-y="0"
     inkscape:window-x="0"
     inkscape:cy="17.077158"
     inkscape:cx="11.594147"
     inkscape:zoom="10.028541"
     showgrid="true"
     id="namedview8"
     inkscape:window-height="1007"
     inkscape:window-width="1920"
     inkscape:pageshadow="2"
     inkscape:pageopacity="0"
     guidetolerance="10"
     gridtolerance="10"
     objecttolerance="10"
     borderopacity="1"
     bordercolor="#666666"
     pagecolor="#ffffff">
    <inkscape:grid
       type="xygrid"
       id="grid862" />
  </sodipodi:namedview>
  <defs
     id="defs3051">
    <style
       id="current-color-scheme"
       type="text/css">
      .ColorScheme-Text {
        color:#eff0f1;
      }
      </style>
  </defs>
  <path
     d="M 13.502929,13.872836 V 11.9663 c 0,-1.34089 1.185581,-2.4278805 2.648801,-2.4278805 1.46289,0 2.648798,1.0880405 2.648798,2.4278805 v 1.906536 h 0.537355 c 0.501186,0 0.907463,0.432024 0.907463,0.962442 v 4.817538 c 0,0.531531 -0.406008,0.962443 -0.907463,0.962443 h -6.372309 c -0.501176,0 -0.907453,-0.432025 -0.907453,-0.962443 v -4.817538 c 0,-0.531554 0.405999,-0.962442 0.907453,-0.962442 z m -0.481613,0.963202 v 4.816013 h 6.26082 v -4.816013 z m 4.816017,-0.963202 V 11.9663 c 0,-0.788671 -0.737295,-1.464675 -1.685603,-1.464675 -0.948952,0 -1.685606,0.675258 -1.685606,1.464675 v 1.906536 z m -2.167203,2.785785 c 0,-0.26593 0.213762,-0.481512 0.4816,-0.481512 0.265985,0 0.481596,0.213696 0.481596,0.481512 v 1.444988 c 0,0.26593 -0.213759,0.481513 -0.481596,0.481513 -0.265988,0 -0.4816,-0.213703 -0.4816,-0.481513 z"
     id="path6-3"
     style="fill:#eff0f1;fill-opacity:1;fill-rule:nonzero;stroke-width:0.240803" />
  <path
     d="m 16.020451,4.0002124 c 0,0 0.275287,0.012097 0.791091,0.034434 0.128791,0.0092 0.27372,0.0046 0.430767,0.0264 0.157025,0.02298 0.328651,0.047817 0.514247,0.074766 0.184971,0.030097 0.386387,0.049382 0.596502,0.09403 0.209172,0.050302 0.43138,0.1036611 0.666014,0.1601442 0.930116,0.2451763 2.056083,0.635293 3.21244,1.3512721 1.153899,0.7088437 2.363964,1.7038303 3.392151,3.0662811 1.014228,1.3627462 1.846598,3.0870672 2.221502,5.0695912 0.0552,0.246108 0.06738,0.499352 0.102729,0.752911 l 0.04468,0.383285 0.02206,0.193043 0.0046,0.222527 c 0.0028,0.493764 0.04597,0.954022 -0.0239,1.530963 -0.02797,0.274039 -0.0385,0.564225 -0.08594,0.833597 -0.05058,0.268768 -0.101493,0.538776 -0.15239,0.810341 -0.04098,0.27589 -0.134695,0.537836 -0.21011,0.808456 l -0.121346,0.405011 c -0.0372,0.136864 -0.08539,0.270008 -0.142449,0.39973 -0.388871,1.071333 -0.978228,2.084633 -1.677143,3.041765 -0.186208,0.229967 -0.376143,0.459318 -0.569802,0.687433 -0.185902,0.235858 -0.417116,0.428906 -0.626288,0.645834 l -0.32369,0.317181 c -0.109873,0.103966 -0.231838,0.193965 -0.347911,0.291732 -0.236484,0.190241 -0.471118,0.386079 -0.720024,0.562978 -0.999015,0.708534 -2.120928,1.258471 -3.303688,1.653866 -1.189585,0.387317 -2.444016,0.544355 -3.693799,0.582215 l -0.284907,-0.0125 -0.206084,-0.0118 -0.412449,-0.0236 -0.20607,-0.0118 c -0.06642,-0.003 -0.136555,-0.0078 -0.223766,-0.0221 l -0.492843,-0.07297 -0.491909,-0.0773 -0.24517,-0.0403 -0.227798,-0.0581 c -0.303218,-0.077 -0.603328,-0.164178 -0.903443,-0.247661 -1.182441,-0.397253 -2.306841,-0.942855 -3.3058662,-1.652627 -0.249524,-0.175964 -0.482599,-0.374596 -0.72157,-0.561431 -0.116062,-0.09774 -0.238348,-0.188069 -0.348207,-0.292038 l -0.324007,-0.317485 c -0.20949,-0.217243 -0.440706,-0.410279 -0.626605,-0.646466 -0.190868,-0.229658 -0.381427,-0.458694 -0.571363,-0.686798 -0.698286,-0.958687 -1.290131,-1.971352 -1.678688,-3.043933 -0.384527,-1.068855 -0.647085,-2.157882 -0.709464,-3.234176 -0.0677,-0.533803 -0.031,-1.066686 -0.02738,-1.585592 l 0.0068,-0.232455 0.0221,-0.180314 0.04408,-0.359074 c 0.03502,-0.243321 0.045,-0.465532 0.100246,-0.721573 0.0549,-0.25293 0.109549,-0.504319 0.163549,-0.753843 0.02948,-0.122897 0.0503,-0.24921 0.08728,-0.366523 l 0.114526,-0.348219 c 0.0763,-0.22966 0.151762,-0.457455 0.226863,-0.683395 0.0912,-0.220032 0.190874,-0.434175 0.284592,-0.647395 0.169456,-0.43387 0.412769,-0.824292 0.627227,-1.214399 0.101168,-0.1986266 0.234929,-0.3761511 0.358455,-0.5558451 0.123212,-0.1793801 0.244862,-0.356905 0.36559,-0.532565 1.029132,-1.3624417 2.240125,-2.357114 3.394627,-3.0653393 1.1566792,-0.715979 2.2829542,-1.1051637 3.2130772,-1.350654 0.234625,-0.056218 0.456835,-0.10955 0.666013,-0.1598296 0.210108,-0.044679 0.411217,-0.06397 0.596183,-0.09403 0.185288,-0.027042 0.356905,-0.051879 0.513947,-0.07477 0.157346,-0.02206 0.302591,-0.017358 0.431072,-0.0264 C 15.745201,4.012184 16.020479,4 16.020479,4 Z m 0,0 c 0,0 -0.27497,0.01588 -0.790471,0.04532 -0.128482,0.010898 -0.273413,0.00838 -0.430141,0.032302 -0.156729,0.025102 -0.327425,0.052157 -0.51209,0.081599 -0.184032,0.032582 -0.384513,0.054279 -0.593071,0.1017954 -0.206696,0.056766 -0.426114,0.1170088 -0.658259,0.1806265 -0.914922,0.2796257 -2.019776,0.7082254 -3.0979342,1.4958993 -1.081574,0.7671817 -2.160356,1.8468963 -2.975341,3.2354149 -0.389492,0.7029455 -0.74888,1.4574075 -0.980709,2.2807765 -0.0571,0.20576 -0.119489,0.410904 -0.173181,0.619462 -0.03782,0.212593 -0.07565,0.426735 -0.114214,0.642429 l -0.0581,0.322456 c -0.01799,0.107685 -0.01799,0.214143 -0.02792,0.320896 -0.01611,0.211973 -0.03258,0.425498 -0.04907,0.640573 -0.0186,0.21166 0.004,0.468938 0.003,0.703878 l 0.0078,0.361871 0.004,0.181862 c -6.19e-4,0.04283 9.22e-4,-0.03257 0.002,-0.01708 l 0.003,0.02113 0.0059,0.04217 0.01112,0.08437 c 0.0649,0.450009 0.0934,0.904979 0.219728,1.349408 0.175355,0.900641 0.546227,1.764041 0.961783,2.593303 0.115448,0.201723 0.231524,0.404386 0.347904,0.60798 0.117626,0.201407 0.269075,0.384209 0.397556,0.579416 l 0.199874,0.288936 0.228413,0.269395 c 0.155796,0.176587 0.29794,0.364034 0.462431,0.532868 0.646463,0.688977 1.401858,1.268101 2.1957332,1.780173 l 0.621014,0.344807 c 0.201423,0.125375 0.432634,0.193344 0.643979,0.298559 l 0.322771,0.147722 c 0.108932,0.046 0.224075,0.077 0.33549,0.116698 0.225626,0.072 0.44597,0.160444 0.674394,0.22221 0.23121,0.05339 0.462735,0.103035 0.692082,0.162622 l 0.17194,0.0435 0.162311,0.0217 0.324007,0.04712 0.323387,0.05182 c 0.0481,0.0114 0.115449,0.0149 0.18683,0.0171 l 0.20638,0.0098 0.41277,0.01799 0.206389,0.0098 0.103033,0.005 0.05152,0.003 0.02571,0.002 c -0.0264,-3.16e-4 0.09558,0.003 -0.0528,-6.28e-4 0.952784,-0.0139 1.897187,-0.141831 2.81458,-0.384526 0.228736,-0.06172 0.449082,-0.150513 0.674707,-0.222524 0.111415,-0.03969 0.226558,-0.07102 0.33549,-0.116998 l 0.323074,-0.14711 c 0.213211,-0.101795 0.443497,-0.172551 0.645226,-0.297314 l 0.62132,-0.345117 c 0.797605,-0.508664 1.549592,-1.092746 2.199462,-1.779241 0.164491,-0.169144 0.306634,-0.356592 0.46243,-0.533496 l 0.228414,-0.269695 0.199872,-0.289243 c 0.129415,-0.194906 0.281176,-0.377704 0.398804,-0.579745 0.11638,-0.203581 0.232447,-0.406558 0.347903,-0.608596 0.128796,-0.197696 0.197065,-0.420835 0.301661,-0.629085 0.09307,-0.212589 0.206692,-0.419284 0.270006,-0.641496 0.07546,-0.219726 0.150212,-0.438531 0.224693,-0.656394 0.07269,-0.218177 0.105518,-0.4286 0.162315,-0.643665 0.124446,-0.401286 0.159522,-0.928886 0.223455,-1.404035 l 0.01113,-0.09063 0.0059,-0.04532 0.003,-0.02271 c 0.002,-0.01615 -9.23e-4,0.05963 0,0.01736 l 0.0039,-0.169143 0.0087,-0.337659 c 0,-0.224389 0.0242,-0.450938 0.0059,-0.672225 C 26.418551,12.248994 25.895293,10.560377 25.083408,9.1724771 24.267802,7.783968 23.187782,6.7045579 22.105583,5.9383084 21.027115,5.1509392 19.921638,4.7229672 19.007033,4.4433417 18.774892,4.3797427 18.555467,4.3195118 18.348774,4.2630292 18.13991,4.2154892 17.939733,4.1937962 17.755691,4.1615377 c -0.184659,-0.029442 -0.355657,-0.056766 -0.512082,-0.081599 -0.156727,-0.02418 -0.301972,-0.021419 -0.430454,-0.032303 -0.515952,-0.02976 -0.790922,-0.04559 -0.790922,-0.04559 z"
     id="path2-8-9"
     style="fill:#eff0f1;fill-opacity:1;stroke-width:0.310354" />
</svg>
