<?xml version="1.0" encoding="UTF-8" standalone="no"?>
<svg
   xmlns:dc="http://purl.org/dc/elements/1.1/"
   xmlns:cc="http://creativecommons.org/ns#"
   xmlns:rdf="http://www.w3.org/1999/02/22-rdf-syntax-ns#"
   xmlns:svg="http://www.w3.org/2000/svg"
   xmlns="http://www.w3.org/2000/svg"
   xmlns:xlink="http://www.w3.org/1999/xlink"
   xmlns:sodipodi="http://sodipodi.sourceforge.net/DTD/sodipodi-0.dtd"
   xmlns:inkscape="http://www.inkscape.org/namespaces/inkscape"
   width="25.999996"
   height="26.000006"
   viewBox="0 0 25.999996 26.000005"
   id="svg7925"
   version="1.1"
   inkscape:version="1.0.2 (e86c870879, 2021-01-15)"
   sodipodi:docname="system-file-manager.svg">
  <defs
     id="defs7927">
    <linearGradient
       id="linearGradient4274"
       inkscape:collect="always">
      <stop
         id="stop4276"
         offset="0"
         style="stop-color:#ffffff;stop-opacity:1;" />
      <stop
         id="stop4278"
         offset="1"
         style="stop-color:#ffffff;stop-opacity:0.48760331" />
    </linearGradient>
    <linearGradient
       inkscape:collect="always"
       xlink:href="#linearGradient4274"
       id="linearGradient8485"
       gradientUnits="userSpaceOnUse"
       gradientTransform="matrix(0.69224711,0,0,0.69224711,-264.27155,1668.4354)"
       x1="390.57144"
       y1="498.298"
       x2="442.57144"
       y2="498.298" />
    <linearGradient
       inkscape:collect="always"
       xlink:href="#linearGradient4274"
       id="linearGradient8603-0"
       gradientUnits="userSpaceOnUse"
       gradientTransform="matrix(0.34616832,0,0,0.34616832,-135.15325,827.3248)"
       x1="390.57144"
       y1="498.298"
       x2="442.57144"
       y2="498.298" />
    <linearGradient
       inkscape:collect="always"
       xlink:href="#linearGradient847"
       id="linearGradient859"
       x1="0"
       y1="256.82327"
       x2="512"
       y2="256.82327"
       gradientUnits="userSpaceOnUse"
       gradientTransform="matrix(0.05078115,0,0,0.05196306,-44.134816,1024.925)" />
    <linearGradient
       inkscape:collect="always"
       id="linearGradient847">
      <stop
         style="stop-color:#00d3ff;stop-opacity:1"
         offset="0"
         id="stop843" />
      <stop
         style="stop-color:#006899;stop-opacity:1"
         offset="1"
         id="stop845" />
    </linearGradient>
    <linearGradient
       inkscape:collect="always"
       xlink:href="#linearGradient847"
       id="linearGradient854"
       x1="-33.039066"
       y1="1029.4059"
       x2="-26.134674"
       y2="1029.4059"
       gradientUnits="userSpaceOnUse"
       gradientTransform="matrix(1.1153569,0,0,1.1213255,3.4182156,-124.74423)" />
  </defs>
  <sodipodi:namedview
     id="base"
     pagecolor="#ffffff"
     bordercolor="#666666"
     borderopacity="1.0"
     inkscape:pageopacity="0.0"
     inkscape:pageshadow="2"
     inkscape:zoom="16"
     inkscape:cx="30.110612"
     inkscape:cy="12.492937"
     inkscape:document-units="px"
     inkscape:current-layer="layer1"
     showgrid="true"
     units="px"
     inkscape:snap-bbox="true"
     inkscape:bbox-nodes="true"
     inkscape:object-nodes="true"
     inkscape:document-rotation="0"
     inkscape:window-width="1920"
     inkscape:window-height="1007"
     inkscape:window-x="0"
     inkscape:window-y="0"
     inkscape:window-maximized="1">
    <inkscape:grid
       type="xygrid"
       id="grid8605"
       originx="44.13481"
       originy="6.1838588" />
  </sodipodi:namedview>
  <metadata
     id="metadata7930">
    <rdf:RDF>
      <cc:Work
         rdf:about="">
        <dc:format>image/svg+xml</dc:format>
        <dc:type
           rdf:resource="http://purl.org/dc/dcmitype/StillImage" />
        <dc:title />
      </cc:Work>
    </rdf:RDF>
  </metadata>
  <g
     inkscape:label="Livello 1"
     inkscape:groupmode="layer"
     id="layer1"
     transform="translate(44.134812,-1024.1783)">
    <path
       style="fill:url(#linearGradient854);fill-opacity:1;stroke-width:0.0513683"
       d="m -30.44479,1030.2664 c 0.419539,0.4239 0.985647,0.6649 1.575556,0.6649 h 0.872373 2.265592 c -0.589911,0 -1.156005,-0.241 -1.575563,-0.6649 l -1.411789,-1.4264 c -0.41966,-0.4241 -0.985704,-0.6617 -1.575543,-0.6617 h -3.13797 c 0.589827,0 1.155952,0.2376 1.575569,0.6617 z"
       id="path2" />
    <path
       style="fill:#006a80;fill-opacity:1;stroke-width:0.0513683"
       d="m -34.99461,1028.84 1.411875,1.4264 c 0.41951,0.4239 0.985611,0.6649 1.575528,0.6649 h 0.872373 2.2656 c -0.589909,0 -1.156017,-0.241 -1.575556,-0.6649 l -1.411775,-1.4264 c -0.41967,-0.4241 -0.985742,-0.6617 -1.575569,-0.6617 h -3.081996 -0.05597 c 0.589904,0 1.155957,0.2376 1.575517,0.6617 z"
       id="path4" />
    <path
       style="fill:url(#linearGradient859);fill-opacity:1;stroke-width:0.0481887"
       d="m -19.479676,1030.6005 h -5.379313 -0.872409 -2.265554 -0.872407 -2.265475 -0.872373 c -0.589917,0 -1.156018,-0.2098 -1.575528,-0.5826 l -1.411875,-1.2572 c -0.419599,-0.3726 -0.985648,-0.5824 -1.575547,-0.5824 h -3.081905 -3.137915 c -0.742696,0 -1.344835,0.5416 -1.344835,1.2111 v 2.422 0.4038 14.9359 c 0,0.6695 0.602139,1.2111 1.344835,1.2111 h 23.310301 c 0.742714,0 1.344864,-0.5416 1.344864,-1.2111 v -15.3397 c 0,-0.6694 -0.60215,-1.2109 -1.344864,-1.2109 z m -9.434977,2.4646 h 0.0033 l -0.0033,-0.011 v 0 l 0.0033,0.011 v 0 h -0.0033 l 0.002,-0.017 z m 8.986771,0.361 c 0,0.4465 -0.40138,0.8074 -0.896575,0.8074 h -6.275869 c -0.495201,0 -0.896575,-0.3609 -0.896575,-0.8074 v -0.4037 c 0,-0.4465 0.401374,-0.8073 0.896575,-0.8073 h 6.275809 c 0.495236,0 0.896582,0.3608 0.896582,0.8073 v 0.4037 z"
       id="path6"
       sodipodi:nodetypes="scccccsccscssccssssssccccccccccssssssscc" />
    <path
       style="fill:#ffffff;fill-opacity:1;stroke-width:0.0513683"
       d="m -20.824517,1032.0752 h -6.275809 c -0.495201,0 -0.906734,0.4102 -0.906734,0.9178 v 0.4579 c 0,0.5062 0.411533,0.916 0.906734,0.916 h 6.275809 c 0.495236,0 0.961521,-0.4098 0.972759,-0.916 l 0.0088,-0.4579 c 5.6e-5,-0.5076 -0.487651,-0.9178 -0.982896,-0.9178 z"
       id="path8"
       sodipodi:nodetypes="ssssssscs" />
  </g>
</svg>
