<?xml version="1.0" encoding="UTF-8" standalone="no"?>
<svg
   xmlns:dc="http://purl.org/dc/elements/1.1/"
   xmlns:cc="http://creativecommons.org/ns#"
   xmlns:rdf="http://www.w3.org/1999/02/22-rdf-syntax-ns#"
   xmlns:svg="http://www.w3.org/2000/svg"
   xmlns="http://www.w3.org/2000/svg"
   xmlns:xlink="http://www.w3.org/1999/xlink"
   xmlns:sodipodi="http://sodipodi.sourceforge.net/DTD/sodipodi-0.dtd"
   xmlns:inkscape="http://www.inkscape.org/namespaces/inkscape"
   inkscape:version="1.0.2 (e86c870879, 2021-01-15)"
   sodipodi:docname="system-shutdown.svg"
   id="svg6"
   version="1.1"
   viewBox="0 0 32 32">
  <metadata
     id="metadata10">
    <rdf:RDF>
      <cc:Work
         rdf:about="">
        <dc:format>image/svg+xml</dc:format>
        <dc:type
           rdf:resource="http://purl.org/dc/dcmitype/StillImage" />
      </cc:Work>
    </rdf:RDF>
  </metadata>
  <sodipodi:namedview
     inkscape:document-rotation="0"
     inkscape:lockguides="true"
     inkscape:current-layer="svg6"
     inkscape:window-maximized="1"
     inkscape:window-y="0"
     inkscape:window-x="0"
     inkscape:cy="21.666527"
     inkscape:cx="44.830996"
     inkscape:zoom="14.182499"
     showgrid="false"
     id="namedview8"
     inkscape:window-height="1007"
     inkscape:window-width="1920"
     inkscape:pageshadow="2"
     inkscape:pageopacity="0"
     guidetolerance="10"
     gridtolerance="10"
     objecttolerance="10"
     borderopacity="1"
     bordercolor="#666666"
     pagecolor="#ffffff" />
  <defs
     id="defs3051">
    <style
       id="current-color-scheme"
       type="text/css">
      .ColorScheme-Text {
        color:#eff0f1;
      }
      </style>
    <linearGradient
       inkscape:collect="always"
       id="linearGradient1126">
      <stop
         style="stop-color:#00b2b2;stop-opacity:1"
         offset="0"
         id="stop1119" />
      <stop
         style="stop-color:#0074b2;stop-opacity:1"
         offset="1"
         id="stop1121" />
    </linearGradient>
    <linearGradient
       inkscape:collect="always"
       id="linearGradient1121">
      <stop
         style="stop-color:#00dddd;stop-opacity:1"
         offset="0"
         id="stop1113" />
      <stop
         style="stop-color:#006498;stop-opacity:1"
         offset="1"
         id="stop1116" />
    </linearGradient>
    <linearGradient
       inkscape:collect="always"
       xlink:href="#linearGradient1121"
       id="linearGradient1127"
       gradientUnits="userSpaceOnUse"
       x1="41.927547"
       y1="-111.32242"
       x2="41.779678"
       y2="-86.445412"
       gradientTransform="matrix(0.91279033,0,0,0.92307688,-22.288363,107.38459)" />
    <linearGradient
       inkscape:collect="always"
       xlink:href="#linearGradient1121"
       id="linearGradient1136-7"
       x1="33.937"
       y1="-98.009689"
       x2="49.864002"
       y2="-98.009689"
       gradientUnits="userSpaceOnUse"
       gradientTransform="matrix(0.92307688,0,0,0.92307688,-22.618772,107.4769)" />
    <linearGradient
       inkscape:collect="always"
       xlink:href="#linearGradient1126"
       id="linearGradient1523"
       x1="40.132999"
       y1="-102.4"
       x2="43.799671"
       y2="-102.4"
       gradientUnits="userSpaceOnUse"
       gradientTransform="matrix(0.92307688,0,0,0.92307688,-22.584615,108.58459)" />
  </defs>
  <path
     d="M 15.986442,28 C 15.344718,28 14.703004,27.94421 14.061298,27.832645 7.5325544,26.772725 3.0963544,20.608438 4.1565834,14.081558 4.6587884,10.929678 6.3886264,8.1404076 8.9833914,6.2716017 11.578143,4.4027959 14.758805,3.6496843 17.911572,4.1517559 c 6.528743,1.0599226 10.992844,7.2242051 9.93261,13.7510921 -0.195298,1.255177 -0.5859,2.454555 -1.171817,3.570265 -0.139506,0.278925 -0.279005,0.529958 -0.446409,0.780992 -0.251114,0.390498 -0.753318,0.529964 -1.143931,0.27893 -0.390606,-0.251034 -0.530112,-0.753101 -0.279003,-1.1436 0.139502,-0.223139 0.251101,-0.446277 0.390609,-0.669423 0.502213,-0.948353 0.837017,-2.008277 1.004416,-3.068198 C 27.090866,12.045386 23.268488,6.7178817 17.632575,5.8253218 14.898308,5.3790325 12.19196,6.0205714 9.9320074,7.6383462 7.6999634,9.2561216 6.2212344,11.627 5.7748244,14.360479 c -0.920724,5.606426 2.929551,10.933933 8.5375706,11.826499 2.399453,0.390492 4.854704,-0.08365 6.919353,-1.310953 0.390609,-0.223146 0.920712,-0.111577 1.143918,0.278923 0.223205,0.390498 0.111607,0.920454 -0.279004,1.1436 C 20.25523,27.414259 18.134777,28 15.986442,28 Z"
     id="path2-53-5"
     style="fill:url(#linearGradient1127);fill-opacity:1;stroke-width:0.278967" />
  <path
     d="m 16.058617,22.429368 c -3.546595,0 -6.4320676,-2.885469 -6.4320676,-6.432064 0,-1.718236 0.6691686,-3.333375 1.8839166,-4.547884 0.179402,-0.179413 0.179402,-0.470236 0,-0.649877 -0.179178,-0.179409 -0.470005,-0.179178 -0.649876,0 -1.3881736,1.388179 -2.1528986,3.233956 -2.1528986,5.197761 0,4.053348 3.2975796,7.350926 7.3509256,7.350926 4.05335,0 7.35092,-3.297578 7.35092,-7.350926 0,-1.96404 -0.764722,-3.810275 -2.153588,-5.198213 -0.179409,-0.179178 -0.470463,-0.179409 -0.649871,0 -0.179174,0.179409 -0.179174,0.470453 2.3e-4,0.649864 1.215202,1.214508 1.884366,2.829883 1.884366,4.548349 0,3.546595 -2.885469,6.432064 -6.432057,6.432064 z"
     id="path2-5-5-6"
     style="fill:url(#linearGradient1136-7);fill-opacity:1;stroke-width:0.22972" />
  <path
     style="color:#000000;text-indent:0;text-transform:none;direction:ltr;baseline-shift:baseline;fill:url(#linearGradient1523);fill-opacity:1;stroke-width:0.169233;enable-background:accumulate"
     d="m 17.507382,8.9846172 h -2.70769 c -0.177221,1.85e-5 -0.338447,0.1612424 -0.338457,0.3384644 v 9.4769164 c 10e-6,0.177223 0.161236,0.338443 0.338457,0.338463 h 2.70769 c 0.177219,-2e-5 0.338447,-0.16124 0.338466,-0.338463 V 9.3230816 C 17.836508,9.1329832 17.65985,8.9887796 17.507382,8.9846172 Z M 17.168923,9.6615371 V 18.461547 H 15.138151 V 9.6615371 Z"
     fill-opacity="1"
     stroke="none"
     marker="none"
     visibility="visible"
     display="inline"
     overflow="visible"
     id="path2-0" />
</svg>
