<?xml version="1.0" encoding="UTF-8" standalone="no"?>
<svg
   xmlns:dc="http://purl.org/dc/elements/1.1/"
   xmlns:cc="http://creativecommons.org/ns#"
   xmlns:rdf="http://www.w3.org/1999/02/22-rdf-syntax-ns#"
   xmlns:svg="http://www.w3.org/2000/svg"
   xmlns="http://www.w3.org/2000/svg"
   xmlns:xlink="http://www.w3.org/1999/xlink"
   xmlns:sodipodi="http://sodipodi.sourceforge.net/DTD/sodipodi-0.dtd"
   xmlns:inkscape="http://www.inkscape.org/namespaces/inkscape"
   inkscape:version="1.0.2 (e86c870879, 2021-01-15)"
   sodipodi:docname="system-reboot.svg"
   id="svg6"
   version="1.1"
   viewBox="0 0 32 32">
  <metadata
     id="metadata10">
    <rdf:RDF>
      <cc:Work
         rdf:about="">
        <dc:format>image/svg+xml</dc:format>
        <dc:type
           rdf:resource="http://purl.org/dc/dcmitype/StillImage" />
      </cc:Work>
    </rdf:RDF>
  </metadata>
  <sodipodi:namedview
     inkscape:document-rotation="0"
     inkscape:current-layer="svg6"
     inkscape:window-maximized="1"
     inkscape:window-y="0"
     inkscape:window-x="0"
     inkscape:cy="15.412793"
     inkscape:cx="26.002227"
     inkscape:zoom="10.028541"
     showgrid="false"
     id="namedview8"
     inkscape:window-height="1007"
     inkscape:window-width="1920"
     inkscape:pageshadow="2"
     inkscape:pageopacity="0"
     guidetolerance="10"
     gridtolerance="10"
     objecttolerance="10"
     borderopacity="1"
     bordercolor="#666666"
     pagecolor="#ffffff">
    <inkscape:grid
       type="xygrid"
       id="grid871" />
  </sodipodi:namedview>
  <defs
     id="defs3051">
    <style
       id="current-color-scheme"
       type="text/css">
      .ColorScheme-Text {
        color:#eff0f1;
      }
      </style>
    <linearGradient
       inkscape:collect="always"
       xlink:href="#linearGradient1048"
       id="linearGradient1141"
       gradientUnits="userSpaceOnUse"
       x1="-4.4389915"
       y1="-79.303848"
       x2="-4.4704795"
       y2="-55.018158"
       gradientTransform="matrix(0.92307683,0,0,0.92307683,20.615378,77.84615)" />
    <linearGradient
       inkscape:collect="always"
       id="linearGradient1048">
      <stop
         style="stop-color:#00ffff;stop-opacity:1;"
         offset="0"
         id="stop1044" />
      <stop
         style="stop-color:#0055d4;stop-opacity:1"
         offset="1"
         id="stop1046" />
    </linearGradient>
    <linearGradient
       inkscape:collect="always"
       xlink:href="#linearGradient1048"
       id="linearGradient1135"
       x1="6.1999998"
       y1="14.435682"
       x2="21.352779"
       y2="14.435682"
       gradientUnits="userSpaceOnUse"
       gradientTransform="matrix(1.0021993,0,0,1.0021967,-0.09056497,-0.03515676)" />
    <linearGradient
       inkscape:collect="always"
       xlink:href="#linearGradient1048"
       id="linearGradient1143"
       x1="10.64826"
       y1="17.5474"
       x2="25.82799"
       y2="17.5474"
       gradientUnits="userSpaceOnUse"
       gradientTransform="matrix(1.0021993,0,0,1.0021967,-0.09056497,-0.03515676)" />
  </defs>
  <g
     id="g887" />
  <path
     style="color:#000000;overflow:visible;opacity:0;fill:#0000ff;fill-opacity:1;stroke-width:1.06667"
     id="path940"
     overflow="visible"
     d="m 60.626965,-17.595446 c -8.82859,0 -16,7.171413 -16,15.9999996 0,8.828587 7.17141,16.0000004 16,16.0000004 8.82752,0 16,-7.1714134 16,-16.0000004 0,-8.8275196 -7.17141,-15.9999996 -16,-15.9999996 z"
     inkscape:connector-curvature="0" />
  <path
     d="M 4,15.986435 C 4,15.344719 4.05576,14.703011 4.16735,14.061289 5.22728,7.5325502 11.391558,3.0963626 17.918444,4.1565808 c 3.15188,0.5022094 5.94115,2.2320466 7.809958,4.826807 1.868819,2.5947502 2.621915,5.7754232 2.119847,8.9281862 -1.059925,6.528741 -7.224207,10.992839 -13.751096,9.932614 -1.255175,-0.195301 -2.454555,-0.58591 -3.570262,-1.171822 C 10.247958,26.53286 9.996927,26.393358 9.745896,26.225958 9.355399,25.974847 9.21593,25.472639 9.46697,25.082029 c 0.25103,-0.39061 0.7531,-0.530112 1.143601,-0.279008 0.223133,0.1395 0.446275,0.251102 0.66942,0.390612 0.948353,0.50221 2.00828,0.837018 3.068202,1.00442 5.606424,0.892821 10.933925,-2.92956 11.826485,-8.565481 0.446294,-2.734264 -0.195236,-5.440616 -1.81302,-7.700567 C 22.743878,7.6999595 20.373002,6.2212274 17.639523,5.7748184 12.033096,4.8540943 6.70559,8.7043779 5.81302,14.312403 5.422526,16.71185 5.89664,19.167099 7.12398,21.231745 7.347121,21.622359 7.235553,22.152465 6.845051,22.37567 6.45455,22.598876 5.924598,22.487273 5.701451,22.096666 4.58575,20.255228 4,18.134779 4,15.986435 Z"
     id="path2-5"
     style="fill:url(#linearGradient1141);fill-opacity:1;stroke-width:0.278963" />
  <path
     d="M 15.128115,9.0230517 C 12.861476,9.342898 10.867184,10.717988 9.764445,12.719098 9.437759,13.318147 9.131582,14.169021 9.029402,14.795051 l -0.08847,0.524199 -1.408909,0.03418 -1.408926,0.03417 2.24614,2.246133 2.246127,2.246132 2.266646,-2.266633 2.2598,-2.259803 h -1.415752 c -1.620106,0 -1.524769,0.0478 -1.266082,-0.660215 0.551195,-1.476904 1.905779,-2.39579 3.553224,-2.40263 h 0.456192 V 11.74624 11.201532 h -0.490378 c -0.721372,0 -1.368251,0.163338 -2.062278,0.503686 -1.354588,0.673883 -2.252986,1.77661 -2.620669,3.212862 -0.07484,0.292519 -0.136007,0.748706 -0.136007,1.0279 v 0.496519 h 0.69437 0.70122 l -0.953058,0.952719 -0.953058,0.95306 -0.939395,-0.932571 -0.932553,-0.939384 0.612703,-0.02045 0.612706,-0.02057 v -0.46269 c 0,-4.063735 3.968406,-6.8815661 7.854805,-5.58132 0.782886,0.258683 1.374749,0.612711 2.110135,1.259243 l 0.59903,0.524196 0.37452,-0.374529 0.367696,-0.367689 -0.503702,-0.476355 C 19.872924,10.064624 18.865537,9.513104 17.578946,9.1864179 16.864064,9.00291 15.768161,8.9345655 15.128121,9.02307 Z"
     id="path8-3"
     style="fill:url(#linearGradient1135);fill-opacity:1;stroke-width:0.00341722" />
  <path
     d="m 19.035353,14.318698 c -1.225406,1.225064 -2.225974,2.246134 -2.225974,2.280297 0,0.02736 0.626376,0.04752 1.395252,0.04752 0.776051,0 1.39525,0.02736 1.39525,0.06117 0,0.210838 -0.313016,1.000564 -0.531033,1.340909 -0.694381,1.06856 -1.810441,1.660771 -3.12436,1.660771 h -0.564864 v 0.551181 0.558039 l 0.769208,-0.03412 c 0.878228,-0.04068 1.572258,-0.258677 2.259808,-0.701203 0.857722,-0.544367 1.681266,-1.531595 2.007959,-2.402636 0.18384,-0.469883 0.333522,-1.279756 0.340353,-1.769784 v -0.354046 h -0.646534 c -0.354031,0 -0.646544,-0.02057 -0.646544,-0.05433 0,-0.02736 0.415194,-0.462693 0.918885,-0.966388 l 0.918891,-0.918886 0.973225,0.973209 0.96639,0.966393 h -0.660206 -0.660204 l -0.03412,0.286016 c -0.02056,0.163352 -0.04752,0.53787 -0.06803,0.844051 -0.03415,0.585373 -0.286015,1.470083 -0.571693,2.035284 -0.959899,1.905779 -2.797673,3.083347 -4.982304,3.206019 -1.688112,0.09535 -3.165021,-0.442519 -4.369931,-1.59275 l -0.537539,-0.517365 -0.387849,0.395368 -0.388197,0.387848 0.496872,0.476369 c 0.871391,0.830377 1.92628,1.422573 3.137688,1.749257 0.898378,0.238185 2.395803,0.251861 3.27403,0.03414 2.770331,-0.701219 4.914297,-2.981171 5.377335,-5.724507 l 0.08167,-0.490023 h 1.422929 c 0.78289,0 1.422596,-0.02057 1.422596,-0.05433 0,-0.05434 -4.437943,-4.505923 -4.492266,-4.505923 -0.02058,0 -1.034744,1.00056 -2.266651,2.232462 z"
     id="path10-6"
     style="fill:url(#linearGradient1143);fill-opacity:1;stroke-width:0.00341722" />
</svg>
